<?xml version="1.0" encoding="UTF-8" standalone="no"?><!DOCTYPE svg PUBLIC "-//W3C//DTD SVG 1.1//EN" "http://www.w3.org/Graphics/SVG/1.1/DTD/svg11.dtd"><svg width="100%" height="100%" viewBox="0 0 2134 2134" version="1.1" xmlns="http://www.w3.org/2000/svg" xmlns:xlink="http://www.w3.org/1999/xlink" xml:space="preserve" xmlns:serif="http://www.serif.com/" style="fill-rule:evenodd;clip-rule:evenodd;stroke-linejoin:round;stroke-miterlimit:2;"><path d="M2127.17,1065.92c-291.542,-3.542 -526.959,-240.375 -526.959,-532.75c-292.375,-0 -529.166,-235.375 -532.75,-526.875c-113.583,-17.25 -229.708,1.25 -332.166,53.416l-288.042,146.75c-103.675,52.835 -187.993,137.182 -240.792,240.875l-146.25,287c-52.956,103.957 -71.66,222.059 -53.416,337.292l50.333,317.792c18.225,115.118 72.44,221.563 154.833,304l228.209,228.166c82.133,82.161 188.217,136.231 302.958,154.417l319.625,50.625c114.625,18.167 232.083,-0.458 335.542,-53.167l288.041,-146.708c103.666,-52.847 187.981,-137.191 240.792,-240.875l146.25,-287c52.333,-102.667 70.875,-219.083 53.792,-332.958Zm-1393.83,467.416c-73.625,0 -133.333,-59.708 -133.333,-133.333c0,-73.625 59.708,-133.333 133.333,-133.333c73.625,-0 133.334,59.708 133.334,133.333c-0,73.625 -59.709,133.333 -133.334,133.333Zm133.334,-666.666c-73.625,-0 -133.334,-59.709 -133.334,-133.334c0,-73.625 59.709,-133.333 133.334,-133.333c73.625,0 133.333,59.708 133.333,133.333c0,73.625 -59.708,133.334 -133.333,133.334Zm666.666,533.333c-73.625,0 -133.333,-59.708 -133.333,-133.333c0,-73.625 59.708,-133.334 133.333,-133.334c73.625,0 133.334,59.709 133.334,133.334c-0,73.625 -59.709,133.333 -133.334,133.333Z" style="fill:#d99d5e;fill-rule:nonzero;stroke:#000;stroke-width:4.17px;"/></svg>