<?xml version="1.0" encoding="UTF-8" standalone="no"?><!DOCTYPE svg PUBLIC "-//W3C//DTD SVG 1.1//EN" "http://www.w3.org/Graphics/SVG/1.1/DTD/svg11.dtd"><svg width="100%" height="100%" viewBox="0 0 3820 1582" version="1.1" xmlns="http://www.w3.org/2000/svg" xmlns:xlink="http://www.w3.org/1999/xlink" xml:space="preserve" xmlns:serif="http://www.serif.com/" style="fill-rule:evenodd;clip-rule:evenodd;stroke-linecap:round;stroke-linejoin:round;stroke-miterlimit:1.5;"><path d="M1120.04,1551.26l60.312,1.128l-9.019,-62.003c-22.521,17.58 -40.797,37.282 -51.293,60.875Z" style="fill:#d38559;stroke:#000;stroke-width:3.33px;"/><path d="M1183.17,1453.75c-16.266,49.186 -17.061,82.889 0.136,100.408c11.908,13.112 48.647,15.741 108.086,3.304l-108.222,-103.712Z" style="fill:#f9ffff;stroke:#000;stroke-width:3.33px;"/><path d="M1650.06,1183.46c-48.078,-151.905 -67.181,-306.233 -107.853,-461.841c-17.855,-68.309 -39.564,-137.082 -65.738,-205.153c-24.606,-63.991 -42.536,-131.031 -39.762,-203.561c20.805,12.711 42.671,22.236 66.138,26.956c-0.834,-41.506 -14.676,-77.567 -46.628,-106.047c-6.126,-5.43 -14.327,-7.895 -22.43,-6.742c-48.456,7.149 -92.014,32.236 -121.59,74.01c-47.971,-17.981 -88.502,-20.364 -131.146,0.717c-29.51,-38.465 -76.691,-65.709 -126.881,-71.985c-9.14,-1.072 -18.353,1.282 -25.86,6.607c-31.226,21.944 -43.029,55.857 -46.856,94.665c-0.141,1.466 0.433,2.91 1.543,3.879c1.11,0.968 2.619,1.342 4.052,1.004c32.531,-7.858 61.722,-23.063 86.31,-48.393c-0,-0 -18.478,17.985 -25.574,24.892c-1.768,1.72 -2.871,4.008 -3.115,6.462c-3.592,36.59 -4.815,73.903 -10.066,110.101c-8.111,55.915 -19.726,112.039 -30.612,167.287c-26.765,135.836 -57.723,269.607 -84.044,405.481l-2.694,139.856c215.058,213.256 460.177,221.389 732.806,41.805Z" style="fill:#d38559;stroke:#000;stroke-width:3.33px;"/><path d="M1192.94,1137.58c108.527,-33.234 138.543,18.015 108.786,133.587l-75.53,19.728l-33.256,-153.315Z" style="fill:#fff;stroke:#000;stroke-width:3.33px;"/><path d="M1282.64,294.427c9.285,1.985 20.661,4.677 29.034,8.667c11.496,5.478 19.14,14.371 28.412,22.047c12.316,10.194 24.705,23.357 33.51,36.171c17.052,24.82 27.578,51.804 43.638,79.441c10.356,17.821 16.304,36.772 25.308,55.46c0.495,1.03 1.458,1.935 2.227,3.164c4.122,6.59 15.705,16.562 25.29,19.624c1.929,0.616 3.548,-0.81 5.101,0.291c1.408,0.998 1.68,3.408 2.333,4.482l11.755,31.82l8.229,22.763l8.216,25.819l12.966,40.537c-32.026,75.823 -139.99,75.654 -275.301,46.144c-57.473,19.779 -109.434,30.574 -151.38,27.948c-42.398,-2.653 -73.948,-22.962 -100.804,-48.042l28.935,-147.91c7.486,3.162 22.47,-17.18 40.877,-52.027c11.29,-21.375 18.676,-51.89 35.548,-77.582c10.905,-16.604 25.189,-34.907 36.184,-52.782c14.864,-24.164 57.672,-40.799 71.549,-46.434c10.75,22.285 10.386,55.057 21.887,63.696c30.052,22.572 46.678,-1.488 56.486,-63.297Z" style="fill:#fae64f;"/><path d="M989.028,670.255c52.033,57.132 125.595,63.134 216.073,28.959c12.275,-4.615 25.449,-6.341 38.499,-5.043c12.412,0.895 24.943,0.603 35.931,2.593c119.063,21.562 201.944,20.886 235.309,-42.439l5.622,-9.632c43.345,161.134 78.582,322.943 101.119,485.811l-724.342,18.206c22.865,-155.619 55.051,-315.899 91.789,-478.455Z" style="fill:#f9ffff;stroke:#000;stroke-width:3.33px;"/><path d="M1107.22,918.532c78.084,105.392 126.65,228.758 152.158,361.105c19.977,119.371 -17.191,206.66 -127.513,252.881c-21.669,41.824 -54.693,51.331 -106.081,8.572c-29.248,16.351 -60.281,23.867 -89.386,25.685c-36.334,2.269 -68.685,-5.715 -79.487,-32.328c-12.478,2.658 -8.932,12.742 -21.892,14.85c-44.688,7.271 -92.246,5.371 -142.981,6.42c-95.086,1.967 -197.026,1.371 -281.848,-0l165.752,-493.909l219.329,41.857c8.179,-11.864 13.611,-26.093 21.908,-38.204c15.708,-22.928 35.381,-42.969 52.139,-66.334c17.467,-24.355 28.382,-50.674 45.434,-76.82l26.755,43.676l22.697,28.849c32.109,-3.018 63.583,-3.177 94.193,0.547l48.823,-76.847Z" style="fill:#2e3147;stroke:#000;stroke-width:3.33px;"/><path d="M1244.49,480.429c23.574,5.107 27.184,12.056 37.285,22.319c14.843,15.081 24.032,36.038 30.748,54.688c20.393,56.636 9.057,115.743 -68.524,114.718c-77.582,1.025 -88.918,-58.082 -68.525,-114.718c6.716,-18.65 15.905,-39.607 30.748,-54.688c10.091,-10.252 13.703,-17.197 37.211,-22.303c0.074,-0.015 0.149,-0.023 0.224,-0.025c0.023,-0.005 0.039,-0.006 0.039,-0.006l0.264,-0.013l0.317,0.011l0.213,0.017Z" style="fill:#f9ffff;"/><ellipse cx="1330.14" cy="419.711" rx="17.045" ry="17.519"/><ellipse cx="1239.95" cy="536.659" rx="28.645" ry="20.833"/><path d="M1239.71,554.178c1.419,4.119 0.813,8.601 1.019,12.426c0.539,10.033 -0.34,18.469 3.171,25.839c5.902,12.388 20.401,20.527 27.02,24.908c11.997,7.939 21.779,1.962 17.558,-20.087" style="fill:none;stroke:#000;stroke-width:3.33px;"/><ellipse cx="1149.75" cy="422.552" rx="17.045" ry="17.519"/><path d="M1047.28,1080c25.2,0.956 43.368,-3.454 54.588,-13.167c11.22,-9.713 15.49,-24.73 12.893,-44.987c-56.688,-4.707 -75.166,17.507 -67.481,58.154Z" style="fill:#ffff52;stroke:#000;stroke-width:3.33px;"/><path d="M1078.7,1023.34c9.48,16.074 11.174,33.704 6.024,52.704c-7.422,-16.952 -10.307,-34.289 -6.024,-52.704Z" style="stroke:#000;stroke-width:3.33px;"/><path d="M971.199,1081.64c-25.199,0.956 -43.368,-3.454 -54.588,-13.167c-11.22,-9.713 -15.49,-24.73 -12.893,-44.987c56.688,-4.707 75.166,17.507 67.481,58.154Z" style="fill:#ffff52;stroke:#000;stroke-width:3.33px;"/><path d="M936.061,1024.99c9.48,16.073 11.174,33.704 6.024,52.704c-7.422,-16.952 -10.307,-34.289 -6.024,-52.704Z" style="stroke:#000;stroke-width:3.33px;"/><path d="M1745.72,1454.21c-45.933,19.86 -54.823,52.026 -35.364,74.956c7.077,8.34 16.334,10.228 31.144,17.263c5.255,-30.465 10.423,-60.936 4.22,-92.219Z" style="fill:#fdfdeb;stroke:#000;stroke-width:3.33px;"/><path d="M2008.9,1465.02c-13.248,5.712 -27.202,2.62 -35.935,8.075c-25.832,16.134 -30.779,48.062 -11.369,64.191c5.267,4.377 13.181,6.638 22.21,6.693c4.323,0.026 8.023,0.112 12.637,-0.797" style="fill:#f7fafb;stroke:#000;stroke-width:3.33px;"/><path d="M1891.59,1305.34c2.266,144.217 -33.584,208.44 -84.383,232.055l-3.014,-230.849l87.397,-1.206Z" style="fill:#fdfdeb;stroke:#000;stroke-width:3.33px;"/><path d="M2007.58,1377.75l3.376,85.83c-8.744,6.331 -14.041,7.131 -20.135,12.694c-38.349,35.003 -18.038,64.342 21.773,70.922c23.398,3.868 47.635,-5.814 86.434,-11.606c34.911,-84.461 -18.161,-121.038 -91.448,-157.84Z" style="fill:#fdfdeb;stroke:#000;stroke-width:3.33px;"/><path d="M2214.35,1387.02c20.458,6.918 34.165,16.536 42.279,28.392l-8.332,-77.768l-36.107,2.778l2.16,46.598Z" style="fill:#fff;stroke:#000;stroke-width:3.33px;"/><path id="kot-z-czerwoną-plamą" serif:id="kot z czerwoną plamą" d="M2025.04,893.915l20.252,75.222l11.573,279.912c37.922,71.284 64.836,149.173 71.895,238.975l-20.831,56.127c-37.482,9.156 -64.196,-17.818 -37.174,-40.895c1.463,-1.249 3.484,-2.326 5.748,-3.065c6.131,-1.999 12.375,-0.588 18.699,-6.352c1.071,-0.933 1.535,-2.384 1.203,-3.764c-0.809,-6.011 -0.624,-18.137 -2.65,-29.58c-2.28,-12.873 -4.402,-25.627 -12,-32.903c-22.624,-21.66 -52.841,-34.264 -78.945,-52.65c-29.584,-20.837 -53.988,-48.39 -70.785,-79.024c-37.718,11.466 -81.203,14.644 -129.034,11.573c9.042,40.608 10.599,87.599 13.911,129.349c4.795,60.444 3.528,109.901 -47.472,113.097c-12.147,-2.088 -20.36,3.018 -28.367,-2.474c-24.277,-16.652 -28.884,-53.693 7.537,-64.068c-5.155,-67.8 -34.184,-119.683 -74.065,-164.331c-9.065,4.56 -18.131,5.855 -27.196,4.629c32.338,109.128 64.734,218.31 -16.201,223.93c-14.075,-1.129 -25.941,-1.668 -32.998,-7.262c-20.933,-16.594 -10.847,-49.473 19.689,-50.023c-28.247,-103.13 -77.066,-163.246 -126.72,-221.615l-42.529,-69.002l-49.473,-165.922c-10.838,-57.921 -8.743,-139.427 2.999,-205.378c7.363,-41.357 14.131,-77.914 37.529,-94.608c18.353,-13.094 34.354,56.462 43.952,54.068l70.593,-0c1.615,-18.965 9.282,-37.365 13.179,-48.181c20.366,-56.528 65.747,8.253 131.478,111.83l326.203,42.385Z" style="fill:#fff;stroke:#000;stroke-width:3.33px;"/><path d="M1515.37,789.713c-3.864,7.928 -5.049,16.613 -10.355,23.068c-23.13,28.139 -62.686,41.212 -105.637,46.16c0.621,-3.381 0.893,-6.578 1.469,-9.907c4.623,-26.698 8.347,-51.687 14.01,-71.019c6.394,-21.83 16.168,-37.504 24.418,-42.254c9.398,-5.412 17.517,3.232 28.738,30.975c2.355,5.822 5.629,14.782 11.617,20.556c1.094,0.991 2.508,1.556 3.984,1.592c7.451,0.238 31.756,0.829 31.756,0.829Z" style="fill:#a6b7d1;"/><path d="M1688.33,838.405c-85.988,19.226 -145.171,8.463 -165.733,-48.847c-0,-0 22.819,0.186 30.572,0.249c1.433,0.011 2.641,-1.065 2.797,-2.49c1.743,-15.458 6.478,-28.74 9.565,-38.657c7.449,-23.931 16.566,-31.486 31.228,-25.681c4.252,1.684 8.762,5.411 12.943,9.224c0.707,0.644 1.664,1.397 2.299,2.005c14.227,13.61 31.796,36.955 52.374,67.317c7.698,11.359 15.121,23.7 23.955,36.88Z" style="fill:#d21e48;"/><path d="M1812.82,956.264c40.303,-13.941 75.864,-3.932 110.666,25.164c7.264,3.478 19.155,5.073 24.472,9.836c9.66,8.655 10.184,21.903 10.817,34.374c2.818,55.517 -53.999,121.478 -110.311,89.866c-16.015,1.634 -24.069,15.73 -35.844,14.586c-47.704,-4.633 -79.534,-61.32 -55.686,-104.325c5.978,-10.78 12.073,-10.805 18.185,-23.466c-0.799,-22.863 14.228,-36.825 37.701,-46.035Z" style="fill:#d21e48;stroke:#d21e48;stroke-width:3.33px;"/><path d="M1509.55,889.018c8.197,14.948 16.954,15.912 26.386,-0" style="fill:none;stroke:#000;stroke-width:3.33px;"/><path d="M1523.28,900.551c-1.462,19.67 1.458,33.761 13.576,36.146" style="fill:none;stroke:#000;stroke-width:3.33px;"/><path d="M1517.42,937.16c4.141,-2.258 6.88,-5.566 8.432,-9.765" style="fill:none;stroke:#000;stroke-width:3.33px;"/><path d="M1647.33,1323.69c-23.633,1.891 -45.54,-3.122 -64.351,-20.521" style="fill:none;stroke:#000;stroke-width:3.33px;"/><path d="M1932.02,1295.92c44.175,-6.658 85.487,-23.334 124.84,-46.869" style="fill:none;stroke:#000;stroke-width:3.33px;"/><path d="M2256.41,1479.95c26.651,-5.952 54.722,-4.518 85.323,10.073c13.78,45.196 -1.931,64.32 -42.662,61.325c-43.439,2.569 -64.01,-15.5 -42.661,-71.398Z" style="fill:#fff;stroke:#000;stroke-width:3.33px;"/><path d="M2128.22,1479.65c26.153,6.354 49.608,14.426 73.819,25.311c-4.267,42.237 -32.03,56.251 -85.674,42.94c-5.822,-1.445 -9.099,-4.958 -11.387,-9.184c-13.537,-24.997 0.271,-41.75 24.117,-47.522l-0.875,-11.545Z" style="fill:#fff;stroke:#000;stroke-width:3.33px;"/><path d="M2939.68,483.237l-123.403,446.45c-22.911,-42.688 -33.812,-97.613 -35.763,-152.878l-28.843,1.593l-26.57,9.018l-721.159,-59.343c-0,0 29.462,-346.509 35.196,-413.936c0.605,-7.135 -0.671,-14.304 -3.703,-20.792c-3.656,-8.092 -6.038,-16.427 -9.894,-23.814c-13.081,-25.061 -25.903,-45.367 -31.497,-66.059c-7,-25.89 -4.393,-50.963 3.61,-70.404c-72.282,30.714 -84.446,10.733 -45.146,-48.928c9.469,-14.373 14.187,-26.605 68.726,-46.572c62.536,-45.428 129.95,-48.575 202.789,-4.716c20.671,11.099 27.445,11.819 38.128,18.239c5.61,3.371 17.072,11.447 21.871,16.649c32.572,35.316 53.555,68.357 25.655,79.646c-6.59,2.666 -20.907,-12.945 -33.778,-16.676c0,-0 0.002,2.858 0.005,7.171c0.019,29.246 -7.674,57.98 -22.302,83.305c-7.244,11.952 -14.744,23.908 -22.777,35.719c-4.617,6.742 -8.132,14.175 -10.415,22.02c-1.939,6.533 -4.189,14.266 -5.605,19.132c-1.18,4.053 -2.031,8.195 -2.544,12.386c-6.829,57.092 15.204,119.961 69.949,189.373c0.012,0.018 0.017,0.04 0.015,0.062c0.4,1.228 12.082,19.447 29.293,31.882c14.437,10.431 34.846,15.045 43.528,15.028c39.064,-0.081 90.44,-6.676 122.054,-19.429c152.729,-61.612 299.595,-81.418 462.58,-44.126Z" style="fill:#f9fbfd;stroke:#000;stroke-width:3.33px;"/><path d="M2020.05,41.838c-15.155,8.075 -32.007,12.263 -42.282,19.63c-2.077,1.49 -6.072,5.276 -7.786,6.824c-2.543,2.295 -3.662,3.437 -5.731,5.919c-21.045,25.252 -32.826,51.558 -28.613,64.37c0.459,1.396 1.864,0.946 2.707,2.048c2.159,2.823 7.581,3.323 15.248,3.091c9.439,-0.285 23.253,-7.312 43.493,-14.63l22.964,-87.252Z" style="fill:#e2d7bf;stroke:#e2d7bf;stroke-width:3.81px;"/><path d="M2280.93,73.06c4.955,0.641 7.478,6.095 7.638,6.234c8.418,7.303 8.7,9.864 14.192,16.38c13.539,16.062 16.344,26.927 15.764,39.015c-0.075,1.565 -7.091,10.016 -11.102,9.41c-1.042,-0.157 -4.222,-2.92 -6.04,-3.5c-2.708,-0.864 -0.392,0.627 -3.728,-2.05c-5.302,-4.255 -11.849,-7.686 -21.871,-11.719l-44.703,-86.14c14.768,6.035 29.832,13.099 39.872,20.738c3.651,2.779 8.442,7.315 11.703,10.06c0.797,0.671 -0.313,1.213 -1.725,1.572Z" style="fill:#e2d7bf;stroke:#e2d7bf;stroke-width:3.81px;"/><path d="M2152.1,234.763c1.921,41.25 -8.936,64.376 -20.325,65.627c-11.39,1.251 -23.313,-19.374 -23.522,-65.627c3.844,-3.514 9.041,-4.15 12.569,-6.18c3.832,-2.206 7.086,-5.69 9.953,-4.804c3.153,0.974 5.901,6.542 9.857,8.836c2.868,1.663 8.13,-1.146 11.468,2.148Z" style="fill:#f5c9f7;fill-opacity:0.99;"/><path d="M2131.28,248.088c-3.585,0.889 -3.936,32.703 -0.569,32.091" style="fill:#ea99eb;stroke:#ea99eb;stroke-width:3.81px;"/><path d="M2130.08,220.801c-3.948,9.261 -25.721,19.164 -33.615,6.836" style="fill:none;stroke:#000;stroke-width:3.33px;"/><ellipse cx="2128.91" cy="181.748" rx="26.4" ry="17.721" style="fill:#8f838e;stroke:#8f838e;stroke-width:3.33px;"/><ellipse cx="2057" cy="118.971" rx="24.838" ry="24.209" style="fill:#f9fbfd;stroke:#000;stroke-width:3.33px;"/><ellipse cx="2059.62" cy="121.182" rx="12.704" ry="11.957" style="fill:#0d0d0d;stroke:#000;stroke-width:3.33px;"/><ellipse cx="2203.49" cy="119.776" rx="24.838" ry="24.209" style="fill:#f9fbfd;stroke:#000;stroke-width:3.33px;"/><ellipse cx="2206.46" cy="122.105" rx="13.06" ry="12.075" style="fill:#0d0d0d;stroke:#000;stroke-width:3.33px;"/><path d="M2737.37,1054.94c-7.349,-32.924 -9.73,-66.261 -4.716,-100.216c10.402,-93.08 -5.293,-178.484 -48.339,-255.845c0.627,-7.944 -4.449,-13.938 -5.778,-21.837c-2.719,-16.169 -5.045,-31.748 -4.804,-50.055c1.057,-80.351 -16.482,-155.802 -51.774,-215.749c-29.087,-49.409 -72.653,-87.075 -106.685,-118.832c-18.914,-17.65 -32.398,-28.683 -50.448,-37.955c-15.371,-7.896 -33.537,-17.786 -51.295,-19.256c-27.03,-2.238 -25.38,5.127 -16.432,23.682c0.884,1.832 4.342,6.667 7.742,10.44c46.126,51.189 171.031,192.198 166.451,309.265c-0.958,24.482 3.595,69.621 -4.878,81.39c-88.822,-6.845 -180.417,6.175 -273.051,18.033c-21.298,2.726 -42.769,3.629 -64.204,4.413c-6.659,0.244 -13.012,0.761 -19.676,1.558c-91.963,10.898 -156.926,-21.033 -184.975,-82.974c-13.073,-28.867 -7.724,-64.011 -12.22,-104.814c-2.841,-25.782 -14.689,-43.615 -14.157,-74.376c76.059,78.163 125.575,57.479 105.03,4.136c-4.442,-11.533 -15.501,-25.103 -30.659,-36.041c-14.169,-10.224 -32.244,-24.988 -54.569,-36.141c-5.787,-2.891 -13.976,-6.976 -23.235,-9.329c-4.87,-1.237 -8.799,-3.198 -14.066,-4.715c-3.164,-0.911 -7.601,-0.675 -10.797,-2.798c-21.944,-13.844 -39.828,-25.651 -63.162,-31.919c-68.648,-18.441 -142.884,-2.811 -177.356,40.172c-10.719,6.123 -16.238,-0.627 -27.078,5.234c-18.155,9.817 -53.415,30.038 -64.639,41.771c-47.098,49.231 -34.437,95.609 0.256,90.638c18.657,-2.673 42.106,-33.337 83.208,-59.829c-39.125,89.869 -25.887,171.639 -19.418,249.598c1.855,22.362 -5.05,46.717 -6.074,68.709c-1.67,35.886 1.071,67.909 2.731,102.78c0.261,5.671 1.963,11.182 4.944,16.013c14.69,23.517 34.151,42.1 61.811,52.243c13.793,5.054 28.479,7.208 43.142,6.329c34.969,-2.149 69.883,-6.985 101.249,-17.105c16.697,-5.422 34.176,-8.042 51.728,-7.755c27.367,0.191 64.071,0.792 64.071,0.792l712.122,160.345Z" style="fill:#fdfdeb;stroke:#000;stroke-width:3.33px;"/><path d="M1730.27,346.74c-4.485,3.769 -13.768,2.606 -18.858,3.181c-6.01,0.679 -12.56,3.235 -17.663,6.764c-12.398,8.574 -23.88,14.881 -34.613,21.734c-9.623,6.144 -17.34,12.33 -23.588,18.744c-10.353,10.629 -16.423,21.788 -20.88,31.454c-13.189,28.604 -6.013,55.128 24.123,52.989c3.963,-0.281 7.028,-2.669 10.745,-5.123c6.354,-4.195 13.875,-9.944 21.773,-16.864c5.075,-4.447 15.089,-13.027 21.231,-17.482c1.465,-1.063 2.605,-2.542 4.277,-3.704c1.588,-1.104 2.904,-2.535 4.511,-3.609c1.101,-0.735 2.378,-1.601 3.195,-2.437c0.82,-0.839 2.18,-1.412 3.038,-2.065c2.909,-2.218 5.324,-3.936 8.182,-5.784c1.664,-1.076 3.786,-1.99 5.434,-3.612c-4.214,-25.569 -1.99,-50.727 9.093,-74.186Z" style="fill:#f8f7aa;"/><path d="M1977.99,340.774c4.313,1.864 17.489,5.038 22.753,7.4c4.972,2.231 13.005,4.692 18.495,7.994c13.089,7.872 23.788,14.232 33.872,21.735c9.16,6.814 23.274,15.791 29.522,22.205c10.353,10.628 13.76,14.492 17.99,24.259c12.772,29.487 3.515,51.353 -25.383,46.601c-3.921,-0.644 -17.4,-5.1 -21.224,-7.507c-5.361,-3.373 -5.218,-2.536 -14.175,-8.457c-3.334,-2.204 -8.153,-5.609 -12.632,-9.113c-2.733,-2.138 -5.095,-4.435 -7.626,-6.164c-1.496,-1.022 -3.708,-3.515 -5.38,-4.677c-1.588,-1.104 -2.58,-2.729 -4.187,-3.803c-1.1,-0.736 -2.119,-1.991 -2.936,-2.827c-0.819,-0.838 -1.337,-1.476 -2.194,-2.13c-2.91,-2.217 -3.795,-5.383 -7.145,-5.977c-0.593,-0.105 -0.774,-0.763 -0.874,-1.045c-0.23,-0.655 -0.167,-1.22 0.156,-2.24c0.117,-0.372 0.332,-0.875 0.471,-1.373c0.063,-0.224 0.246,-0.475 0.162,-0.665c0.695,-25.184 -7.378,-50.295 -19.665,-74.216Z" style="fill:#f8f7aa;"/><path d="M2807.18,1392.19c2.769,-113.73 -17.901,-212.888 -62.78,-296.998l0.424,75.733l-23.656,123.278c-4.522,56.578 -6.104,112.176 -8.015,167.884c7.923,5.246 17.861,8.654 29.476,11.79l64.551,-81.687Z" style="fill:#fdfdeb;stroke:#000;stroke-width:3.33px;"/><path d="M1862.43,526.964l1.159,40.179c36.817,29.539 54.175,10.929 42.111,-15.84" style="fill:none;stroke:#000;stroke-width:3.33px;"/><ellipse cx="1863.04" cy="505.942" rx="27.919" ry="19.996" style="fill:#0d0d0d;stroke:#000;stroke-width:3.33px;"/><path d="M1863.59,567.143c-33.855,22.669 -50.656,17.092 -42.111,-14.681" style="fill:none;stroke:#000;stroke-width:3.33px;"/><ellipse cx="1791.35" cy="421.053" rx="11.318" ry="10.564" style="fill:#0d0d0d;stroke:#000;stroke-width:3.33px;"/><ellipse cx="1929.44" cy="418.035" rx="11.318" ry="10.564" style="fill:#0d0d0d;stroke:#000;stroke-width:3.33px;"/><ellipse cx="2516.16" cy="959.671" rx="9.403" ry="7.595" style="fill:#080808;fill-opacity:0.43;"/><circle cx="2514.72" cy="962.202" r="7.233" style="fill:#080808;fill-opacity:0.43;"/><path d="M3409.53,745.625l-44.299,-128.765c-0,0 -18.209,-71.841 -22.109,-87.229c-0.487,-1.918 -0.898,-3.855 -1.235,-5.806c-1.49,-8.641 -6.031,-34.971 -10.246,-59.407c-5.471,-31.723 -17.405,-61.982 -35.06,-88.9c-30.979,-47.23 -77.793,-118.601 -77.793,-118.601c35.943,64.065 76.965,117.256 119.668,139.48c4.555,2.19 10.026,0.731 12.886,-3.437c24.311,-35.256 33.555,-66.533 32.562,-94.258c-1.733,-48.391 -37.45,-85.959 -98.135,-115.042c-5.432,-2.605 -11.011,-4.892 -16.709,-6.849c-165.276,-56.556 -298.568,-43.929 -389.785,59.674c-2.035,2.32 -4.218,4.506 -6.536,6.544c-16.501,14.619 -33.139,31.575 -45.748,45.075c-18.461,19.764 -31.433,34.046 -41.908,52.303c-43.532,75.872 -18.725,143.557 57.766,190.805c5.733,3.522 13.17,2.403 17.611,-2.652c6.004,-6.784 13.363,-15.159 13.363,-15.159c-0.576,29.103 3.102,56.422 19.257,78.509c-10.847,43.969 -11.722,88.409 -23.685,131.96c-40.361,146.921 -69.087,285.096 -87.629,427.697c-1.662,12.936 -0.24,26.082 4.149,38.363c18.879,53.877 24.705,122.654 22.789,200.335l5.801,100.129c123.046,19.563 234.575,64.174 374.613,51.877c0,-0 88.797,-2.383 166.077,-4.457c68.751,-1.845 130.519,-42.487 159.423,-104.894c16.832,-36.346 31.708,-68.466 31.708,-68.466l-136.796,-618.829Z" style="fill:#383b36;"/><path d="M2369.59,1340.44c0.289,2.308 18.218,4.534 36.533,7.623c7.588,1.28 15.722,-2.564 21.934,2.171c4.066,3.099 3.443,14.509 6.31,20.914c6.273,14.015 9.252,20.682 20.066,19.548c56.387,-5.908 175.604,50.907 225.955,12.183c13.261,-10.199 37.259,-14.813 35.712,-34.753c-2.877,-37.086 9.741,-89.994 10.624,-97.581c4.018,-34.545 15.782,-65.88 17.327,-96.329c5.213,-102.756 -25.754,-182.508 -114.076,-221.64l-226.6,10.893l-62.716,-51.578c4.463,-38.142 -5.09,-73.481 -25.315,-106.685c-18.909,-131.291 -53.213,-151.513 -106.685,-33.452c-26.563,-6.26 -51.852,-5.511 -75.946,1.808c-53.312,-123.997 -81.452,-93.146 -94.027,33.452c-20.608,57.246 -19.398,112.814 8.137,166.357c-0,-0 -8.842,105.279 -12.264,146.029c-0.976,11.607 -0.685,23.286 0.868,34.831c4.314,31.772 11.002,61.821 20.463,89.89c1.712,4.995 3.824,9.843 6.316,14.498c4.988,9.45 14.613,27.43 21.937,41.111c6.393,11.943 11.08,24.723 13.925,37.968c10.444,48.47 21.423,95.081 32.837,140.167c25.976,4.067 48.284,14.735 71.1,27.018c8.529,-53.412 11.245,-109.432 10.27,-162.845c14.269,1.021 25.417,-0.633 35.26,-3.406l11.1,71.513l-1.701,68.563c31.741,-3.259 62.368,-2.421 84.629,10.911l28.027,-149.179Z" style="stroke:#000;stroke-width:3.33px;"/><path d="M2173.52,794.784c0.379,0.116 0.693,0.382 0.87,0.737c10.13,20.217 18.765,40 31.715,64.001c0.685,1.267 1.55,2.427 2.569,3.444c31.852,31.965 34.635,73.844 17.88,122.026c-1.1,3.145 -0.959,6.591 0.395,9.636c13.431,30.384 25.916,64.124 34.479,101.81c0.847,3.756 2.363,7.33 4.475,10.549c27.071,41.487 35.445,83.491 24.442,121.951c-5.787,20.23 -23.543,35.899 -33.285,57.297c-6.235,13.697 0.24,33.419 -7.674,47.371c-12.922,8.362 -25.845,10.671 -38.768,5.208c-78.838,-59.335 -110.838,-127.663 -75.164,-208.984c2.46,-5.591 2.908,-11.862 1.266,-17.745c-10.474,-38.171 -9.436,-76.754 0.963,-115.672c1.45,-5.361 1.173,-11.042 -0.792,-16.236c-18.977,-50.333 -18.435,-90.909 14.492,-115.294c2.396,-1.756 4.16,-4.24 5.03,-7.081c10.652,-34.83 12.378,-62.668 17.107,-63.018Z" style="fill:#fff;stroke:#000;stroke-width:3.81px;"/><path d="M2166.36,875.483c9.819,15.579 18.449,13.307 26.293,-0.741c-2.779,6.308 -6.823,10.845 -13.647,11.488l2.537,27.396c5.006,-0.909 7.827,1.304 9.999,4.444" style="fill:none;stroke:#000;stroke-width:3.33px;"/><path d="M2181.54,913.626c-4.673,-0.821 -8.269,1.053 -10.515,6.299" style="fill:none;stroke:#000;stroke-width:3.33px;"/><ellipse cx="2112.01" cy="845.874" rx="21.134" ry="19.95" style="fill:#e3d458;stroke:#000;stroke-width:3.33px;"/><ellipse cx="2112.34" cy="846.689" rx="12.984" ry="11.809" style="fill:#0d0d0d;stroke:#000;stroke-width:3.33px;"/><ellipse cx="2233.47" cy="838.097" rx="21.134" ry="19.95" style="fill:#e3d458;stroke:#000;stroke-width:3.33px;"/><ellipse cx="2233.8" cy="838.912" rx="12.984" ry="11.809" style="fill:#0d0d0d;stroke:#000;stroke-width:3.33px;"/><path d="M2976.84,887.497c-14.581,-9.563 -20.311,-28.137 -13.652,-44.253c6.185,-15.011 14.953,-21.38 26.663,-17.848c16.282,4.638 26.867,20.315 25.085,37.15c-3.345,32.766 -16.836,39.099 -38.096,24.951Z" style="fill:#e34e4e;stroke:#e34e4e;stroke-width:3.13px;"/><path d="M3144.42,409.916l52.642,113.974c19.34,-10.572 41.772,-17.575 52.466,-27.548c15.692,-14.634 14.345,-31.739 13.717,-44.042c-0.799,-15.651 -10.242,-26.084 -42.211,-34.397c-9.777,-2.542 -24.871,0.721 -36.895,-1.671c-24.311,-4.838 -43.742,-8.722 -39.719,-6.316Z" style="fill:#e34e4e;stroke:#e34e4e;stroke-width:3.13px;"/><path d="M3028.72,457.752l9.018,101.418c-21.201,6.028 -42.102,16.769 -56.719,17.16c-21.45,0.574 -32.486,-12.563 -40.667,-21.773c-10.407,-11.717 -10.993,-25.776 5.964,-54.123c5.186,-8.67 27.234,-18.127 34.127,-28.265c4.236,-6.231 11.545,-8.807 18.132,-11.499c15.086,-6.166 30.967,-6.076 30.145,-2.918Z" style="fill:#e34e4e;stroke:#e34e4e;stroke-width:3.12px;"/><path d="M3109.13,242.388c-5.976,3.879 -10.341,9.796 -12.281,16.652c-5.891,20.78 2.963,27.564 25.427,21.417c13.142,-3.027 22.413,-14.782 22.296,-28.267c0.987,-21.852 -9.708,-26.689 -35.442,-9.802Z" style="fill:#e34e4e;stroke:#e34e4e;stroke-width:3.13px;"/><path d="M2945.68,315.085c4.968,5.332 11.74,8.628 19.001,9.248c20.477,1.784 27.649,-5.509 22.863,-22.297c-2.921,-12.954 -14.351,-22.21 -27.629,-22.375c-26.961,-1.317 -37.323,10.996 -14.235,35.424Z" style="fill:#e34e4e;stroke:#e34e4e;stroke-width:3.13px;"/><path d="M3040.72,147.42c22.51,25.9 31.032,90.522 43.182,163.308c3.018,18.076 11.636,35.39 14.488,54.213c54.945,17.999 81.38,82.114 98.095,161.955c17.803,14.378 36.686,27.531 50.13,50.878c2.763,4.798 2.129,11.856 1.753,13.222c-0.378,1.376 0.464,4.315 0.766,5.376c0.7,2.456 1.977,2.541 3.311,4.918c12.343,19.196 51.977,36.09 57.921,51.73c18.759,49.354 -22.581,83.803 -46.729,118.783l-144.838,223.84c-16.975,-20.404 -27.859,-43.374 -43.681,-67.383c-8.089,-12.274 -26.615,-22.932 -34.365,-37.221c-19.832,-36.569 -13.455,-75.917 -13.465,-106.727c-60.086,-46.986 -72.812,-93.332 -28.967,-138.913c-6.63,-36.106 5.796,-63.875 44.109,-80.319c-40.281,-45.525 -47.198,-114.479 -7.709,-173.958l9.026,-11.039c-35.784,-94.597 -63.21,-176.491 -63.003,-216.381c14.803,-6.938 36.737,-12.125 59.976,-16.282Z" style="fill:#edf2ee;stroke:#000;stroke-width:3.13px;"/><path d="M3093.31,457.71c10.158,18.427 4.505,36.119 15.729,46.268c6.791,6.141 14.632,13.356 22.183,15.996c18.555,6.488 30.916,1.593 41.086,-10.635c6.478,-7.789 5.742,-24.399 -4.167,-40.505" style="fill:none;stroke:#000;stroke-width:3.13px;"/><path d="M3102.33,491.951c-4.436,38.58 -23.899,58.609 -47.741,52.609c-4.191,-1.055 -12.392,-5.441 -16.585,-12.32c-1.239,-2.031 -2.522,-4.674 -2.757,-7.021c-0.854,-8.502 -1.241,-16.443 -0.586,-20.318" style="fill:none;stroke:#000;stroke-width:3.13px;"/><path d="M3055.57,442.836c-0.608,-1.74 -0.796,-3.598 -0.549,-5.425c3.162,-23.96 13.901,-30.782 35.154,-32.089c12.676,-0.779 18.058,2.822 21.958,7.102c2.932,3.17 4.736,7.22 5.131,11.52c0.428,3.339 0.988,6.435 0.425,9.181c-3.832,18.707 -26.134,30.363 -50.021,21.808c-5.44,-1.948 -9.969,-5.926 -12.098,-12.097Z" style="fill:#091105;"/><clipPath id="_clip1"><path d="M3055.57,442.836c-0.608,-1.74 -0.796,-3.598 -0.549,-5.425c3.162,-23.96 13.901,-30.782 35.154,-32.089c12.676,-0.779 18.058,2.822 21.958,7.102c2.932,3.17 4.736,7.22 5.131,11.52c0.428,3.339 0.988,6.435 0.425,9.181c-3.832,18.707 -26.134,30.363 -50.021,21.808c-5.44,-1.948 -9.969,-5.926 -12.098,-12.097Z"/></clipPath><g clip-path="url(#_clip1)"><path d="M3093.31,457.71l-58.314,46.854" style="fill:none;stroke:#000;stroke-width:3.13px;"/></g><path d="M3055.57,442.836c-0.608,-1.74 -0.796,-3.598 -0.549,-5.425c3.162,-23.96 13.901,-30.782 35.154,-32.089c12.676,-0.779 18.058,2.822 21.958,7.102c2.932,3.17 4.736,7.22 5.131,11.52c0.428,3.339 0.988,6.435 0.425,9.181c-3.832,18.707 -26.134,30.363 -50.021,21.808c-5.44,-1.948 -9.969,-5.926 -12.098,-12.097Z" style="fill:none;stroke:#000;stroke-width:3.13px;"/><ellipse id="oko-berneńczyka" serif:id="oko berneńczyka" cx="3144.75" cy="314.767" rx="26.514" ry="25.068" style="fill:#eeefe7;"/><clipPath id="_clip2"><ellipse cx="3144.75" cy="314.767" rx="26.514" ry="25.068"/></clipPath><g clip-path="url(#_clip2)"><ellipse cx="3147.23" cy="317.25" rx="12.25" ry="11.31" style="fill:#091105;"/></g><ellipse id="oko-berneńczyka1" serif:id="oko berneńczyka" cx="2974.23" cy="367.435" rx="26.514" ry="25.068" style="fill:#eeefe7;"/><clipPath id="_clip3"><ellipse cx="2974.23" cy="367.435" rx="26.514" ry="25.068"/></clipPath><g clip-path="url(#_clip3)"><ellipse cx="2976.36" cy="370.037" rx="11.895" ry="11.429" style="fill:#091105;"/></g><path d="M3113.08,1473.68c-2.62,37.444 -17.601,73.22 -48.874,91.071c-18.541,10.583 -40.238,11.814 -59.802,12.502c-33.753,1.188 -61.156,-8.02 -55.047,-36.912c4.853,-22.948 40.763,-61.442 67.933,-87.399c-0,0 23.804,3.562 38.262,5.725c7.215,1.08 14.351,2.63 21.363,4.641c13.772,3.95 36.165,10.372 36.165,10.372Z" style="fill:#fff;stroke:#000;stroke-width:3.13px;"/><path d="M3298.89,1441.21l18.329,-202.878c-41.127,49.099 -92.862,90.683 -154.213,125.456c-1.303,41.194 0.503,79.668 5.941,114.964c47.136,-22.831 91.236,-37.466 129.943,-37.542Z" style="fill:#c85e43;stroke:#000;stroke-width:3.13px;"/><path d="M3113.12,1474.22l10.011,-95.348c-20.328,3.789 -37.418,4.342 -46.77,-2.845l-60.388,76.692c40.951,6.216 57.125,9.243 73.738,14.19c6.989,2.081 14.907,3.65 23.409,7.311Z" style="fill:#c85e43;stroke:#000;stroke-width:3.13px;"/><path d="M1204.62,294.217c5.328,26.904 10.207,48.212 17.52,59.655c5.398,8.447 14.056,10.619 19.873,11.897c6.749,1.483 15.304,-0.46 21.99,-8.99c8.365,-10.673 15.384,-32.958 22.655,-61.903c-29.57,-8.271 -58.568,-8.55 -82.038,-0.659Z" style="fill:#f9ffff;"/><path d="M3302.47,1442.29c36.087,11.037 77.458,126.198 -3.222,135.044c-11.878,1.303 -70.563,11.231 -96.469,-14.441c-13.474,-13.353 -25.157,-33.588 -28.85,-51.32c-3.955,-18.988 -4.555,-31.012 -5.778,-32l41.634,-19.212c-0,0 22.894,-7.47 37.46,-12.222c7.822,-2.552 15.93,-4.128 24.139,-4.691l27.614,-1.895l3.472,0.737Z" style="fill:#fff;stroke:#000;stroke-width:3.13px;"/><path d="M3400.51,1066.76c9.887,70.704 13.678,229.914 39.082,288.228c9.97,25.458 -9.096,85.967 -17.938,160.281c-43.879,69.778 -122.469,-9.438 -42.24,-23.145l4.051,-121.513c-37,-48.929 -48.809,-95.735 -53.382,-147.753c42.462,-57.658 61.306,-108.319 70.427,-156.098Z" style="fill:#b8b0b0;stroke:#000;stroke-width:3.13px;"/><path d="M3795.81,1213.8c5.77,4.443 10.64,9.945 14.35,16.211c15.667,26.321 6.431,33.344 -29.81,19.363c-49.075,-23.07 -84.343,-65.663 -106.897,-120.077c-27.226,-59.393 -34.955,-120.078 -30.838,-181.882l-8.83,-109.483c-32.109,-57.139 -68.073,-62.231 -107.716,-17.658c26.674,80.052 27.247,161.516 16.245,241.568c-16.01,85.467 -13.184,161.516 8.477,228.147c6.306,78.286 2.169,156.572 -14.127,234.857c-70.59,54.923 -141.175,-30.194 -38.849,-44.525l0.569,-129.393c-74.072,-30.381 -87.952,-157.688 -97.69,-294.031c-4.11,158.255 -247.83,360.139 -324.916,319.703c-3.023,12.809 -23.518,34.287 -37.025,51.105c-37.95,47.248 -100.814,99.649 -148.474,124.704c-20.896,10.995 -44.88,14.652 -68.103,10.384c-33.399,-6.103 -27.448,-25.354 54.061,-69.792c37.687,-32.104 67.53,-72.037 82.995,-116.486c-17.609,3.401 -33.861,3.181 -47.678,-3.531c-44.948,59.633 -101.272,118.993 -165.248,171.53c-7.968,6.505 -17.352,11.051 -27.396,13.27c-82.804,18.724 -54.231,-23.807 24.717,-83.913c38.807,-41.139 69.448,-88.81 96.197,-139.595c-15.437,-32.548 -13.735,-65.096 2.17,-97.644c-38.585,-41.743 -38.853,-94.838 -12.341,-155.869c7.054,-133.253 37.549,-141.899 90.411,-31.644c11.913,-5.702 25.953,-5.018 41.816,1.13c47.865,-86.772 86.648,-123.585 98.322,-11.301c30.361,9.22 72.093,-56.605 117.535,-146.919c58.632,-132.941 151.574,-180.107 282.535,-132.226c84.535,-56.926 160.781,-49.609 226.028,42.945c18.615,46.446 10.936,126.934 14.692,216.987c1.129,33.527 10.097,70.974 30.514,114.145c17.327,33.829 38.918,60.194 64.304,79.92Z" style="fill:#b8b0b0;stroke:#000;stroke-width:3.13px;"/><path d="M2942.57,1142.23c-7.456,14.675 -20.726,17.446 -26.663,-0.37" style="fill:none;stroke:#000;stroke-width:3.13px;"/><path d="M2927.32,1154.83c0.821,6.586 0.791,16.297 1.178,23.317c13.808,14.732 23.372,6.797 19.627,-7.407" style="fill:none;stroke:#000;stroke-width:3.13px;"/><path d="M2928.5,1178.15c-17.423,12.195 -23.436,8.419 -21.108,-7.037" style="fill:none;stroke:#000;stroke-width:3.13px;"/><path d="M3060.2,1038.95c0.584,24.471 1.301,45.612 3.125,39.077c29.471,51.688 22.07,94.746 -6.481,132.854" style="fill:none;stroke:#000;stroke-width:3.13px;"/><ellipse cx="2980.67" cy="1110.14" rx="21.988" ry="20.541" style="fill:#a2dc83;"/><clipPath id="_clip4"><ellipse cx="2980.67" cy="1110.14" rx="21.988" ry="20.541"/></clipPath><g clip-path="url(#_clip4)"><ellipse cx="2980.96" cy="1110.72" rx="8.39" ry="7.812" style="fill:#091105;"/></g><ellipse cx="2980.67" cy="1110.14" rx="21.988" ry="20.541" style="fill:none;stroke:#000;stroke-width:3.27px;"/><ellipse cx="2883.46" cy="1110.14" rx="21.988" ry="20.541" style="fill:#a2dc83;"/><clipPath id="_clip5"><ellipse cx="2883.46" cy="1110.14" rx="21.988" ry="20.541"/></clipPath><g clip-path="url(#_clip5)"><ellipse cx="2883.75" cy="1110.72" rx="8.39" ry="7.812" style="fill:#091105;"/></g><ellipse cx="2883.46" cy="1110.14" rx="21.988" ry="20.541" style="fill:none;stroke:#000;stroke-width:3.33px;"/><path d="M2614.11,1057.61c3.98,19.461 6.926,39.184 13.616,58.18c9.805,27.842 26.265,52.105 34.904,74.032c15.619,39.643 32.637,81.72 44.49,122.438c14.555,49.999 6.005,101.518 3.428,147.819c-1.598,23.323 178.244,37.961 298.315,42.432c55.009,4.773 101.847,0.504 128.335,9.738c70.134,24.451 25.705,41.622 -130.042,33.516c-49.776,1.395 -112.594,0.936 -168.955,1.323c-42.137,0.29 -79.548,2.168 -111.255,-0.405c-21.505,-1.746 -32.278,-9.393 -45.972,-12.026c-0,0 -0,0.001 -0.001,0.001c-13.427,9.025 -29.232,13.86 -45.41,13.892c-43.321,0.085 -128.178,0.252 -128.178,0.252l-109.652,5.986c-13.172,-24.019 -5.617,-42.481 9.95,-47.095c5.188,-1.538 8.505,-2.66 14.379,1.808c15.969,12.149 27.888,-11.785 42.89,-12.133c-28.888,-37.539 -26.981,-75.777 -6.429,-114.44c-8.864,-18.492 -12.801,-37.517 -18.775,-56.518c-10.294,-32.742 -18.339,-64.579 -8.228,-87.496c-11.144,7.932 -22.287,7.635 -33.431,-1.286c10.563,33.316 -6.062,46.623 -31.15,27.906c-5.373,-4.008 -14.248,-8.155 -16.318,-19.603c-5.268,-29.145 4.939,-48.445 24.131,-56.213c10.609,-4.294 24.9,-1.319 38.623,-3.398c4.283,-0.649 7.311,-6.058 11.736,-6.555l12.689,-92.988l1.022,-91.906c-0,0 5.577,-30.46 7.31,-39.927c0.334,-1.824 1.077,-3.55 2.172,-5.047c2.459,-3.362 7.051,-9.638 9.627,-13.161c1.228,-1.679 2.084,-3.6 2.511,-5.636c17.353,-83.13 52.71,-85.386 64.304,-60.548c5.701,12.212 1.896,25.983 5.784,48.543c9.028,-3.179 22.587,-3.615 36.004,0.93c33.982,-80.617 53.612,-80.106 55.291,21.859c24.027,45.046 20.224,83.321 -7.715,115.726Z" style="fill:#fafcfa;stroke:#000;stroke-width:3.13px;"/><path d="M2684.63,1250.6c10.37,28.408 21.938,57.173 26.132,85.663c6.185,42.01 0.981,83.624 -1.339,122.58c-0.071,1.202 -0.603,2.349 -0.562,3.19c0.047,0.955 0.526,1.771 1.013,2.448c0.457,0.635 1.602,1.961 2.104,2.384c0.542,0.456 3.722,2.599 4.302,2.909c7.184,3.839 18.586,6.997 26.659,9.159c2.426,0.649 5.032,1.209 7.715,1.643c81.079,13.116 157.146,18.809 220.93,22.295c54.411,2.974 99.858,4.535 132.132,5.629c0.527,0.018 6.507,0.587 11.977,1.252c4.575,0.557 8.778,1.296 9.204,1.37c7.779,1.343 12.271,3.116 18.408,5.255c44.578,15.54 27.545,27.804 -48.312,29.299c-9.046,0.179 -16.257,0.395 -27.123,0.174c-21.977,-0.447 -47.716,-1.717 -77.59,-1.456c-38.027,0.333 -54.499,0.374 -92.003,0.647c-14.334,0.105 -30.612,0.114 -52.048,0.2c-7.498,0.031 -15.329,0.243 -24.091,0.372c-4.478,0.066 -9.343,0.402 -14.235,0.098c-2.436,-0.152 -20.697,0.55 -38.598,0.517c-17.351,-0.032 -34.363,-0.801 -36.3,-0.852c-24.24,-0.65 -34.349,-8.104 -51.945,-12.401c-0.266,-0.064 -0.545,-0.05 -0.803,0.041c-1.697,1.298 -0.974,0.375 -3.542,1.767c-0.03,0.015 -0.058,0.035 -0.083,0.057c-0.018,0.002 -4.691,4.159 -5.76,5.11c-0.143,0.127 -0.322,0.209 -0.512,0.234c-38.266,5.154 -44.169,-18.975 -28.933,-58.504c1.904,-4.928 3.003,-10.13 3.255,-15.407c0.775,-21.316 -8.118,-40.61 -29.408,-57.425c-29.893,-3.474 -34.416,-23.861 -26.849,-52.308c-7.583,-11.506 -12.292,-23.7 -15.757,-33.284c-8.82,-24.396 -6.993,-41.878 0.323,-58.744l111.639,-13.912Z" style="fill:#f5db89;stroke:#f5db89;stroke-width:0.83px;"/><path d="M2900.94,1522.36c-0.374,-0.107 3.565,22.802 4.123,22.914l-13.222,0.045c-2.711,-13.917 -3.204,-31.268 -0.989,-48.254l13.264,1.272c-1.73,7.367 -2.532,14.92 -3.176,24.023Z" style="fill:#f9f4df;"/><path d="M3076.52,1529.35c-0.001,0.003 -0.004,0.005 -0.007,0.004c-0.311,0.121 3.778,16.625 4.333,16.736l-14.438,0.046c-5.992,-13.918 -7.148,-22.457 -1.192,-39.443l14.682,0.664c-1.729,7.365 -2.734,12.893 -3.378,21.993Z" style="fill:#f9f4df;"/><path d="M2980.27,1503.34c-4.516,13.72 -5.354,27.439 -2.2,41.159l30.694,-0.554c-7.845,-12.469 -7.575,-25.563 1.199,-39.31l-29.693,-1.295Z" style="fill:#cf896b;"/><path d="M2808.5,1488.86c-5.007,18.806 -5.33,37.758 -1.959,56.826l40.744,-0.531c-7.687,-17.403 -6.713,-34.649 0,-51.79l-38.785,-4.505Z" style="fill:#cf896b;"/><path d="M2683.03,1251.96c0.699,-0.529 1.024,-1.419 0.831,-2.275c-1.217,-5.353 -2.992,-9.387 -4.391,-13.238c-2.647,-7.286 -5.18,-13.301 -8.879,-21.926c-1.931,-4.503 -3.823,-9.672 -6.38,-16.177c-0.754,-1.92 -1.528,-4.111 -2.311,-6.237c-0.045,-0.124 -0.115,-0.238 -0.175,-0.356c-0.509,-1 -0.758,-2.366 -1.547,-3.755c-0.327,-0.575 -0.792,-1.805 -1.199,-2.759c-1.205,-2.819 -3.224,-7.325 -5.751,-12.066c-3.066,-5.752 -6.115,-11.976 -8.413,-16.125c-0.902,-1.628 -1.793,-3.046 -2.196,-3.91c-1.164,-2.494 -3.33,-7.251 -5.756,-11.453c-0.388,-0.666 -0.741,-1.351 -1.057,-2.054c-6.581,-14.604 -12.547,-30.164 -16.523,-48.241c-0.146,-0.602 -0.332,-1.59 -0.535,-2.419c-0.358,-1.46 -0.8,-3.112 -1.114,-4.866c-0.803,-4.483 -1.828,-9.628 -2.844,-14.742c-0.287,-1.443 -0.519,-2.96 -0.789,-4.386c-0.509,-2.692 -1.051,-5.213 -1.561,-7.373c-40.342,25.872 -59.165,49.577 -20.445,66.801c-29.531,27.543 -30.798,58.749 6.329,94.932c-0,0 -19.843,34.666 -25.227,44.071c-0.349,0.609 -0.427,1.336 -0.216,2.006c0.212,0.669 0.694,1.219 1.33,1.516c42.354,19.847 76.9,9.2 108.819,-14.968Z" style="fill:#b8b99f;"/><path d="M2512.15,999.534c-7.178,17.35 -59.115,7.458 -68.241,-18.998c1.293,-15.995 0.93,-15.029 4.119,-26.6c1.534,-5.83 6.608,-10.053 9.966,-14.543c1.05,-1.405 2.504,-2.629 2.814,-4.14c11.661,-56.832 27.841,-67.062 30.341,-70.239c2.226,-2.829 11.492,-8.776 19.853,-5.875c5.471,1.898 10.629,6.444 14.186,14.474c3.916,8.843 0.516,15.057 3.833,45.323c0.044,0.442 0.276,0.843 0.636,1.102c0.361,0.259 0.816,0.349 1.248,0.249c12.28,-2.808 23.749,-2.44 35.004,1.247c0.797,0.264 1.664,-0.127 1.992,-0.9c34.313,-80.864 51.666,-76.58 51.978,21.231c9.948,16.579 14.641,35.657 15.653,47.626c0.269,3.176 0.884,6.533 0.624,9.42c-0.394,4.392 -0.509,7.738 -4.519,8.865c-1.746,0.491 -3.559,1.025 -5.137,1.454c-2.852,0.777 -5.794,1.173 -8.749,1.178c-1.524,-0.02 -3.505,-0.046 -6.031,-0.091c-5.918,-0.061 -11.284,-3.489 -13.828,-8.832c-5.119,-8.95 -14.285,-22.694 -24.823,-32.384c-11.651,-10.713 -7.061,-31.756 -18.591,-29.982c-13.671,2.103 -4.331,26.392 -9.963,30.311c-10.256,7.135 -28.303,14.395 -32.365,30.104Z" style="fill:#b8b99f;stroke:#b8b99f;stroke-width:3.13px;"/><path d="M2446.09,962.477c13.617,3.745 21.4,9.262 21.643,12.927c0.244,3.665 -7.25,5.159 -23.789,1.496c0.01,-0.378 0.142,-0.612 0.158,-1.02c0.142,-3.665 0.972,-8.686 1.988,-13.403Z" style="fill:#855b19;stroke:#855b19;stroke-width:0.54px;"/><path d="M2903.93,1498.24c-4.592,15.518 -3.986,31.743 1.01,47.261l29.314,-0.445c-4.867,-14.981 -5.246,-29.965 -0.526,-44.946l-29.798,-1.87Z" style="fill:#73726c;"/><path d="M2560.51,1013.05c-10.292,8.24 -15.445,6.762 -15.862,-4.749" style="fill:none;stroke:#000;stroke-width:3.13px;"/><path d="M2619.93,1101.35c-19.357,5.901 -27.559,11.537 -26.809,15.555c0.751,4.018 10.051,5.424 32.657,2.819l-5.848,-18.374Z" style="fill:#855b19;stroke:#855b19;stroke-width:3.33px;"/><path d="M2656.77,1184.11l-9.032,-18.225c-59.289,23.682 -60.481,37.468 9.032,18.225Z" style="fill:#855b19;stroke:#855b19;stroke-width:3.33px;"/><path d="M2673.19,1224.76c-36.109,10.665 -54.34,19.562 -53.469,23.884c0.87,4.322 20.843,4.068 61.143,-3.569l-7.674,-20.315Z" style="fill:#b8bbaa;stroke:#b8bbaa;stroke-width:3.33px;"/><path d="M2673.19,1224.76c-36.109,10.665 -54.34,19.562 -53.469,23.884c0.87,4.322 20.843,4.068 61.143,-3.569l-7.674,-20.315Z" style="fill:#855b19;stroke:#855b19;stroke-width:3.33px;"/><path d="M3080.1,1507.29c7.734,0.346 14.919,0.546 21.972,0.847c3.214,0.137 6.821,0.481 10.429,0.889c1.786,0.202 5.343,0.697 7.344,0.9c3.419,0.347 6.678,1.027 9.695,1.724c16.094,3.716 29.05,9.881 35.057,14.595c3.351,2.629 3.12,4.564 3.483,5.954c-0.244,1.758 -2.207,3.929 -6.108,5.731c-4.898,2.262 -12.823,4.089 -23.916,5.429c-1.032,0.125 -2.644,0.295 -3.729,0.41c-13.556,1.44 -32.437,2.47 -53.528,2.408c-5.566,-12.046 -5.999,-26.201 -0.699,-38.887Z" style="fill:#73726c;"/><path d="M2695.84,1286.14c-54.522,17.969 -77.02,29.319 -73.23,35.236c3.791,5.917 33.868,6.4 84.496,2.636c-2.432,-12.789 -6.216,-25.41 -11.266,-37.872Z" style="fill:#cf896b;stroke:#cf896b;stroke-width:3.13px;"/><path d="M2711.66,1365.72c-40.184,3.196 -70.934,12.713 -74.188,25.888c3.79,5.916 23.56,13.111 74.188,9.347c0.806,-11.745 0.831,-23.49 0,-35.235Z" style="fill:#cf896b;stroke:#cf896b;stroke-width:3.13px;"/><path d="M2564.38,921.229c0.003,6.982 -1.809,9.928 -4.05,9.845c-2.241,-0.083 -4.594,-4.945 -5.513,-11.988c3.289,0.359 6.486,1.041 9.563,2.143Z" style="fill:#855b19;stroke:#855b19;stroke-width:0.54px;"/><path d="M2536.49,919.358c2.69,9.099 1.28,13.679 -1.075,13.483c-2.354,-0.195 -5.295,-4.291 -5.268,-12.225l6.343,-1.258Z" style="fill:#855b19;stroke:#855b19;stroke-width:0.54px;"/><path d="M2633.72,977.429c-13.253,1.597 -19.442,5.546 -19.196,9.002c0.245,3.456 7.283,6.261 21.198,5.253c-0.205,-4.803 -0.843,-9.558 -2.002,-14.255Z" style="fill:#855b19;stroke:#855b19;stroke-width:0.54px;"/><path d="M2551.68,984.97c3.95,9.382 9.876,9.876 17.776,1.482c-2.648,3.053 -5.524,5.749 -9.992,5.944c2.424,10.685 -1.147,19.51 2.261,22.72c4.231,3.986 12.567,3.899 12.915,-6.075" style="fill:none;stroke:#000;stroke-width:3.13px;"/><path d="M2567.52,1372.31c-42.885,43.09 -50.04,114.725 10.126,143.935l-14.466,-9.403c-41.8,-2.5 -72.661,-2.733 -61.479,40.504" style="fill:none;stroke:#000;stroke-width:3.13px;"/><path d="M2537.86,1176.3c-15.525,16.643 -49.647,4.897 -65.052,15.937c-43.701,31.32 -15.264,88.809 26.505,76.723c6.74,-1.951 -5.075,-30.573 3.829,-36.243c13.834,20.521 32.698,15.889 54.247,-2.17" style="fill:none;stroke:#000;stroke-width:3.13px;"/><ellipse cx="2516.1" cy="960.756" rx="8.679" ry="7.956" style="fill:#383b36;"/><ellipse cx="2591.35" cy="964.014" rx="8.679" ry="7.956" style="fill:#383b36;"/><path d="M2711.06,1440.26c-10.792,-4.075 -22.617,-2.206 -34.718,4.191c-36.806,30.808 -53.901,69.697 -5.976,93.328c1.135,-0.07 2.357,0.078 3.166,-0.205c2.146,-0.75 3.143,-2.4 5.069,-3.181c0.386,-0.157 0.852,-0.331 1.202,-0.6c0.355,-0.272 0.595,-0.637 1.172,-0.514c8.381,1.785 20.855,6.834 29.213,9.303c9.559,2.825 20.549,3.683 29.216,3.431c-3.769,-27.301 3.297,-49.868 14.911,-65.059c-19.676,-4.91 -32.166,-7.703 -38.68,-12.073c-3.357,-2.253 -5.696,-4.218 -6.364,-7.149c-0.035,-0.155 0.29,-1.123 0.282,-1.285c-0.005,-0.115 0.264,-1.278 0.278,-1.406c0.079,-0.732 0.093,-1.6 0.26,-2.423c0.491,-2.406 0.184,-6.151 0.553,-10.375c0.082,-0.939 0.155,-1.925 0.236,-2.892c0.034,-0.41 -0.049,-0.817 0.062,-1.215c0.167,-0.601 -0.064,-1.248 0.118,-1.876Z" style="fill:#cf896b;"/><path d="M2129.05,201.714c-0.505,29.172 10.845,41.2 35.551,25.923" style="fill:none;stroke:#000;stroke-width:3.33px;"/><ellipse cx="1588.08" cy="846.556" rx="9.027" ry="9.721" style="stroke:#000;stroke-width:3.33px;"/><ellipse cx="1466.33" cy="849.796" rx="9.027" ry="9.721" style="stroke:#000;stroke-width:3.33px;"/><path d="M1989.45,1365.23c-11.491,2.815 -26.064,2.836 -41.531,-1.305c-2.142,-0.582 -4.137,-1.611 -5.853,-3.02c-18.199,-15.034 -29.284,-33.805 -34.975,-55.4c-0.153,-0.584 0.187,-1.184 0.766,-1.354c4.756,-1.399 24.245,-7.128 24.245,-7.128c16.745,26.652 35.106,49.641 57.348,68.207Z" style="fill:#fff;stroke:#000;stroke-width:3.33px;"/><path d="M2255.24,1483.55c-16.36,7.658 -24.885,22.297 -23.923,34.847c0.961,12.549 11.673,23.253 29.258,27.955c-14.114,-17.539 -16.501,-38.521 -5.335,-62.802Z" style="fill:#fff;stroke:#000;stroke-width:3.33px;"/><path d="M1498.3,1552.75c-57.008,9.926 -104.971,10.173 -144.664,9.224c-28.447,-0.681 -52.646,-0.025 -72.883,-5.889c-38.616,-11.188 -61.706,-24.58 -71.239,-61.486c-10.591,-41.003 -15.551,-107.341 26.402,-183.909c8.096,-14.775 26.277,-26.528 41.013,-38.293c-34.371,-30.562 -35.198,-79.185 -17.328,-137.877c-2.865,-4.267 -16.49,61.656 -27.026,63.689c-4.477,0.864 -20.366,-11.176 -23.202,-25.967c-3.146,-16.406 1.603,-36.969 2.364,-38.781c8.344,-19.881 27.251,-49.149 62.219,-68.353c27.639,-15.179 61.901,-22.897 89.617,-26.272c88.076,-12.375 163.13,44.489 185.333,77.992c7.621,11.5 21.405,33.153 17.428,54.793c-2.211,12.028 -6.15,22.493 -18.701,28.162c-12.931,5.841 -46.581,-66.049 -40.91,-75.81c16.874,60.911 22.903,102.228 -16.575,144.657c8.6,8.69 19.669,13.305 27.892,20.607c11.445,10.162 19.637,22.815 28.073,34.799c23.035,32.725 32.005,65.622 35.873,98.481c3.826,32.507 2.792,65.009 -19.099,91.61c-2.315,2.812 -7.466,10.073 -10.812,13.075c-6.373,5.719 -13.718,13.303 -22.923,17.178c-6.091,2.564 -12.191,5.896 -18.491,6.992c-4.451,0.774 -8.695,0.74 -12.361,1.378Z" style="fill:#fdfdeb;stroke:#000;stroke-width:3.33px;"/><path d="M1525.85,1302.07c-8.101,10.21 -18.26,17.855 -23.015,27.572c-12.852,26.264 -10.928,51.211 -5.24,72.384c5.765,21.464 15.549,39.048 40.03,50.191c12.112,5.513 27.38,6.225 42.66,3.635c1.711,-57.215 -14.173,-107.46 -54.435,-153.782Z" style="fill:#fbf250;stroke:#fbf250;stroke-width:3.13px;"/><path d="M1577.36,1400.84c-43.94,4.922 -53.856,18.534 -17.093,23.456c6.016,0.806 11.73,1.41 20.662,0.241c-0.752,-7.899 -1.954,-15.798 -3.569,-23.697Z" style="fill:#cf896b;"/><path d="M1402.13,1039.59c-15.189,123.274 19.986,186.273 107.765,196.533c0.326,-1.266 1.194,-2.582 1.703,-3.777c1.155,-2.709 2.176,-5.218 3.034,-8.123c2.361,-8.001 3.241,-16.176 3.847,-24.777c0.316,-4.486 0.512,-9.239 0.08,-13.823c-2.212,-23.484 -8.532,-36.977 -14.475,-58.103c1.077,-0.743 1.407,-4.337 1.998,-4.744c1.559,-1.074 2.526,3.157 5.758,13.91c1.103,3.671 1.693,9.041 3.271,13.404c0.801,2.214 1.108,4.475 1.975,6.785c3.544,9.444 8.487,19.708 16.632,30.937c2.609,3.597 5.342,6.274 8.763,9.231c0.698,0.603 2.488,1.317 3.549,1.372c1.329,0.068 2.117,-1.206 2.647,-1.025c2.211,-1.54 4.547,-2.675 6.341,-4.473c14.816,-14.85 14.923,-38.713 -1.502,-64.868c-3.15,-5.016 -5.997,-10.365 -10.075,-15.777c-4.013,-5.329 -9.238,-10.719 -14.762,-15.915c-8.11,-7.627 -17.708,-15.358 -27.923,-22.157c-2.151,-0.876 -3.93,-2.576 -6.095,-3.913c-3.942,-2.436 -8.228,-4.791 -11.745,-6.724c-12.096,-6.649 -22.422,-11.467 -34.072,-15.171c-16.832,-5.35 -32.383,-7.553 -46.714,-8.802Z" style="fill:#fbf250;"/><path d="M1367.85,1040.08c15.189,123.273 -23.872,188.815 -111.651,199.075c-1.427,-5.541 -3.356,-10.74 -4.398,-16.44c-1.485,-8.131 -1.793,-16.864 -1.625,-25.491c0.058,-2.967 0.122,-6.164 0.406,-9.186c2.213,-23.484 3.545,-27.623 9.487,-48.749c0.265,-0.943 1.413,-3.965 1.338,-4.679c-0.076,-0.72 -0.82,-1.865 -1.966,-1.963c-1.194,-0.102 -2.824,0.966 -4.473,6.454c-1.104,3.671 -2.325,7.398 -3.903,11.761c-0.801,2.214 -1.109,4.727 -1.975,7.037c-3.544,9.445 -6.293,20.199 -12.27,32.716c-2.027,4.244 -0.524,1.637 -3.228,4.985c-0.865,1.071 -1.851,0.657 -3.171,0.582c-1.328,-0.075 -2.247,-1.659 -2.776,-1.478c-2.211,-1.539 -4.219,-3.269 -6.013,-5.067c-8.192,-8.211 -11.19,-16.122 -11.587,-26.962c-0.228,-6.223 -0.432,-13.655 1.854,-22.043c0.104,-0.384 0.537,-1.981 0.605,-2.336c0.418,-2.163 1.126,-4.182 1.894,-6.246c0.231,-0.62 0.888,-1.713 1.082,-2.455c1.498,-5.73 3.886,-9.002 7.963,-14.414c4.014,-5.329 8.136,-13.188 13.661,-18.384c4.356,-4.097 8.888,-8.975 13.968,-13.432c4.377,-3.842 9.226,-7.306 13.955,-10.453c2.151,-0.876 7.88,-4.551 10.045,-5.889c3.942,-2.435 7.981,-4.049 11.498,-5.982c12.095,-6.649 23.409,-8.258 35.059,-11.962c16.832,-5.35 31.89,-7.75 46.221,-8.999Z" style="fill:#fbf250;"/><path d="M1250.19,1194.82c2.858,-1.289 13.787,-3.07 19.395,-1.32c18.727,5.847 23.839,18.953 -18.58,22.293c-1.209,-6.991 -1.547,-13.982 -0.815,-20.973Z" style="fill:#cf896b;"/><path d="M1326.85,1047.33c1.115,7.372 4.784,13.417 4.996,18.689c1.009,25.073 -10.59,27.237 -22.742,11.454c-3.305,-4.292 -5.771,-15.046 -9.829,-21.563c8.978,-3.5 18.165,-6.375 27.575,-8.58Z" style="fill:#cf896b;"/><path d="M1438.37,1045.46c-6.238,23.102 -3.714,36.918 2.098,39.624c4.745,2.706 14.659,-6.911 28.664,-28.247c-9.114,-4.818 -19.491,-8.5 -30.762,-11.377Z" style="fill:#cf896b;"/><path d="M1518.56,1188.14c-32.764,1.933 -43.35,10.061 -21.19,19.904c4.63,2.057 11.591,3.813 19.956,4.043c1.018,-7.275 1.51,-15.163 1.234,-23.947Z" style="fill:#cf896b;"/><path d="M1463,1152.28c-1.605,3.391 -4.071,5.707 -6.919,7.544c-7.627,5.048 -17.476,5.265 -25.318,0.559c-5.433,-3.217 -10.2,-6.785 -12.338,-11.668" style="fill:none;stroke:#000;stroke-width:3.33px;"/><path d="M1382.49,1221.98c-10.619,18.175 -31.752,17.926 -24.067,-1.113" style="fill:none;stroke:#000;stroke-width:3.33px;"/><path d="M1381.41,1202.49c0.233,8.688 -0.232,15.087 1.297,20.608c2.189,7.91 6.979,11.951 11.124,12.32c2.673,0.238 6.358,0.252 9.238,-3.747c1.669,-2.317 1.762,-6.192 3.49,-10.069" style="fill:none;stroke:#000;stroke-width:3.33px;"/><path d="M1391.83,1191.63c-6.128,12.77 -13.545,14.362 -22.759,0.386" style="fill:none;stroke:#000;stroke-width:3.33px;"/><path d="M1294.98,1155.75c1.606,3.391 4.071,5.707 6.92,7.544c7.627,5.048 17.475,5.265 25.317,0.558c5.434,-3.216 10.201,-6.784 12.338,-11.667" style="fill:none;stroke:#000;stroke-width:3.33px;"/><path d="M1440.31,1560.45c32.318,-0.224 73.564,-12.634 65.699,-33.753" style="fill:none;stroke:#000;stroke-width:3.33px;"/><path d="M1566.47,1364.55c-22.482,6.41 -35.868,8.06 -38.129,4.052c-2.26,-4.008 6.088,-13.481 26.039,-28.931c2.479,4.33 4.739,8.716 6.874,12.929c2.057,4.059 4.013,7.948 5.216,11.95Z" style="fill:#cf896b;"/><path d="M1338.21,1561.05c-32.317,-0.224 -73.563,-12.634 -65.698,-33.753" style="fill:none;stroke:#000;stroke-width:3.33px;"/><path d="M1018.12,1042.68c-4.368,21.058 -18.508,19.837 -17.468,-1.637" style="fill:none;stroke:#b9c9e3;stroke-width:3.33px;"/><path d="M1007.81,1057.96c-0.599,10.753 1.508,29.396 1.508,29.396c-0.734,-0.104 4.166,15.691 11.953,20.768" style="fill:none;stroke:#b9c9e3;stroke-width:3.33px;"/><path d="M1009.32,1087.35c-2.394,7.848 -5.979,14.071 -11.748,17.316" style="fill:none;stroke:#b9c9e3;stroke-width:3.33px;"/><path d="M585.265,1326.62c67.384,-28.781 150.71,-68.826 106.653,-18.872c28.051,-9.794 53.114,-23.797 75.217,-28.652c47.008,-10.324 77.363,-9.65 91.507,-5.734c14.884,4.122 18.025,35.329 12.743,59.017c-4.624,20.741 2.58,48.159 -21.45,80.694c-9.454,12.799 -24.273,35.916 -38.997,50.935c-16.633,16.966 -47.397,29.063 -69.425,42.561c56.679,-0.148 11.564,20.44 -58.373,46.084" style="fill:none;stroke:#b9c9e3;stroke-width:3.33px;"/><path d="M962.906,1434.41c12.374,18.614 52.389,24.472 106.948,23.616c8.779,-0.139 17.301,2.969 23.93,8.726c26.037,22.604 38.341,47.76 34.394,76.011" style="fill:none;stroke:#b9c9e3;stroke-width:3.33px;"/><path d="M794.829,1103.77c-19.129,24.435 -29.652,51.097 -30.054,76.701" style="fill:none;stroke:#b9c9e3;stroke-width:3.33px;"/><path d="M3255.45,1300.51c22.061,-19.713 42.609,-41.843 62.797,-64.366l-7.226,61.646c-19.252,6.771 -37.256,7.187 -55.571,2.72Z" style="fill:#383b36;stroke:#000;stroke-width:3.33px;"/><path d="M605.093,1051.96c35.604,-4.186 71.65,-22.608 96.959,-50.992c21.43,-24.033 32.518,-57.142 56.523,-74.775c4.306,-3.163 22.526,-34.013 44.916,-46.303c16.197,-8.891 37.07,0.341 42.864,1.362c40.101,7.071 -15.206,64.865 -29.1,59.269l-35.281,43.507l-51.117,85.905c-35.887,47.088 -84.237,79.315 -145.052,96.681c4.145,15.596 -3.426,34.354 -9.003,50.722c-2.888,8.474 -7.346,14.903 -4.92,22.885c17.451,57.435 10.093,137.273 32.967,195.138c9.533,24.116 16.162,54.378 31.258,73.525c5.438,6.896 25.256,3.814 31.192,8.868c9.209,7.841 9.241,22.535 9.05,37.452c-0.038,6.341 -4.783,11.666 -11.077,12.432c-6.898,0.297 -14.045,-0.401 -19.99,-0.7c-14.734,-0.742 -28.721,-1.626 -38.144,-16.062c-17.198,-26.347 -43.047,-70.299 -60.144,-124.511c-5.2,-16.489 -1.413,-34.9 -4.645,-53.05c-3.622,-20.339 -14.714,-40.436 -30.479,-58.828c23.237,26.211 31.737,55.225 32.037,83.248c0.033,3.1 0.379,6.465 0.191,9.536c-2.062,33.627 -16.394,65.873 -47.656,93.495c-15.074,13.318 -35.345,23.78 -56.365,34.456c9.771,-2.277 19.542,-6.112 29.313,-7.979c22.375,-4.276 45.189,-3.053 67.125,-7.562c12.641,-7.026 37.334,-4.397 45.361,6.435c11.651,10.723 13.914,23.379 9.266,37.459l-185.354,4.864c-86.353,2.678 -175.296,3.905 -261.593,2.553c-249.015,-3.904 -104.155,-545.07 -65.377,-494.296c21.404,28.026 -24.96,139.392 -25.705,257.133c-0.544,85.887 20.418,161.13 36.685,165.139c22.776,5.612 46.752,8.018 70.229,5.704c-13.643,-32.007 -32.633,-60.627 -40.177,-90.204c-32.325,-126.724 -3.794,-239.235 89.404,-317.579c31.292,-26.305 80.408,-34.979 126.425,-52.886c19.159,-7.455 37.501,-19.891 50.822,-32.759l31.646,-45.378l20.771,-53.691c-0.943,-18.129 2.432,-36.257 10.852,-54.385c13.562,-26.925 31.403,-45.829 52.456,-58.709c5.451,-33.861 19.896,-61.169 26.9,-80.917c17.227,-48.572 31.992,-44.317 67.394,72.345c23.954,8.1 43.538,21.116 52.505,46.076c17.245,8.85 50.291,7.121 51.736,24.918c0.173,2.133 -3.966,5.722 -3.679,7.578c4.329,28.016 0.764,53.596 -39.485,78.943c-17.307,15.304 -29.896,32.181 -38.575,50.362c-12.937,16.2 -15.381,34.498 -13.929,53.576Z" style="fill:#c9d0d0;"/><clipPath id="_clip6"><path d="M605.093,1051.96c35.604,-4.186 71.65,-22.608 96.959,-50.992c21.43,-24.033 32.518,-57.142 56.523,-74.775c4.306,-3.163 22.526,-34.013 44.916,-46.303c16.197,-8.891 37.07,0.341 42.864,1.362c40.101,7.071 -15.206,64.865 -29.1,59.269l-35.281,43.507l-51.117,85.905c-35.887,47.088 -84.237,79.315 -145.052,96.681c4.145,15.596 -3.426,34.354 -9.003,50.722c-2.888,8.474 -7.346,14.903 -4.92,22.885c17.451,57.435 10.093,137.273 32.967,195.138c9.533,24.116 16.162,54.378 31.258,73.525c5.438,6.896 25.256,3.814 31.192,8.868c9.209,7.841 9.241,22.535 9.05,37.452c-0.038,6.341 -4.783,11.666 -11.077,12.432c-6.898,0.297 -14.045,-0.401 -19.99,-0.7c-14.734,-0.742 -28.721,-1.626 -38.144,-16.062c-17.198,-26.347 -43.047,-70.299 -60.144,-124.511c-5.2,-16.489 -1.413,-34.9 -4.645,-53.05c-3.622,-20.339 -14.714,-40.436 -30.479,-58.828c23.237,26.211 31.737,55.225 32.037,83.248c0.033,3.1 0.379,6.465 0.191,9.536c-2.062,33.627 -16.394,65.873 -47.656,93.495c-15.074,13.318 -35.345,23.78 -56.365,34.456c9.771,-2.277 19.542,-6.112 29.313,-7.979c22.375,-4.276 45.189,-3.053 67.125,-7.562c12.641,-7.026 37.334,-4.397 45.361,6.435c11.651,10.723 13.914,23.379 9.266,37.459l-185.354,4.864c-86.353,2.678 -175.296,3.905 -261.593,2.553c-249.015,-3.904 -104.155,-545.07 -65.377,-494.296c21.404,28.026 -24.96,139.392 -25.705,257.133c-0.544,85.887 20.418,161.13 36.685,165.139c22.776,5.612 46.752,8.018 70.229,5.704c-13.643,-32.007 -32.633,-60.627 -40.177,-90.204c-32.325,-126.724 -3.794,-239.235 89.404,-317.579c31.292,-26.305 80.408,-34.979 126.425,-52.886c19.159,-7.455 37.501,-19.891 50.822,-32.759l31.646,-45.378l20.771,-53.691c-0.943,-18.129 2.432,-36.257 10.852,-54.385c13.562,-26.925 31.403,-45.829 52.456,-58.709c5.451,-33.861 19.896,-61.169 26.9,-80.917c17.227,-48.572 31.992,-44.317 67.394,72.345c23.954,8.1 43.538,21.116 52.505,46.076c17.245,8.85 50.291,7.121 51.736,24.918c0.173,2.133 -3.966,5.722 -3.679,7.578c4.329,28.016 0.764,53.596 -39.485,78.943c-17.307,15.304 -29.896,32.181 -38.575,50.362c-12.937,16.2 -15.381,34.498 -13.929,53.576Z"/></clipPath><g clip-path="url(#_clip6)"><path d="M99.01,1500.68c-17.227,12.059 -31.918,26.288 -44.075,42.687l-25.577,-31.272c10.953,-14.94 25.612,-27.474 43.542,-37.885l26.11,26.47Z" style="fill:#829ac2;"/><path d="M58.991,1409.41c-21.143,-0.817 -34.3,-0.883 -54.018,4.904l-1.647,-38.174c17.866,-5.345 32.84,-5.682 53.543,-3.107l2.122,36.377Z" style="fill:#829ac2;"/><path d="M52.592,1325.62c-19.359,-3.58 -30.9,-4.659 -49.872,-1.558l4.52,-38.837c17.203,-2.91 29.914,-1.846 48.622,3.407l-3.27,36.988Z" style="fill:#829ac2;"/><path d="M63.997,1231.93c2.478,-13.021 4.307,-25.496 5.221,-37.417c0.556,-7.25 1.544,-12.672 3.913,-18.943c6.159,-16.306 13.314,-74.529 11.321,-79.585c-2.915,-7.394 -1.915,-17.856 -6.513,-20.733c-1.139,-0.712 -10.295,1.645 -10.95,1.045c-0.297,-0.272 -0.437,-0.723 -0.686,-1.073c-0.278,-0.39 -0.665,-0.679 -0.983,-0.959c-0.72,-0.632 -1.489,-0.886 -2.314,-0.622c-0.219,0.071 -0.403,0.241 -0.645,0.353c-0.499,0.229 -0.818,0.966 -1.134,1.835c-0.403,1.112 -0.745,2.634 -1.247,4.282c-1.507,4.945 -9.669,12.958 -12.363,23.152c-3.261,12.338 -10.442,28.404 -15.639,49.61c-4.998,20.39 -11.835,44.909 -18.611,74.128c17.095,-3.203 35.733,-1.372 50.63,4.927Z" style="fill:#829ac2;"/></g><path d="M605.093,1051.96c35.604,-4.186 71.65,-22.608 96.959,-50.992c21.43,-24.033 32.518,-57.142 56.523,-74.775c4.306,-3.163 22.526,-34.013 44.916,-46.303c16.197,-8.891 37.07,0.341 42.864,1.362c40.101,7.071 -15.206,64.865 -29.1,59.269l-35.281,43.507l-51.117,85.905c-35.887,47.088 -84.237,79.315 -145.052,96.681c4.145,15.596 -3.426,34.354 -9.003,50.722c-2.888,8.474 -7.346,14.903 -4.92,22.885c17.451,57.435 10.093,137.273 32.967,195.138c9.533,24.116 16.162,54.378 31.258,73.525c5.438,6.896 25.256,3.814 31.192,8.868c9.209,7.841 9.241,22.535 9.05,37.452c-0.038,6.341 -4.783,11.666 -11.077,12.432c-6.898,0.297 -14.045,-0.401 -19.99,-0.7c-14.734,-0.742 -28.721,-1.626 -38.144,-16.062c-17.198,-26.347 -43.047,-70.299 -60.144,-124.511c-5.2,-16.489 -1.413,-34.9 -4.645,-53.05c-3.622,-20.339 -14.714,-40.436 -30.479,-58.828c23.237,26.211 31.737,55.225 32.037,83.248c0.033,3.1 0.379,6.465 0.191,9.536c-2.062,33.627 -16.394,65.873 -47.656,93.495c-15.074,13.318 -35.345,23.78 -56.365,34.456c9.771,-2.277 19.542,-6.112 29.313,-7.979c22.375,-4.276 45.189,-3.053 67.125,-7.562c12.641,-7.026 37.334,-4.397 45.361,6.435c11.651,10.723 13.914,23.379 9.266,37.459l-185.354,4.864c-86.353,2.678 -175.296,3.905 -261.593,2.553c-249.015,-3.904 -104.155,-545.07 -65.377,-494.296c21.404,28.026 -24.96,139.392 -25.705,257.133c-0.544,85.887 20.418,161.13 36.685,165.139c22.776,5.612 46.752,8.018 70.229,5.704c-13.643,-32.007 -32.633,-60.627 -40.177,-90.204c-32.325,-126.724 -3.794,-239.235 89.404,-317.579c31.292,-26.305 80.408,-34.979 126.425,-52.886c19.159,-7.455 37.501,-19.891 50.822,-32.759l31.646,-45.378l20.771,-53.691c-0.943,-18.129 2.432,-36.257 10.852,-54.385c13.562,-26.925 31.403,-45.829 52.456,-58.709c5.451,-33.861 19.896,-61.169 26.9,-80.917c17.227,-48.572 31.992,-44.317 67.394,72.345c23.954,8.1 43.538,21.116 52.505,46.076c17.245,8.85 50.291,7.121 51.736,24.918c0.173,2.133 -3.966,5.722 -3.679,7.578c4.329,28.016 0.764,53.596 -39.485,78.943c-17.307,15.304 -29.896,32.181 -38.575,50.362c-12.937,16.2 -15.381,34.498 -13.929,53.576Z" style="fill:none;stroke:#000;stroke-width:3.33px;"/><ellipse cx="339.035" cy="1499.34" rx="13.217" ry="12.015" style="fill:#829ac2;"/><ellipse cx="204.466" cy="1497.54" rx="16.821" ry="13.817" style="fill:#829ac2;"/><ellipse cx="425.845" cy="1435.06" rx="20.125" ry="16.22" style="fill:#829ac2;"/><ellipse cx="291.275" cy="1443.47" rx="12.916" ry="11.414" style="fill:#829ac2;"/><ellipse cx="185.241" cy="1426.65" rx="16.821" ry="16.22" style="fill:#829ac2;"/><ellipse cx="178.633" cy="1333.83" rx="26.433" ry="24.931" style="fill:#829ac2;"/><ellipse cx="337.834" cy="1356.36" rx="24.03" ry="22.829" style="fill:#829ac2;"/><ellipse cx="455.882" cy="1233.51" rx="21.327" ry="20.726" style="fill:#829ac2;"/><ellipse cx="269.347" cy="1272.86" rx="20.426" ry="17.422" style="fill:#829ac2;"/><ellipse cx="343.24" cy="1205.27" rx="30.038" ry="27.935" style="fill:#829ac2;"/><ellipse cx="215.279" cy="1191.45" rx="26.433" ry="24.331" style="fill:#829ac2;"/><path d="M319.041,1567.63c-1.469,-8.92 0.714,-19.588 -0.922,-25.763c-6.709,-25.318 -17.669,-25.585 -23.515,1.422c-1.168,5.398 -1.21,13.318 -2.372,21.016c8.505,2.266 17.538,3.115 26.809,3.325Z" style="fill:#829ac2;"/><path d="M228.834,1566.93c-1.933,-8.831 -0.309,-19.599 -2.265,-25.679c-8.021,-24.934 -18.981,-24.629 -23.409,2.647c-0.885,5.451 -0.513,13.362 -1.272,21.11c8.612,1.82 17.677,2.196 26.946,1.922Z" style="fill:#829ac2;"/><path d="M769.025,915.95c4.378,5.752 10.748,9.909 13.327,14.19c10.412,17.289 3.711,23.475 -14.097,13.352c-4.149,-2.359 -7.877,-7.761 -13.632,-11.628c4.898,-4.232 9.71,-9.412 14.402,-15.914Z" style="fill:#829ac2;"/><path d="M726.496,969.213c6.042,6.724 14.712,11.041 18.507,16.178c15.562,21.067 8.917,29.787 -15.814,17.461c-4.943,-2.463 -9.894,-8.42 -16.627,-12.327l13.934,-21.312Z" style="fill:#829ac2;"/><path d="M458.158,1302.16c1.984,8.82 0.423,19.597 2.414,25.666c8.165,24.886 19.123,24.518 23.393,-2.783c0.854,-5.456 0.436,-13.365 1.15,-21.117c-8.622,-1.77 -17.689,-2.093 -26.957,-1.766Z" style="fill:#829ac2;"/><path d="M536.418,1359.07c-8.084,4.045 -18.92,5.12 -24.333,8.512c-22.195,13.907 -19.203,24.454 8.324,22.038c5.501,-0.483 13.078,-2.789 20.774,-3.959c-0.354,-8.795 -2.22,-17.674 -4.765,-26.591Z" style="fill:#829ac2;"/><path d="M534.008,1445.42c-8.857,-1.81 -18.044,-7.656 -24.395,-8.331c-26.045,-2.767 -30.206,7.377 -7.062,22.474c4.625,3.018 12.008,5.882 18.785,9.714c5.152,-7.136 9.168,-15.272 12.672,-23.857Z" style="fill:#829ac2;"/><path d="M480.159,1510.62c-5.753,-6.973 -9.227,-17.293 -13.744,-21.809c-18.524,-18.517 -28.134,-13.24 -19.615,13.047c1.702,5.253 7.122,14.521 9.987,21.759c8.492,-2.314 15.251,-8.519 23.372,-12.997Z" style="fill:#829ac2;"/><path d="M3733.81,1142.5c-10.349,10.787 -22.977,19.945 -37.436,27.797c-5.666,-8.61 -10.755,-17.941 -15.419,-27.804c14.364,-9.87 27.223,-20.699 38.357,-32.625l14.498,32.632Z" style="fill:#72767b;"/><path d="M3647.16,1035.51c17.339,-3.279 34.823,-8.292 52.363,-13.977c0.551,10.28 1.314,20.47 3.272,30.148c-16.405,6.571 -32.734,11.746 -49.139,16.113c-2.643,-10.576 -4.856,-21.307 -6.496,-32.284Z" style="fill:#72767b;"/><path d="M402.827,1565.39c-1.933,-8.831 -0.31,-19.599 -2.267,-25.679c-8.022,-24.933 -18.981,-24.627 -23.408,2.649c-0.885,5.451 -0.513,13.362 -1.271,21.11c8.612,1.819 17.677,2.194 26.946,1.92Z" style="fill:#829ac2;"/><path d="M677.099,1025.56c4.89,9.549 14.44,16.072 16.558,22.729c9.487,29.821 -1.633,39.292 -22.032,18.724c-5.838,-5.886 -9.051,-17.232 -17.722,-27.502c8.108,-4.223 15.86,-8.658 23.196,-13.951Z" style="fill:#829ac2;"/><path d="M584.933,1166.71c-39.558,4.9 -73.02,-2.986 -99.538,-16.495" style="fill:none;stroke:#000;stroke-width:3.33px;"/><path d="M512.981,1315.69c-21.133,-20.304 -62.723,-18.373 -98.775,-7.616" style="fill:none;stroke:#000;stroke-width:3.33px;"/><path d="M605.424,1052.06c-11.706,2.417 -21.743,0.382 -29.454,-7.854" style="fill:none;stroke:#000;stroke-width:3.33px;"/><path d="M3643.42,935.508c18.135,0.494 36.373,-0.254 54.708,-2.165l0.029,35.584c-18.536,1.98 -36.802,2.078 -54.737,-0.15l0,-33.269Z" style="fill:#72767b;"/><path d="M3686.88,808.299c-16.509,12.686 -34.282,23.606 -51.418,30.967l2.686,32.401c19.776,-2.945 39.202,-8.546 57.099,-19.321c-1.158,-14.682 -4.077,-29.365 -8.367,-44.047Z" style="fill:#72767b;"/><ellipse cx="616.796" cy="836.77" rx="18.105" ry="16.946" style="fill:#a2dc83;"/><clipPath id="_clip7"><ellipse cx="616.796" cy="836.77" rx="18.105" ry="16.946"/></clipPath><g clip-path="url(#_clip7)"><ellipse cx="624.369" cy="830.776" rx="8.49" ry="8.314" style="fill:#091105;"/></g><ellipse cx="616.796" cy="836.77" rx="18.105" ry="16.946" style="fill:none;stroke:#000;stroke-width:3.33px;"/><path d="M1241.63,584.87c-0.164,0.364 0.14,3.933 0.015,4.524c-0.128,0.604 -0.244,1.18 -0.361,1.433c-6.432,13.813 -18.543,26.538 -28.022,30.518c-6.964,2.924 -15.017,-0.045 -15.136,-12.73c-0.028,-3.002 0.976,-6.785 1.494,-11.03" style="fill:none;stroke:#000;stroke-width:3.33px;"/><path d="M572.867,1227.33c-7.319,26.867 -21.01,43.148 -32.355,56.939c-9.433,11.467 -17.837,20.514 -31.341,27.376" style="fill:none;stroke:#000;stroke-width:3.33px;"/><path d="M2954.13,1393.94c45.486,18.405 65.109,28.696 61.557,32.037c-4.831,6.125 -32.647,3.417 -72.972,-9.307c4.27,-7.745 8.204,-15.369 11.415,-22.73Z" style="fill:#72767b;"/><path d="M695.829,873.525c-0.707,-4.172 -4.502,-7.099 -8.717,-6.723c-5.719,0.459 -13.785,1.178 -20.005,1.732c-6.9,0.614 -13.091,4.486 -16.664,10.42c-15.148,24.836 3.548,43.455 1.562,59.586c-0.27,2.317 -1.032,4.549 -2.237,6.546c-2.38,4.006 -13.366,22.215 -13.366,22.215c7.203,-9.508 13.791,-15.543 20.457,-21.187c2.546,-2.155 5.269,-3.821 8.042,-5.891c0.842,-0.629 2.311,-1.763 3.336,-2.27c21.727,-10.733 31.55,-39.256 27.592,-64.428Z" style="fill:#fff;"/><path d="M622.745,884.827c0.125,-1.548 -0.706,-3.016 -2.099,-3.704c-1.392,-0.688 -3.063,-0.457 -4.217,0.582c-15.313,14.215 -21.98,33.03 -21.732,55.532c0.013,0.95 0.592,1.8 1.471,2.16c0.879,0.359 1.888,0.159 2.563,-0.509c13.807,-13.985 22.15,-31.77 24.014,-54.061Z" style="fill:#829ac2;"/><path d="M523.44,1161.97c9.992,-37.377 12.315,-56.548 7.258,-57.883c-5.057,-1.336 -17.858,15.224 -37.149,47.977c9.1,4.493 19.179,7.831 29.891,9.906Z" style="fill:#829ac2;"/><path d="M453.504,978.115c-0.095,-0.806 0.343,-1.58 1.082,-1.914c0.739,-0.334 1.61,-0.151 2.152,0.453c25.63,28.063 60.935,36.769 105.127,27.7c0.627,-0.129 1.272,0.125 1.644,0.646c0.372,0.522 0.401,1.214 0.075,1.765c-1.835,2.552 -1.927,5.063 -6.124,6.912c-40.509,17.84 -82.817,11.278 -102.915,-29.447c-0.944,-1.913 -1.001,-3.977 -1.041,-6.115Z" style="fill:#829ac2;"/><path d="M418.801,1036c-17.154,-37.561 -8.595,-44.584 2.09,-19.422c1,2.355 23.12,28.153 33.442,30.084c8.138,1.522 12.901,3.448 11.163,7.716c-3.417,9.373 -29.524,7.352 -46.483,-17.898l-0.212,-0.48Z" style="fill:#829ac2;"/><path d="M587.271,860.842c0.537,-1.539 0.012,-3.249 -1.297,-4.221c-1.309,-0.972 -3.098,-0.98 -4.416,-0.021c-20.679,14.053 -48.655,32.344 -54.452,54.375c-0.168,0.857 0.155,1.737 0.839,2.282c0.683,0.545 1.613,0.664 2.412,0.308c17.215,-8.313 46.014,-28.783 56.914,-52.723Z" style="fill:#829ac2;"/><path d="M619.622,1051.42c-3.327,31.406 -7.84,47.636 -13.271,49.607c-5.43,1.971 -11.659,-14.332 -19.601,-47.521c8.513,1.879 15.97,1.325 22.642,-0.196c3.707,-0.844 7.533,-0.313 10.23,-1.89Z" style="fill:#829ac2;"/><path d="M603.557,1030.18c-6.772,5.11 -14.342,9.874 -26.929,12.455c5.7,6.039 14.276,10.154 26.53,8.126c-0.632,-4.987 -0.23,-15.341 0.399,-20.581Z" style="fill:#fff;"/><path d="M387.378,1099.77c-9.508,-23.215 -13.163,-36.04 -10.65,-39.342c2.243,-2.946 10.393,-6.147 13.556,1.011c1.522,3.445 5.888,20.752 17.146,36.852c11.616,16.611 30.302,32.012 43.078,34.492c7.35,1.427 5.472,8.665 5.753,9.494c-1.889,7.534 -39.382,9.856 -68.657,-41.957l-0.226,-0.55Z" style="fill:#829ac2;"/><path d="M695.62,867.129c-3.883,-2.039 -2.529,-4.041 -3.338,-6.863c-0.81,-2.821 -1.987,-4.867 -0.19,-8.352c8.308,4.289 9.294,9.919 3.528,15.215Z" style="fill:#e984e4;"/><path d="M3586.53,728.268c15.547,4.111 30.749,9.332 46.558,21.274c-3.775,18.392 -12.033,35.97 -24.568,52.769c-6.152,-5.401 -13.191,-9.817 -22.283,-12.412c5.203,-20.544 4.647,-41.087 0.293,-61.631Z" style="fill:#72767b;"/><path d="M3505.62,736.892c17.907,19.82 32.392,40.472 40.643,62.641c-7.783,5.795 -14.533,11.848 -20.228,18.164c-17.155,-21.764 -38.503,-40.786 -62.443,-58.114c12.124,-8.335 26.25,-15.661 42.028,-22.691Z" style="fill:#72767b;"/><path d="M3548.54,945.602c-37.273,10.614 -61.784,19.243 -64.661,24.506c-2.877,5.264 15.881,7.162 65.147,4.314l-0.486,-28.82Z" style="fill:#72767b;"/><path d="M3445.57,964.812c-0.565,0.486 -1.356,0.612 -2.044,0.325c-0.688,-0.287 -1.156,-0.937 -1.208,-1.681c-4.081,-56.488 -24.096,-90.581 -56.324,-71.25c-1.67,1.001 -2.07,-3.41 -2.408,-5.343c-1.102,-6.293 -6.731,-12.002 -8.977,-17.621c-3.813,-9.539 -5.916,-14.441 -12.247,-22.086c-14.502,-17.511 -38.534,-33.589 -66.939,-41.256c-1.203,-0.32 -1.982,-1.484 -1.819,-2.719c2.022,-13.92 34.135,-7.083 46.525,-2.926c66.697,22.381 110.363,82.365 114.221,143.592c0.682,10.818 -3.127,16.09 -8.78,20.965Z" style="fill:#72767b;"/><path d="M3403.57,1069.41c55.627,-12.093 91.433,-11.996 95.638,-6.218c4.205,5.777 -23.191,17.235 -93.966,27.866c-0.756,-7.018 -1.368,-14.179 -1.672,-21.648Z" style="fill:#72767b;"/><path d="M3410.83,1148.55c14.964,0.087 28.498,-2.698 38.685,-2.197c41.886,2.056 42.776,14.709 -2.417,24.98c-9.032,2.053 -20.496,-0.715 -33.192,1.516l-3.076,-24.299Z" style="fill:#72767b;"/><path d="M3428.02,1246.54c34.991,-6.96 59.513,-10.675 65.219,-7.922c5.707,2.752 -9.328,12.384 -57.303,32.942c-3.032,-8.025 -5.653,-16.379 -7.916,-25.02Z" style="fill:#72767b;"/><path d="M3202.34,1023.05c1.853,-3.975 4.685,-7.413 8.23,-9.993c34.706,-24.882 73.837,-31.552 89.949,-49.548c28.017,-31.292 15.689,-56.466 -26.562,-63.754c-16.981,-2.929 -39.418,2.997 -65.693,6.081c-4.178,0.448 -8.292,-1.287 -10.888,-4.592c-2.595,-3.304 -3.306,-7.713 -1.88,-11.665c2.306,-6.448 10.077,-7.78 21.722,-5.48c5.015,0.905 10.181,0.448 14.959,-1.325c75.48,-27.962 113.278,-0.914 121.141,38.389c4.401,21.995 -4.858,46.342 -48.57,81.03c-5.413,4.313 -12.007,6.883 -18.912,7.372c-40.36,2.85 -73.515,13.987 -84.584,50.522c-9.008,39.833 -19.099,72.407 -31.378,90.329c-7.417,10.867 -21.386,15.126 -33.605,10.245c-29.136,-11.514 -41.048,-29.995 -48.7,-47.613c-14.063,-32.381 -3.289,-61.844 19.918,-38.954c6.728,6.636 4.525,21.211 6.95,29.437c0.199,0.673 0.413,1.325 0.643,1.956c2.168,6.016 7.374,10.424 13.666,11.568c6.292,1.145 12.717,-1.147 16.864,-6.015c25.144,-29.714 43.422,-59.803 56.73,-87.99Z" style="fill:#72767b;"/><path d="M3139.68,1015.93c-0.092,1.637 0.871,3.15 2.393,3.759c1.522,0.61 3.264,0.179 4.326,-1.07c25.983,-30.091 57.299,-52.844 93.403,-69.014c1.194,-0.524 1.893,-1.779 1.711,-3.07c-0.181,-1.291 -1.2,-2.304 -2.493,-2.478c-63.604,-8.657 -96.293,15.753 -99.34,71.873Z" style="fill:#72767b;"/><path d="M3763.54,1185.55c6.009,6.701 11.668,12.957 17.508,18.046c8.679,7.562 16.084,13.396 20.858,17.836c0.434,0.403 1.68,2.641 2.091,3.089c1.5,1.637 2.9,3.669 4.013,5.18c1.233,1.674 2.494,3.178 3.32,4.777c11.685,22.61 1.619,27.475 -33.186,11.704c-1.297,-0.587 -2.887,-1.267 -4.253,-1.911c-8.05,-3.792 -16.193,-9.125 -23.905,-15.175c-2.815,-2.209 -5.737,-4.268 -8.412,-6.677c-1.873,-1.686 -7.411,-6.733 -9.457,-8.262l31.423,-28.607Z" style="fill:#72767b;"/><ellipse cx="321.613" cy="1103.14" rx="27.034" ry="26.133" style="fill:#829ac2;"/><path d="M2949.72,1273.23c-0.977,0.035 -1.814,0.711 -2.055,1.659c-0.241,0.948 0.171,1.942 1.013,2.44c37.069,21.63 75.877,16.328 116.653,-19.287c0.578,-0.503 0.731,-1.34 0.369,-2.015c-0.363,-0.675 -1.145,-1.009 -1.884,-0.804c-36.997,10.142 -74.966,16.397 -114.096,18.007Z" style="fill:#72767b;"/><path d="M2820.95,1109.11c12.904,6.668 19.678,19.045 18.642,20.568c-1.036,1.523 -9.92,9.407 -24.534,3.123c1.407,-7.897 3.404,-15.794 5.892,-23.691Z" style="fill:#72767b;"/><path d="M2837.63,1251.09c29.687,1.149 43.434,1.581 40.288,11.261c-4.159,6.593 -11.587,11.363 -45.185,6.608c1.037,-5.956 2.705,-11.913 4.897,-17.869Z" style="fill:#72767b;"/><path d="M2916.34,1454.62c27.492,15.502 39.942,26.569 37.734,30.109c-2.207,3.54 -19.476,-0.763 -50.611,-15.373c4.561,-4.777 8.797,-9.717 12.877,-14.736Z" style="fill:#72767b;"/><path d="M2824.78,1364.95c30.029,13.471 43.482,23.696 39.115,28.964c-3.607,5.464 -19.508,4.315 -48.268,-13.561l9.153,-15.403Z" style="fill:#72767b;"/><path d="M2790.39,1419.21c27.492,15.502 30.923,22.906 28.716,26.446c-2.207,3.54 -10.503,5.696 -41.638,-8.914l12.922,-17.532Z" style="fill:#72767b;"/><path d="M2832.46,1306.84c31.555,0.586 51.372,7.309 51.11,11.472c-0.261,4.164 -11.677,4.494 -46.015,6.422c-2.415,-5.793 -3.763,-11.74 -5.095,-17.894Z" style="fill:#72767b;"/><path d="M2814.92,1179.02c7.657,-2.687 30.547,-6.154 33.154,0.341c1.557,3.879 -4.203,18.271 -28.363,18.938c-2.49,-6.761 -4.226,-13.24 -4.791,-19.279Z" style="fill:#72767b;"/><path d="M3046.75,1325.6c0.367,-0.365 0.418,-0.94 0.121,-1.364c-0.296,-0.424 -0.854,-0.573 -1.323,-0.354c-29.139,13.485 -57.945,16.076 -86.382,6.499c-0.622,-0.219 -1.313,0.029 -1.654,0.594c-0.341,0.566 -0.239,1.292 0.245,1.741c28.902,27.284 58.62,22.683 88.993,-7.116Z" style="fill:#72767b;"/><path d="M2961.89,1052.24c-6.608,11.689 -10.845,20.304 -13.392,19.611c-2.548,-0.693 -2.856,-8.217 -0.504,-23.854c5.005,0.743 9.642,2.148 13.896,4.243Z" style="fill:#72767b;"/><path d="M2932.48,1047.34c-1.22,12.76 -2.213,23.051 -4.398,23.366c-2.185,0.314 -4.887,-6.023 -8.171,-19.868c4.19,-1.845 8.379,-3.308 12.569,-3.498Z" style="fill:#72767b;"/><path d="M3074.51,1105.6c-21.534,12.232 -32.407,20.909 -31.72,25.734c0.687,4.824 12.934,5.795 37.637,2.614l-5.917,-28.348Z" style="fill:#72767b;"/><path d="M3070.79,1184.72c-10.855,-10.804 -23.125,-12 -29.451,-8.977c-7.704,3.683 -2.779,10.997 20.507,24.665l8.944,-15.688Z" style="fill:#72767b;"/><path d="M2937.5,1045.66c-2.472,-19.581 0.674,-37.407 9.707,-53.393" style="fill:none;stroke:#000;stroke-width:3.13px;"/><path d="M3325.11,1091.13c3.943,0.545 7.507,2.638 9.904,5.816c2.397,3.178 3.43,7.179 2.871,11.12c-0.674,5.224 -2.423,9.635 -7.15,10.667c-25.544,5.576 -66.733,6.526 -77.57,34.784c-16.175,42.178 -43.25,69.224 -72.367,82.825c-33.529,9.308 -45.165,5.677 -52.829,2.743c-7.969,-3.051 -48.987,-39.78 -45.711,-44.338c3.891,-5.414 60.627,21.735 69.011,16.004c38.51,3.229 56.546,-11.456 58.815,-39.938c0.507,-6.016 2.202,-11.872 4.985,-17.23c13.203,-25.216 31.832,-45.595 57.595,-59.633c19.309,-5.334 36.541,-4.973 52.446,-2.82Z" style="fill:#72767b;"/></svg>