<svg width="540" height="498" viewBox="0 0 540 498" fill="none" xmlns="http://www.w3.org/2000/svg">
<g id="animals">
<g id="catYellow">
<path id="Vector" fill-rule="evenodd" clip-rule="evenodd" d="M99.2023 493.531C82.5537 496.425 68.5429 496.498 56.951 496.224C48.6449 496.023 41.5711 496.215 35.6656 494.499C24.384 491.231 17.6387 487.325 14.8548 476.545C11.7606 464.57 10.3094 445.192 22.5677 422.83C24.9317 418.512 30.2439 415.08 34.543 411.639C24.5027 402.713 24.2653 388.51 29.4863 371.369C28.6465 370.127 24.6669 389.377 21.5909 389.971C20.2857 390.226 15.6399 386.712 14.8184 382.386C13.8965 377.594 15.2839 371.588 15.503 371.058C17.94 365.253 23.4621 356.71 33.6758 351.097C41.7536 346.661 51.7574 344.406 59.8536 343.42C85.5749 339.806 107.499 356.418 113.989 366.203C116.207 369.561 120.241 375.887 119.073 382.212C118.434 385.717 117.275 388.775 113.615 390.436C109.836 392.134 100.005 371.141 101.667 368.293C106.596 386.082 108.357 398.149 96.82 410.544C99.3301 413.082 102.57 414.432 104.971 416.559C108.312 419.526 110.703 423.222 113.167 426.727C119.894 436.284 122.514 445.895 123.646 455.488C124.768 464.981 124.458 474.473 118.069 482.25C117.393 483.071 115.887 485.189 114.911 486.065C113.049 487.736 110.904 489.954 108.211 491.085C106.431 491.834 104.651 492.801 102.817 493.13C101.512 493.349 100.27 493.34 99.2023 493.531Z" fill="#FDFDEB" stroke="black" stroke-width="0.5" stroke-miterlimit="1.5" stroke-linecap="round" stroke-linejoin="round"/>
<path id="Vector_2" fill-rule="evenodd" clip-rule="evenodd" d="M107.253 420.309C104.889 423.294 101.923 425.521 100.526 428.36C96.775 436.036 97.341 443.32 99.0022 449.508C100.682 455.769 103.539 460.908 110.695 464.167C114.227 465.773 118.69 465.983 123.154 465.226C123.656 448.513 119.01 433.836 107.253 420.309Z" fill="#FBF250" stroke="#FBF250" stroke-width="0.00588235" stroke-miterlimit="1.5" stroke-linecap="round" stroke-linejoin="round"/>
<path id="Vector_3" fill-rule="evenodd" clip-rule="evenodd" d="M122.296 449.152C109.463 450.594 106.57 454.574 117.304 456.007C119.065 456.244 120.735 456.418 123.337 456.08C123.118 453.771 122.771 451.461 122.296 449.152Z" fill="#CF896B"/>
<path id="Vector_4" fill-rule="evenodd" clip-rule="evenodd" d="M71.1175 343.649C66.6815 379.647 76.95 398.049 102.589 401.042C102.69 400.677 102.936 400.294 103.091 399.947C103.429 399.153 103.721 398.423 103.977 397.574C104.661 395.237 104.926 392.846 105.099 390.336C105.191 389.021 105.245 387.634 105.118 386.301C104.479 379.438 102.626 375.494 100.891 369.324C101.211 369.105 101.302 368.056 101.476 367.937C101.932 367.627 102.215 368.859 103.155 372.008C103.484 373.076 103.657 374.646 104.114 375.914C104.351 376.562 104.442 377.229 104.689 377.904C105.729 380.661 107.171 383.654 109.553 386.931C110.311 387.99 111.105 388.766 112.109 389.633C112.31 389.806 112.83 390.016 113.15 390.035C113.533 390.053 113.761 389.679 113.916 389.733C114.565 389.286 115.249 388.948 115.769 388.428C120.096 384.093 120.132 377.119 115.331 369.479C114.409 368.019 113.579 366.458 112.392 364.87C111.215 363.318 109.69 361.739 108.075 360.224C105.711 357.997 102.909 355.742 99.924 353.753C99.2942 353.497 98.7739 353.004 98.1441 352.612C96.994 351.9 95.7344 351.206 94.7121 350.649C91.1798 348.705 88.1586 347.299 84.7541 346.213C79.8435 344.652 75.2979 344.005 71.1175 343.649Z" fill="#FBF250"/>
<path id="Vector_5" fill-rule="evenodd" clip-rule="evenodd" d="M61.097 343.783C65.5329 379.792 54.1236 398.932 28.4844 401.926C28.0645 400.31 27.4986 398.795 27.1973 397.125C26.7592 394.752 26.6771 392.196 26.7227 389.677C26.741 388.819 26.7592 387.879 26.8414 387.002C27.4894 380.138 27.8728 378.924 29.6162 372.754C29.6892 372.48 30.0269 371.604 29.9996 371.394C29.9813 371.184 29.7622 370.847 29.4245 370.819C29.0777 370.792 28.603 371.102 28.1192 372.709C27.7998 373.776 27.4438 374.863 26.9783 376.14C26.7501 376.789 26.6588 377.519 26.4033 378.194C25.3718 380.951 24.5687 384.091 22.8253 387.751C22.232 388.992 22.6701 388.225 21.876 389.202C21.6296 389.521 21.3375 389.403 20.9542 389.375C20.5617 389.357 20.297 388.892 20.1418 388.946C19.4937 388.49 18.9095 387.988 18.3893 387.468C15.9887 385.067 15.1125 382.758 15.003 379.591C14.9391 377.774 14.8752 375.602 15.5415 373.156C15.5689 373.037 15.6967 372.572 15.715 372.471C15.8427 371.832 16.0435 371.248 16.2717 370.646C16.3356 370.463 16.5364 370.144 16.5912 369.925C17.0293 368.254 17.723 367.296 18.9096 365.717C20.087 364.165 21.2919 361.865 22.9075 360.35C24.1762 359.154 25.4996 357.73 26.9874 356.425C28.2653 355.302 29.68 354.289 31.0583 353.367C31.6881 353.112 33.3585 352.044 33.9974 351.651C35.1475 350.939 36.3249 350.465 37.3563 349.908C40.8886 347.964 44.1928 347.489 47.5973 346.412C52.5079 344.851 56.9074 344.149 61.097 343.783Z" fill="#FBF250"/>
<path id="Vector_6" fill-rule="evenodd" clip-rule="evenodd" d="M26.7397 388.984C27.5703 388.61 30.7649 388.08 32.3987 388.601C37.8752 390.308 39.363 394.132 26.977 395.109C26.621 393.064 26.5206 391.019 26.7397 388.984Z" fill="#CF896B"/>
<path id="Vector_7" fill-rule="evenodd" clip-rule="evenodd" d="M49.1291 345.903C49.4486 348.057 50.5256 349.818 50.5895 351.361C50.8816 358.681 47.4953 359.32 43.9447 354.711C42.9771 353.451 42.256 350.311 41.0695 348.413C43.6982 347.39 46.3818 346.551 49.1291 345.903Z" fill="#CF896B"/>
<path id="Vector_8" fill-rule="evenodd" clip-rule="evenodd" d="M81.696 345.363C79.8704 352.108 80.6098 356.142 82.3075 356.936C83.6858 357.721 86.5883 354.91 90.6774 348.685C88.0122 347.28 84.9819 346.202 81.696 345.363Z" fill="#CF896B"/>
<path id="Vector_9" fill-rule="evenodd" clip-rule="evenodd" d="M105.117 387.031C95.5513 387.597 92.4571 389.97 98.9285 392.846C100.279 393.448 102.315 393.959 104.761 394.023C105.053 391.896 105.199 389.596 105.117 387.031Z" fill="#CF896B"/>
<path id="Vector_10" d="M88.8878 376.56C88.4223 377.546 87.7012 378.222 86.8706 378.76C84.6435 380.239 81.7682 380.303 79.4772 378.924C77.889 377.984 76.4926 376.944 75.8719 375.52" stroke="black" stroke-miterlimit="1.5" stroke-linecap="round" stroke-linejoin="round"/>
<path id="Vector_11" d="M39.8139 377.574C40.2794 378.559 41.0004 379.235 41.831 379.773C44.0581 381.252 46.9334 381.316 49.2244 379.938C50.8126 378.998 52.209 377.957 52.8297 376.533" stroke="black" stroke-miterlimit="1.5" stroke-linecap="round" stroke-linejoin="round"/>
<path id="Vector_12" d="M65.3769 396.916C62.2827 402.219 56.1034 402.155 58.3488 396.587" stroke="black" stroke-miterlimit="1.5" stroke-linecap="round" stroke-linejoin="round"/>
<path id="Vector_13" d="M65.0658 391.22C65.1297 393.757 65.002 395.628 65.4401 397.244C66.079 399.553 67.4846 400.731 68.6894 400.84C69.4744 400.913 70.5515 400.913 71.3913 399.745C71.875 399.069 71.9024 397.938 72.4135 396.806" stroke="black" stroke-miterlimit="1.5" stroke-linecap="round" stroke-linejoin="round"/>
<path id="Vector_14" d="M68.107 388.052C66.318 391.785 64.1548 392.241 61.4622 388.161" stroke="black" stroke-miterlimit="1.5" stroke-linecap="round" stroke-linejoin="round"/>
<path id="Vector_15" d="M82.2622 495.775C91.7092 495.711 103.758 492.088 101.457 485.917" stroke="black" stroke-miterlimit="1.5" stroke-linecap="round" stroke-linejoin="round"/>
<path id="Vector_16" fill-rule="evenodd" clip-rule="evenodd" d="M119.111 438.556C112.548 440.427 108.642 440.911 107.975 439.733C107.318 438.565 109.755 435.799 115.588 431.29C116.309 432.55 116.966 433.837 117.596 435.06C118.189 436.247 118.764 437.387 119.111 438.556Z" fill="#CF896B"/>
<path id="Vector_17" d="M52.4438 495.95C42.9968 495.886 30.9484 492.263 33.2485 486.093" stroke="black" stroke-miterlimit="1.5" stroke-linecap="round" stroke-linejoin="round"/>
</g>
<g id="dogBody">
<path id="Vector_18" fill-rule="evenodd" clip-rule="evenodd" d="M376.5 134.008L384.034 163.731L399.382 208.338L446.76 422.681C446.76 422.681 441.608 433.808 435.774 446.397C425.761 468.013 404.372 482.095 380.559 482.734C353.79 483.448 323.028 484.271 323.028 484.271C274.524 488.536 235.892 473.079 193.277 466.303L191.264 431.622C191.924 404.712 189.911 380.888 183.373 362.227C181.847 357.973 181.359 353.427 181.933 348.946C188.352 299.543 198.31 251.689 212.284 200.793C215.315 189.785 216.289 178.604 218.075 167.444C229.896 167.184 240.796 164.586 251.468 161.025C253.417 160.376 257.335 158.503 257.606 159.704C256.199 163.742 256.015 168.559 256.946 173.614C241.759 189.406 246.165 205.459 266.98 221.738C266.98 232.4 264.771 246.039 271.645 258.703C274.329 263.65 280.737 267.341 283.541 271.595C289.018 279.908 292.796 287.864 298.673 294.932L348.844 217.398C357.211 205.285 371.532 193.357 365.026 176.255C362.969 170.843 349.244 164.987 344.969 158.341C344.503 157.518 344.059 157.486 343.821 156.63C343.713 156.273 343.421 155.245 343.551 154.769C343.681 154.303 343.908 151.857 342.945 150.19C341.451 147.592 339.762 145.362 337.922 143.371L338.972 143.197C342.934 142.635 346.798 140.74 350.727 139.961C355.934 138.922 361.357 138.153 366.52 137.125C368.988 136.627 371.348 135.718 373.588 134.928L376.5 134.008Z" fill="#383B36"/>
<path id="Vector_19" fill-rule="evenodd" clip-rule="evenodd" d="M249.496 257.482C244.452 254.17 242.46 247.729 244.776 242.144C246.909 236.948 249.95 234.74 254.009 235.963C259.649 237.576 263.307 242.999 262.69 248.833C261.532 260.188 256.867 262.374 249.496 257.482Z" fill="#E34E4E" stroke="#E34E4E" stroke-width="0.0021692" stroke-miterlimit="1.5" stroke-linecap="round" stroke-linejoin="round"/>
<path id="Vector_20" fill-rule="evenodd" clip-rule="evenodd" d="M337.913 143.373C339.753 145.365 341.442 147.594 342.936 150.192C343.899 151.859 343.672 154.305 343.542 154.771C343.412 155.247 343.704 156.276 343.812 156.633C344.05 157.488 344.494 157.52 344.96 158.343C349.235 164.989 362.96 170.845 365.017 176.257C371.523 193.36 357.202 205.288 348.835 217.4L298.664 294.935C292.787 287.866 289.009 279.911 283.532 271.598C280.728 267.344 274.32 263.653 271.636 258.706C264.763 246.041 266.971 232.403 266.971 221.741C246.156 205.461 241.75 189.409 256.937 173.616C256.006 168.561 256.157 163.982 257.564 159.945C260.952 159.62 264.416 159.653 267.653 159.003C273.444 157.845 279.213 156.828 285.08 155.756C290.892 154.706 297.43 152.552 302.918 150.495C305.938 149.359 309.878 149.099 313.039 148.471C321.406 146.793 329.383 144.65 337.913 143.373Z" fill="#EDF2EE"/>
<path id="Vector_21" fill-rule="evenodd" clip-rule="evenodd" d="M296.682 460.513C295.772 473.492 290.587 485.885 279.752 492.066C273.334 495.725 265.811 496.158 259.035 496.396C247.344 496.807 237.852 493.614 239.973 483.612C241.651 475.657 254.088 462.332 263.505 453.337C263.505 453.337 271.742 454.571 276.754 455.318C279.254 455.697 281.722 456.227 284.158 456.931C288.921 458.294 296.682 460.513 296.682 460.513Z" fill="white" stroke="black" stroke-width="0.5" stroke-miterlimit="1.5" stroke-linecap="round" stroke-linejoin="round"/>
<path id="Vector_22" fill-rule="evenodd" clip-rule="evenodd" d="M361.042 449.264L367.396 378.992C353.151 395.997 335.226 410.405 313.978 422.452C313.524 436.718 314.151 450.043 316.035 462.275C332.358 454.362 347.642 449.296 361.042 449.264Z" fill="#C85E43" stroke="black" stroke-width="0.0021692" stroke-miterlimit="1.5" stroke-linecap="round" stroke-linejoin="round"/>
<path id="Vector_23" fill-rule="evenodd" clip-rule="evenodd" d="M296.703 460.708L300.167 427.672C293.12 428.993 287.199 429.177 283.963 426.687L263.05 453.25C277.23 455.404 282.837 456.454 288.585 458.175C291.009 458.89 293.748 459.431 296.703 460.708Z" fill="#C85E43" stroke="black" stroke-width="0.0021692" stroke-miterlimit="1.5" stroke-linecap="round" stroke-linejoin="round"/>
<path id="Vector_24" fill-rule="evenodd" clip-rule="evenodd" d="M362.289 449.645C374.78 453.466 389.111 493.353 361.163 496.417C357.05 496.871 336.722 500.313 327.749 491.416C323.083 486.794 319.035 479.78 317.758 473.642C316.394 467.061 316.177 462.905 315.755 462.558L330.184 455.901C330.184 455.901 338.107 453.314 343.152 451.669C345.869 450.781 348.672 450.24 351.519 450.045L361.077 449.385L362.289 449.645Z" fill="white" stroke="black" stroke-width="0.5" stroke-miterlimit="1.5" stroke-linecap="round" stroke-linejoin="round"/>
<path id="Vector_25" fill-rule="evenodd" clip-rule="evenodd" d="M345.999 400.537C353.641 393.707 360.752 386.043 367.745 378.239L365.244 399.595C358.576 401.944 352.342 402.085 345.999 400.537Z" fill="#383B36" stroke="black" stroke-width="0.00232104" stroke-miterlimit="1.5" stroke-linecap="round" stroke-linejoin="round"/>
</g>
<g id="catBody">
<g id="catTail">
<path id="Vector_26" d="M437.553 235.818L437.539 235.836L437.528 235.857C435.193 240.389 432.034 242.524 428.781 242.923C425.517 243.323 422.102 241.985 419.253 239.452C413.565 234.397 410.211 224.656 414.922 214.934C429.658 205.002 443.636 200.7 456.752 202.888C469.876 205.076 482.194 213.771 493.58 229.954C495.865 235.679 497.013 242.901 497.597 251.259C498.13 258.892 498.192 267.454 498.226 276.666C498.228 277.282 498.23 277.901 498.232 278.523C498.262 287.195 498.294 296.413 498.69 305.937C499.096 317.736 502.244 330.899 509.394 346.071L509.394 346.071L509.398 346.078C515.469 357.965 523.046 367.245 531.966 374.186L531.967 374.186C533.953 375.723 535.637 377.628 536.922 379.803L536.923 379.804C538.287 382.103 539.095 383.957 539.356 385.366C539.617 386.771 539.328 387.665 538.592 388.163C537.822 388.685 536.486 388.836 534.497 388.523C532.524 388.212 529.966 387.453 526.806 386.231C509.716 378.174 497.413 363.293 489.539 344.257L489.539 344.257L489.535 344.249C480.034 323.459 477.337 302.229 478.767 280.583L478.768 280.565L478.767 280.547L476.723 255.099L476.722 255.086L476.72 255.073L476.474 255.119C476.72 255.073 476.72 255.073 476.72 255.073L476.72 255.073L476.719 255.07L476.718 255.061L476.711 255.023L476.683 254.875L476.578 254.315C476.488 253.833 476.358 253.142 476.2 252.313C475.886 250.654 475.461 248.436 475.02 246.202C474.579 243.969 474.123 241.719 473.745 239.995C473.556 239.133 473.386 238.401 473.248 237.867C473.179 237.6 473.116 237.379 473.062 237.215C473.035 237.134 473.009 237.062 472.984 237.004C472.964 236.957 472.93 236.884 472.877 236.831C472.852 236.806 472.794 236.744 472.706 236.648C471.947 235.827 468.92 232.553 465.102 229.71C462.971 228.123 460.58 226.659 458.185 225.827C455.796 224.999 453.376 224.79 451.203 225.748C447.041 226.819 442.659 229.243 437.553 235.818Z" fill="#B8B0B0" stroke="black" stroke-width="0.5"/>
<path id="Vector_27" fill-rule="evenodd" clip-rule="evenodd" d="M510.409 348.873C506.853 352.668 502.501 355.881 497.537 358.634C495.581 355.618 493.84 352.339 492.229 348.873C497.171 345.408 501.588 341.613 505.424 337.424L510.409 348.873Z" fill="#72767B"/>
<path id="Vector_28" fill-rule="evenodd" clip-rule="evenodd" d="M479.7 310.84C485.925 309.705 492.217 307.975 498.52 306.008C498.723 309.564 498.992 313.089 499.7 316.429C493.801 318.71 487.936 320.494 482.037 322.008C481.082 318.354 480.284 314.635 479.7 310.84Z" fill="#72767B"/>
<path id="Vector_29" fill-rule="evenodd" clip-rule="evenodd" d="M478.7 275.764C484.99 275.939 491.323 275.676 497.689 275.008L497.7 287.476C491.258 288.177 484.925 288.21 478.7 287.421V275.764Z" fill="#72767B"/>
<path id="Vector_30" fill-rule="evenodd" clip-rule="evenodd" d="M493.95 232.008C488.085 236.456 480.787 240.933 474.7 243.508L476.653 254.228C483.672 253.198 490.568 251.237 496.91 247.457C496.5 242.307 495.469 237.157 493.95 232.008Z" fill="#72767B"/>
<path id="Vector_31" fill-rule="evenodd" clip-rule="evenodd" d="M458.002 203.09C463.695 204.553 469.262 206.403 475.058 210.636C473.672 217.162 470.648 223.39 466.055 229.351C463.799 227.434 461.221 225.861 457.888 224.941C458.14 223.988 458.358 223.035 458.529 222.082C459.721 215.755 459.388 209.428 458.002 203.09Z" fill="#72767B"/>
<path id="Vector_32" fill-rule="evenodd" clip-rule="evenodd" d="M430.361 206.12C436.707 213.054 441.834 220.283 444.758 228.047C442 230.07 439.608 232.192 437.593 234.401C431.513 226.79 423.95 220.13 415.467 214.06C419.764 211.151 424.769 208.581 430.361 206.12Z" fill="#72767B"/>
<path id="Vector_33" fill-rule="evenodd" clip-rule="evenodd" d="M521.013 364.508C523.109 366.84 525.084 369.009 527.125 370.777C530.159 373.402 532.745 375.419 534.415 376.96C534.557 377.101 534.994 377.882 535.146 378.033C535.67 378.608 536.151 379.313 536.543 379.834C536.969 380.42 537.416 380.94 537.7 381.494C541.782 389.336 538.268 391.028 526.11 385.55C525.663 385.355 525.106 385.116 524.626 384.889C521.821 383.576 518.973 381.721 516.277 379.628C515.295 378.858 514.28 378.142 513.341 377.307C512.687 376.721 510.755 374.975 510.034 374.443L521.013 364.508Z" fill="#72767B"/>
</g>
<path id="Vector_34" d="M230.95 315.203C229.989 308.162 231.202 301.762 234.672 296.013" stroke="black" stroke-width="0.00271739" stroke-miterlimit="1.5" stroke-linecap="round" stroke-linejoin="round"/>
<path id="Vector_35" fill-rule="evenodd" clip-rule="evenodd" d="M393.71 322.273C397.174 347.127 398.511 403.107 407.411 423.61C410.907 432.565 404.221 453.836 401.119 479.964C385.731 504.499 358.166 476.646 386.312 471.823L387.726 429.104C374.749 411.897 370.606 395.449 369.006 377.155C383.901 356.884 390.51 339.073 393.71 322.273Z" fill="#B8B0B0" stroke="black" stroke-width="0.5" stroke-miterlimit="1.5" stroke-linecap="round" stroke-linejoin="round"/>
<g id="Vector_36">
<mask id="path-36-inside-1" fill="white">
<path fill-rule="evenodd" clip-rule="evenodd" d="M438.106 235.767C447.481 263.869 447.689 292.465 443.821 320.556C438.183 350.556 439.183 377.254 446.799 400.64C449.019 428.116 447.558 455.604 441.832 483.081C417.006 502.353 392.181 472.474 428.172 467.451L428.37 422.029C402.324 411.367 397.434 366.68 394.016 318.823C392.565 374.369 306.857 445.239 279.757 431.045C278.691 435.542 271.482 443.078 266.734 448.979C253.382 465.564 231.282 483.959 214.523 492.756C207.171 496.606 198.731 497.9 190.565 496.397C178.828 494.258 180.916 487.502 209.577 471.904C222.831 460.628 233.326 446.61 238.766 431.012C232.579 432.208 226.853 432.131 221.996 429.773C206.193 450.701 186.389 471.542 163.883 489.981C161.091 492.262 157.783 493.864 154.256 494.642C125.133 501.213 135.178 486.284 162.948 465.18C176.587 450.745 187.367 434.018 196.774 416.182C191.346 404.764 191.939 393.334 197.544 381.916C183.972 367.261 183.873 348.625 193.203 327.203C195.676 280.432 206.401 277.394 224.996 316.092C229.183 314.095 234.117 314.337 239.7 316.487C256.525 286.037 270.174 273.116 274.273 312.527C284.955 315.763 299.626 292.651 315.605 260.962C336.222 214.29 368.916 197.738 414.962 214.542"/>
</mask>
<path fill-rule="evenodd" clip-rule="evenodd" d="M438.106 235.767C447.481 263.869 447.689 292.465 443.821 320.556C438.183 350.556 439.183 377.254 446.799 400.64C449.019 428.116 447.558 455.604 441.832 483.081C417.006 502.353 392.181 472.474 428.172 467.451L428.37 422.029C402.324 411.367 397.434 366.68 394.016 318.823C392.565 374.369 306.857 445.239 279.757 431.045C278.691 435.542 271.482 443.078 266.734 448.979C253.382 465.564 231.282 483.959 214.523 492.756C207.171 496.606 198.731 497.9 190.565 496.397C178.828 494.258 180.916 487.502 209.577 471.904C222.831 460.628 233.326 446.61 238.766 431.012C232.579 432.208 226.853 432.131 221.996 429.773C206.193 450.701 186.389 471.542 163.883 489.981C161.091 492.262 157.783 493.864 154.256 494.642C125.133 501.213 135.178 486.284 162.948 465.18C176.587 450.745 187.367 434.018 196.774 416.182C191.346 404.764 191.939 393.334 197.544 381.916C183.972 367.261 183.873 348.625 193.203 327.203C195.676 280.432 206.401 277.394 224.996 316.092C229.183 314.095 234.117 314.337 239.7 316.487C256.525 286.037 270.174 273.116 274.273 312.527C284.955 315.763 299.626 292.651 315.605 260.962C336.222 214.29 368.916 197.738 414.962 214.542" fill="#B8B0B0"/>
<path d="M443.821 320.556L444.312 320.648L444.315 320.636L444.316 320.624L443.821 320.556ZM446.799 400.64L447.298 400.599L447.293 400.541L447.275 400.485L446.799 400.64ZM441.832 483.081L442.139 483.476L442.284 483.363L442.321 483.183L441.832 483.081ZM428.172 467.451L428.241 467.946L428.67 467.886L428.672 467.453L428.172 467.451ZM428.37 422.029L428.87 422.031L428.871 421.694L428.559 421.566L428.37 422.029ZM394.016 318.823L394.515 318.787L393.516 318.81L394.016 318.823ZM279.757 431.045L279.989 430.602L279.419 430.304L279.271 430.93L279.757 431.045ZM266.734 448.979L267.124 449.293L267.124 449.293L266.734 448.979ZM214.523 492.756L214.755 493.199L214.755 493.198L214.523 492.756ZM190.565 496.397L190.656 495.906L190.655 495.905L190.565 496.397ZM209.577 471.904L209.816 472.343L209.862 472.318L209.901 472.285L209.577 471.904ZM238.766 431.012L239.238 431.177L239.524 430.356L238.671 430.521L238.766 431.012ZM221.996 429.773L222.214 429.323L221.844 429.143L221.597 429.471L221.996 429.773ZM163.883 489.981L164.199 490.368L164.199 490.367L163.883 489.981ZM154.256 494.642L154.148 494.154L154.146 494.155L154.256 494.642ZM162.948 465.18L163.251 465.578L163.284 465.553L163.312 465.523L162.948 465.18ZM196.774 416.182L197.217 416.416L197.334 416.194L197.226 415.968L196.774 416.182ZM197.544 381.916L197.993 382.136L198.144 381.828L197.911 381.576L197.544 381.916ZM193.203 327.203L193.661 327.403L193.697 327.32L193.702 327.23L193.203 327.203ZM224.996 316.092L224.545 316.308L224.761 316.758L225.211 316.543L224.996 316.092ZM239.7 316.487L239.52 316.953L239.927 317.11L240.138 316.729L239.7 316.487ZM274.273 312.527L273.776 312.579L273.81 312.909L274.128 313.005L274.273 312.527ZM315.605 260.962L316.052 261.188L316.057 261.176L316.063 261.165L315.605 260.962ZM437.632 235.925C446.974 263.931 447.188 292.443 443.326 320.488L444.316 320.624C448.191 292.487 447.987 263.808 438.581 235.609L437.632 235.925ZM443.33 320.464C437.68 350.526 438.676 377.312 446.324 400.794L447.275 400.485C439.69 377.196 438.687 350.585 444.312 320.648L443.33 320.464ZM446.301 400.68C448.517 428.112 447.058 455.552 441.342 482.979L442.321 483.183C448.057 455.657 449.521 428.121 447.298 400.599L446.301 400.68ZM441.525 482.686C429.27 492.2 417.174 489.489 412.577 484.054C411.43 482.697 410.754 481.181 410.63 479.645C410.507 478.115 410.928 476.53 412.035 475.018C414.262 471.974 419.293 469.195 428.241 467.946L428.103 466.955C419.055 468.218 413.693 471.058 411.228 474.427C409.989 476.121 409.49 477.942 409.633 479.726C409.777 481.504 410.556 483.212 411.814 484.7C416.839 490.642 429.569 493.234 442.139 483.476L441.525 482.686ZM428.672 467.453L428.87 422.031L427.87 422.027L427.672 467.448L428.672 467.453ZM428.559 421.566C415.767 416.329 408.088 402.701 403.191 384.246C398.299 365.812 396.224 342.721 394.515 318.787L393.517 318.859C395.226 342.782 397.305 365.963 402.224 384.502C407.138 403.021 414.927 417.066 428.18 422.491L428.559 421.566ZM393.516 318.81C393.157 332.577 387.572 347.335 378.935 361.527C370.301 375.714 358.637 389.301 346.168 400.718C333.697 412.136 320.439 421.367 308.628 426.856C302.723 429.601 297.195 431.402 292.319 432.081C287.44 432.761 283.253 432.311 279.989 430.602L279.525 431.488C283.037 433.327 287.456 433.768 292.457 433.072C297.461 432.375 303.087 430.534 309.05 427.763C320.976 422.22 334.318 412.923 346.843 401.455C359.37 389.986 371.098 376.327 379.789 362.047C388.477 347.772 394.15 332.842 394.516 318.836L393.516 318.81ZM279.271 430.93C279.023 431.974 278.407 433.233 277.517 434.648C276.631 436.057 275.494 437.589 274.235 439.175C272.976 440.759 271.601 442.39 270.241 443.997C268.882 445.601 267.537 447.184 266.345 448.666L267.124 449.293C268.306 447.823 269.642 446.251 271.004 444.643C272.363 443.037 273.748 441.395 275.018 439.797C276.287 438.199 277.449 436.634 278.363 435.181C279.273 433.734 279.958 432.365 280.244 431.16L279.271 430.93ZM266.345 448.666C253.032 465.202 230.984 483.55 214.29 492.313L214.755 493.198C231.58 484.367 253.732 465.926 267.124 449.293L266.345 448.666ZM214.291 492.313C207.037 496.111 198.711 497.388 190.656 495.906L190.475 496.889C198.751 498.412 207.304 497.1 214.755 493.199L214.291 492.313ZM190.655 495.905C189.209 495.642 187.995 495.311 187.029 494.909C186.059 494.506 185.368 494.044 184.934 493.536C184.512 493.042 184.321 492.492 184.365 491.854C184.41 491.199 184.705 490.412 185.337 489.477C186.603 487.602 189.122 485.271 193.154 482.419C197.174 479.574 202.66 476.238 209.816 472.343L209.338 471.465C202.164 475.369 196.641 478.726 192.576 481.602C188.522 484.471 185.879 486.887 184.508 488.918C183.82 489.936 183.428 490.892 183.367 491.786C183.305 492.697 183.59 493.503 184.174 494.186C184.747 494.857 185.595 495.396 186.645 495.832C187.699 496.27 188.987 496.618 190.476 496.889L190.655 495.905ZM209.901 472.285C223.209 460.963 233.763 446.874 239.238 431.177L238.294 430.848C232.889 446.346 222.453 460.293 209.253 471.523L209.901 472.285ZM238.671 430.521C232.535 431.707 226.934 431.614 222.214 429.323L221.777 430.223C226.772 432.648 232.622 432.709 238.861 431.503L238.671 430.521ZM221.597 429.471C205.817 450.368 186.042 471.18 163.566 489.594L164.199 490.367C186.737 471.904 206.568 451.034 222.395 430.074L221.597 429.471ZM163.566 489.593C160.836 491.825 157.599 493.392 154.148 494.154L154.363 495.131C157.967 494.335 161.347 492.699 164.199 490.368L163.566 489.593ZM154.146 494.155C150.52 494.973 147.518 495.453 145.092 495.63C142.66 495.807 140.841 495.677 139.565 495.299C138.296 494.923 137.626 494.325 137.354 493.597C137.074 492.846 137.164 491.82 137.728 490.484C138.857 487.809 141.74 484.23 146.127 479.969C150.5 475.724 156.318 470.847 163.251 465.578L162.646 464.782C155.694 470.065 149.842 474.968 145.431 479.252C141.034 483.521 138.02 487.22 136.806 490.095C136.199 491.533 136.007 492.849 136.417 493.947C136.836 495.069 137.83 495.828 139.281 496.258C140.724 496.685 142.681 496.808 145.165 496.627C147.656 496.445 150.711 495.955 154.366 495.13L154.146 494.155ZM163.312 465.523C176.992 451.044 187.797 434.275 197.217 416.416L196.332 415.949C186.938 433.76 176.182 450.446 162.585 464.837L163.312 465.523ZM197.226 415.968C191.87 404.702 192.447 393.434 197.993 382.136L197.095 381.695C191.431 393.235 190.821 404.825 196.323 416.397L197.226 415.968ZM197.911 381.576C184.527 367.125 184.373 348.728 193.661 327.403L192.744 327.004C183.372 348.523 183.416 367.398 197.177 382.255L197.911 381.576ZM193.702 327.23C194.32 315.548 195.452 306.629 197.082 300.421C197.898 297.316 198.832 294.913 199.874 293.189C200.917 291.461 202.039 290.461 203.212 290.071C204.369 289.686 205.676 289.863 207.172 290.705C208.676 291.552 210.335 293.053 212.146 295.244C215.766 299.622 219.902 306.644 224.545 316.308L225.446 315.875C220.793 306.19 216.615 299.08 212.917 294.606C211.068 292.371 209.318 290.766 207.662 289.834C205.998 288.897 204.395 288.623 202.896 289.122C201.411 289.616 200.127 290.836 199.018 292.672C197.908 294.51 196.943 297.014 196.115 300.167C194.458 306.473 193.322 315.472 192.704 327.177L193.702 327.23ZM225.211 316.543C229.231 314.626 234.014 314.833 239.52 316.953L239.88 316.02C234.221 313.841 229.134 313.565 224.781 315.64L225.211 316.543ZM240.138 316.729C244.339 309.124 248.333 302.632 252.022 297.783C255.728 292.909 259.063 289.783 261.924 288.781C263.329 288.289 264.595 288.318 265.75 288.881C266.92 289.452 268.039 290.602 269.07 292.478C271.138 296.24 272.752 302.737 273.776 312.579L274.771 312.475C273.745 302.611 272.116 295.944 269.946 291.996C268.858 290.017 267.61 288.676 266.188 287.982C264.752 287.282 263.203 287.274 261.594 287.837C258.427 288.946 254.938 292.296 251.226 297.177C247.494 302.083 243.473 308.624 239.262 316.245L240.138 316.729ZM274.128 313.005C277.009 313.878 280.091 312.949 283.279 310.7C286.469 308.449 289.84 304.825 293.353 300.141C300.381 290.769 308.06 277.036 316.052 261.188L315.159 260.737C307.171 276.578 299.525 290.245 292.553 299.541C289.065 304.192 285.767 307.72 282.702 309.883C279.636 312.047 276.879 312.794 274.418 312.048L274.128 313.005ZM316.063 261.165C326.343 237.891 339.603 222.202 355.963 214.4C372.314 206.603 391.853 206.641 414.791 215.012L415.134 214.073C392.025 205.639 372.194 205.552 355.532 213.497C338.88 221.439 325.484 237.361 315.148 260.76L316.063 261.165Z" fill="black" mask="url(#path-36-inside-1)"/>
</g>
<path id="Vector_37" d="M232.652 348.656C230.105 353.445 225.587 354.342 223.562 348.534" stroke="black" stroke-miterlimit="1.5" stroke-linecap="round" stroke-linejoin="round"/>
<path id="Vector_38" d="M227.602 353.584C227.868 355.719 227.858 358.865 227.98 361.131C232.497 365.906 235.624 363.336 234.408 358.733" stroke="black" stroke-miterlimit="1.5" stroke-linecap="round" stroke-linejoin="round"/>
<path id="Vector_39" d="M227.602 361.119C221.899 365.437 219.923 364.101 220.691 358.634" stroke="black" stroke-miterlimit="1.5" stroke-linecap="round" stroke-linejoin="round"/>
<path id="Vector_40" d="M274.155 312.173C274.35 320.797 274.958 327.054 275.555 326.569C284.408 344.181 282.092 359.084 273.053 372.775" stroke="black" stroke-miterlimit="1.5" stroke-linecap="round" stroke-linejoin="round"/>
<path id="Vector_41" d="M246.288 344.494C250.471 344.494 253.863 341.328 253.863 337.424C253.863 333.519 250.471 330.354 246.288 330.354C242.104 330.354 238.713 333.519 238.713 337.424C238.713 341.328 242.104 344.494 246.288 344.494Z" fill="#A2DC83"/>
<path id="Vector_42" d="M246.288 344.494C250.471 344.494 253.863 341.328 253.863 337.424C253.863 333.519 250.471 330.354 246.288 330.354C242.104 330.354 238.713 333.519 238.713 337.424C238.713 341.328 242.104 344.494 246.288 344.494Z" stroke="black" stroke-width="0.00285326" stroke-miterlimit="1.5" stroke-linecap="round" stroke-linejoin="round"/>
<path id="Vector_43" d="M211.947 344.494C216.131 344.494 219.522 341.328 219.522 337.424C219.522 333.519 216.131 330.354 211.947 330.354C207.763 330.354 204.372 333.519 204.372 337.424C204.372 341.328 207.763 344.494 211.947 344.494Z" fill="#A2DC83"/>
<g id="catEyes">
<path id="Vector_44" d="M246.298 340.338C247.926 340.338 249.246 339.11 249.246 337.594C249.246 336.079 247.926 334.85 246.298 334.85C244.67 334.85 243.35 336.079 243.35 337.594C243.35 339.11 244.67 340.338 246.298 340.338Z" fill="#091105"/>
<path id="Vector_45" d="M212.145 340.338C213.773 340.338 215.093 339.11 215.093 337.594C215.093 336.079 213.773 334.85 212.145 334.85C210.517 334.85 209.197 336.079 209.197 337.594C209.197 339.11 210.517 340.338 212.145 340.338Z" fill="#091105"/>
</g>
<path id="Vector_46" d="M211.947 344.494C216.131 344.494 219.522 341.328 219.522 337.424C219.522 333.519 216.131 330.354 211.947 330.354C207.763 330.354 204.372 333.519 204.372 337.424C204.372 341.328 207.763 344.494 211.947 344.494Z" stroke="black" stroke-width="0.00290761" stroke-miterlimit="1.5" stroke-linecap="round" stroke-linejoin="round"/>
<path id="Vector_47" fill-rule="evenodd" clip-rule="evenodd" d="M236.744 437.416C253.011 443.76 260.032 447.303 258.769 448.456C257.036 450.567 247.086 449.63 232.652 445.246C234.184 442.575 235.593 439.947 236.744 437.416Z" fill="#72767B"/>
<path id="Vector_48" fill-rule="evenodd" clip-rule="evenodd" d="M445.601 279.852C432.36 283.414 423.659 286.305 422.638 288.065C421.617 289.825 428.276 290.464 445.768 289.511L445.601 279.852Z" fill="#72767B"/>
<path id="Vector_49" fill-rule="evenodd" clip-rule="evenodd" d="M409.323 286.758C409.125 286.925 408.839 286.97 408.598 286.87C408.356 286.769 408.191 286.536 408.18 286.27C406.74 266.189 399.707 254.066 388.367 260.933C387.784 261.289 387.641 259.722 387.52 259.033C387.136 256.799 385.158 254.766 384.367 252.765C383.026 249.376 382.29 247.631 380.059 244.92C374.96 238.686 366.509 232.974 356.52 230.24C356.091 230.129 355.828 229.718 355.883 229.274C356.586 224.329 367.883 226.762 372.246 228.24C395.696 236.197 411.048 257.522 412.411 279.302C412.642 283.147 411.312 285.025 409.323 286.758Z" fill="#72767B"/>
<path id="Vector_50" fill-rule="evenodd" clip-rule="evenodd" d="M394.256 322.753C414.145 318.508 426.95 318.552 428.448 320.57C429.956 322.599 420.157 326.625 394.86 330.353C394.58 327.897 394.368 325.374 394.256 322.753Z" fill="#72767B"/>
<path id="Vector_51" fill-rule="evenodd" clip-rule="evenodd" d="M397.286 351.323C402.451 351.355 407.129 350.403 410.651 350.575C425.139 351.28 425.441 355.601 409.819 359.12C406.697 359.826 402.732 358.874 398.345 359.644L397.286 351.323Z" fill="#72767B"/>
<path id="Vector_52" fill-rule="evenodd" clip-rule="evenodd" d="M403.347 385.022C415.592 382.538 424.182 381.206 426.174 382.191C428.176 383.176 422.913 386.622 406.115 393.985C405.054 391.109 404.135 388.122 403.347 385.022Z" fill="#72767B"/>
<path id="Vector_53" fill-rule="evenodd" clip-rule="evenodd" d="M323.682 306.725C324.33 305.335 325.318 304.132 326.57 303.224C338.761 294.516 352.522 292.186 358.178 285.884C368.029 274.922 363.691 266.116 348.842 263.567C342.879 262.538 334.994 264.617 325.757 265.689C324.286 265.853 322.847 265.241 321.935 264.081C321.024 262.921 320.771 261.39 321.277 260C322.078 257.747 324.813 257.276 328.909 258.086C330.666 258.403 332.479 258.239 334.159 257.615C360.693 247.824 373.97 257.298 376.738 271.061C378.286 278.751 375.025 287.285 359.671 299.428C357.76 300.938 355.443 301.835 353.016 301.999C338.838 303.005 327.185 306.9 323.297 319.689C320.123 333.637 316.587 345.037 312.271 351.316C309.657 355.112 304.748 356.611 300.454 354.904C290.218 350.868 286.034 344.402 283.343 338.232C278.401 326.898 282.19 316.582 290.339 324.601C292.711 326.92 291.931 332.018 292.788 334.906C292.854 335.136 292.931 335.366 293.008 335.584C293.776 337.696 295.6 339.238 297.818 339.632C300.025 340.037 302.277 339.227 303.738 337.532C312.578 327.128 319.003 316.593 323.682 306.725Z" fill="#72767B"/>
<path id="Vector_54" fill-rule="evenodd" clip-rule="evenodd" d="M302.346 304.696C302.314 305.278 302.65 305.805 303.181 306.014C303.713 306.233 304.309 306.08 304.678 305.64C313.699 295.066 324.564 287.072 337.088 281.395C337.5 281.208 337.75 280.769 337.685 280.319C337.62 279.858 337.273 279.506 336.817 279.441C314.751 276.399 303.409 284.975 302.346 304.696Z" fill="#72767B"/>
<path id="Vector_55" fill-rule="evenodd" clip-rule="evenodd" d="M235.419 394.706C235.069 394.718 234.785 394.976 234.697 395.328C234.609 395.68 234.763 396.055 235.047 396.243C248.031 404.36 261.606 402.378 275.881 389.005C276.089 388.818 276.144 388.501 276.012 388.255C275.892 387.996 275.619 387.867 275.356 387.95C262.405 391.75 249.114 394.108 235.419 394.706Z" fill="#72767B"/>
<path id="Vector_56" fill-rule="evenodd" clip-rule="evenodd" d="M190.145 337.424C194.377 339.746 196.599 344.059 196.257 344.589C195.916 345.123 193.006 347.867 188.211 345.68C188.673 342.926 189.327 340.177 190.145 337.424Z" fill="#72767B"/>
<path id="Vector_57" fill-rule="evenodd" clip-rule="evenodd" d="M196.009 386.915C206.523 387.317 211.393 387.474 210.275 390.939C208.803 393.297 206.169 394.996 194.271 393.297C194.637 391.173 195.234 389.039 196.009 386.915Z" fill="#72767B"/>
<path id="Vector_58" fill-rule="evenodd" clip-rule="evenodd" d="M223.867 458.627C233.148 464.133 237.356 468.063 236.608 469.317C235.859 470.583 230.037 469.051 219.522 463.855C221.062 462.168 222.496 460.403 223.867 458.627Z" fill="#72767B"/>
<path id="Vector_59" fill-rule="evenodd" clip-rule="evenodd" d="M191.415 427.316C201.921 432.024 206.622 435.588 205.103 437.419C203.834 439.327 198.27 438.923 188.211 432.689L191.415 427.316Z" fill="#72767B"/>
<path id="Vector_60" fill-rule="evenodd" clip-rule="evenodd" d="M179.408 445.496C188.626 451.422 189.779 454.254 189.035 455.616C188.291 456.966 185.515 457.79 175.081 452.199L179.408 445.496Z" fill="#72767B"/>
<path id="Vector_61" fill-rule="evenodd" clip-rule="evenodd" d="M194.12 406.502C205.198 406.712 212.164 409.078 212.077 410.535C211.98 411.997 207.965 412.117 195.907 412.798C195.058 410.761 194.59 408.668 194.12 406.502Z" fill="#72767B"/>
<path id="Vector_62" fill-rule="evenodd" clip-rule="evenodd" d="M188.211 361.856C190.758 360.897 198.379 359.659 199.242 361.978C199.762 363.361 197.849 368.5 189.812 368.734C188.981 366.326 188.398 364.007 188.211 361.856Z" fill="#72767B"/>
<path id="Vector_63" fill-rule="evenodd" clip-rule="evenodd" d="M268.91 412.848C269.03 412.707 269.052 412.497 268.943 412.333C268.844 412.17 268.648 412.123 268.485 412.205C258.324 417.241 248.272 418.211 238.352 414.635C238.134 414.554 237.894 414.647 237.774 414.858C237.654 415.068 237.687 415.337 237.861 415.512C247.945 425.713 258.313 423.984 268.91 412.848Z" fill="#72767B"/>
<path id="Vector_64" fill-rule="evenodd" clip-rule="evenodd" d="M239.723 316.819C237.144 321.261 235.481 324.54 234.491 324.279C233.489 324.017 233.367 321.155 234.283 315.203C236.251 315.488 238.06 316.023 239.723 316.819Z" fill="#72767B"/>
<path id="Vector_65" fill-rule="evenodd" clip-rule="evenodd" d="M229.622 315.203C229.121 319.614 228.733 323.171 227.855 323.279C226.978 323.388 225.888 321.204 224.572 316.403C226.251 315.765 227.931 315.268 229.622 315.203Z" fill="#72767B"/>
<path id="Vector_66" fill-rule="evenodd" clip-rule="evenodd" d="M279.074 335.404C271.566 339.901 267.774 343.099 268.014 344.87C268.254 346.641 272.525 347.01 281.134 345.836L279.074 335.404Z" fill="#72767B"/>
<path id="Vector_67" fill-rule="evenodd" clip-rule="evenodd" d="M278.104 363.273C274.099 359.508 269.564 359.095 267.233 360.139C264.382 361.423 266.206 363.969 274.803 368.734L278.104 363.273Z" fill="#72767B"/>
<path id="Vector_68" fill-rule="evenodd" clip-rule="evenodd" d="M367.494 330.873C368.877 331.06 370.128 331.794 370.973 332.912C371.818 334.019 372.181 335.422 371.983 336.813C371.742 338.644 371.127 340.189 369.47 340.55C360.503 342.501 346.039 342.841 342.23 352.748C336.545 367.543 327.041 377.022 316.813 381.79C305.037 385.055 300.954 383.784 298.265 382.754C295.467 381.691 281.057 368.803 282.209 367.203C283.57 365.307 303.5 374.831 306.441 372.825C319.973 373.954 326.306 368.803 327.096 358.819C327.272 356.704 327.875 354.655 328.852 352.77C333.483 343.926 340.024 336.78 349.079 331.86C355.861 329.986 361.908 330.117 367.494 330.873Z" fill="#72767B"/>
</g>
<g id="dogHead">
<path id="Vector_69" fill-rule="evenodd" clip-rule="evenodd" d="M251.018 7.01192C250.959 20.841 260.44 49.1926 272.811 81.9377L269.681 85.7596C256.002 106.358 258.384 130.238 272.33 146.014C264.492 149.377 259.782 154.106 257.734 160.004C255.601 160.144 255.633 163.532 253.651 164.191C242.988 167.748 229.999 167.668 218.2 167.933C218.841 163.853 219.589 159.35 220.597 155.292C215.004 147.637 213.731 138.176 213.941 128.088C213.941 128.088 211.385 130.987 209.306 133.346C207.768 135.088 205.192 135.477 203.211 134.253C176.72 117.876 168.135 94.433 183.223 68.1586C186.852 61.8365 191.357 56.8916 197.746 50.0477C202.121 45.3734 207.881 39.5024 213.599 34.441C214.4 33.7356 215.158 32.9782 215.862 32.1753C226.096 20.5627 237.854 12.2532 251.018 7.01192Z" fill="#383B36"/>
<path id="Vector_70" fill-rule="evenodd" clip-rule="evenodd" d="M271.814 1.37142C294.926 -2.27372 321.444 1.47334 350.882 11.5613C352.862 12.2408 354.789 13.0328 356.672 13.9363C377.689 24.0188 390.056 37.0356 390.644 53.7984C390.987 63.4007 387.779 74.2335 379.353 86.4421C378.367 87.8857 376.473 88.3904 374.892 87.631C366.527 83.2731 358.347 75.4829 350.622 65.4836L333.465 39.3015C338.863 48.9416 344.596 57.8706 350.622 65.4836L360.391 80.3936C366.503 89.719 370.634 100.202 372.524 111.191C373.981 119.656 375.547 128.782 376.066 131.77C376.184 132.441 376.325 133.112 376.487 133.783L376.682 134.584L373.694 135.817C371.453 136.606 370.888 140.232 368.442 140.718C363.267 141.755 356.263 144.08 351.056 145.117C347.127 145.895 344.865 145.418 340.903 145.979L337.927 143.499C334.151 139.319 329.844 136.157 325.7 132.81C319.92 105.152 310.771 82.9447 291.745 76.7024C290.762 70.1825 287.777 64.1836 286.73 57.9224C282.54 32.7293 279.593 10.3597 271.814 1.37142Z" fill="#383B36"/>
<path id="Vector_71" fill-rule="evenodd" clip-rule="evenodd" d="M307.683 92.2861L325.907 131.771C332.598 128.115 340.37 125.693 344.074 122.242C349.52 117.167 349.057 111.246 348.832 106.981C348.563 101.562 345.296 97.9469 334.224 95.0633C330.836 94.1808 325.607 95.3099 321.44 94.4791C313.02 92.8002 306.287 91.452 307.683 92.2861Z" fill="#E34E4E" stroke="#E34E4E" stroke-width="0.0021692" stroke-miterlimit="1.5" stroke-linecap="round" stroke-linejoin="round"/>
<path id="Vector_72" fill-rule="evenodd" clip-rule="evenodd" d="M267.6 108.846L270.707 143.983C263.372 146.063 256.13 149.783 251.07 149.916C243.628 150.113 239.809 145.565 236.981 142.364C233.375 138.31 233.172 133.441 239.05 123.625C240.848 120.621 248.486 117.351 250.876 113.838C252.348 111.676 254.876 110.789 257.161 109.854C262.384 107.725 267.883 107.76 267.6 108.846Z" fill="#E34E4E" stroke="#E34E4E" stroke-width="0.0021692" stroke-miterlimit="1.5" stroke-linecap="round" stroke-linejoin="round"/>
<path id="Vector_73" d="M248.738 86.2232C253.81 86.2252 257.924 82.3396 257.925 77.5444C257.927 72.7492 253.817 68.8603 248.745 68.8583C243.673 68.8563 239.56 72.7419 239.558 77.5371C239.556 82.3323 243.666 86.2212 248.738 86.2232Z" fill="#EEEFE7"/>
<path id="Vector_74" d="M307.809 68.0102C312.881 68.0122 316.994 64.1266 316.996 59.3314C316.998 54.5362 312.888 50.6473 307.816 50.6453C302.744 50.6432 298.63 54.5289 298.628 59.3241C298.627 64.1193 302.737 68.0082 307.809 68.0102Z" fill="#EEEFE7"/>
<g id="dogEyes">
<path id="Vector_75" d="M308.675 64.0975C311.018 64.0985 312.919 62.3454 312.92 60.1818C312.921 58.0183 311.022 56.2635 308.678 56.2625C306.334 56.2616 304.433 58.0149 304.432 60.1785C304.431 62.342 306.331 64.0966 308.675 64.0975Z" fill="#091105"/>
<path id="Vector_76" d="M249.466 82.3999C251.741 82.4008 253.587 80.6292 253.588 78.443C253.589 76.2568 251.745 74.4836 249.469 74.4827C247.193 74.4818 245.347 76.2536 245.347 78.4398C245.346 80.626 247.19 82.399 249.466 82.3999Z" fill="#091105"/>
</g>
<g id="dogEyebrows">
<path id="Vector 27" fill-rule="evenodd" clip-rule="evenodd" d="M311.322 25.5076C310.444 23.8377 306.657 20.5171 309.125 20.9008L290.519 18.0076L282.716 24.0076L282.716 25.5076C278.657 24.0076 281.836 36.9571 282.716 38.6271L285.899 44.6793C286.777 46.3493 288.847 46.9925 290.519 46.1152L311.322 35.0076C312.994 34.1302 312.2 30.0577 311.322 28.3877L311.322 25.5076Z" fill="#383B36"/>
<g id="Vector 7">
<path d="M310.256 35.2609C309.238 40.9238 307.204 44.8043 304.134 46.864C300.486 49.3115 295.375 49.1882 288.763 46.4287" fill="#383B36"/>
<path d="M310.256 35.2609C309.238 40.9238 307.204 44.8043 304.134 46.864C300.486 49.3115 295.375 49.1882 288.763 46.4287" stroke="black" stroke-width="0.5" stroke-miterlimit="1.5" stroke-linecap="round" stroke-linejoin="round"/>
</g>
<path id="Vector 8" fill-rule="evenodd" clip-rule="evenodd" d="M251.516 52.8234C250.497 58.4863 248.463 62.3668 245.393 64.4265C241.745 66.8739 236.634 66.7507 230.022 63.9912" fill="#383B36"/>
<path id="Vector 9" d="M251.516 52.8234C250.497 58.4863 248.463 62.3668 245.393 64.4265C241.745 66.8739 236.634 66.7507 230.022 63.9912" stroke="black" stroke-width="0.5" stroke-miterlimit="1.5" stroke-linecap="round" stroke-linejoin="round"/>
<path id="Vector 29" fill-rule="evenodd" clip-rule="evenodd" d="M247.864 41.3198C246.785 39.2645 243.812 25.9889 241.758 27.0701L231.258 30.5701C229.203 31.6512 208.661 59.3157 209.741 61.371L216.258 62.5701C217.337 64.6254 217.275 71.6669 219.328 70.5871L250.01 54.4504C252.063 53.3706 252.854 50.824 251.775 48.7687L247.864 41.3198Z" fill="#383B36"/>
</g>
<path id="Vector_77" fill-rule="evenodd" clip-rule="evenodd" d="M271.811 1.37116C279.59 10.3595 282.537 32.7291 286.726 57.9221C287.774 64.1833 290.759 70.1823 291.742 76.7021C310.768 82.9444 319.917 105.152 325.697 132.81C329.841 136.157 334.148 139.319 337.924 143.499C343.366 150.266 345.03 157.227 331.229 156.745C328.004 156.625 313.024 153.804 309.993 154.94C304.515 156.994 294.264 157.759 288.462 158.817C282.584 159.876 273.101 161.961 267.32 163.117C264.105 163.754 261.033 159.856 257.677 160.169C259.725 154.27 264.49 149.38 272.328 146.016C258.381 130.24 255.999 106.361 269.678 85.762L272.808 81.9401C260.438 49.1949 250.956 20.8434 251.016 7.0143L253.484 6.04979C254.783 5.60651 256.082 5.16212 257.381 4.71884L261.343 3.5622L265.879 2.49782L271.108 1.4824L271.811 1.37116Z" fill="#EDF2EE"/>
<path id="Vector_78" d="M282.916 137.732C294.939 144.99 304.824 141.993 311.382 131.278" stroke="black" stroke-width="0.8" stroke-miterlimit="1.5" stroke-linecap="round" stroke-linejoin="round"/>
<g id="dogTongue">
<path id="Vector_79" fill-rule="evenodd" clip-rule="evenodd" d="M304.537 127.464C307.068 138.595 307.206 146.572 304.65 150.999C301.065 156.599 296.026 158.503 290.141 158.255C279.912 157.427 278.193 153.421 279.879 148.144L285.294 138.101C286.794 134.97 286.624 132.118 285.184 129.479C288.108 128.544 290.741 125.336 293.05 119.593C295.781 123.641 299.633 126.234 304.537 127.464Z" fill="#FF8B8C" stroke="#FF8B8C" stroke-width="0.00216857" stroke-miterlimit="1.5" stroke-linecap="round" stroke-linejoin="round"/>
<path id="Vector_80" d="M293.053 119.588C296.548 132.597 296.097 142.809 291.962 149.729" stroke="#D96264" stroke-miterlimit="1.5" stroke-linecap="round" stroke-linejoin="round"/>
</g>
<g id="Vector_81">
<path fill-rule="evenodd" clip-rule="evenodd" d="M289.967 108.829C293.482 115.217 291.531 121.342 295.416 124.862C297.764 126.984 300.48 129.486 303.099 130.407C309.517 132.65 313.804 130.963 317.324 126.721C319.576 124.027 319.319 118.279 315.89 112.693" fill="#EDF2EE"/>
<path d="M289.967 108.829C293.482 115.217 291.531 121.342 295.416 124.862C297.764 126.984 300.48 129.486 303.099 130.407C309.517 132.65 313.804 130.963 317.324 126.721C319.576 124.027 319.319 118.279 315.89 112.693" stroke="black" stroke-miterlimit="1.5" stroke-linecap="round" stroke-linejoin="round"/>
</g>
<g id="Vector_82">
<path fill-rule="evenodd" clip-rule="evenodd" d="M291.715 113.086C295.011 126.78 288.403 139.789 276.67 137.467C275.198 137.175 272.925 136.806 271.476 134.424C271.043 133.72 270.145 132.215 270.059 131.403C269.768 128.459 269.422 126.51 269.65 125.168" fill="#EDF2EE"/>
<path d="M291.715 113.086C295.011 126.78 288.403 139.789 276.67 137.467C275.198 137.175 272.925 136.806 271.476 134.424C271.043 133.72 270.145 132.215 270.059 131.403C269.768 128.459 269.422 126.51 269.65 125.168" stroke="black" stroke-miterlimit="1.5" stroke-linecap="round" stroke-linejoin="round"/>
</g>
<path id="Vector_83" fill-rule="evenodd" clip-rule="evenodd" d="M276.904 103.677C276.688 103.075 276.623 102.431 276.71 101.799C277.807 93.499 281.531 91.1375 288.892 90.688C293.287 90.4202 295.148 91.6679 296.5 93.1503C297.517 94.2493 298.134 95.6524 298.274 97.1419C298.425 98.298 298.619 99.3707 298.424 100.322C297.09 106.799 289.36 110.833 281.091 107.864C279.208 107.192 277.639 105.817 276.904 103.677Z" fill="#091105"/>
<path id="Vector_84" d="M289.977 108.836L269.772 125.065" stroke="black" stroke-width="0.0021692" stroke-miterlimit="1.5" stroke-linecap="round" stroke-linejoin="round"/>
<path id="Vector_85" fill-rule="evenodd" clip-rule="evenodd" d="M276.904 103.677C276.688 103.075 276.623 102.431 276.71 101.799C277.807 93.499 281.531 91.1375 288.892 90.688C293.287 90.4202 295.148 91.6679 296.5 93.1502C297.517 94.2493 298.134 95.6524 298.274 97.1419C298.425 98.298 298.619 99.3707 298.424 100.322C297.09 106.799 289.36 110.833 281.091 107.864C279.208 107.192 277.639 105.817 276.904 103.677Z" stroke="black" stroke-width="0.0021692" stroke-miterlimit="1.5" stroke-linecap="round" stroke-linejoin="round"/>
<path id="Vector_86" fill-rule="evenodd" clip-rule="evenodd" d="M295.48 34.2528C293.412 35.5953 291.896 37.6448 291.224 40.0194C289.175 47.2157 292.248 49.5668 300.032 47.4408C304.578 46.3937 307.795 42.324 307.753 37.6533C308.103 30.084 304.391 28.4069 295.48 34.2528Z" fill="#E34E4E" stroke="#E34E4E" stroke-width="0.0021692" stroke-miterlimit="1.5" stroke-linecap="round" stroke-linejoin="round"/>
<path id="Vector_87" fill-rule="evenodd" clip-rule="evenodd" d="M238.853 59.4094C240.573 61.261 242.918 62.3985 245.433 62.6159C252.526 63.2357 255.011 60.7146 253.355 54.9013C252.345 50.4089 248.388 47.2033 243.789 47.1473C234.45 46.6782 230.86 50.9416 238.853 59.4094Z" fill="#E34E4E" stroke="#E34E4E" stroke-width="0.0021692" stroke-miterlimit="1.5" stroke-linecap="round" stroke-linejoin="round"/>
<path id="Vector 30" d="M251 7C259.159 3.97565 263.759 2.79082 272 1.5" stroke="black" stroke-width="0.1"/>
</g>
</g>
</svg>
