<svg width="539" height="499" viewBox="0 0 539 499" fill="none" xmlns="http://www.w3.org/2000/svg">
<g id="animals">
<g id="catYellow">
<path id="Vector" fill-rule="evenodd" clip-rule="evenodd" d="M98.5023 494.524C81.8537 497.417 67.8429 497.49 56.251 497.217C47.9449 497.016 40.8711 497.207 34.9656 495.491C23.684 492.224 16.9387 488.317 14.1548 477.538C11.0606 465.562 9.60939 446.185 21.8677 423.822C24.2317 419.505 29.5439 416.073 33.843 412.632C23.8027 403.705 23.5653 389.503 28.7863 372.361C27.9465 371.12 23.9669 390.37 20.8909 390.963C19.5857 391.219 14.9399 387.704 14.1184 383.378C13.1965 378.586 14.5839 372.58 14.803 372.051C17.24 366.246 22.7621 357.702 32.9758 352.089C41.0536 347.653 51.0574 345.398 59.1536 344.413C84.8749 340.798 106.799 357.41 113.289 367.195C115.507 370.554 119.541 376.879 118.373 383.205C117.734 386.71 116.575 389.767 112.915 391.429C109.136 393.126 99.3055 372.133 100.967 369.285C105.896 387.075 107.657 399.141 96.12 411.536C98.6301 414.074 101.87 415.425 104.271 417.551C107.612 420.518 110.003 424.215 112.467 427.72C119.194 437.276 121.814 446.887 122.946 456.48C124.068 465.973 123.758 475.466 117.369 483.242C116.693 484.064 115.187 486.181 114.211 487.058C112.349 488.728 110.204 490.946 107.511 492.078C105.731 492.826 103.951 493.794 102.117 494.122C100.812 494.341 99.5702 494.332 98.5023 494.524Z" fill="#FDFDEB" stroke="black" stroke-width="0.5" stroke-miterlimit="1.5" stroke-linecap="round" stroke-linejoin="round"/>
<path id="Vector_2" fill-rule="evenodd" clip-rule="evenodd" d="M106.553 421.301C104.189 424.286 101.223 426.513 99.8265 429.352C96.075 437.028 96.641 444.312 98.3022 450.5C99.9817 456.762 102.839 461.901 109.995 465.159C113.527 466.766 117.99 466.976 122.454 466.218C122.956 449.505 118.31 434.828 106.553 421.301Z" fill="#FBF250" stroke="#FBF250" stroke-width="0.00588235" stroke-miterlimit="1.5" stroke-linecap="round" stroke-linejoin="round"/>
<path id="Vector_3" fill-rule="evenodd" clip-rule="evenodd" d="M121.596 450.144C108.763 451.587 105.87 455.566 116.604 456.999C118.365 457.237 120.035 457.41 122.637 457.072C122.418 454.763 122.071 452.454 121.596 450.144Z" fill="#CF896B"/>
<path id="Vector_4" fill-rule="evenodd" clip-rule="evenodd" d="M70.4175 344.641C65.9815 380.64 76.25 399.041 101.889 402.035C101.99 401.67 102.236 401.286 102.391 400.939C102.729 400.145 103.021 399.415 103.277 398.566C103.961 396.23 104.226 393.838 104.399 391.328C104.491 390.014 104.545 388.626 104.418 387.294C103.779 380.43 101.926 376.487 100.191 370.317C100.511 370.098 100.602 369.048 100.776 368.929C101.232 368.619 101.515 369.851 102.455 373C102.784 374.068 102.957 375.638 103.414 376.907C103.651 377.555 103.742 378.221 103.989 378.897C105.029 381.653 106.471 384.647 108.853 387.924C109.611 388.982 110.405 389.758 111.409 390.625C111.61 390.799 112.13 391.009 112.45 391.027C112.833 391.045 113.061 390.671 113.216 390.726C113.865 390.279 114.549 389.941 115.069 389.42C119.396 385.085 119.432 378.111 114.631 370.472C113.709 369.011 112.879 367.451 111.692 365.862C110.515 364.311 108.99 362.732 107.375 361.217C105.011 358.989 102.209 356.735 99.224 354.745C98.5942 354.489 98.0739 353.997 97.4441 353.604C96.294 352.892 95.0344 352.198 94.0121 351.642C90.4798 349.697 87.4586 348.292 84.0541 347.206C79.1435 345.645 74.5979 344.997 70.4175 344.641Z" fill="#FBF250"/>
<path id="Vector_5" fill-rule="evenodd" clip-rule="evenodd" d="M60.397 344.776C64.8329 380.784 53.4236 399.924 27.7844 402.918C27.3645 401.303 26.7986 399.787 26.4973 398.117C26.0592 395.744 25.9771 393.188 26.0227 390.669C26.041 389.811 26.0592 388.871 26.1414 387.995C26.7894 381.131 27.1728 379.917 28.9162 373.747C28.9892 373.473 29.3269 372.597 29.2996 372.387C29.2813 372.177 29.0622 371.839 28.7245 371.812C28.3777 371.784 27.903 372.094 27.4192 373.701C27.0998 374.769 26.7438 375.855 26.2783 377.133C26.0501 377.781 25.9588 378.511 25.7033 379.187C24.6718 381.943 23.8687 385.083 22.1253 388.743C21.5321 389.984 21.9701 389.218 21.176 390.194C20.9296 390.514 20.6375 390.395 20.2542 390.368C19.8617 390.35 19.597 389.884 19.4418 389.939C18.7937 389.482 18.2095 388.98 17.6893 388.46C15.2887 386.06 14.4125 383.75 14.303 380.583C14.2391 378.767 14.1752 376.594 14.8415 374.148C14.8689 374.03 14.9967 373.564 15.015 373.464C15.1427 372.825 15.3435 372.241 15.5717 371.638C15.6356 371.456 15.8364 371.136 15.8912 370.917C16.3293 369.247 17.023 368.288 18.2096 366.709C19.387 365.158 20.5919 362.858 22.2075 361.342C23.4762 360.147 24.7996 358.723 26.2874 357.417C27.5653 356.295 28.98 355.282 30.3583 354.36C30.9881 354.104 32.6585 353.036 33.2974 352.644C34.4475 351.932 35.6249 351.457 36.6563 350.9C40.1886 348.956 43.4928 348.482 46.8973 347.405C51.8079 345.844 56.2074 345.141 60.397 344.776Z" fill="#FBF250"/>
<path id="Vector_6" fill-rule="evenodd" clip-rule="evenodd" d="M26.0397 389.976C26.8703 389.602 30.0649 389.073 31.6987 389.593C37.1752 391.3 38.663 395.124 26.277 396.101C25.921 394.056 25.8206 392.012 26.0397 389.976Z" fill="#CF896B"/>
<path id="Vector_7" fill-rule="evenodd" clip-rule="evenodd" d="M48.4291 346.895C48.7486 349.049 49.8256 350.811 49.8895 352.353C50.1816 359.673 46.7953 360.312 43.2447 355.703C42.2771 354.443 41.556 351.304 40.3695 349.405C42.9982 348.383 45.6818 347.543 48.4291 346.895Z" fill="#CF896B"/>
<path id="Vector_8" fill-rule="evenodd" clip-rule="evenodd" d="M80.996 346.355C79.1704 353.1 79.9098 357.135 81.6075 357.929C82.9858 358.714 85.8883 355.903 89.9774 349.678C87.3122 348.272 84.2819 347.195 80.996 346.355Z" fill="#CF896B"/>
<path id="Vector_9" fill-rule="evenodd" clip-rule="evenodd" d="M104.417 388.024C94.8513 388.59 91.7571 390.963 98.2285 393.838C99.5794 394.44 101.615 394.952 104.061 395.015C104.353 392.889 104.499 390.589 104.417 388.024Z" fill="#CF896B"/>
<path id="Vector_10" d="M88.1878 377.553C87.7223 378.538 87.0012 379.214 86.1706 379.752C83.9435 381.231 81.0682 381.295 78.7772 379.917C77.189 378.977 75.7926 377.936 75.1719 376.512" stroke="black" stroke-miterlimit="1.5" stroke-linecap="round" stroke-linejoin="round"/>
<path id="Vector_11" d="M39.1139 378.566C39.5794 379.552 40.3004 380.227 41.131 380.766C43.3581 382.244 46.2334 382.308 48.5244 380.93C50.1126 379.99 51.509 378.949 52.1297 377.526" stroke="black" stroke-miterlimit="1.5" stroke-linecap="round" stroke-linejoin="round"/>
<path id="Vector_12" d="M64.6769 397.908C61.5827 403.211 55.4034 403.148 57.6488 397.58" stroke="black" stroke-miterlimit="1.5" stroke-linecap="round" stroke-linejoin="round"/>
<path id="Vector_13" d="M64.3658 392.212C64.4297 394.75 64.302 396.621 64.7401 398.236C65.379 400.546 66.7846 401.723 67.9894 401.833C68.7744 401.906 69.8515 401.906 70.6913 400.737C71.175 400.062 71.2024 398.93 71.7135 397.798" stroke="black" stroke-miterlimit="1.5" stroke-linecap="round" stroke-linejoin="round"/>
<path id="Vector_14" d="M67.407 389.044C65.618 392.777 63.4548 393.234 60.7622 389.154" stroke="black" stroke-miterlimit="1.5" stroke-linecap="round" stroke-linejoin="round"/>
<path id="Vector_15" d="M81.5622 496.767C91.0092 496.703 103.058 493.08 100.757 486.91" stroke="black" stroke-miterlimit="1.5" stroke-linecap="round" stroke-linejoin="round"/>
<path id="Vector_16" fill-rule="evenodd" clip-rule="evenodd" d="M118.411 439.548C111.848 441.419 107.942 441.903 107.275 440.726C106.618 439.557 109.055 436.792 114.888 432.283C115.609 433.542 116.266 434.829 116.896 436.052C117.489 437.239 118.064 438.38 118.411 439.548Z" fill="#CF896B"/>
<path id="Vector_17" d="M51.7438 496.943C42.2968 496.879 30.2484 493.255 32.5485 487.085" stroke="black" stroke-miterlimit="1.5" stroke-linecap="round" stroke-linejoin="round"/>
</g>
<g id="dogBody">
<path id="Vector_18" fill-rule="evenodd" clip-rule="evenodd" d="M375.8 135L383.334 164.723L398.682 209.33L446.06 423.673C446.06 423.673 440.908 434.8 435.074 447.389C425.061 469.005 403.672 483.088 379.859 483.726C353.09 484.441 322.328 485.263 322.328 485.263C273.824 489.528 235.192 474.071 192.577 467.295L190.564 432.614C191.224 405.705 189.211 381.88 182.673 363.219C181.147 358.965 180.659 354.419 181.233 349.938C187.652 300.536 197.61 252.682 211.584 201.786C214.615 190.778 215.589 179.596 217.375 168.436C229.196 168.176 240.096 165.579 250.768 162.017C252.717 161.368 256.635 159.495 256.906 160.697C255.499 164.734 255.315 169.551 256.246 174.606C241.059 190.399 245.465 206.451 266.28 222.731C266.28 233.393 264.071 247.031 270.945 259.696C273.629 264.643 280.037 268.334 282.841 272.588C288.318 280.901 292.096 288.856 297.973 295.925L348.144 218.39C356.511 206.278 370.832 194.35 364.326 177.247C362.27 171.835 348.544 165.979 344.269 159.333C343.803 158.51 343.359 158.478 343.121 157.623C343.013 157.266 342.721 156.237 342.851 155.761C342.981 155.295 343.208 152.849 342.245 151.182C340.751 148.584 339.062 146.355 337.222 144.363L338.272 144.19C342.234 143.627 346.098 141.733 350.027 140.953C355.234 139.914 360.657 139.146 365.82 138.117C368.288 137.619 370.648 136.71 372.888 135.92L375.8 135Z" fill="#383B36"/>
<path id="Vector_19" fill-rule="evenodd" clip-rule="evenodd" d="M248.796 258.474C243.751 255.162 241.76 248.722 244.076 243.136C246.209 237.941 249.25 235.732 253.309 236.955C258.949 238.568 262.607 243.991 261.99 249.826C260.832 261.18 256.167 263.367 248.796 258.474Z" fill="#E34E4E" stroke="#E34E4E" stroke-width="0.0021692" stroke-miterlimit="1.5" stroke-linecap="round" stroke-linejoin="round"/>
<path id="Vector_20" fill-rule="evenodd" clip-rule="evenodd" d="M337.213 144.365C339.053 146.357 340.742 148.587 342.236 151.185C343.199 152.852 342.972 155.298 342.842 155.763C342.712 156.24 343.004 157.268 343.112 157.625C343.351 158.48 343.794 158.513 344.26 159.335C348.535 165.981 362.261 171.837 364.317 177.25C370.823 194.352 356.502 206.28 348.135 218.393L297.964 295.927C292.087 288.859 288.309 280.903 282.832 272.59C280.028 268.336 273.62 264.645 270.936 259.698C264.063 247.034 266.271 233.395 266.271 222.733C245.456 206.453 241.05 190.401 256.237 174.608C255.306 169.553 255.457 164.975 256.864 160.937C260.252 160.613 263.716 160.645 266.953 159.996C272.744 158.837 278.513 157.82 284.38 156.748C290.192 155.698 296.73 153.544 302.218 151.488C305.238 150.351 309.178 150.091 312.339 149.464C320.706 147.786 328.684 145.643 337.213 144.365Z" fill="#EDF2EE"/>
<path id="Vector_21" fill-rule="evenodd" clip-rule="evenodd" d="M295.982 461.506C295.072 474.484 289.887 486.878 279.052 493.059C272.634 496.717 265.111 497.15 258.335 497.388C246.644 497.8 237.151 494.606 239.273 484.605C240.951 476.649 253.388 463.324 262.805 454.329C262.805 454.329 271.042 455.563 276.054 456.31C278.554 456.689 281.022 457.219 283.458 457.923C288.221 459.287 295.982 461.506 295.982 461.506Z" fill="white"/>
<path id="Vector_22" fill-rule="evenodd" clip-rule="evenodd" d="M360.342 450.256L366.696 379.985C352.451 396.99 334.526 411.397 313.278 423.444C312.823 437.711 313.451 451.036 315.335 463.267C331.658 455.354 346.942 450.289 360.342 450.256Z" fill="#C85E43" stroke="black" stroke-width="0.0021692" stroke-miterlimit="1.5" stroke-linecap="round" stroke-linejoin="round"/>
<path id="Vector_23" fill-rule="evenodd" clip-rule="evenodd" d="M296.003 461.701L299.467 428.665C292.42 429.985 286.499 430.169 283.263 427.68L262.35 454.243C276.53 456.397 282.137 457.447 287.885 459.168C290.309 459.882 293.048 460.423 296.003 461.701Z" fill="#C85E43" stroke="black" stroke-width="0.0021692" stroke-miterlimit="1.5" stroke-linecap="round" stroke-linejoin="round"/>
<path id="Vector_24" fill-rule="evenodd" clip-rule="evenodd" d="M361.589 450.637C374.08 454.458 388.411 494.346 360.463 497.409C356.35 497.864 336.022 501.306 327.049 492.408C322.383 487.786 318.335 480.772 317.058 474.635C315.694 468.054 315.477 463.897 315.055 463.551L329.484 456.894C329.484 456.894 337.407 454.307 342.452 452.661C345.168 451.774 347.972 451.233 350.819 451.038L360.377 450.378L361.589 450.637Z" fill="white"/>
<path id="Vector_25" fill-rule="evenodd" clip-rule="evenodd" d="M345.299 401.529C352.941 394.699 360.052 387.035 367.045 379.231L364.544 400.587C357.876 402.936 351.642 403.077 345.299 401.529Z" fill="#383B36" stroke="black" stroke-width="0.00232104" stroke-miterlimit="1.5" stroke-linecap="round" stroke-linejoin="round"/>
</g>
<g id="catBody">
<g id="catTail">
<path id="Vector_26" d="M436.853 236.81L436.839 236.828L436.828 236.849C434.493 241.381 431.334 243.516 428.081 243.915C424.817 244.316 421.403 242.977 418.553 240.444C412.865 235.389 409.511 225.648 414.222 215.926C428.958 205.994 442.936 201.693 456.052 203.88C469.176 206.068 481.494 214.763 492.88 230.946C495.165 236.671 496.313 243.894 496.897 252.251C497.43 259.884 497.492 268.447 497.526 277.659C497.528 278.275 497.53 278.893 497.532 279.515C497.562 288.188 497.594 297.405 497.99 306.929C498.396 318.729 501.544 331.891 508.694 347.063L508.694 347.063L508.698 347.07C514.769 358.957 522.346 368.237 531.266 375.178L531.267 375.178C533.253 376.715 534.937 378.62 536.222 380.796L536.223 380.796C537.587 383.096 538.395 384.95 538.656 386.358C538.917 387.763 538.628 388.657 537.892 389.156C537.122 389.677 535.786 389.828 533.797 389.515C531.824 389.204 529.266 388.446 526.107 387.223C509.016 379.167 496.713 364.286 488.839 345.25L488.839 345.25L488.835 345.241C479.334 324.452 476.637 303.221 478.067 281.575L478.068 281.557L478.067 281.539L476.023 256.091L476.022 256.078L476.02 256.066L475.774 256.111C476.02 256.066 476.02 256.066 476.02 256.066L476.02 256.065L476.019 256.062L476.018 256.053L476.011 256.015L475.983 255.868L475.878 255.308C475.788 254.825 475.658 254.135 475.5 253.305C475.186 251.646 474.761 249.428 474.32 247.195C473.879 244.962 473.423 242.711 473.045 240.987C472.856 240.126 472.686 239.393 472.548 238.859C472.479 238.592 472.416 238.372 472.362 238.208C472.335 238.126 472.309 238.054 472.284 237.996C472.264 237.949 472.23 237.876 472.177 237.823C472.152 237.799 472.094 237.736 472.006 237.641C471.247 236.819 468.22 233.546 464.402 230.702C462.271 229.115 459.88 227.651 457.485 226.82C455.096 225.991 452.676 225.782 450.503 226.74C446.341 227.812 441.959 230.236 436.853 236.81Z" fill="#B8B0B0" stroke="black" stroke-width="0.5"/>
<path id="Vector_27" fill-rule="evenodd" clip-rule="evenodd" d="M509.709 349.866C506.153 353.66 501.801 356.874 496.837 359.627C494.881 356.611 493.141 353.331 491.529 349.866C496.471 346.4 500.888 342.606 504.724 338.416L509.709 349.866Z" fill="#72767B"/>
<path id="Vector_28" fill-rule="evenodd" clip-rule="evenodd" d="M479 311.832C485.225 310.697 491.517 308.968 497.82 307C498.023 310.557 498.292 314.081 499 317.422C493.101 319.703 487.236 321.486 481.337 323C480.382 319.346 479.584 315.627 479 311.832Z" fill="#72767B"/>
<path id="Vector_29" fill-rule="evenodd" clip-rule="evenodd" d="M478 276.756C484.29 276.931 490.623 276.668 496.989 276L497 288.469C490.558 289.17 484.225 289.203 478 288.414V276.756Z" fill="#72767B"/>
<path id="Vector_30" fill-rule="evenodd" clip-rule="evenodd" d="M493.25 233C487.385 237.448 480.087 241.925 474 244.5L475.954 255.221C482.972 254.191 489.868 252.229 496.211 248.449C495.8 243.299 494.769 238.15 493.25 233Z" fill="#72767B"/>
<path id="Vector_31" fill-rule="evenodd" clip-rule="evenodd" d="M457.302 204.083C462.995 205.545 468.562 207.396 474.358 211.628C472.972 218.155 469.948 224.382 465.355 230.343C463.099 228.426 460.521 226.853 457.188 225.933C457.44 224.98 457.658 224.028 457.829 223.075C459.021 216.748 458.688 210.421 457.302 204.083Z" fill="#72767B"/>
<path id="Vector_32" fill-rule="evenodd" clip-rule="evenodd" d="M429.661 207.113C436.007 214.046 441.134 221.275 444.058 229.04C441.3 231.063 438.908 233.184 436.893 235.393C430.813 227.782 423.25 221.122 414.767 215.052C419.064 212.143 424.069 209.573 429.661 207.113Z" fill="#72767B"/>
<path id="Vector_33" fill-rule="evenodd" clip-rule="evenodd" d="M520.313 365.5C522.409 367.832 524.384 370.001 526.425 371.769C529.459 374.394 532.045 376.412 533.715 377.952C533.857 378.093 534.294 378.874 534.446 379.026C534.97 379.601 535.45 380.306 535.843 380.826C536.269 381.412 536.716 381.933 537 382.486C541.082 390.328 537.568 392.02 525.41 386.543C524.963 386.347 524.406 386.109 523.926 385.881C521.121 384.569 518.273 382.714 515.577 380.62C514.595 379.85 513.58 379.134 512.641 378.299C511.987 377.713 510.055 375.967 509.334 375.436L520.313 365.5Z" fill="#72767B"/>
</g>
<path id="Vector_34" d="M230.25 316.195C229.289 309.155 230.502 302.754 233.972 297.005" stroke="black" stroke-width="0.00271739" stroke-miterlimit="1.5" stroke-linecap="round" stroke-linejoin="round"/>
<path id="Vector_35" fill-rule="evenodd" clip-rule="evenodd" d="M393.01 323.266C396.474 348.119 397.811 404.1 406.711 424.602C410.207 433.557 403.521 454.829 400.419 480.957C385.031 505.491 357.466 477.638 385.612 472.815L387.026 430.096C374.049 412.89 369.906 396.442 368.306 378.148C383.201 357.876 389.81 340.065 393.01 323.266Z" fill="#B8B0B0" stroke="black" stroke-width="0.5" stroke-miterlimit="1.5" stroke-linecap="round" stroke-linejoin="round"/>
<g id="Vector_36">
<mask id="path-36-inside-1" fill="white">
<path fill-rule="evenodd" clip-rule="evenodd" d="M437.406 236.759C446.781 264.862 446.989 293.457 443.121 321.548C437.483 351.548 438.483 378.246 446.099 401.632C448.319 429.109 446.858 456.597 441.132 484.074C416.306 503.346 391.481 473.467 427.472 468.443L427.67 423.021C401.624 412.359 396.734 367.672 393.316 319.815C391.865 375.362 306.157 446.231 279.057 432.037C277.991 436.535 270.782 444.07 266.034 449.971C252.682 466.556 230.582 484.951 213.823 493.748C206.471 497.598 198.031 498.892 189.865 497.39C178.128 495.251 180.216 488.494 208.877 472.896C222.131 461.62 232.626 447.602 238.066 432.005C231.879 433.2 226.153 433.123 221.296 430.765C205.493 451.694 185.689 472.534 163.183 490.973C160.391 493.254 157.083 494.856 153.556 495.635C124.433 502.205 134.478 487.276 162.248 466.172C175.887 451.737 186.667 435.01 196.074 417.175C190.646 405.756 191.239 394.327 196.844 382.908C183.272 368.254 183.173 349.618 192.503 328.196C194.976 281.425 205.701 278.386 224.296 317.084C228.483 315.088 233.417 315.329 239 317.479C255.825 287.03 269.474 274.108 273.573 313.519C284.255 316.755 298.926 293.644 314.905 261.955C335.522 215.283 368.216 198.731 414.262 215.535"/>
</mask>
<path fill-rule="evenodd" clip-rule="evenodd" d="M437.406 236.759C446.781 264.862 446.989 293.457 443.121 321.548C437.483 351.548 438.483 378.246 446.099 401.632C448.319 429.109 446.858 456.597 441.132 484.074C416.306 503.346 391.481 473.467 427.472 468.443L427.67 423.021C401.624 412.359 396.734 367.672 393.316 319.815C391.865 375.362 306.157 446.231 279.057 432.037C277.991 436.535 270.782 444.07 266.034 449.971C252.682 466.556 230.582 484.951 213.823 493.748C206.471 497.598 198.031 498.892 189.865 497.39C178.128 495.251 180.216 488.494 208.877 472.896C222.131 461.62 232.626 447.602 238.066 432.005C231.879 433.2 226.153 433.123 221.296 430.765C205.493 451.694 185.689 472.534 163.183 490.973C160.391 493.254 157.083 494.856 153.556 495.635C124.433 502.205 134.478 487.276 162.248 466.172C175.887 451.737 186.667 435.01 196.074 417.175C190.646 405.756 191.239 394.327 196.844 382.908C183.272 368.254 183.173 349.618 192.503 328.196C194.976 281.425 205.701 278.386 224.296 317.084C228.483 315.088 233.417 315.329 239 317.479C255.825 287.03 269.474 274.108 273.573 313.519C284.255 316.755 298.926 293.644 314.905 261.955C335.522 215.283 368.216 198.731 414.262 215.535" fill="#B8B0B0"/>
<path d="M443.121 321.548L443.612 321.641L443.615 321.629L443.616 321.617L443.121 321.548ZM446.099 401.632L446.598 401.592L446.593 401.533L446.575 401.477L446.099 401.632ZM441.132 484.074L441.439 484.469L441.584 484.356L441.621 484.176L441.132 484.074ZM427.472 468.443L427.541 468.938L427.97 468.878L427.972 468.445L427.472 468.443ZM427.67 423.021L428.17 423.023L428.171 422.686L427.859 422.558L427.67 423.021ZM393.316 319.815L393.815 319.78L392.816 319.802L393.316 319.815ZM279.057 432.037L279.289 431.595L278.719 431.296L278.571 431.922L279.057 432.037ZM266.034 449.971L266.424 450.285L266.424 450.285L266.034 449.971ZM213.823 493.748L214.055 494.191L214.055 494.191L213.823 493.748ZM189.865 497.39L189.956 496.898L189.955 496.898L189.865 497.39ZM208.877 472.896L209.116 473.336L209.162 473.311L209.201 473.277L208.877 472.896ZM238.066 432.005L238.538 432.169L238.824 431.349L237.971 431.514L238.066 432.005ZM221.296 430.765L221.514 430.315L221.144 430.136L220.897 430.464L221.296 430.765ZM163.183 490.973L163.499 491.36L163.499 491.36L163.183 490.973ZM153.556 495.635L153.448 495.146L153.446 495.147L153.556 495.635ZM162.248 466.172L162.551 466.571L162.584 466.546L162.612 466.516L162.248 466.172ZM196.074 417.175L196.517 417.408L196.634 417.186L196.526 416.96L196.074 417.175ZM196.844 382.908L197.293 383.128L197.444 382.82L197.211 382.568L196.844 382.908ZM192.503 328.196L192.961 328.395L192.997 328.312L193.002 328.222L192.503 328.196ZM224.296 317.084L223.845 317.301L224.061 317.75L224.511 317.536L224.296 317.084ZM239 317.479L238.82 317.946L239.227 318.102L239.438 317.721L239 317.479ZM273.573 313.519L273.076 313.571L273.11 313.902L273.428 313.998L273.573 313.519ZM314.905 261.955L315.352 262.18L315.357 262.169L315.363 262.157L314.905 261.955ZM436.932 236.918C446.274 264.923 446.488 293.435 442.626 321.48L443.616 321.617C447.491 293.479 447.287 264.8 437.881 236.601L436.932 236.918ZM442.63 321.456C436.98 351.519 437.977 378.305 445.624 401.787L446.575 401.477C438.99 378.188 437.987 351.578 443.612 321.641L442.63 321.456ZM445.601 401.672C447.817 429.104 446.358 456.544 440.642 483.972L441.621 484.176C447.357 456.649 448.821 429.113 446.598 401.592L445.601 401.672ZM440.825 483.679C428.57 493.193 416.474 490.482 411.877 485.046C410.73 483.69 410.054 482.174 409.93 480.638C409.807 479.107 410.228 477.523 411.335 476.01C413.562 472.966 418.593 470.187 427.541 468.938L427.403 467.948C418.355 469.211 412.993 472.05 410.528 475.42C409.289 477.114 408.79 478.934 408.933 480.718C409.077 482.497 409.856 484.204 411.114 485.692C416.139 491.634 428.869 494.227 441.439 484.469L440.825 483.679ZM427.972 468.445L428.17 423.023L427.17 423.019L426.972 468.441L427.972 468.445ZM427.859 422.558C415.067 417.322 407.388 403.693 402.491 385.238C397.599 366.804 395.524 343.714 393.815 319.78L392.817 319.851C394.526 343.774 396.605 366.956 401.524 385.495C406.438 404.013 414.227 418.059 427.48 423.484L427.859 422.558ZM392.816 319.802C392.457 333.57 386.872 348.328 378.235 362.52C369.601 376.706 357.937 390.293 345.468 401.71C332.997 413.128 319.739 422.359 307.928 427.848C302.023 430.593 296.495 432.395 291.619 433.074C286.74 433.753 282.553 433.304 279.289 431.595L278.825 432.48C282.337 434.32 286.756 434.761 291.757 434.064C296.761 433.367 302.387 431.527 308.35 428.755C320.276 423.212 333.618 413.916 346.143 402.448C358.67 390.978 370.398 377.32 379.089 363.04C387.777 348.765 393.45 333.834 393.816 319.828L392.816 319.802ZM278.571 431.922C278.323 432.966 277.707 434.225 276.817 435.641C275.931 437.05 274.794 438.581 273.535 440.167C272.276 441.752 270.901 443.382 269.541 444.989C268.182 446.594 266.837 448.177 265.645 449.658L266.424 450.285C267.606 448.816 268.942 447.244 270.304 445.635C271.663 444.029 273.048 442.388 274.318 440.789C275.587 439.191 276.749 437.627 277.663 436.173C278.573 434.726 279.258 433.357 279.544 432.153L278.571 431.922ZM265.645 449.658C252.332 466.194 230.284 484.543 213.59 493.305L214.055 494.191C230.88 485.359 253.032 466.919 266.424 450.285L265.645 449.658ZM213.591 493.305C206.337 497.104 198.011 498.38 189.956 496.898L189.775 497.881C198.051 499.405 206.604 498.093 214.055 494.191L213.591 493.305ZM189.955 496.898C188.509 496.634 187.295 496.303 186.329 495.901C185.359 495.498 184.668 495.036 184.234 494.529C183.812 494.035 183.621 493.484 183.665 492.847C183.71 492.191 184.005 491.405 184.637 490.47C185.903 488.594 188.422 486.263 192.454 483.411C196.474 480.566 201.96 477.23 209.116 473.336L208.638 472.457C201.464 476.361 195.941 479.719 191.876 482.595C187.822 485.463 185.179 487.879 183.808 489.91C183.12 490.929 182.728 491.885 182.667 492.778C182.605 493.69 182.89 494.495 183.474 495.179C184.047 495.849 184.895 496.388 185.945 496.825C186.999 497.263 188.287 497.61 189.776 497.882L189.955 496.898ZM209.201 473.277C222.509 461.955 233.063 447.866 238.538 432.169L237.594 431.84C232.189 447.338 221.753 461.285 208.553 472.516L209.201 473.277ZM237.971 431.514C231.835 432.699 226.234 432.607 221.514 430.315L221.077 431.215C226.073 433.64 231.922 433.701 238.161 432.495L237.971 431.514ZM220.897 430.464C205.117 451.361 185.342 472.173 162.866 490.586L163.499 491.36C186.037 472.896 205.868 452.027 221.695 431.066L220.897 430.464ZM162.866 490.586C160.136 492.818 156.899 494.385 153.448 495.146L153.663 496.123C157.267 495.327 160.647 493.691 163.499 491.36L162.866 490.586ZM153.446 495.147C149.82 495.965 146.818 496.445 144.392 496.622C141.96 496.8 140.141 496.669 138.865 496.291C137.596 495.916 136.926 495.317 136.654 494.59C136.374 493.838 136.464 492.812 137.028 491.476C138.157 488.802 141.04 485.222 145.427 480.962C149.8 476.716 155.618 471.84 162.551 466.571L161.946 465.774C154.994 471.057 149.142 475.961 144.731 480.244C140.334 484.514 137.32 488.212 136.106 491.087C135.499 492.525 135.307 493.841 135.717 494.939C136.136 496.061 137.13 496.821 138.581 497.25C140.024 497.678 141.981 497.801 144.465 497.619C146.956 497.438 150.011 496.947 153.666 496.122L153.446 495.147ZM162.612 466.516C176.292 452.037 187.097 435.267 196.517 417.408L195.632 416.941C186.238 434.753 175.482 451.438 161.885 465.829L162.612 466.516ZM196.526 416.96C191.17 405.695 191.747 394.426 197.293 383.128L196.395 382.688C190.731 394.227 190.121 405.818 195.623 417.389L196.526 416.96ZM197.211 382.568C183.827 368.117 183.673 349.72 192.961 328.395L192.044 327.996C182.672 349.515 182.716 368.39 196.477 383.248L197.211 382.568ZM193.002 328.222C193.62 316.541 194.752 307.621 196.382 301.413C197.198 298.308 198.132 295.906 199.174 294.181C200.217 292.454 201.339 291.454 202.512 291.063C203.669 290.678 204.976 290.855 206.472 291.697C207.976 292.544 209.635 294.046 211.446 296.236C215.066 300.615 219.202 307.637 223.845 317.301L224.746 316.868C220.093 307.183 215.915 300.073 212.217 295.599C210.368 293.363 208.618 291.758 206.962 290.826C205.298 289.889 203.695 289.615 202.196 290.115C200.711 290.609 199.427 291.828 198.318 293.664C197.208 295.503 196.243 298.006 195.415 301.159C193.759 307.465 192.622 316.465 192.004 328.169L193.002 328.222ZM224.511 317.536C228.531 315.619 233.314 315.825 238.82 317.946L239.18 317.012C233.521 314.833 228.434 314.557 224.081 316.633L224.511 317.536ZM239.438 317.721C243.639 310.117 247.633 303.624 251.322 298.775C255.028 293.901 258.363 290.775 261.224 289.773C262.629 289.282 263.895 289.31 265.05 289.874C266.22 290.444 267.339 291.595 268.37 293.47C270.438 297.233 272.052 303.729 273.076 313.571L274.071 313.468C273.045 303.604 271.416 296.937 269.246 292.989C268.158 291.009 266.91 289.668 265.488 288.975C264.052 288.274 262.503 288.266 260.894 288.83C257.727 289.938 254.238 293.288 250.526 298.17C246.794 303.075 242.773 309.617 238.562 317.237L239.438 317.721ZM273.428 313.998C276.309 314.87 279.391 313.942 282.579 311.692C285.769 309.441 289.14 305.818 292.653 301.134C299.681 291.762 307.36 278.028 315.352 262.18L314.459 261.73C306.471 277.571 298.825 291.237 291.853 300.534C288.365 305.184 285.067 308.712 282.002 310.875C278.936 313.039 276.179 313.786 273.718 313.041L273.428 313.998ZM315.363 262.157C325.643 238.884 338.903 223.194 355.263 215.392C371.614 207.595 391.153 207.634 414.091 216.004L414.434 215.065C391.325 206.632 371.494 206.544 354.832 214.49C338.18 222.431 324.784 238.354 314.448 261.753L315.363 262.157Z" fill="black" mask="url(#path-36-inside-1)"/>
</g>
<path id="Vector_37" d="M231.952 349.649C229.405 354.437 224.887 355.334 222.862 349.526" stroke="black" stroke-miterlimit="1.5" stroke-linecap="round" stroke-linejoin="round"/>
<path id="Vector_38" d="M226.902 354.576C227.168 356.711 227.158 359.857 227.28 362.123C231.797 366.898 234.924 364.329 233.708 359.726" stroke="black" stroke-miterlimit="1.5" stroke-linecap="round" stroke-linejoin="round"/>
<path id="Vector_39" d="M226.902 362.111C221.199 366.429 219.223 365.093 219.991 359.627" stroke="black" stroke-miterlimit="1.5" stroke-linecap="round" stroke-linejoin="round"/>
<path id="Vector_40" d="M273.455 313.165C273.65 321.79 274.258 328.046 274.855 327.561C283.708 345.173 281.392 360.076 272.353 373.767" stroke="black" stroke-miterlimit="1.5" stroke-linecap="round" stroke-linejoin="round"/>
<path id="Vector_41" d="M245.588 345.486C249.771 345.486 253.163 342.321 253.163 338.416C253.163 334.511 249.771 331.346 245.588 331.346C241.404 331.346 238.013 334.511 238.013 338.416C238.013 342.321 241.404 345.486 245.588 345.486Z" fill="#A2DC83"/>
<path id="Vector_42" d="M245.588 345.486C249.771 345.486 253.163 342.321 253.163 338.416C253.163 334.511 249.771 331.346 245.588 331.346C241.404 331.346 238.013 334.511 238.013 338.416C238.013 342.321 241.404 345.486 245.588 345.486Z" stroke="black" stroke-width="0.00285326" stroke-miterlimit="1.5" stroke-linecap="round" stroke-linejoin="round"/>
<path id="Vector_43" d="M211.247 345.486C215.431 345.486 218.822 342.321 218.822 338.416C218.822 334.511 215.431 331.346 211.247 331.346C207.063 331.346 203.672 334.511 203.672 338.416C203.672 342.321 207.063 345.486 211.247 345.486Z" fill="#A2DC83"/>
<g id="catEyes">
<path id="Vector_44" d="M245.598 341.331C247.226 341.331 248.546 340.102 248.546 338.587C248.546 337.071 247.226 335.842 245.598 335.842C243.97 335.842 242.65 337.071 242.65 338.587C242.65 340.102 243.97 341.331 245.598 341.331Z" fill="#091105"/>
<path id="Vector_45" d="M211.445 341.331C213.073 341.331 214.393 340.102 214.393 338.587C214.393 337.071 213.073 335.842 211.445 335.842C209.817 335.842 208.497 337.071 208.497 338.587C208.497 340.102 209.817 341.331 211.445 341.331Z" fill="#091105"/>
</g>
<path id="Vector_46" d="M211.247 345.486C215.431 345.486 218.822 342.321 218.822 338.416C218.822 334.511 215.431 331.346 211.247 331.346C207.063 331.346 203.672 334.511 203.672 338.416C203.672 342.321 207.063 345.486 211.247 345.486Z" stroke="black" stroke-width="0.00290761" stroke-miterlimit="1.5" stroke-linecap="round" stroke-linejoin="round"/>
<path id="Vector_47" fill-rule="evenodd" clip-rule="evenodd" d="M236.044 438.409C252.311 444.752 259.332 448.296 258.069 449.448C256.336 451.559 246.386 450.622 231.952 446.239C233.484 443.568 234.893 440.94 236.044 438.409Z" fill="#72767B"/>
<path id="Vector_48" fill-rule="evenodd" clip-rule="evenodd" d="M444.901 280.845C431.66 284.406 422.959 287.298 421.938 289.058C420.917 290.818 427.576 291.457 445.068 290.503L444.901 280.845Z" fill="#72767B"/>
<path id="Vector_49" fill-rule="evenodd" clip-rule="evenodd" d="M408.623 287.751C408.425 287.917 408.139 287.962 407.898 287.862C407.656 287.762 407.491 287.529 407.48 287.262C406.04 267.182 399.007 255.058 387.667 261.925C387.084 262.281 386.941 260.714 386.821 260.025C386.436 257.792 384.458 255.758 383.667 253.758C382.326 250.368 381.59 248.624 379.359 245.912C374.26 239.678 365.809 233.966 355.82 231.233C355.391 231.122 355.128 230.711 355.183 230.266C355.886 225.321 367.183 227.755 371.546 229.233C394.996 237.189 410.348 258.514 411.711 280.294C411.942 284.139 410.612 286.017 408.623 287.751Z" fill="#72767B"/>
<path id="Vector_50" fill-rule="evenodd" clip-rule="evenodd" d="M393.556 323.745C413.445 319.501 426.25 319.545 427.748 321.563C429.256 323.592 419.457 327.617 394.16 331.346C393.88 328.889 393.668 326.367 393.556 323.745Z" fill="#72767B"/>
<path id="Vector_51" fill-rule="evenodd" clip-rule="evenodd" d="M396.586 352.316C401.751 352.348 406.429 351.396 409.951 351.567C424.439 352.273 424.741 356.594 409.119 360.113C405.997 360.818 402.032 359.867 397.645 360.637L396.586 352.316Z" fill="#72767B"/>
<path id="Vector_52" fill-rule="evenodd" clip-rule="evenodd" d="M402.647 386.014C414.892 383.53 423.482 382.199 425.474 383.183C427.476 384.168 422.213 387.615 405.415 394.977C404.354 392.102 403.435 389.114 402.647 386.014Z" fill="#72767B"/>
<path id="Vector_53" fill-rule="evenodd" clip-rule="evenodd" d="M322.982 307.717C323.63 306.328 324.618 305.125 325.87 304.216C338.061 295.508 351.822 293.178 357.478 286.877C367.329 275.915 362.991 267.108 348.142 264.559C342.179 263.531 334.294 265.609 325.057 266.681C323.586 266.846 322.147 266.233 321.235 265.073C320.324 263.914 320.071 262.382 320.577 260.993C321.378 258.739 324.113 258.269 328.209 259.078C329.966 259.395 331.779 259.231 333.459 258.608C359.993 248.817 373.27 258.291 376.038 272.053C377.587 279.744 374.325 288.277 358.971 300.42C357.06 301.93 354.743 302.827 352.316 302.991C338.138 303.998 326.485 307.892 322.597 320.681C319.423 334.629 315.887 346.029 311.571 352.308C308.957 356.105 304.048 357.603 299.754 355.897C289.518 351.86 285.334 345.394 282.643 339.224C277.701 327.891 281.49 317.574 289.639 325.593C292.011 327.912 291.231 333.01 292.088 335.899C292.154 336.128 292.231 336.358 292.308 336.577C293.076 338.688 294.9 340.231 297.118 340.625C299.325 341.029 301.577 340.22 303.038 338.524C311.878 328.12 318.303 317.585 322.982 307.717Z" fill="#72767B"/>
<path id="Vector_54" fill-rule="evenodd" clip-rule="evenodd" d="M301.646 305.688C301.614 306.27 301.95 306.797 302.481 307.006C303.013 307.226 303.609 307.072 303.978 306.633C312.999 296.058 323.864 288.064 336.388 282.387C336.8 282.201 337.05 281.762 336.985 281.311C336.92 280.85 336.573 280.499 336.117 280.433C314.051 277.391 302.709 285.967 301.646 305.688Z" fill="#72767B"/>
<path id="Vector_55" fill-rule="evenodd" clip-rule="evenodd" d="M234.719 395.699C234.369 395.71 234.084 395.968 233.997 396.32C233.909 396.672 234.063 397.048 234.347 397.235C247.331 405.353 260.906 403.37 275.181 389.998C275.389 389.81 275.444 389.493 275.312 389.247C275.192 388.989 274.919 388.86 274.656 388.942C261.705 392.743 248.414 395.1 234.719 395.699Z" fill="#72767B"/>
<path id="Vector_56" fill-rule="evenodd" clip-rule="evenodd" d="M189.445 338.416C193.677 340.739 195.899 345.052 195.557 345.581C195.216 346.115 192.306 348.859 187.511 346.672C187.973 343.919 188.627 341.17 189.445 338.416Z" fill="#72767B"/>
<path id="Vector_57" fill-rule="evenodd" clip-rule="evenodd" d="M195.309 387.907C205.823 388.31 210.693 388.466 209.575 391.931C208.103 394.289 205.469 395.988 193.571 394.289C193.937 392.166 194.534 390.031 195.309 387.907Z" fill="#72767B"/>
<path id="Vector_58" fill-rule="evenodd" clip-rule="evenodd" d="M223.167 459.619C232.448 465.125 236.657 469.055 235.908 470.309C235.159 471.575 229.337 470.043 218.822 464.848C220.362 463.16 221.796 461.395 223.167 459.619Z" fill="#72767B"/>
<path id="Vector_59" fill-rule="evenodd" clip-rule="evenodd" d="M190.715 428.308C201.221 433.017 205.922 436.581 204.403 438.412C203.134 440.319 197.57 439.916 187.511 433.681L190.715 428.308Z" fill="#72767B"/>
<path id="Vector_60" fill-rule="evenodd" clip-rule="evenodd" d="M178.708 446.489C187.926 452.415 189.079 455.246 188.335 456.608C187.591 457.958 184.815 458.783 174.381 453.191L178.708 446.489Z" fill="#72767B"/>
<path id="Vector_61" fill-rule="evenodd" clip-rule="evenodd" d="M193.42 407.495C204.498 407.704 211.464 410.071 211.377 411.527C211.28 412.989 207.265 413.11 195.207 413.79C194.358 411.754 193.89 409.661 193.42 407.495Z" fill="#72767B"/>
<path id="Vector_62" fill-rule="evenodd" clip-rule="evenodd" d="M187.511 362.848C190.058 361.889 197.679 360.652 198.542 362.971C199.062 364.353 197.149 369.493 189.112 369.727C188.281 367.319 187.698 365 187.511 362.848Z" fill="#72767B"/>
<path id="Vector_63" fill-rule="evenodd" clip-rule="evenodd" d="M268.21 413.84C268.33 413.7 268.352 413.489 268.243 413.326C268.144 413.162 267.948 413.116 267.785 413.197C257.624 418.234 247.572 419.204 237.652 415.628C237.434 415.546 237.194 415.64 237.074 415.85C236.954 416.06 236.987 416.329 237.161 416.504C247.245 426.706 257.613 424.976 268.21 413.84Z" fill="#72767B"/>
<path id="Vector_64" fill-rule="evenodd" clip-rule="evenodd" d="M239.023 317.811C236.444 322.254 234.781 325.532 233.791 325.271C232.789 325.01 232.667 322.147 233.583 316.195C235.551 316.481 237.36 317.015 239.023 317.811Z" fill="#72767B"/>
<path id="Vector_65" fill-rule="evenodd" clip-rule="evenodd" d="M228.922 316.195C228.421 320.607 228.033 324.164 227.155 324.272C226.278 324.38 225.188 322.196 223.872 317.396C225.551 316.758 227.231 316.26 228.922 316.195Z" fill="#72767B"/>
<path id="Vector_66" fill-rule="evenodd" clip-rule="evenodd" d="M278.374 336.396C270.866 340.893 267.074 344.091 267.314 345.862C267.554 347.634 271.825 348.002 280.434 346.829L278.374 336.396Z" fill="#72767B"/>
<path id="Vector_67" fill-rule="evenodd" clip-rule="evenodd" d="M277.404 364.265C273.399 360.501 268.864 360.087 266.533 361.132C263.682 362.416 265.506 364.962 274.103 369.727L277.404 364.265Z" fill="#72767B"/>
<path id="Vector_68" fill-rule="evenodd" clip-rule="evenodd" d="M366.794 331.866C368.177 332.052 369.428 332.786 370.273 333.904C371.118 335.011 371.481 336.414 371.283 337.806C371.042 339.636 370.427 341.181 368.77 341.543C359.803 343.493 345.339 343.833 341.53 353.74C335.845 368.535 326.341 378.015 316.113 382.782C304.337 386.048 300.254 384.777 297.565 383.746C294.767 382.683 280.357 369.795 281.509 368.195C282.87 366.3 302.8 375.823 305.741 373.817C319.273 374.946 325.606 369.795 326.396 359.812C326.572 357.697 327.175 355.647 328.152 353.762C332.783 344.918 339.324 337.773 348.379 332.852C355.161 330.978 361.208 331.11 366.794 331.866Z" fill="#72767B"/>
</g>
<g id="dogHead">
<path id="Vector_69" fill-rule="evenodd" clip-rule="evenodd" d="M250.318 8.0043C250.259 21.8334 259.74 50.1849 272.111 82.9301L268.981 86.752C255.302 107.351 257.684 131.23 271.63 147.007C263.792 150.37 259.082 155.098 257.034 160.996C254.901 161.136 254.933 164.524 252.951 165.184C242.288 168.741 229.299 168.66 217.5 168.926C218.141 164.845 218.889 160.343 219.897 156.284C214.304 148.629 213.031 139.168 213.241 129.08C213.241 129.08 210.685 131.98 208.606 134.339C207.068 136.081 204.492 136.469 202.511 135.246C176.02 118.869 167.435 95.4253 182.523 69.151C186.152 62.8289 190.657 57.884 197.046 51.0401C201.421 46.3658 207.181 40.4948 212.899 35.4334C213.7 34.728 214.458 33.9706 215.162 33.1677C225.396 21.5551 237.154 13.2456 250.318 8.0043Z" fill="#383B36"/>
<path id="Vector_70" fill-rule="evenodd" clip-rule="evenodd" d="M271.114 2.3638C294.226 -1.28133 320.744 2.46572 350.182 12.5537C352.162 13.2332 354.089 14.0252 355.972 14.9287C376.989 25.0112 389.356 38.028 389.944 54.7907C390.287 64.3931 387.079 75.2259 378.653 87.4345C377.667 88.8781 375.773 89.3828 374.192 88.6234C365.827 84.2654 357.647 76.4753 349.922 66.476L332.765 40.2938C338.163 49.9339 343.896 58.863 349.922 66.476L359.691 81.386C365.803 90.7113 369.934 101.194 371.824 112.184C373.281 120.649 374.847 129.774 375.366 132.762C375.484 133.433 375.625 134.104 375.787 134.776L375.982 135.577L372.994 136.809C370.753 137.599 370.188 141.225 367.742 141.711C362.567 142.748 355.563 145.072 350.356 146.109C346.427 146.887 344.165 146.41 340.203 146.971L337.227 144.491C333.451 140.312 329.144 137.149 325 133.803C319.22 106.145 310.071 83.9371 291.045 77.6947C290.062 71.1749 287.077 65.1759 286.03 58.9148C281.84 33.7217 278.893 11.3521 271.114 2.3638Z" fill="#383B36"/>
<path id="Vector_71" fill-rule="evenodd" clip-rule="evenodd" d="M306.983 93.2784L325.207 132.763C331.898 129.107 339.67 126.685 343.374 123.234C348.82 118.16 348.357 112.238 348.132 107.974C347.863 102.555 344.596 98.9393 333.524 96.0557C330.136 95.1732 324.907 96.3023 320.74 95.4715C312.32 93.7925 305.587 92.4444 306.983 93.2784Z" fill="#E34E4E" stroke="#E34E4E" stroke-width="0.0021692" stroke-miterlimit="1.5" stroke-linecap="round" stroke-linejoin="round"/>
<path id="Vector_72" fill-rule="evenodd" clip-rule="evenodd" d="M266.9 109.839L270.007 144.975C262.672 147.056 255.43 150.775 250.37 150.908C242.928 151.105 239.109 146.557 236.281 143.356C232.675 139.303 232.473 134.434 238.35 124.617C240.148 121.614 247.786 118.343 250.176 114.83C251.648 112.668 254.176 111.781 256.461 110.847C261.684 108.717 267.183 108.753 266.9 109.839Z" fill="#E34E4E" stroke="#E34E4E" stroke-width="0.0021692" stroke-miterlimit="1.5" stroke-linecap="round" stroke-linejoin="round"/>
<path id="Vector_73" d="M248.038 87.2156C253.11 87.2176 257.224 83.332 257.225 78.5368C257.227 73.7416 253.117 69.8527 248.045 69.8507C242.973 69.8486 238.86 73.7343 238.858 78.5295C238.856 83.3247 242.966 87.2136 248.038 87.2156Z" fill="#EEEFE7"/>
<path id="Vector_74" d="M307.109 69.0026C312.181 69.0046 316.294 65.119 316.296 60.3238C316.298 55.5286 312.188 51.6396 307.116 51.6376C302.044 51.6356 297.93 55.5213 297.928 60.3165C297.927 65.1117 302.037 69.0006 307.109 69.0026Z" fill="#EEEFE7"/>
<g id="dogEyes">
<path id="Vector_75" d="M307.975 65.0899C310.318 65.0909 312.219 63.3377 312.22 61.1742C312.221 59.0107 310.322 57.2558 307.978 57.2549C305.634 57.254 303.733 59.0073 303.732 61.1708C303.731 63.3344 305.631 65.089 307.975 65.0899Z" fill="#091105"/>
<path id="Vector_76" d="M248.766 83.3922C251.041 83.3931 252.887 81.6216 252.888 79.4354C252.889 77.2492 251.045 75.476 248.769 75.4751C246.493 75.4742 244.647 77.2459 244.647 79.4322C244.646 81.6184 246.49 83.3913 248.766 83.3922Z" fill="#091105"/>
</g>
<g id="dogEyebrows">
<path id="Vector 27" fill-rule="evenodd" clip-rule="evenodd" d="M310.622 26.5C309.744 24.8301 305.957 21.5095 308.425 21.8932L289.819 19L282.016 25L282.016 26.5C277.957 25 281.136 37.9495 282.016 39.6195L285.199 45.6717C286.077 47.3417 288.147 47.9849 289.819 47.1076L310.622 36C312.294 35.1226 311.5 31.0501 310.622 29.3801L310.622 26.5Z" fill="#383B36"/>
<g id="Vector 7">
<path d="M309.556 36.2533C308.538 41.9162 306.504 45.7967 303.434 47.8564C299.786 50.3039 294.675 50.1806 288.063 47.4211" fill="#383B36"/>
<path d="M309.556 36.2533C308.538 41.9162 306.504 45.7967 303.434 47.8564C299.786 50.3039 294.675 50.1806 288.063 47.4211" stroke="black" stroke-width="0.5" stroke-miterlimit="1.5" stroke-linecap="round" stroke-linejoin="round"/>
</g>
<path id="Vector 8" fill-rule="evenodd" clip-rule="evenodd" d="M250.816 53.8158C249.797 59.4787 247.763 63.3592 244.693 65.4189C241.045 67.8663 235.934 67.7431 229.322 64.9836" fill="#383B36"/>
<path id="Vector 9" d="M250.816 53.8158C249.797 59.4787 247.763 63.3592 244.693 65.4189C241.045 67.8663 235.934 67.7431 229.322 64.9836" stroke="black" stroke-width="0.5" stroke-miterlimit="1.5" stroke-linecap="round" stroke-linejoin="round"/>
<path id="Vector 29" fill-rule="evenodd" clip-rule="evenodd" d="M247.164 42.3122C246.085 40.2569 243.112 26.9813 241.058 28.0625L230.558 31.5625C228.503 32.6436 207.961 60.3081 209.041 62.3634L215.558 63.5625C216.637 65.6178 216.575 72.6593 218.628 71.5795L249.31 55.4428C251.363 54.363 252.154 51.8164 251.075 49.7611L247.164 42.3122Z" fill="#383B36"/>
</g>
<path id="Vector_77" fill-rule="evenodd" clip-rule="evenodd" d="M271.111 2.36355C278.89 11.3519 281.837 33.7215 286.027 58.9145C287.074 65.1757 290.059 71.1746 291.042 77.6945C310.068 83.9368 319.217 106.144 324.997 133.803C329.141 137.149 333.448 140.311 337.224 144.491C342.666 151.258 344.33 158.219 330.529 157.737C327.304 157.617 312.324 154.797 309.293 155.932C303.815 157.987 293.564 158.751 287.762 159.81C281.884 160.868 272.401 162.953 266.62 164.109C263.405 164.747 260.333 160.849 256.977 161.161C259.025 155.263 263.79 150.372 271.628 147.009C257.682 131.232 255.299 107.353 268.978 86.7544L272.108 82.9325C259.738 50.1873 250.256 21.8358 250.316 8.00669L252.784 7.04217C254.083 6.59889 255.382 6.15451 256.681 5.71123L260.643 4.55459L265.179 3.49021L270.408 2.47479L271.111 2.36355Z" fill="#EDF2EE"/>
<path id="Vector_78" d="M282.216 138.724C294.239 145.983 304.124 142.986 310.682 132.27" stroke="black" stroke-width="0.8" stroke-miterlimit="1.5" stroke-linecap="round" stroke-linejoin="round"/>
<g id="dogTongue">
<path id="Vector_79" fill-rule="evenodd" clip-rule="evenodd" d="M283.016 126.953C284.412 138.283 286.989 145.833 290.896 149.131C296.168 153.181 301.554 153.263 307.006 151.032C316.347 146.783 316.605 142.432 313.228 138.039L304.726 130.43C302.253 127.994 301.445 125.253 301.904 122.282C298.836 122.395 295.271 120.27 291.151 115.652C289.956 120.386 287.212 124.133 283.016 126.953Z" fill="#FF8B8C" stroke="#FF8B8C" stroke-width="0.00216857" stroke-miterlimit="1.5" stroke-linecap="round" stroke-linejoin="round"/>
<path id="Vector_80" d="M291.146 115.648C292.273 129.071 296.162 138.525 302.4 143.631" stroke="#D96264" stroke-miterlimit="1.5" stroke-linecap="round" stroke-linejoin="round"/>
</g>
<g id="Vector_81">
<path fill-rule="evenodd" clip-rule="evenodd" d="M289.267 109.821C292.782 116.209 290.831 122.335 294.716 125.854C297.064 127.977 299.78 130.478 302.399 131.399C308.817 133.642 313.104 131.956 316.624 127.714C318.876 125.019 318.619 119.272 315.19 113.685" fill="#EDF2EE"/>
<path d="M289.267 109.821C292.782 116.209 290.831 122.335 294.716 125.854C297.064 127.977 299.78 130.478 302.399 131.399C308.817 133.642 313.104 131.956 316.624 127.714C318.876 125.019 318.619 119.272 315.19 113.685" stroke="black" stroke-miterlimit="1.5" stroke-linecap="round" stroke-linejoin="round"/>
</g>
<g id="Vector_82">
<path fill-rule="evenodd" clip-rule="evenodd" d="M291.015 114.079C294.311 127.773 287.703 140.781 275.97 138.46C274.498 138.167 272.225 137.798 270.776 135.416C270.343 134.712 269.445 133.208 269.359 132.396C269.068 129.451 268.722 127.503 268.95 126.161" fill="#EDF2EE"/>
<path d="M291.015 114.079C294.311 127.773 287.703 140.781 275.97 138.46C274.498 138.167 272.225 137.798 270.776 135.416C270.343 134.712 269.445 133.208 269.359 132.396C269.068 129.451 268.722 127.503 268.95 126.161" stroke="black" stroke-miterlimit="1.5" stroke-linecap="round" stroke-linejoin="round"/>
</g>
<path id="Vector_83" fill-rule="evenodd" clip-rule="evenodd" d="M276.204 104.669C275.988 104.067 275.923 103.423 276.01 102.791C277.107 94.4914 280.831 92.1299 288.192 91.6804C292.587 91.4126 294.448 92.6603 295.8 94.1426C296.817 95.2417 297.434 96.6448 297.574 98.1343C297.725 99.2904 297.919 100.363 297.724 101.314C296.39 107.791 288.66 111.826 280.391 108.856C278.508 108.185 276.939 106.809 276.204 104.669Z" fill="#091105"/>
<path id="Vector_84" d="M289.277 109.829L269.072 126.057" stroke="black" stroke-width="0.0021692" stroke-miterlimit="1.5" stroke-linecap="round" stroke-linejoin="round"/>
<path id="Vector_85" fill-rule="evenodd" clip-rule="evenodd" d="M276.204 104.669C275.988 104.067 275.923 103.423 276.01 102.791C277.107 94.4914 280.831 92.1299 288.192 91.6804C292.587 91.4126 294.448 92.6603 295.8 94.1426C296.817 95.2417 297.434 96.6448 297.574 98.1343C297.725 99.2904 297.919 100.363 297.724 101.314C296.39 107.791 288.66 111.826 280.391 108.856C278.508 108.185 276.939 106.809 276.204 104.669Z" stroke="black" stroke-width="0.0021692" stroke-miterlimit="1.5" stroke-linecap="round" stroke-linejoin="round"/>
<path id="Vector_86" fill-rule="evenodd" clip-rule="evenodd" d="M294.78 35.2452C292.712 36.5877 291.196 38.6372 290.524 41.0118C288.475 48.2081 291.548 50.5592 299.332 48.4332C303.878 47.3861 307.095 43.3163 307.053 38.6456C307.403 31.0763 303.691 29.3993 294.78 35.2452Z" fill="#E34E4E" stroke="#E34E4E" stroke-width="0.0021692" stroke-miterlimit="1.5" stroke-linecap="round" stroke-linejoin="round"/>
<path id="Vector_87" fill-rule="evenodd" clip-rule="evenodd" d="M238.153 60.4018C239.873 62.2534 242.218 63.3908 244.733 63.6083C251.826 64.2281 254.311 61.707 252.655 55.8937C251.645 51.4013 247.688 48.1957 243.089 48.1397C233.75 47.6706 230.16 51.934 238.153 60.4018Z" fill="#E34E4E" stroke="#E34E4E" stroke-width="0.0021692" stroke-miterlimit="1.5" stroke-linecap="round" stroke-linejoin="round"/>
</g>
</g>
</svg>
