<?xml version="1.0" encoding="UTF-8" standalone="no"?>
<!DOCTYPE svg PUBLIC "-//W3C//DTD SVG 1.1//EN" "http://www.w3.org/Graphics/SVG/1.1/DTD/svg11.dtd">
<svg width="100%" height="100%" viewBox="0 0 369 461" version="1.1" xmlns="http://www.w3.org/2000/svg" xmlns:xlink="http://www.w3.org/1999/xlink" xml:space="preserve" xmlns:serif="http://www.serif.com/" style="fill-rule:evenodd;clip-rule:evenodd;stroke-linecap:round;stroke-linejoin:round;stroke-miterlimit:1.5;">
    <g id="dog-first" transform="matrix(1,0,0,1,-1394.91,-394.125)">
        <g transform="matrix(1,0,0,1,-309.479,-509.639)">
            <path d="M1920.72,1027.78L1927.68,1055.24L1941.86,1096.45L1985.63,1294.47C1985.63,1294.47 1980.87,1304.75 1975.48,1316.38C1966.23,1336.35 1946.47,1349.36 1924.47,1349.95C1899.74,1350.61 1871.32,1351.37 1871.32,1351.37C1826.51,1355.31 1790.82,1341.03 1751.45,1334.77L1749.59,1302.73C1750.2,1277.87 1748.34,1255.86 1742.3,1238.62C1740.89,1234.69 1740.44,1230.49 1740.97,1226.35C1746.9,1180.71 1756.1,1136.5 1769.01,1089.48C1771.81,1079.31 1772.71,1068.98 1774.36,1058.67C1785.28,1058.43 1795.35,1056.03 1805.21,1052.74C1807.01,1052.14 1810.63,1050.41 1810.88,1051.52C1809.58,1055.25 1809.41,1059.7 1810.27,1064.37C1796.24,1078.96 1800.31,1093.79 1819.54,1108.83C1819.54,1118.68 1817.5,1131.28 1823.85,1142.98C1826.33,1147.55 1832.25,1150.96 1834.84,1154.89C1839.9,1162.57 1843.39,1169.92 1848.82,1176.45L1895.17,1104.82C1902.9,1093.63 1916.13,1082.61 1910.12,1066.81C1908.22,1061.81 1895.54,1056.4 1891.59,1050.26C1891.16,1049.5 1890.75,1049.47 1890.53,1048.68C1890.43,1048.35 1890.16,1047.4 1890.28,1046.96C1890.4,1046.53 1890.61,1044.27 1889.72,1042.73C1888.34,1040.33 1886.78,1038.27 1885.08,1036.43L1886.05,1036.27C1889.71,1035.75 1893.28,1034 1896.91,1033.28C1901.72,1032.32 1906.73,1031.61 1911.5,1030.66C1913.78,1030.2 1915.96,1029.36 1918.03,1028.63L1920.72,1027.78Z" style="fill:rgb(56,59,54);"/>
        </g>
        <g transform="matrix(1,0,0,1,-309.479,-509.639)">
            <path d="M1818.37,906.083L1814.18,907.068C1817.12,906.276 1820.13,905.629 1823.2,905.143L1818.37,906.083Z" style="fill:rgb(56,59,54);"/>
        </g>
        <g transform="matrix(1,0,0,1,-309.479,-509.639)">
            <path d="M1803.39,1141.85C1798.73,1138.79 1796.89,1132.84 1799.03,1127.68C1801,1122.88 1803.81,1120.84 1807.56,1121.97C1812.77,1123.46 1816.15,1128.47 1815.58,1133.86C1814.51,1144.35 1810.2,1146.37 1803.39,1141.85Z" style="fill:rgb(227,78,78);stroke:rgb(227,78,78);stroke-width:1px;"/>
        </g>
        <g transform="matrix(1,0,0,1,-309.479,-509.639)">
            <path d="M1885.08,1036.43C1886.78,1038.27 1888.34,1040.33 1889.72,1042.73C1890.61,1044.27 1890.4,1046.53 1890.28,1046.96C1890.16,1047.4 1890.43,1048.35 1890.53,1048.68C1890.75,1049.47 1891.16,1049.5 1891.59,1050.26C1895.54,1056.4 1908.22,1061.81 1910.12,1066.81C1916.13,1082.61 1902.9,1093.63 1895.17,1104.82L1848.82,1176.45C1843.39,1169.92 1839.9,1162.57 1834.84,1154.89C1832.25,1150.96 1826.33,1147.55 1823.85,1142.98C1817.5,1131.28 1819.54,1118.68 1819.54,1108.83C1800.31,1093.79 1796.24,1078.96 1810.27,1064.37C1809.41,1059.7 1809.55,1055.47 1810.85,1051.74C1813.98,1051.44 1817.18,1051.47 1820.17,1050.87C1825.52,1049.8 1830.85,1048.86 1836.27,1047.87C1841.64,1046.9 1847.68,1044.91 1852.75,1043.01C1855.54,1041.96 1859.18,1041.72 1862.1,1041.14C1869.83,1039.59 1877.2,1037.61 1885.08,1036.43Z" style="fill:rgb(237,242,238);"/>
        </g>
        <g transform="matrix(1,0,0,1,-309.479,-509.639)">
            <path d="M1846.99,1329.42C1846.15,1341.41 1841.36,1352.86 1831.35,1358.57C1825.42,1361.95 1818.47,1362.35 1812.21,1362.57C1801.41,1362.95 1792.64,1360 1794.6,1350.76C1796.15,1343.41 1807.64,1331.1 1816.34,1322.79C1816.34,1322.79 1823.95,1323.93 1828.58,1324.62C1830.89,1324.97 1833.17,1325.46 1835.42,1326.11C1839.82,1327.37 1846.99,1329.42 1846.99,1329.42Z" style="fill:white;stroke:black;stroke-width:1px;"/>
        </g>
        <g transform="matrix(1,0,0,1,-309.479,-509.639)">
            <path d="M1906.45,1319.03L1912.32,1254.11C1899.16,1269.82 1882.6,1283.13 1862.97,1294.26C1862.55,1307.44 1863.13,1319.75 1864.87,1331.05C1879.95,1323.74 1894.07,1319.06 1906.45,1319.03Z" style="fill:rgb(200,94,67);stroke:black;stroke-width:1px;"/>
        </g>
        <g transform="matrix(1,0,0,1,-309.479,-509.639)">
            <path d="M1847.01,1329.6L1850.21,1299.08C1843.7,1300.3 1838.23,1300.47 1835.24,1298.17L1815.92,1322.71C1829.02,1324.7 1834.2,1325.67 1839.51,1327.26C1841.75,1327.92 1844.28,1328.42 1847.01,1329.6Z" style="fill:rgb(200,94,67);stroke:black;stroke-width:1px;"/>
        </g>
        <g transform="matrix(1,0,0,1,-309.858,-509.26)">
            <path d="M1907.98,1319C1919.52,1322.53 1932.76,1359.38 1906.94,1362.21C1903.14,1362.63 1884.36,1365.81 1876.07,1357.59C1871.76,1353.32 1868.02,1346.84 1866.84,1341.17C1865.58,1335.09 1865.38,1331.25 1864.99,1330.93L1878.32,1324.78C1878.32,1324.78 1885.64,1322.39 1890.3,1320.87C1892.81,1320.05 1895.4,1319.55 1898.03,1319.37L1906.86,1318.76L1907.98,1319Z" style="fill:white;stroke:black;stroke-width:1px;"/>
        </g>
        <g transform="matrix(1,0,0,1,-309.479,-509.639)">
            <path d="M1892.55,1274.01C1899.61,1267.7 1906.18,1260.62 1912.64,1253.41L1910.33,1273.14C1904.17,1275.31 1898.41,1275.44 1892.55,1274.01Z" style="fill:rgb(56,59,54);stroke:black;stroke-width:1.07px;"/>
        </g>
        <g transform="matrix(1,0,0,1,-309.479,-509.639)">
            <path d="M1790.81,1192.46C1790.01,1186.19 1791.02,1180.49 1793.91,1175.37" style="fill:none;stroke:black;stroke-width:1px;"/>
        </g>
        <g id="dog-head" transform="matrix(1,0.000395843,-0.000395843,1,0.17158,-0.615233)">
            <g transform="matrix(1,0,0,1,-309.479,-509.639)">
                <path d="M1804.64,910.261C1804.59,923.037 1813.36,949.226 1824.8,979.473L1821.91,983.005C1809.28,1002.04 1811.49,1024.1 1824.38,1038.67C1817.14,1041.78 1812.79,1046.15 1810.9,1051.6C1808.93,1051.73 1808.96,1054.86 1807.13,1055.47C1797.28,1058.76 1785.28,1058.69 1774.38,1058.94C1774.97,1055.17 1775.66,1051.01 1776.59,1047.26C1771.42,1040.19 1770.24,1031.45 1770.43,1022.13C1770.43,1022.13 1768.07,1024.81 1766.15,1026.99C1764.73,1028.6 1762.35,1028.96 1760.52,1027.83C1736.04,1012.71 1728.1,991.055 1742.03,966.776C1745.38,960.934 1749.54,956.364 1755.44,950.039C1759.48,945.719 1764.8,940.293 1770.08,935.615C1770.82,934.963 1771.52,934.263 1772.17,933.521C1781.62,922.789 1792.48,915.108 1804.64,910.261Z" style="fill:rgb(56,59,54);"/>
            </g>
            <g transform="matrix(1,0,0,1,-309.479,-509.639)">
                <path d="M1823.85,905.04C1845.2,901.664 1869.7,905.116 1896.9,914.425C1898.73,915.052 1900.51,915.783 1902.25,916.617C1921.67,925.924 1933.1,937.945 1933.65,953.431C1933.97,962.302 1931.01,972.311 1923.23,983.593C1922.32,984.927 1920.57,985.394 1919.11,984.693C1911.38,980.67 1903.82,973.476 1896.68,964.241L1880.82,940.059C1885.81,948.963 1891.11,957.21 1896.68,964.241L1905.71,978.012C1911.36,986.625 1915.18,996.308 1916.93,1006.46C1918.28,1014.28 1919.73,1022.71 1920.21,1025.47C1920.32,1026.09 1920.45,1026.71 1920.6,1027.33L1920.78,1028.07L1918.02,1029.21C1915.95,1029.94 1915.43,1033.29 1913.17,1033.74C1908.39,1034.7 1901.92,1036.85 1897.11,1037.81C1893.48,1038.53 1891.39,1038.09 1887.73,1038.61L1884.98,1036.32C1881.49,1032.46 1877.51,1029.54 1873.68,1026.45C1868.33,1000.9 1859.87,980.387 1842.29,974.627C1841.38,968.604 1838.62,963.063 1837.65,957.279C1833.77,934.006 1831.04,913.341 1823.85,905.04Z" style="fill:rgb(56,59,54);"/>
            </g>
            <g transform="matrix(1,0,0,1,-309.479,-509.639)">
                <path d="M1857.02,989.019L1873.87,1025.49C1880.05,1022.11 1887.23,1019.87 1890.65,1016.68C1895.68,1011.99 1895.25,1006.52 1895.04,1002.58C1894.79,997.574 1891.77,994.235 1881.54,991.575C1878.41,990.761 1873.58,991.806 1869.73,991.04C1861.95,989.492 1855.73,988.249 1857.02,989.019Z" style="fill:rgb(227,78,78);stroke:rgb(227,78,78);stroke-width:1px;"/>
            </g>
            <g transform="matrix(-0.712814,0.701354,0.701354,0.712814,2129.89,-1518.08)">
                <path d="M1853.16,1000.33L1873.87,1025.49C1880.05,1022.11 1887.23,1019.87 1890.65,1016.68C1895.68,1011.99 1895.25,1006.52 1895.04,1002.58C1894.79,997.574 1891.77,994.235 1881.54,991.575C1878.41,990.761 1871.26,993.553 1867.41,992.787C1865.04,992.316 1862.8,993.369 1860.69,994.233C1855.87,996.213 1852.27,999.798 1853.16,1000.33Z" style="fill:rgb(227,78,78);stroke:rgb(227,78,78);stroke-width:1px;"/>
            </g>
            <g transform="matrix(1,0,0,1,-309.479,-509.639)">
                <path d="M1845.73,935.41C1843.82,936.651 1842.42,938.545 1841.8,940.739C1839.91,947.388 1842.75,949.559 1849.94,947.592C1854.14,946.623 1857.11,942.862 1857.07,938.547C1857.39,931.554 1853.96,930.006 1845.73,935.41Z" style="fill:rgb(227,78,78);stroke:rgb(227,78,78);stroke-width:1px;"/>
            </g>
            <g transform="matrix(6.12323e-17,-1,1,6.12323e-17,549.176,2294.51)">
                <path d="M1845.48,934.77C1843.77,936.359 1842.72,938.526 1842.52,940.85C1841.95,947.403 1844.28,949.698 1849.65,948.166C1853.8,947.231 1856.76,943.574 1856.81,939.325C1857.24,930.697 1853.3,927.382 1845.48,934.77Z" style="fill:rgb(227,78,78);stroke:rgb(227,78,78);stroke-width:1px;"/>
            </g>
            <g transform="matrix(1,0,0,1,-309.479,-509.639)">
                <path d="M1823.85,905.04C1831.04,913.341 1833.77,934.006 1837.65,957.279C1838.62,963.063 1841.38,968.604 1842.29,974.627C1859.87,980.387 1868.33,1000.9 1873.68,1026.45C1877.51,1029.54 1881.49,1032.46 1884.98,1036.32C1890.01,1042.57 1891.55,1049 1878.8,1048.56C1875.82,1048.45 1861.98,1045.85 1859.18,1046.9C1854.12,1048.8 1844.65,1049.51 1839.29,1050.49C1833.86,1051.47 1825.1,1053.4 1819.76,1054.47C1816.79,1055.06 1813.95,1051.46 1810.85,1051.75C1812.74,1046.3 1817.14,1041.78 1824.38,1038.67C1811.49,1024.1 1809.28,1002.04 1821.91,983.005L1824.8,979.473C1813.36,949.226 1804.59,923.037 1804.64,910.261L1806.92,909.369C1808.12,908.959 1809.32,908.548 1810.52,908.138L1814.18,907.068L1818.37,906.083L1823.2,905.143L1823.85,905.04Z" style="fill:rgb(237,242,238);"/>
            </g>
            <g id="dog-tongue">
            </g>
            <g transform="matrix(1,0,0,1,-309.479,-509.639)">
                <path d="M1840.66,1004.31C1843.91,1010.21 1842.11,1015.87 1845.7,1019.12C1847.87,1021.08 1850.38,1023.39 1852.8,1024.24C1858.73,1026.31 1862.69,1024.75 1865.94,1020.83C1868.02,1018.34 1867.78,1013.03 1864.61,1007.87" style="fill:rgb(237,242,238);stroke:black;stroke-width:1px;"/>
            </g>
            <g transform="matrix(1,0,0,1,-309.479,-509.639)">
                <path d="M1842.28,1008.24C1845.33,1020.89 1839.23,1032.91 1828.39,1030.77C1827.03,1030.5 1824.93,1030.16 1823.59,1027.96C1823.19,1027.31 1822.36,1025.92 1822.28,1025.17C1822.01,1022.45 1821.69,1020.65 1821.9,1019.41" style="fill:rgb(237,242,238);stroke:black;stroke-width:1px;"/>
            </g>
            <g transform="matrix(1,0,0,1,-309.479,-509.639)">
                <path d="M1828.59,999.553C1828.39,998.997 1828.33,998.402 1828.41,997.818C1829.42,990.15 1832.86,987.967 1839.66,987.549C1843.72,987.3 1845.44,988.452 1846.69,989.821C1847.63,990.836 1848.2,992.132 1848.33,993.508C1848.47,994.576 1848.65,995.567 1848.47,996.446C1847.24,1002.43 1840.1,1006.16 1832.46,1003.42C1830.72,1002.8 1829.27,1001.53 1828.59,999.553Z" style="fill:rgb(9,17,5);"/>
                <clipPath id="_clip1">
                    <path d="M1828.59,999.553C1828.39,998.997 1828.33,998.402 1828.41,997.818C1829.42,990.15 1832.86,987.967 1839.66,987.549C1843.72,987.3 1845.44,988.452 1846.69,989.821C1847.63,990.836 1848.2,992.132 1848.33,993.508C1848.47,994.576 1848.65,995.567 1848.47,996.446C1847.24,1002.43 1840.1,1006.16 1832.46,1003.42C1830.72,1002.8 1829.27,1001.53 1828.59,999.553Z"/>
                </clipPath>
                <g clip-path="url(#_clip1)">
                    <path d="M1840.66,1004.31L1822,1019.31" style="fill:none;stroke:black;stroke-width:1px;"/>
                </g>
                <path d="M1828.59,999.553C1828.39,998.997 1828.33,998.402 1828.41,997.818C1829.42,990.15 1832.86,987.967 1839.66,987.549C1843.72,987.3 1845.44,988.452 1846.69,989.821C1847.63,990.836 1848.2,992.132 1848.33,993.508C1848.47,994.576 1848.65,995.567 1848.47,996.446C1847.24,1002.43 1840.1,1006.16 1832.46,1003.42C1830.72,1002.8 1829.27,1001.53 1828.59,999.553Z" style="fill:none;stroke:black;stroke-width:1px;"/>
            </g>
            <g id="oko-berneńczyka" serif:id="oko berneńczyka" transform="matrix(1.20585,0,0,1.22034,-589.602,-1033.26)">
                <ellipse cx="1772.4" cy="1214.57" rx="7.036" ry="6.573" style="fill:rgb(238,239,231);"/>
                <clipPath id="_clip2">
                    <ellipse cx="1772.4" cy="1214.57" rx="7.036" ry="6.573"/>
                </clipPath>
                <g clip-path="url(#_clip2)">
                    <g id="eye-2" transform="matrix(1.30053,0,0,1.2321,-533.8,-279.998)">
                        <ellipse cx="1773.79" cy="1213.55" rx="2.5" ry="2.407" style="fill:rgb(9,17,5);"/>
                    </g>
                </g>
            </g>
            <g id="oko-berneńczyka1" serif:id="oko berneńczyka" transform="matrix(1.20585,0,0,1.22034,-644.166,-1016.41)">
                <ellipse cx="1772.4" cy="1214.57" rx="7.036" ry="6.573" style="fill:rgb(238,239,231);"/>
                <clipPath id="_clip3">
                    <ellipse cx="1772.4" cy="1214.57" rx="7.036" ry="6.573"/>
                </clipPath>
                <g clip-path="url(#_clip3)">
                    <g id="eye-1" transform="matrix(1.26278,0,0,1.24501,-466.948,-295.633)">
                        <ellipse cx="1773.79" cy="1213.55" rx="2.5" ry="2.407" style="fill:rgb(9,17,5);"/>
                    </g>
                </g>
            </g>
        </g>
    </g>
    <g id="cat-right" transform="matrix(1,0,0,1,-1394.91,-394.125)">
        <g transform="matrix(1,0,0,1,-309.479,-509.639)">
            <path d="M1938.97,1199.21C1942.13,1221.83 1943.35,1272.78 1951.47,1291.44C1954.66,1299.59 1948.56,1318.95 1945.73,1342.73C1931.69,1365.06 1906.54,1339.71 1932.22,1335.32L1933.51,1296.44C1921.67,1280.78 1917.89,1265.81 1916.43,1249.16C1930.02,1230.71 1936.05,1214.5 1938.97,1199.21Z" style="fill:rgb(184,176,176);stroke:black;stroke-width:1px;"/>
        </g>
        <g transform="matrix(1,0,0,1,-309.479,-509.639)">
            <path d="M2065.47,1246.26C2067.31,1247.68 2068.87,1249.44 2070.06,1251.45C2075.07,1259.87 2072.12,1262.12 2060.52,1257.64C2044.82,1250.26 2033.53,1236.63 2026.31,1219.22C2017.6,1200.21 2015.13,1180.8 2016.44,1161.02L2013.62,1125.98C2003.34,1107.7 1991.83,1106.07 1979.15,1120.33C1987.68,1145.95 1987.87,1172.02 1984.35,1197.63C1979.22,1224.98 1980.13,1249.32 1987.06,1270.64C1989.08,1295.69 1987.75,1320.75 1982.54,1345.8C1959.95,1363.37 1937.36,1336.13 1970.11,1331.55L1970.29,1290.14C1946.59,1280.42 1942.14,1239.68 1939.03,1196.05C1937.71,1246.69 1859.72,1311.3 1835.06,1298.36C1834.09,1302.46 1827.53,1309.33 1823.21,1314.71C1811.06,1329.83 1790.95,1346.6 1775.7,1354.62C1769.01,1358.13 1761.33,1359.31 1753.9,1357.94C1743.22,1355.99 1745.12,1349.83 1771.2,1335.61C1783.26,1325.33 1792.81,1312.55 1797.76,1298.33C1792.13,1299.42 1786.92,1299.35 1782.5,1297.2C1768.12,1316.28 1750.1,1335.28 1729.62,1352.09C1727.08,1354.17 1724.07,1355.63 1720.86,1356.34C1694.36,1362.33 1703.5,1348.72 1728.77,1329.48C1741.18,1316.32 1750.99,1301.07 1759.55,1284.81C1754.61,1274.4 1755.15,1263.98 1760.25,1253.57C1747.9,1240.21 1747.81,1223.22 1756.3,1203.69C1758.55,1161.05 1768.31,1158.28 1785.23,1193.56C1789.04,1191.74 1793.53,1191.96 1798.61,1193.92C1813.92,1166.16 1826.34,1154.38 1830.07,1190.31C1839.79,1193.26 1853.14,1172.19 1867.68,1143.3C1886.44,1100.75 1916.19,1085.66 1958.09,1100.98C1985.14,1082.77 2009.54,1085.11 2030.42,1114.73C2036.38,1129.59 2033.92,1155.34 2035.12,1184.16C2035.49,1194.89 2038.36,1206.87 2044.89,1220.69C2050.43,1231.51 2057.34,1239.95 2065.47,1246.26Z" style="fill:rgb(184,176,176);stroke:black;stroke-width:1px;"/>
        </g>
        <g transform="matrix(1,0,0,1,-309.479,-509.639)">
            <path d="M1792.43,1223.36C1790.04,1228.06 1785.8,1228.94 1783.9,1223.24" style="fill:none;stroke:black;stroke-width:1px;"/>
        </g>
        <g transform="matrix(1,0,0,1,-309.479,-509.639)">
            <path d="M1787.55,1227.39C1787.81,1229.5 1787.8,1232.61 1787.92,1234.85C1792.34,1239.57 1795.4,1237.03 1794.21,1232.48" style="fill:none;stroke:black;stroke-width:1px;"/>
        </g>
        <g transform="matrix(1,0,0,1,-309.479,-509.639)">
            <path d="M1787.92,1234.85C1782.35,1238.76 1780.42,1237.55 1781.17,1232.6" style="fill:none;stroke:black;stroke-width:1px;"/>
        </g>
        <g transform="matrix(1,0,0,1,-309.479,-509.639)">
            <path d="M1830.07,1190.31C1830.26,1198.14 1830.49,1204.9 1831.07,1202.81C1840.5,1219.35 1838.13,1233.13 1829,1245.33" style="fill:none;stroke:black;stroke-width:1px;"/>
        </g>
        <g transform="matrix(1,0,0,1,-277.261,-511.12)">
            <ellipse cx="1772.4" cy="1214.57" rx="7.036" ry="6.573" style="fill:rgb(162,220,131);"/>
            <clipPath id="_clip4">
                <ellipse cx="1772.4" cy="1214.57" rx="7.036" ry="6.573"/>
            </clipPath>
            <g clip-path="url(#_clip4)">
                <g transform="matrix(1.07407,0,0,1.03846,-132.688,-45.4716)">
                    <ellipse cx="1773.79" cy="1213.55" rx="2.5" ry="2.407" style="fill:rgb(9,17,5);"/>
                </g>
            </g>
            <ellipse cx="1772.4" cy="1214.57" rx="7.036" ry="6.573" style="fill:none;stroke:black;stroke-width:1.05px;"/>
        </g>
        <g transform="matrix(1,0,0,1,-308.368,-511.12)">
            <ellipse cx="1772.4" cy="1214.57" rx="7.036" ry="6.573" style="fill:rgb(162,220,131);"/>
            <clipPath id="_clip5">
                <ellipse cx="1772.4" cy="1214.57" rx="7.036" ry="6.573"/>
            </clipPath>
            <g clip-path="url(#_clip5)">
                <g transform="matrix(1.07407,0,0,1.03846,-132.688,-45.4716)">
                    <ellipse cx="1773.79" cy="1213.55" rx="2.5" ry="2.407" style="fill:rgb(9,17,5);"/>
                </g>
            </g>
            <ellipse cx="1772.4" cy="1214.57" rx="7.036" ry="6.573" style="fill:none;stroke:black;stroke-width:1.07px;"/>
        </g>
        <g transform="matrix(1,0,0,1,-309.479,-509.639)">
            <path d="M2045.63,1223.44C2042.32,1226.9 2038.27,1229.83 2033.65,1232.34C2031.83,1229.59 2030.21,1226.6 2028.71,1223.44C2033.31,1220.28 2037.42,1216.82 2040.99,1213L2045.63,1223.44Z" style="fill:rgb(114,118,123);"/>
        </g>
        <g transform="matrix(1,0,0,1,-309.479,-509.639)">
            <path d="M2017.9,1189.21C2023.44,1188.16 2029.04,1186.56 2034.65,1184.74C2034.83,1188.03 2035.07,1191.29 2035.7,1194.38C2030.45,1196.49 2025.23,1198.14 2019.98,1199.54C2019.13,1196.16 2018.42,1192.72 2017.9,1189.21Z" style="fill:rgb(114,118,123);"/>
        </g>
        <g transform="matrix(1,0,0,1,-309.479,-509.639)">
            <path d="M2016.7,1157.21C2022.5,1157.37 2028.34,1157.13 2034.21,1156.52L2034.22,1167.9C2028.28,1168.54 2022.44,1168.57 2016.7,1167.85L2016.7,1157.21Z" style="fill:rgb(114,118,123);"/>
        </g>
        <g transform="matrix(1,0,0,1,-309.479,-509.639)">
            <path d="M2030.61,1116.5C2025.32,1120.56 2019.64,1124.06 2014.15,1126.41L2015.01,1136.78C2021.34,1135.84 2027.56,1134.05 2033.28,1130.6C2032.91,1125.9 2031.98,1121.2 2030.61,1116.5Z" style="fill:rgb(114,118,123);"/>
        </g>
        <g transform="matrix(1,0,0,1,-309.479,-509.639)">
            <path d="M1796.13,1303.91C1810.68,1309.8 1816.96,1313.09 1815.83,1314.16C1814.28,1316.12 1805.38,1315.25 1792.47,1311.18C1793.84,1308.7 1795.1,1306.26 1796.13,1303.91Z" style="fill:rgb(114,118,123);"/>
        </g>
        <g transform="matrix(1,0,0,1,-309.479,-509.639)">
            <path d="M1998.5,1090.89C2003.47,1092.21 2008.33,1093.88 2013.39,1097.7C2012.18,1103.59 2009.54,1109.21 2005.53,1114.59C2003.56,1112.86 2001.31,1111.44 1998.4,1110.61C2000.07,1104.04 1999.89,1097.47 1998.5,1090.89Z" style="fill:rgb(114,118,123);"/>
        </g>
        <g transform="matrix(1,0,0,1,-309.479,-509.639)">
            <path d="M1972.61,1093.65C1978.34,1099.99 1982.97,1106.6 1985.61,1113.7C1983.12,1115.55 1980.96,1117.49 1979.14,1119.51C1973.65,1112.55 1966.82,1106.46 1959.16,1100.91C1963.04,1098.25 1967.56,1095.9 1972.61,1093.65Z" style="fill:rgb(114,118,123);"/>
        </g>
        <g transform="matrix(1,0,0,1,-309.479,-509.639)">
            <path d="M1986.34,1160.44C1974.41,1163.84 1966.57,1166.6 1965.65,1168.28C1964.73,1169.96 1970.73,1170.57 1986.49,1169.66L1986.34,1160.44Z" style="fill:rgb(114,118,123);"/>
        </g>
        <g transform="matrix(1,0,0,1,-309.479,-509.639)">
            <path d="M1953.39,1166.59C1953.21,1166.74 1952.95,1166.78 1952.73,1166.69C1952.51,1166.6 1952.36,1166.39 1952.35,1166.15C1951.04,1148.08 1944.64,1137.17 1934.32,1143.35C1933.79,1143.67 1933.66,1142.26 1933.55,1141.64C1933.2,1139.63 1931.4,1137.8 1930.68,1136C1929.46,1132.95 1928.79,1131.38 1926.76,1128.94C1922.12,1123.33 1914.43,1118.19 1905.34,1115.73C1904.95,1115.63 1904.71,1115.26 1904.76,1114.86C1905.4,1110.41 1915.68,1112.6 1919.65,1113.93C1940.99,1121.09 1954.96,1140.28 1956.2,1159.88C1956.41,1163.34 1955.2,1165.03 1953.39,1166.59Z" style="fill:rgb(114,118,123);"/>
        </g>
        <g transform="matrix(1,0,0,1,-308.859,-509.777)">
            <path d="M1939.33,1200.19C1957.13,1196.32 1968.59,1196.36 1969.93,1198.2C1971.28,1200.05 1962.51,1203.72 1939.87,1207.12C1939.62,1204.88 1939.43,1202.58 1939.33,1200.19Z" style="fill:rgb(114,118,123);"/>
        </g>
        <g transform="matrix(1,0,0,1,-309.743,-509.639)">
            <path d="M1942.54,1225.38C1947.32,1225.41 1951.65,1224.52 1954.91,1224.68C1968.32,1225.34 1968.6,1229.38 1954.14,1232.67C1951.25,1233.33 1947.58,1232.44 1943.52,1233.16L1942.54,1225.38Z" style="fill:rgb(114,118,123);"/>
        </g>
        <g transform="matrix(1,0,0,1,-310.271,-509.155)">
            <path d="M1948.57,1256.25C1959.76,1254.03 1967.61,1252.84 1969.43,1253.72C1971.26,1254.6 1966.45,1257.68 1951.1,1264.26C1950.13,1261.69 1949.29,1259.02 1948.57,1256.25Z" style="fill:rgb(114,118,123);"/>
        </g>
        <g transform="matrix(1,0,0,1,-309.479,-509.639)">
            <path d="M1875.56,1185.22C1876.15,1183.95 1877.05,1182.85 1878.19,1182.02C1889.29,1174.06 1901.82,1171.93 1906.97,1166.17C1915.94,1156.15 1911.99,1148.1 1898.47,1145.77C1893.04,1144.83 1885.86,1146.73 1877.45,1147.71C1876.11,1147.86 1874.8,1147.3 1873.97,1146.24C1873.14,1145.18 1872.91,1143.78 1873.37,1142.51C1874.1,1140.45 1876.59,1140.02 1880.32,1140.76C1881.92,1141.05 1883.57,1140.9 1885.1,1140.33C1909.26,1131.38 1921.35,1140.04 1923.87,1152.62C1925.28,1159.65 1922.31,1167.45 1908.33,1178.55C1906.59,1179.93 1904.48,1180.75 1902.27,1180.9C1889.36,1181.82 1878.75,1185.38 1875.21,1197.07C1872.32,1209.82 1869.1,1220.24 1865.17,1225.98C1862.79,1229.45 1858.32,1230.82 1854.41,1229.26C1845.09,1225.57 1841.28,1219.66 1838.83,1214.02C1834.33,1203.66 1837.78,1194.23 1845.2,1201.56C1847.36,1203.68 1846.65,1208.34 1847.43,1210.98C1847.49,1211.19 1847.56,1211.4 1847.63,1211.6C1848.33,1213.53 1849.99,1214.94 1852.01,1215.3C1854.02,1215.67 1856.07,1214.93 1857.4,1213.38C1865.45,1203.87 1871.3,1194.24 1875.56,1185.22Z" style="fill:rgb(114,118,123);"/>
        </g>
        <g transform="matrix(1,0,0,1,-309.479,-509.639)">
            <path d="M1855.5,1182.94C1855.47,1183.47 1855.78,1183.95 1856.27,1184.14C1856.76,1184.34 1857.31,1184.2 1857.65,1183.8C1865.97,1174.17 1875.99,1166.89 1887.54,1161.72C1887.92,1161.55 1888.15,1161.15 1888.09,1160.74C1888.03,1160.32 1887.71,1160 1887.29,1159.94C1866.94,1157.17 1856.48,1164.98 1855.5,1182.94Z" style="fill:rgb(114,118,123);"/>
        </g>
        <g transform="matrix(1,0,0,1,-309.479,-509.639)">
            <path d="M2055.14,1237.22C2057.06,1239.37 2058.87,1241.37 2060.74,1243C2063.52,1245.42 2065.89,1247.28 2067.42,1248.7C2067.55,1248.83 2067.95,1249.55 2068.09,1249.69C2068.57,1250.22 2069.01,1250.87 2069.37,1251.35C2069.76,1251.89 2070.17,1252.37 2070.43,1252.88C2074.17,1260.11 2070.95,1261.67 2059.81,1256.62C2059.4,1256.44 2058.89,1256.22 2058.45,1256.01C2055.88,1254.8 2053.27,1253.09 2050.8,1251.16C2049.9,1250.45 2048.97,1249.79 2048.11,1249.02C2047.51,1248.48 2045.74,1246.87 2045.08,1246.38L2055.14,1237.22Z" style="fill:rgb(114,118,123);"/>
        </g>
        <g transform="matrix(1,0,0,1,-309.479,-509.639)">
            <path d="M1794.72,1265.28C1794.4,1265.29 1794.14,1265.51 1794.06,1265.81C1793.98,1266.11 1794.12,1266.43 1794.38,1266.59C1806.25,1273.51 1818.66,1271.82 1831.71,1260.42C1831.9,1260.26 1831.95,1259.99 1831.83,1259.78C1831.72,1259.56 1831.47,1259.45 1831.23,1259.52C1819.39,1262.76 1807.24,1264.77 1794.72,1265.28Z" style="fill:rgb(114,118,123);"/>
        </g>
        <g transform="matrix(0.469375,-3.31361e-34,0,0.430131,606.86,136.308)">
            <path d="M1783.59,1317.77C1792.39,1322.73 1797.01,1331.94 1796.3,1333.07C1795.59,1334.21 1789.54,1340.07 1779.57,1335.4C1780.53,1329.52 1781.89,1323.65 1783.59,1317.77Z" style="fill:rgb(114,118,123);"/>
        </g>
        <g transform="matrix(1,0,0,1,-331.669,-575.39)">
            <path d="M1781.04,1323.95C1790.54,1324.31 1794.94,1324.45 1793.93,1327.55C1792.6,1329.66 1790.22,1331.18 1779.47,1329.66C1779.8,1327.76 1780.34,1325.85 1781.04,1323.95Z" style="fill:rgb(114,118,123);"/>
        </g>
        <g transform="matrix(1,0,0,1,-309.666,-509.755)">
            <path d="M1784.22,1323.44C1793.02,1328.4 1797.01,1331.94 1796.3,1333.07C1795.59,1334.21 1790.07,1332.83 1780.1,1328.15C1781.56,1326.63 1782.92,1325.04 1784.22,1323.44Z" style="fill:rgb(114,118,123);"/>
        </g>
        <g transform="matrix(1,0,0,1,-337.173,-538.194)">
            <path d="M1782.43,1323.18C1792.04,1327.5 1796.34,1330.77 1794.95,1332.45C1793.79,1334.2 1788.7,1333.83 1779.5,1328.11L1782.43,1323.18Z" style="fill:rgb(114,118,123);"/>
        </g>
        <g transform="matrix(1,0,0,1,-349.988,-520.218)">
            <path d="M1784.24,1322.57C1793.04,1327.53 1794.14,1329.9 1793.43,1331.04C1792.72,1332.17 1790.07,1332.86 1780.11,1328.18L1784.24,1322.57Z" style="fill:rgb(114,118,123);"/>
        </g>
        <g transform="matrix(0.880052,-0.474877,0.474877,0.880052,-748.414,448.561)">
            <path d="M1781.78,1322.6C1790.57,1327.56 1795.13,1332.47 1794.43,1333.6C1793.72,1334.73 1790.45,1333.09 1780.49,1328.42C1780.69,1326.42 1781.22,1324.54 1781.78,1322.6Z" style="fill:rgb(114,118,123);"/>
        </g>
        <g transform="matrix(1,-7.70372e-34,0,1,-336.399,-600.848)">
            <path d="M1778.5,1326.34C1780.95,1325.48 1788.28,1324.37 1789.11,1326.45C1789.61,1327.69 1787.77,1332.3 1780.04,1332.51C1779.24,1330.35 1778.68,1328.27 1778.5,1326.34Z" style="fill:rgb(114,118,123);"/>
        </g>
        <g transform="matrix(1,0,0,1,-309.479,-509.639)">
            <path d="M1825.77,1282.04C1825.88,1281.92 1825.9,1281.74 1825.8,1281.6C1825.71,1281.46 1825.53,1281.42 1825.38,1281.49C1816.06,1285.8 1806.84,1286.63 1797.74,1283.57C1797.54,1283.5 1797.32,1283.58 1797.21,1283.76C1797.1,1283.94 1797.13,1284.17 1797.29,1284.32C1806.54,1293.05 1816.05,1291.57 1825.77,1282.04Z" style="fill:rgb(114,118,123);"/>
        </g>
        <g transform="matrix(1,0,0,1,-309.259,-510.3)">
            <path d="M1798.39,1195.22C1796.28,1198.96 1794.92,1201.72 1794.11,1201.5C1793.29,1201.28 1793.19,1198.87 1793.94,1193.86C1795.55,1194.1 1797.03,1194.55 1798.39,1195.22Z" style="fill:rgb(114,118,123);"/>
        </g>
        <g transform="matrix(1,0,0,1,-308.144,-509.459)">
            <path d="M1787.87,1192.82C1787.47,1196.9 1787.16,1200.19 1786.46,1200.29C1785.76,1200.39 1784.89,1198.37 1783.84,1193.93C1785.18,1193.34 1786.52,1192.88 1787.87,1192.82Z" style="fill:rgb(114,118,123);"/>
        </g>
        <g transform="matrix(1,0,0,1,-309.479,-509.639)">
            <path d="M1834.65,1211.64C1827.76,1215.55 1824.28,1218.33 1824.5,1219.87C1824.72,1221.41 1828.64,1221.73 1836.54,1220.71L1834.65,1211.64Z" style="fill:rgb(114,118,123);"/>
        </g>
        <g transform="matrix(1,0,0,1,-309.479,-509.639)">
            <path d="M1833.46,1236.96C1829.99,1233.5 1826.06,1233.12 1824.04,1234.08C1821.57,1235.26 1823.15,1237.6 1830.6,1241.98L1833.46,1236.96Z" style="fill:rgb(114,118,123);"/>
        </g>
        <g transform="matrix(1,0,0,1,-309.479,-509.639)">
            <path d="M1914.84,1207.01C1916.1,1207.18 1917.24,1207.85 1918.01,1208.87C1918.78,1209.88 1919.11,1211.16 1918.93,1212.43C1918.71,1214.1 1918.15,1215.51 1916.64,1215.84C1908.47,1217.62 1895.29,1217.93 1891.82,1226.97C1886.64,1240.47 1877.98,1249.12 1868.66,1253.47C1857.93,1256.45 1854.21,1255.29 1851.76,1254.35C1849.21,1253.38 1836.08,1241.62 1837.13,1240.16C1838.37,1238.43 1856.53,1247.12 1859.21,1245.29C1871.54,1246.32 1877.31,1241.62 1878.03,1232.51C1878.19,1230.58 1878.74,1228.71 1879.63,1226.99C1883.85,1218.92 1889.81,1212.4 1898.06,1207.91C1904.24,1206.2 1909.75,1206.32 1914.84,1207.01Z" style="fill:rgb(114,118,123);"/>
        </g>
        <path d="M1439.54,791.285C1439.67,791.973 1439.29,794.121 1438.5,794.925" style="fill:none;stroke:black;stroke-width:0.8px;"/>
    </g>
</svg>
