<?xml version="1.0" encoding="UTF-8" standalone="no"?><!DOCTYPE svg PUBLIC "-//W3C//DTD SVG 1.1//EN" "http://www.w3.org/Graphics/SVG/1.1/DTD/svg11.dtd"><svg width="100%" height="100%" viewBox="0 0 5020 1586" version="1.1" xmlns="http://www.w3.org/2000/svg" xmlns:xlink="http://www.w3.org/1999/xlink" xml:space="preserve" xmlns:serif="http://www.serif.com/" style="fill-rule:evenodd;clip-rule:evenodd;stroke-linecap:round;stroke-linejoin:round;stroke-miterlimit:1.5;"><path d="M572.099,497.584c60.417,-36.395 106.446,-73.584 148.913,-92.765c188.632,-85.199 154.931,-112.895 -18.064,-35.336c-45.059,20.202 -97.227,54.999 -156.854,91.422c9.558,26.147 18.554,40.73 26.005,36.679Z" style="fill:#697b95;stroke:#000;stroke-width:3.33px;"/><path d="M1141.66,1402.08c5.964,35.011 10.91,70.734 12.837,108.571c0.159,3.322 1.682,6.431 4.21,8.592c2.528,2.161 5.836,3.182 9.142,2.823c26.551,-2.884 86.643,-9.42 105.478,-11.469c1.422,-0.154 2.694,-0.954 3.45,-2.169c0.755,-1.214 0.91,-2.709 0.419,-4.053c-4.773,-12.335 -12.802,-23.965 -26.023,-34.467c-5.534,-4.431 -8.69,-11.187 -8.536,-18.274c0.103,-7.514 0.284,-15.8 0.284,-15.8l-21.699,-43.398c-19.999,8.649 -49.795,9.135 -79.562,9.644Z" style="fill:#f8fdfe;stroke:#000;stroke-width:3.33px;"/><path d="M1109.6,1352.24c-10.797,14.944 -27.358,39 -15.205,42.288c108.726,29.415 146.273,68.005 143.129,114.538c-0.229,3.011 -2.64,5.395 -5.653,5.589c-10.768,0.727 -35.621,2.331 -46.115,3.008c-1.198,0.077 -2.37,-0.377 -3.203,-1.242c-0.833,-0.865 -1.243,-2.053 -1.121,-3.247c0.442,-4.34 1.105,-10.834 1.64,-16.079c0.522,-5.116 -2.431,-9.952 -7.22,-11.825c-25.086,-9.81 -99.787,-39.023 -99.787,-39.023c-70.911,-21.759 -88.526,-53.183 -56.207,-97.063c27.839,7.66 58.743,5.93 89.742,3.056Z" style="fill:#f8fdfe;stroke:#000;stroke-width:3.33px;"/><path d="M885.313,1262.11l-14.948,31.342c-38.615,40.88 -113.97,63.098 -204.45,77.633l-241.579,4.34l-25.556,21.699l63.167,172.143c-5.579,11.162 -28.053,8.314 -63.485,-5.28c-4.876,-1.866 -9.07,-5.168 -12.028,-9.469c-15.816,-24.18 -28.826,-58.66 -39.855,-100.324c-0.51,-1.923 -1.956,-3.459 -3.846,-4.081c-1.89,-0.623 -3.966,-0.249 -5.519,0.995c-55.64,43.628 -129.726,58.132 -213.767,56.92c42.651,-10.297 53.892,-33.357 43.989,-30.831c-35.724,9.11 -105.279,18.15 -139.945,-7.744c159.32,-30.608 222.664,-74.157 304.264,-115.244c14.973,-75.656 86.43,-101.647 174.458,-106.276l209.85,-74.547l169.25,88.724Z" style="fill:#e1a55e;stroke:#000;stroke-width:3.33px;"/><path d="M1138.65,1359.89c1.778,13.5 3.938,27.869 3.07,41.81c19.284,3.793 37.002,0.412 55.396,-2.029l-58.466,-39.781Z" style="fill:#697b95;stroke:#000;stroke-width:3.33px;"/><path d="M1090.5,784.876c-49.467,-30.903 -74.841,-109.799 -100.297,-182.408c22.128,-24.713 49.605,-37.775 85.891,-31.644c-19.022,-24.53 -13.792,-31.774 14.714,-22.428c-20.824,-22.326 -29.838,-34.303 3.368,-27.298c-23.353,-38.854 -61.206,-57.299 -126.225,-37.512c-14.383,-8.616 -26.918,-18.205 -41.074,-24.136c-30.469,-12.764 -60.691,-16.616 -90.44,-16.456c-44.485,0.238 -87.913,12.307 -129.529,39.921c-48.422,-12.847 -88.823,6.392 -123.357,49.094c29.185,-9.633 29.643,-0.977 15.623,20.252c23.654,-6.811 21.094,7.581 9.258,30.089c36.882,-6.42 61.871,0.729 77.151,22.084l-33.57,162.394l-12.477,68.545c0.808,25.033 -7.284,64.402 -18.826,105.901l137.877,-3.599l303.333,-76.745c7.066,-25.243 15.589,-49.494 28.58,-76.054Z" style="fill:#697b95;stroke:#000;stroke-width:3.33px;"/><path d="M1087.75,790.05c0.516,-1.769 -0.037,-3.676 -1.42,-4.892c-2.15,-1.891 -5.363,-4.719 -7.524,-6.62c-1.479,-1.301 -3.403,-1.982 -5.371,-1.9c-61.705,2.608 -120.056,8.527 -166.452,-13.037c-1.384,-0.672 -2.37,-1.958 -2.659,-3.47c-0.289,-1.511 0.153,-3.07 1.192,-4.205c21.855,-24.439 26.095,-66.289 -28.897,-157.02c-2.899,-4.782 -4.492,-14.472 -4.678,-20.032c-1.851,-55.212 5.665,-98.23 31.804,-125.493c-46.513,-11.149 -94.152,-11.416 -145.273,3.77c19.122,14.768 24.21,39.04 31.991,67.09c4.01,14.453 5.271,30.002 5.552,44.966c0.12,6.402 -0.087,24.088 -3.252,30.95c-35.202,76.321 -44.969,125.988 -25.303,159.143c2.353,3.819 1.773,8.754 -1.401,11.923c-13.893,14.159 -28.796,28.615 -48.101,33.682c-27.32,7.171 -45.101,20.595 -67.261,30.73c-4.111,1.845 -6.905,5.766 -7.308,10.253c-0.513,5.437 -1.093,11.899 -1.093,11.899c-6.36,29.088 -15.189,55.849 -21.55,82.468l92.672,35.411l353.357,-113.767c0,-0 16.958,-58.088 20.975,-71.849Z" style="fill:#f8fdfe;stroke:#f8fdfe;stroke-width:3.33px;"/><path d="M1286.08,737.13c-5.999,38.294 -9.737,75.844 -22.726,111.474c-27.377,75.104 -77.392,140.652 -125.746,211.803c-14.128,20.788 -23.269,46.094 -37.676,67.243l-592.734,117.222c-105.676,12.304 -187.078,48.127 -169.185,152.527c-70.427,44.922 -133.437,80.833 -106.805,41.869c-78.786,23.346 -162.843,49.847 -115.533,7.941c-39.491,4.339 -82.238,-1.617 -114.012,-15.796c184.007,-55.77 352.287,-139.064 494.369,-268.203c0.775,-0.705 1.559,-1.4 2.352,-2.085c14.952,-12.917 175.852,-151.876 239.906,-207.196c17.25,-14.897 37.066,-26.53 58.482,-34.33c15.031,-5.475 29.628,-10.791 29.628,-10.791l58.126,-16.819l50.999,-11.103c129.07,-17.035 203.419,-37.002 264.852,-57.661c23.618,-15.278 45.281,-38.78 68.279,-65.281c5.577,-6.426 11.539,-14.316 17.424,-20.814Z" style="fill:#5f6b88;stroke:#000;stroke-width:3.33px;"/><path d="M338.017,1397.4c2.757,20.051 5.514,38.453 8.27,55.976" style="fill:none;stroke:#000;stroke-width:3.33px;"/><path d="M2224.6,1132.12c-40.281,-111.254 -63.859,-353.873 -72.136,-472.936c-2.607,-37.496 3.091,-76.03 3.931,-114.125c0.744,-33.671 -4.513,-67.872 -2.919,-103.86c2.782,-62.798 -11.633,-125.536 -19.069,-189.651c17.205,-75.753 -27.493,-133.819 -64.677,-194.032l-63.368,128.045c-37.613,-8.363 -76.636,-6.833 -114.25,5.471l-64.644,-142.411c-42.249,80.788 -83.54,159.61 -70.953,196.817c-20.555,48.559 -28.594,111.006 -32.627,184.931c-0.801,14.688 -3.965,29.577 -5.311,45.072c-0.548,8.133 -4.71,15.592 -11.343,20.329c-17.297,12.208 -26.232,28.404 -35.324,41.981c-6.845,10.22 -21.214,12.325 -28.775,16.542c-0,-0 -113.929,81.505 -153.285,109.659c-9.662,6.913 -19.872,13.025 -30.53,18.273c-35.188,17.079 -59.235,25.392 -77.602,50.423c-11.955,16.379 -18.574,36.042 -18.957,56.316c-6.594,312.56 408.908,322.812 861.839,343.156Z" style="fill:#9ba8c7;"/><path d="M1284.86,1532.21c196.06,-169.6 278.891,-401.671 394.46,-615.68c-5.97,-56.088 -7.068,-114.98 -8.464,-176.12c-1.943,-85.141 -21.586,-172.275 -46.14,-264.234c98.94,-2.627 31.306,-187.094 -27.05,-331.34c-40.526,42.577 -70.87,126.73 -92.926,244.725c-19.944,-6.06 -43.081,-8.179 -63.451,4.865l-34.791,-121.412l-49.517,-120.675c-26.948,42.641 -55.323,87.301 -70.315,132.351c-32.028,96.241 -40.436,183.951 39.724,205.878c-9.966,39.063 -24.796,77.375 -31.464,116.518c-5.659,33.217 -7.433,69.398 -8.745,102.858c-1.005,25.602 -4.384,47.983 -6.935,69.976c-2.716,23.411 -6.31,43.431 -11.382,61.955c-10.015,147.442 -18.617,294.603 -4.389,437.197c2.902,29.087 -4.789,58.446 0.195,87.117c9.653,55.53 1.726,112.454 21.19,166.021Z" style="fill:#e1a55e;stroke:#000;stroke-width:3.33px;"/><path d="M1470.58,545.987c2.948,-1.615 6.545,-1.478 9.361,0.357c20.846,13.388 31.392,26.159 40.495,43.862c27.655,53.783 42.735,107.743 -35.098,123.936c-4.056,0.844 -8.205,1.154 -12.342,0.923c-20.942,-1.224 -39.177,-7.185 -48.01,-19.852c-30.498,-43.733 3.202,-124.582 45.594,-149.226Z" style="fill:#5f6b88;stroke:#5f6b88;stroke-width:3.33px;"/><path d="M851.223,708.685c-5.547,-3.738 -12.775,-3.858 -18.444,-0.306c-0.016,-0.024 -0.016,-0.024 -0.017,-0.023c-1.525,0.955 -4.721,2.974 -5.978,3.955c-2.723,2.127 -3.848,2.455 -5,4.343c-5.572,9.127 1.964,22.734 13.098,33.812c1.329,1.323 3.133,2.057 5.008,2.039c1.875,-0.018 3.664,-0.787 4.967,-2.135c14.744,-15.238 25.2,-31.389 14.75,-36.414c-2.687,-1.292 -5.369,-3.124 -8.384,-5.271Z" style="fill:#dc49c1;stroke:#9e2087;stroke-width:3.33px;"/><ellipse cx="1475.22" cy="602.538" rx="31.93" ry="21.475" style="stroke:#000;stroke-width:3.33px;"/><path d="M1130.26,1405.53c-0.961,-0.342 -2.02,-0.271 -2.925,0.198c-0.906,0.469 -1.576,1.293 -1.85,2.275c-7.056,25.632 -13.692,41.19 -21.217,46.266c-0.603,0.257 -0.991,0.852 -0.985,1.507c0.007,0.655 0.407,1.242 1.015,1.487c27.799,11.268 53.002,20.742 75.821,30.448c1.152,0.49 2.065,1.413 2.541,2.571c2.826,7.806 1.069,17.762 -0.267,26.216c-0.196,1.287 0.589,2.521 1.838,2.889c19.831,5.53 49.802,-0.585 51.904,-7.81c12.372,-42.512 -27.399,-78.013 -105.875,-106.047Z" style="fill:#788197;stroke:#000;stroke-width:3.33px;"/><path d="M1474.65,623.25c-2.885,26.098 0.841,44.143 17.308,53.053c0.697,0.377 1.435,0.673 2.199,0.882c18.804,4.919 36.893,-13.834 29.755,-29.419" style="fill:none;stroke:#000;stroke-width:3.33px;"/><path d="M1474.11,647.439c-0.659,1.659 -0.055,5.131 -0.068,7.607c-0.018,3.684 -0.573,6.639 -1.992,10.043c-2.349,5.63 -9.009,9.136 -13.318,10.533c-17.666,7.643 -32.627,-7.411 -30.088,-18.148" style="fill:none;stroke:#000;stroke-width:3.33px;"/><ellipse cx="841.602" cy="639.025" rx="28.079" ry="20.488" style="stroke:#000;stroke-width:3.33px;"/><path d="M841.524,657.958c0.045,25.815 1.834,43.75 16.853,52.76c0.788,0.469 1.635,0.832 2.518,1.079c18.434,5.125 27.566,-13.304 20.41,-28.928" style="fill:none;stroke:#000;stroke-width:3.33px;"/><path d="M842.173,675.037c-0.66,1.66 -1.043,10.661 -1.056,13.138c-0.018,3.684 -0.573,6.639 -1.992,10.042c-2.349,5.631 -9.799,10.914 -14.108,12.311c-7.101,3.073 -14.478,2.043 -18.942,-1.458c-6.642,-5.208 -7.727,-17.182 -6.208,-23.602" style="fill:none;stroke:#000;stroke-width:3.33px;"/><path d="M1947.14,327.548c1.298,-2.104 4.117,-1.467 6.042,-2.6c3.133,-1.844 5.535,-5.27 7.875,-8.697c4.476,-6.552 5.499,-19.131 7.396,-25.731c6.137,-21.353 2.955,-41.659 13.333,-53.79c23.317,-27.254 56.4,-30.165 79.7,1.799c6.934,9.512 11.39,22.758 16.219,38.667c1.117,3.645 3.244,6.9 6.133,9.387c54.634,47.338 56.607,113.77 10.986,177.164c-16.965,23.574 -55.382,31.865 -72.009,58.089c-12.807,20.2 -22.957,55.84 -21.425,81.628c0.286,3.143 2.608,5.723 5.704,6.337c33.438,6.333 67.266,-0.629 101.697,-14.734c1.529,-0.631 3.265,-0.511 4.692,0.324c1.427,0.836 2.382,2.292 2.579,3.934c6.816,59.031 -21.426,107.112 -93.808,134.534c-0.542,0.204 -0.899,0.724 -0.896,1.303c0.004,0.579 0.367,1.095 0.911,1.293c6.512,2.239 13.292,2.786 20.206,3.837c7.871,1.198 17.6,0.242 25.374,0.315c25.856,0.24 48.779,5.327 55.774,23.053c0.858,2.175 2.093,5.524 2.43,7.979c0.592,4.303 -0.6,8.015 -2.464,11.809c-5.701,11.601 -22.078,20.928 -29.951,30.856c-5.725,7.218 -12.95,12.267 -17.127,19.182c-1.441,2.385 -3.672,7.305 -4.937,11.43c-0.581,3.116 0.007,6.337 1.652,9.046c12.031,19.72 30.262,38.097 38.553,59.122c32.761,83.084 95.477,143.435 144.91,217.245l-301.025,19.352l-318.073,-19.352c49.432,-73.81 112.148,-134.161 144.909,-217.245c8.291,-21.025 26.522,-39.402 38.553,-59.122c1.645,-2.709 2.233,-5.93 1.652,-9.046c-1.265,-4.125 -3.496,-9.045 -4.937,-11.43c-4.176,-6.915 -11.402,-11.964 -17.127,-19.182c-7.873,-9.928 -24.25,-19.255 -29.95,-30.856c-1.865,-3.794 -3.057,-7.506 -2.465,-11.809c0.337,-2.455 3.073,-5.731 2.43,-7.979c-7.749,-27.109 25.61,-26.608 55.774,-24.107c3.593,0.298 7.926,-0.358 11.993,-0.336c4.705,0.025 3.891,0.602 8.113,-0.04c1.998,-0.304 2.126,-0.522 1.901,-1.034c-0.553,-1.259 -0.169,-1.927 -0.573,-2.009c-100.763,-20.326 -82.087,-54.784 -103.976,-109.259c-0.72,-1.791 -29.776,-34.081 16.293,-33.564c1.654,0.019 23.778,1.125 25.307,1.756c20.074,8.223 36.957,9.481 53.595,11.118c11.9,1.171 23.337,4.453 37.28,1.812c3.096,-0.614 7.222,-1.841 7.508,-4.984c1.531,-25.788 -5.462,-56.468 -18.269,-76.668c-16.627,-26.224 -49.182,-39.024 -66.147,-62.598c-45.621,-63.394 -43.648,-129.826 10.986,-177.164c2.889,-2.487 5.016,-5.742 6.134,-9.387c4.828,-15.909 9.284,-29.155 16.218,-38.667c23.301,-31.964 56.383,-29.053 79.7,-1.799c10.378,12.131 7.196,32.437 13.333,53.79c1.897,6.6 2.92,19.179 7.396,25.731c2.34,3.427 4.742,6.853 7.875,8.697c1.925,1.133 4.744,0.496 6.043,2.6Z" style="fill:#fbfcfb;stroke:#9ba8c7;stroke-width:3.33px;"/><ellipse cx="1943.57" cy="388.528" rx="26.006" ry="18.913" style="fill:#53434d;stroke:#000;stroke-width:3.33px;"/><path d="M1942.39,408.328c-2.414,20.851 1.009,48.21 19.8,52.897" style="fill:none;stroke:#000;stroke-width:3.33px;"/><path d="M1924.95,459.748c-10.431,1.11 -16.064,-1.649 -16.489,-8.608" style="fill:none;stroke:#000;stroke-width:3.33px;"/><path d="M2320.46,1551.26l60.312,1.128l-9.019,-62.003c-22.521,17.58 -40.797,37.282 -51.293,60.875Z" style="fill:#d38559;stroke:#000;stroke-width:3.33px;"/><path d="M2383.59,1453.75c-16.266,49.186 -17.061,82.889 0.136,100.408c11.908,13.112 48.647,15.741 108.086,3.304l-108.222,-103.712Z" style="fill:#f9ffff;stroke:#000;stroke-width:3.33px;"/><path d="M2850.49,1183.46c-48.078,-151.905 -67.182,-306.233 -107.854,-461.841c-17.854,-68.309 -39.563,-137.082 -65.737,-205.153c-24.606,-63.991 -42.536,-131.031 -39.762,-203.561c20.805,12.711 42.67,22.236 66.138,26.956c-0.834,-41.506 -14.676,-77.567 -46.629,-106.047c-6.125,-5.43 -14.326,-7.895 -22.43,-6.742c-48.455,7.149 -92.013,32.236 -121.59,74.01c-47.97,-17.981 -88.502,-20.364 -131.145,0.717c-29.51,-38.465 -76.691,-65.709 -126.881,-71.985c-9.14,-1.072 -18.354,1.282 -25.86,6.607c-31.226,21.944 -43.029,55.857 -46.857,94.665c-0.141,1.466 0.434,2.91 1.544,3.879c1.11,0.968 2.619,1.342 4.052,1.004c32.531,-7.858 61.721,-23.063 86.31,-48.393c-0,-0 -18.478,17.985 -25.574,24.892c-1.768,1.72 -2.871,4.008 -3.115,6.462c-3.592,36.59 -4.815,73.903 -10.066,110.101c-8.111,55.915 -19.726,112.039 -30.612,167.287c-26.765,135.836 -57.723,269.607 -84.044,405.481l-2.694,139.856c215.058,213.256 460.177,221.389 732.806,41.805Z" style="fill:#d38559;stroke:#000;stroke-width:3.33px;"/><path d="M2393.37,1137.58c108.527,-33.234 138.543,18.015 108.786,133.587l-75.53,19.728l-33.256,-153.315Z" style="fill:#fff;stroke:#000;stroke-width:3.33px;"/><path d="M2483.06,294.427c9.285,1.985 20.661,4.677 29.033,8.667c11.497,5.478 19.14,14.371 28.413,22.047c12.316,10.194 24.705,23.357 33.51,36.171c17.052,24.82 27.577,51.804 43.638,79.441c10.356,17.821 16.304,36.772 25.307,55.46c0.496,1.03 1.459,1.935 2.227,3.164c4.123,6.59 15.706,16.562 25.291,19.624c1.928,0.616 3.547,-0.81 5.101,0.291c1.408,0.998 1.68,3.408 2.333,4.482l11.755,31.82l8.229,22.763l8.216,25.819l12.966,40.537c-32.026,75.823 -139.99,75.654 -275.301,46.144c-57.473,19.779 -109.434,30.574 -151.38,27.948c-42.398,-2.653 -73.948,-22.962 -100.804,-48.042l28.935,-147.91c7.486,3.162 22.47,-17.18 40.877,-52.027c11.29,-21.375 18.676,-51.89 35.548,-77.582c10.905,-16.604 25.189,-34.907 36.184,-52.782c14.864,-24.164 57.672,-40.799 71.549,-46.434c10.75,22.285 10.386,55.057 21.887,63.696c30.052,22.572 46.678,-1.488 56.486,-63.297Z" style="fill:#fae64f;"/><path d="M443.32,1506.57c-0,-0 18.272,-4.936 37.962,-10.254c28.832,-7.788 59.466,3.164 76.824,27.466c5.004,7.006 10.114,14.159 14.836,20.77c3.96,5.544 4.496,12.834 1.391,18.899c-3.106,6.064 -9.335,9.89 -16.149,9.917c-36.943,0.146 -89.682,0.354 -89.682,0.354l-25.182,-67.152Z" style="fill:#e1a55e;stroke:#000;stroke-width:3.33px;"/><path d="M1227.55,1305.9c81.435,-48.301 89.568,-155.671 55.658,-296.92l64.814,-76.389c2.583,0.306 3.169,0.899 6.145,0.998c6.607,0.221 16.9,0.256 24.251,-2.684c15.577,-6.229 27.056,-26.102 27.988,-35.744c5.363,-55.429 -13.047,-101.663 -24.219,-117.227c-12.364,-17.224 -49.695,-100.85 -64.577,-91.156c-0.321,0.209 -0.632,0.462 -0.932,0.759c-5.196,5.16 -10.921,18.206 -13.009,33.185c-5.454,39.124 -13.478,103.774 -32.732,129.202c-18.672,-4.83 -42.226,-3.112 -60.898,2.711c-11.554,-26.057 -26.298,-52.21 -28.691,-80.957c-2.343,-28.158 -10.553,-56.435 -21.983,-84.457c-16.118,24.576 -38.39,45.446 -53.46,69.513c-50.857,81.223 -75.979,156.658 10.636,171.228l63.658,70.601c-21.704,43.816 -53.448,74.478 -95.695,85.247c-92.164,23.492 -198.703,-112.013 -341.052,-153.709c-23.143,-6.779 -53.778,-10.854 -83.833,-4.737c-15.56,3.168 -29.428,13.293 -45.265,18.265c-21.571,6.773 -40.062,45.234 -55.008,46.245c-120.326,20.557 -158.539,-43.496 -162.604,-138.167c-2.078,-48.386 3.227,-117.118 32.609,-182.875c5.779,-12.934 18.188,-26.802 25.632,-37.857c19.344,-28.725 37.293,-56.157 64.419,-84.309c9.801,-10.171 21.828,-20.04 33.903,-30.792c6.147,-5.473 11.627,-10.949 18.099,-17.31c-11.534,-4.724 -19.491,-17.793 -24.306,-38.194c-70.141,57.828 -127.981,121.733 -169.516,185.888c-13.41,20.712 -19.827,42.29 -27.48,62.858c-21.133,56.793 -26.657,111.449 -23.124,161.519c2.273,32.213 9.275,62.18 23.203,88.801c17.435,33.325 38.585,76.525 82.037,97.209c19.448,9.257 45.071,14.587 73.095,16.207c14.245,0.824 29.523,0.053 44.513,2.262c-0,-0 -18.42,0.468 -29.297,0.745c-5.227,0.133 -10.156,2.464 -13.575,6.42c-4.904,5.513 -9.817,11.442 -12.236,18.026c-12.46,33.915 19.37,109.498 10.016,174.169c-2.746,18.986 -7.702,35.967 -18.719,49.019c-19.771,23.422 -50.13,36.749 -65.726,42.477c-4.472,1.615 -8.459,4.342 -11.588,7.922c-15.117,17.282 -13.463,42.038 -7.751,69.493c8.9,42.782 32.551,93.745 60.686,127.024c2.542,2.929 6.125,4.755 9.989,5.089c29.72,2.621 47.485,4.111 57.494,-2.954c15.936,-11.249 8.087,-36.486 -36.411,-38.035c-3.782,-0.146 -7.294,-1.995 -9.556,-5.029c-23.838,-32.357 -35.414,-69.527 -38.892,-109.872c-0.114,-1.323 0.443,-2.616 1.484,-3.443c6.795,-5.274 14.744,-8.234 23.456,-9.667c2.147,-0.341 4.204,0.996 4.764,3.096c17.301,64.13 54.499,119.299 102.089,160.471c3.553,3.051 8.096,4.7 12.779,4.64c14.934,-0.183 49.367,-0.627 66.321,-0.846c2.7,-0.034 5.252,-1.244 6.988,-3.313c1.735,-2.069 2.483,-4.792 2.046,-7.458c-4.517,-29.246 -25.192,-40.29 -60.666,-30.506c-37.978,-23.86 -54.995,-63.833 -56.423,-118.51c132.482,-10.839 197.561,-85.818 194.444,-225.694c85.746,99.338 192.391,154.764 315.233,165.393c21.236,1.837 41.487,-1.642 63.724,-2.199c58.316,52.524 118.88,101.465 175.86,137.72c18.153,-13.127 27.487,-27.795 32.203,-53.24c-39.966,-36.934 -78.939,-74.2 -101.012,-130.152Z" style="fill:#f8fdfe;stroke:#000;stroke-width:3.33px;"/><path d="M1180.2,998.56l21.735,18.853" style="fill:none;stroke:#000;stroke-width:3.33px;"/><path d="M1271.77,851.671c40.287,19.192 64.599,46.385 76.113,79.232c20.431,4.356 34.561,-0.455 45.316,-13.495c4.321,-3.993 8.461,-10.123 10.559,-18.455c2.775,-11.02 2.621,-25.666 0.913,-42.08c-0.787,-9.317 -2.335,-18.635 -3.88,-27.952l-8.807,-28.311l-5.939,-12.715l-20.963,-36.009c-6.233,-12.095 -13.079,-24.344 -20.31,-36.689c-12.51,-19.64 -21.305,-29.372 -25.576,-27.039c-4.728,3.236 -8.508,10.98 -11.226,21.585c-1.656,6.46 -2.741,13.982 -3.919,22.193l-11.378,67.629c-0.641,2.809 -1.578,5.608 -2.322,8.371c-3.083,11.454 -6.732,22.298 -10.766,30.752c-2.607,5.463 -5.362,9.404 -7.815,12.983Z" style="fill:#788197;"/><path d="M1296.36,1489.29l33.787,21.841l53.234,0.386l-22.373,-59.02l-32.018,-15.816c-1.371,17.536 -11.714,35.073 -32.63,52.609Z" style="fill:#788197;stroke:#000;stroke-width:3.33px;"/><path d="M2189.45,670.255c52.033,57.132 125.594,63.134 216.073,28.959c12.275,-4.615 25.449,-6.341 38.499,-5.043c12.412,0.895 24.943,0.603 35.931,2.593c119.063,21.562 201.944,20.886 235.308,-42.439l5.623,-9.632c43.345,161.134 78.582,322.943 101.119,485.811l-724.342,18.206c22.865,-155.619 55.051,-315.899 91.789,-478.455Z" style="fill:#f9ffff;stroke:#000;stroke-width:3.33px;"/><path d="M2307.64,918.532c78.084,105.392 126.65,228.758 152.157,361.105c19.977,119.371 -17.19,206.66 -127.512,252.881c-21.669,41.824 -54.693,51.331 -106.081,8.572c-29.248,16.351 -60.281,23.867 -89.386,25.685c-36.334,2.269 -68.685,-5.715 -79.487,-32.328c-12.478,2.658 -8.932,12.742 -21.892,14.85c-44.689,7.271 -92.246,5.371 -142.981,6.42c-95.087,1.967 -197.026,1.371 -281.848,-0l165.752,-493.909l219.329,41.857c8.179,-11.864 13.611,-26.093 21.908,-38.204c15.708,-22.928 35.381,-42.969 52.139,-66.334c17.467,-24.355 28.382,-50.674 45.434,-76.82l26.755,43.676l22.697,28.849c32.109,-3.018 63.582,-3.177 94.193,0.547l48.823,-76.847Z" style="fill:#2e3147;stroke:#000;stroke-width:3.33px;"/><path d="M2444.92,480.429c23.574,5.107 27.183,12.056 37.285,22.319c14.843,15.081 24.032,36.038 30.747,54.688c20.394,56.636 9.057,115.743 -68.524,114.718c-77.581,1.025 -88.917,-58.082 -68.524,-114.718c6.716,-18.65 15.905,-39.607 30.748,-54.688c10.091,-10.252 13.703,-17.197 37.211,-22.303c0.074,-0.015 0.149,-0.023 0.224,-0.025c0.023,-0.005 0.039,-0.006 0.039,-0.006l0.264,-0.013l0.317,0.011l0.213,0.017Z" style="fill:#f9ffff;"/><ellipse cx="2530.57" cy="419.711" rx="17.045" ry="17.519"/><ellipse cx="2440.37" cy="536.659" rx="28.645" ry="20.833"/><path d="M2440.14,554.178c1.419,4.119 0.813,8.601 1.018,12.426c0.54,10.033 -0.339,18.469 3.172,25.839c5.902,12.388 20.4,20.527 27.02,24.908c11.997,7.939 21.778,1.962 17.558,-20.087" style="fill:none;stroke:#000;stroke-width:3.33px;"/><ellipse cx="2350.18" cy="422.552" rx="17.045" ry="17.519"/><path d="M2247.71,1080c25.199,0.956 43.368,-3.454 54.588,-13.167c11.219,-9.713 15.49,-24.73 12.892,-44.987c-56.687,-4.707 -75.165,17.507 -67.48,58.154Z" style="fill:#ffff52;stroke:#000;stroke-width:3.33px;"/><path d="M2279.13,1023.34c9.481,16.074 11.174,33.704 6.025,52.704c-7.422,-16.952 -10.307,-34.289 -6.025,-52.704Z" style="stroke:#000;stroke-width:3.33px;"/><path d="M2171.62,1081.64c-25.2,0.956 -43.368,-3.454 -54.588,-13.167c-11.22,-9.713 -15.49,-24.73 -12.893,-44.987c56.688,-4.707 75.166,17.507 67.481,58.154Z" style="fill:#ffff52;stroke:#000;stroke-width:3.33px;"/><path d="M2136.49,1024.99c9.481,16.073 11.174,33.704 6.025,52.704c-7.422,-16.952 -10.307,-34.289 -6.025,-52.704Z" style="stroke:#000;stroke-width:3.33px;"/><path d="M2946.15,1454.21c-45.932,19.86 -54.822,52.026 -35.363,74.956c7.077,8.34 16.334,10.228 31.144,17.263c5.255,-30.465 10.423,-60.936 4.219,-92.219Z" style="fill:#fdfdeb;stroke:#000;stroke-width:3.33px;"/><path d="M3209.32,1465.02c-13.248,5.712 -27.202,2.62 -35.935,8.075c-25.832,16.134 -30.779,48.062 -11.369,64.191c5.267,4.377 13.181,6.638 22.21,6.693c4.322,0.026 8.023,0.112 12.637,-0.797" style="fill:#f7fafb;stroke:#000;stroke-width:3.33px;"/><path d="M3092.01,1305.34c2.266,144.217 -33.584,208.44 -84.383,232.055l-3.014,-230.849l87.397,-1.206Z" style="fill:#fdfdeb;stroke:#000;stroke-width:3.33px;"/><path d="M3208.01,1377.75l3.375,85.83c-8.743,6.331 -14.04,7.131 -20.134,12.694c-38.349,35.003 -18.038,64.342 21.773,70.922c23.397,3.868 47.635,-5.814 86.434,-11.606c34.91,-84.461 -18.161,-121.038 -91.448,-157.84Z" style="fill:#fdfdeb;stroke:#000;stroke-width:3.33px;"/><path d="M3414.77,1387.02c20.458,6.918 34.165,16.536 42.279,28.392l-8.332,-77.768l-36.107,2.778l2.16,46.598Z" style="fill:#fff;stroke:#000;stroke-width:3.33px;"/><path id="kot-z-czerwoną-plamą" serif:id="kot z czerwoną plamą" d="M3225.46,893.915l20.252,75.222l11.573,279.912c37.922,71.284 64.836,149.173 71.895,238.975l-20.831,56.127c-37.482,9.156 -64.196,-17.818 -37.174,-40.895c1.462,-1.249 3.484,-2.326 5.748,-3.065c6.131,-1.999 12.375,-0.588 18.699,-6.352c1.071,-0.933 1.535,-2.384 1.203,-3.764c-0.809,-6.011 -0.624,-18.137 -2.651,-29.58c-2.279,-12.873 -4.401,-25.627 -12,-32.903c-22.624,-21.66 -52.84,-34.264 -78.944,-52.65c-29.584,-20.837 -53.988,-48.39 -70.785,-79.024c-37.718,11.466 -81.203,14.644 -129.034,11.573c9.042,40.608 10.598,87.599 13.91,129.349c4.796,60.444 3.529,109.901 -47.471,113.097c-12.147,-2.088 -20.36,3.018 -28.367,-2.474c-24.277,-16.652 -28.884,-53.693 7.536,-64.068c-5.154,-67.8 -34.183,-119.683 -74.064,-164.331c-9.066,4.56 -18.131,5.855 -27.196,4.629c32.338,109.128 64.734,218.31 -16.202,223.93c-14.074,-1.129 -25.94,-1.668 -32.997,-7.262c-20.934,-16.594 -10.847,-49.473 19.689,-50.023c-28.247,-103.13 -77.066,-163.246 -126.72,-221.615l-42.53,-69.002l-49.472,-165.922c-10.838,-57.921 -8.744,-139.427 2.998,-205.378c7.364,-41.357 14.132,-77.914 37.53,-94.608c18.353,-13.094 34.354,56.462 43.952,54.068l70.593,-0c1.615,-18.965 9.282,-37.365 13.179,-48.181c20.365,-56.528 65.747,8.253 131.478,111.83l326.203,42.385Z" style="fill:#fff;stroke:#000;stroke-width:3.33px;"/><path d="M2715.8,789.713c-3.865,7.928 -5.049,16.613 -10.355,23.068c-23.131,28.139 -62.686,41.212 -105.637,46.16c0.621,-3.381 0.893,-6.578 1.469,-9.907c4.623,-26.698 8.347,-51.687 14.009,-71.019c6.395,-21.83 16.169,-37.504 24.418,-42.254c9.399,-5.412 17.518,3.232 28.739,30.975c2.355,5.822 5.629,14.782 11.616,20.556c1.095,0.991 2.509,1.556 3.985,1.592c7.451,0.238 31.756,0.829 31.756,0.829Z" style="fill:#a6b7d1;"/><path d="M2888.75,838.405c-85.988,19.226 -145.171,8.463 -165.733,-48.847c-0,-0 22.819,0.186 30.572,0.249c1.433,0.011 2.641,-1.065 2.797,-2.49c1.743,-15.458 6.478,-28.74 9.565,-38.657c7.448,-23.931 16.566,-31.486 31.228,-25.681c4.252,1.684 8.761,5.411 12.943,9.224c0.707,0.644 1.664,1.397 2.299,2.005c14.226,13.61 31.796,36.955 52.374,67.317c7.698,11.359 15.121,23.7 23.955,36.88Z" style="fill:#d21e48;"/><path d="M3013.24,956.264c40.303,-13.941 75.864,-3.932 110.666,25.164c7.264,3.478 19.155,5.073 24.472,9.836c9.66,8.655 10.184,21.903 10.817,34.374c2.818,55.517 -54,121.478 -110.311,89.866c-16.015,1.634 -24.069,15.73 -35.845,14.586c-47.704,-4.633 -79.534,-61.32 -55.685,-104.325c5.978,-10.78 12.073,-10.805 18.184,-23.466c-0.798,-22.863 14.229,-36.825 37.702,-46.035Z" style="fill:#d21e48;stroke:#d21e48;stroke-width:3.33px;"/><path d="M2709.97,889.018c8.197,14.948 16.954,15.912 26.385,-0" style="fill:none;stroke:#000;stroke-width:3.33px;"/><path d="M2723.71,900.551c-1.463,19.67 1.458,33.761 13.576,36.146" style="fill:none;stroke:#000;stroke-width:3.33px;"/><path d="M2717.84,937.16c4.14,-2.258 6.88,-5.566 8.432,-9.765" style="fill:none;stroke:#000;stroke-width:3.33px;"/><path d="M2847.76,1323.69c-23.633,1.891 -45.54,-3.122 -64.351,-20.521" style="fill:none;stroke:#000;stroke-width:3.33px;"/><path d="M3132.45,1295.92c44.175,-6.658 85.487,-23.334 124.84,-46.869" style="fill:none;stroke:#000;stroke-width:3.33px;"/><path d="M3456.83,1479.95c26.65,-5.952 54.721,-4.518 85.322,10.073c13.781,45.196 -1.93,64.32 -42.661,61.325c-43.439,2.569 -64.01,-15.5 -42.661,-71.398Z" style="fill:#fff;stroke:#000;stroke-width:3.33px;"/><path d="M3328.65,1479.65c26.153,6.354 49.608,14.426 73.819,25.311c-4.267,42.237 -32.03,56.251 -85.674,42.94c-5.823,-1.445 -9.099,-4.958 -11.387,-9.184c-13.537,-24.997 0.271,-41.75 24.117,-47.522l-0.875,-11.545Z" style="fill:#fff;stroke:#000;stroke-width:3.33px;"/><path d="M4140.11,483.237l-123.403,446.45c-22.911,-42.688 -33.812,-97.613 -35.763,-152.878l-28.843,1.593l-26.57,9.018l-721.16,-59.343c0,0 29.463,-346.509 35.196,-413.936c0.606,-7.135 -0.67,-14.304 -3.702,-20.792c-3.656,-8.092 -6.038,-16.427 -9.894,-23.814c-13.081,-25.061 -25.903,-45.367 -31.498,-66.059c-6.999,-25.89 -4.392,-50.963 3.61,-70.404c-72.281,30.714 -84.445,10.733 -45.145,-48.928c9.468,-14.373 14.187,-26.605 68.726,-46.572c62.536,-45.428 129.95,-48.575 202.789,-4.716c20.671,11.099 27.445,11.819 38.128,18.239c5.609,3.371 17.072,11.447 21.871,16.649c32.572,35.316 53.555,68.357 25.655,79.646c-6.59,2.666 -20.908,-12.945 -33.778,-16.676c0,-0 0.002,2.858 0.004,7.171c0.02,29.246 -7.673,57.98 -22.301,83.305c-7.244,11.952 -14.744,23.908 -22.777,35.719c-4.617,6.742 -8.132,14.174 -10.415,22.02c-1.94,6.533 -4.189,14.266 -5.605,19.132c-1.181,4.053 -2.031,8.195 -2.544,12.386c-6.829,57.092 15.204,119.961 69.949,189.373c0.012,0.018 0.017,0.04 0.015,0.062c0.4,1.228 12.082,19.447 29.292,31.882c14.438,10.431 34.847,15.045 43.529,15.028c39.064,-0.081 90.44,-6.676 122.054,-19.429c152.729,-61.612 299.594,-81.418 462.58,-44.126Z" style="fill:#f9fbfd;stroke:#000;stroke-width:3.33px;"/><path d="M3220.48,41.838c-15.154,8.075 -32.006,12.263 -42.281,19.63c-2.077,1.49 -6.073,5.276 -7.786,6.824c-2.543,2.295 -3.662,3.437 -5.731,5.919c-21.045,25.252 -32.826,51.558 -28.613,64.37c0.459,1.396 1.864,0.946 2.707,2.048c2.158,2.823 7.581,3.323 15.248,3.091c9.439,-0.285 23.253,-7.312 43.493,-14.63l22.963,-87.252Z" style="fill:#e2d7bf;stroke:#e2d7bf;stroke-width:3.81px;"/><path d="M3481.36,73.06c4.955,0.641 7.477,6.095 7.638,6.234c8.418,7.303 8.7,9.864 14.192,16.38c13.539,16.062 16.344,26.927 15.764,39.015c-0.075,1.565 -7.091,10.016 -11.103,9.41c-1.041,-0.157 -4.221,-2.92 -6.039,-3.5c-2.708,-0.864 -0.392,0.627 -3.728,-2.05c-5.302,-4.255 -11.849,-7.686 -21.871,-11.719l-44.703,-86.14c14.768,6.035 29.832,13.099 39.872,20.738c3.651,2.779 8.442,7.315 11.703,10.06c0.797,0.671 -0.313,1.213 -1.725,1.572Z" style="fill:#e2d7bf;stroke:#e2d7bf;stroke-width:3.81px;"/><path d="M3352.52,234.763c1.921,41.25 -8.936,64.376 -20.325,65.627c-11.39,1.251 -23.313,-19.374 -23.522,-65.627c3.844,-3.514 9.04,-4.15 12.569,-6.18c3.832,-2.206 7.086,-5.69 9.953,-4.804c3.153,0.974 5.901,6.542 9.857,8.836c2.868,1.663 8.13,-1.146 11.468,2.148Z" style="fill:#f5c9f7;fill-opacity:0.99;"/><path d="M3331.71,248.088c-3.585,0.889 -3.936,32.703 -0.569,32.091" style="fill:#ea99eb;stroke:#ea99eb;stroke-width:3.81px;"/><path d="M3330.5,220.801c-3.948,9.261 -25.721,19.164 -33.615,6.836" style="fill:none;stroke:#000;stroke-width:3.33px;"/><ellipse cx="3329.34" cy="181.748" rx="26.4" ry="17.721" style="fill:#8f838e;stroke:#8f838e;stroke-width:3.33px;"/><ellipse cx="3257.43" cy="118.971" rx="24.838" ry="24.209" style="fill:#f9fbfd;stroke:#000;stroke-width:3.33px;"/><ellipse cx="3260.05" cy="121.182" rx="12.704" ry="11.957" style="fill:#0d0d0d;stroke:#000;stroke-width:3.33px;"/><ellipse cx="768.118" cy="562.604" rx="24.221" ry="23.592" style="fill:#f8fdfe;stroke:#000;stroke-width:3.33px;"/><ellipse cx="771.51" cy="566.494" rx="12.704" ry="11.957" style="fill:#0d0d0d;stroke:#000;stroke-width:3.33px;"/><ellipse cx="913.27" cy="558.987" rx="23.727" ry="23.592" style="fill:#f9fbfd;stroke:#000;stroke-width:3.33px;"/><ellipse cx="916.606" cy="563.034" rx="12.704" ry="11.957" style="fill:#0d0d0d;stroke:#000;stroke-width:3.33px;"/><ellipse cx="3403.91" cy="119.776" rx="24.838" ry="24.209" style="fill:#f9fbfd;stroke:#000;stroke-width:3.33px;"/><ellipse cx="3406.89" cy="122.105" rx="13.06" ry="12.075" style="fill:#0d0d0d;stroke:#000;stroke-width:3.33px;"/><path d="M3937.8,1054.94c-7.349,-32.924 -9.73,-66.261 -4.716,-100.216c10.402,-93.08 -5.293,-178.484 -48.34,-255.845c0.628,-7.944 -4.448,-13.938 -5.777,-21.837c-2.719,-16.169 -5.045,-31.748 -4.804,-50.055c1.057,-80.351 -16.482,-155.802 -51.774,-215.749c-29.087,-49.409 -72.654,-87.075 -106.685,-118.832c-18.914,-17.65 -32.398,-28.683 -50.448,-37.955c-15.371,-7.896 -33.537,-17.786 -51.295,-19.256c-27.031,-2.238 -25.38,5.127 -16.432,23.682c0.884,1.832 4.342,6.667 7.742,10.44c46.126,51.189 171.031,192.198 166.451,309.265c-0.958,24.482 3.595,69.621 -4.878,81.39c-88.822,-6.845 -180.417,6.175 -273.051,18.033c-21.298,2.726 -42.769,3.629 -64.204,4.413c-6.659,0.244 -13.012,0.761 -19.676,1.558c-91.963,10.898 -156.926,-21.033 -184.975,-82.974c-13.073,-28.867 -7.724,-64.011 -12.22,-104.814c-2.842,-25.782 -14.689,-43.615 -14.157,-74.376c76.059,78.163 125.575,57.479 105.03,4.136c-4.442,-11.533 -15.501,-25.103 -30.659,-36.041c-14.17,-10.224 -32.244,-24.988 -54.569,-36.141c-5.787,-2.891 -13.976,-6.976 -23.235,-9.329c-4.87,-1.237 -8.799,-3.198 -14.066,-4.715c-3.164,-0.911 -7.601,-0.675 -10.797,-2.798c-21.944,-13.844 -39.828,-25.651 -63.162,-31.919c-68.648,-18.441 -142.884,-2.811 -177.356,40.172c-10.719,6.123 -16.238,-0.627 -27.078,5.234c-18.155,9.817 -53.415,30.038 -64.639,41.771c-47.098,49.231 -34.437,95.609 0.256,90.638c18.656,-2.673 42.106,-33.337 83.208,-59.829c-39.125,89.869 -25.887,171.639 -19.419,249.598c1.856,22.362 -5.05,46.717 -6.073,68.709c-1.67,35.886 1.07,67.909 2.73,102.78c0.262,5.671 1.964,11.182 4.945,16.013c14.69,23.517 34.151,42.1 61.811,52.243c13.793,5.054 28.479,7.208 43.142,6.329c34.969,-2.149 69.882,-6.985 101.249,-17.105c16.697,-5.422 34.176,-8.042 51.728,-7.755c27.367,0.191 64.071,0.792 64.071,0.792l712.122,160.345Z" style="fill:#fdfdeb;stroke:#000;stroke-width:3.33px;"/><path d="M2930.69,346.74c-4.486,3.769 -13.768,2.606 -18.858,3.181c-6.01,0.679 -12.56,3.235 -17.663,6.764c-12.398,8.574 -23.88,14.881 -34.613,21.734c-9.623,6.144 -17.34,12.33 -23.588,18.744c-10.353,10.629 -16.424,21.788 -20.88,31.454c-13.189,28.604 -6.013,55.128 24.123,52.989c3.963,-0.281 7.028,-2.669 10.745,-5.123c6.354,-4.195 13.874,-9.944 21.773,-16.864c5.075,-4.447 15.089,-13.027 21.231,-17.482c1.465,-1.063 2.605,-2.542 4.277,-3.704c1.588,-1.104 2.904,-2.535 4.511,-3.609c1.101,-0.735 2.378,-1.601 3.195,-2.437c0.82,-0.839 2.18,-1.412 3.037,-2.065c2.91,-2.218 5.325,-3.936 8.182,-5.784c1.664,-1.076 3.787,-1.99 5.435,-3.612c-4.214,-25.569 -1.99,-50.727 9.093,-74.186Z" style="fill:#f8f7aa;"/><path d="M3178.42,340.774c4.312,1.864 17.489,5.038 22.752,7.4c4.973,2.231 13.006,4.692 18.496,7.994c13.089,7.872 23.788,14.232 33.872,21.735c9.16,6.814 23.274,15.791 29.522,22.205c10.353,10.628 13.76,14.492 17.99,24.259c12.771,29.487 3.515,51.353 -25.383,46.601c-3.921,-0.644 -17.401,-5.1 -21.224,-7.507c-5.361,-3.373 -5.218,-2.536 -14.175,-8.457c-3.335,-2.204 -8.153,-5.609 -12.632,-9.113c-2.733,-2.138 -5.095,-4.435 -7.627,-6.164c-1.495,-1.022 -3.707,-3.515 -5.379,-4.677c-1.588,-1.104 -2.58,-2.729 -4.187,-3.803c-1.101,-0.736 -2.119,-1.991 -2.936,-2.827c-0.819,-0.838 -1.337,-1.476 -2.194,-2.13c-2.91,-2.217 -3.795,-5.383 -7.145,-5.977c-0.593,-0.105 -0.774,-0.763 -0.874,-1.045c-0.23,-0.655 -0.167,-1.22 0.156,-2.24c0.117,-0.372 0.332,-0.875 0.471,-1.373c0.063,-0.224 0.246,-0.475 0.162,-0.665c0.695,-25.184 -7.379,-50.295 -19.665,-74.216Z" style="fill:#f8f7aa;"/><path d="M4007.61,1392.19c2.769,-113.73 -17.901,-212.888 -62.78,-296.998l0.424,75.733l-23.656,123.278c-4.522,56.578 -6.104,112.176 -8.015,167.884c7.923,5.246 17.861,8.654 29.476,11.79l64.551,-81.687Z" style="fill:#fdfdeb;stroke:#000;stroke-width:3.33px;"/><path d="M3062.85,526.964l1.159,40.179c36.817,29.539 54.175,10.929 42.111,-15.84" style="fill:none;stroke:#000;stroke-width:3.33px;"/><ellipse cx="3063.46" cy="505.942" rx="27.919" ry="19.996" style="fill:#0d0d0d;stroke:#000;stroke-width:3.33px;"/><path d="M3064.01,567.143c-33.855,22.669 -50.656,17.092 -42.111,-14.681" style="fill:none;stroke:#000;stroke-width:3.33px;"/><ellipse cx="2991.78" cy="421.053" rx="11.318" ry="10.564" style="fill:#0d0d0d;stroke:#000;stroke-width:3.33px;"/><ellipse cx="3129.87" cy="418.035" rx="11.318" ry="10.564" style="fill:#0d0d0d;stroke:#000;stroke-width:3.33px;"/><ellipse cx="3716.59" cy="959.671" rx="9.403" ry="7.595" style="fill:#080808;fill-opacity:0.43;"/><circle cx="3715.14" cy="962.202" r="7.233" style="fill:#080808;fill-opacity:0.43;"/><path d="M4609.95,745.625l-44.299,-128.765c-0,0 -18.209,-71.841 -22.109,-87.229c-0.487,-1.918 -0.898,-3.855 -1.235,-5.806c-1.49,-8.641 -6.031,-34.971 -10.246,-59.407c-5.471,-31.723 -17.405,-61.982 -35.06,-88.9c-30.98,-47.23 -77.793,-118.601 -77.793,-118.601c35.942,64.065 76.965,117.256 119.668,139.48c4.555,2.19 10.026,0.731 12.886,-3.437c24.311,-35.256 33.555,-66.533 32.562,-94.258c-1.734,-48.391 -37.45,-85.959 -98.135,-115.042c-5.432,-2.605 -11.011,-4.892 -16.709,-6.849c-165.276,-56.556 -298.569,-43.929 -389.785,59.674c-2.035,2.32 -4.219,4.506 -6.536,6.544c-16.501,14.619 -33.139,31.575 -45.749,45.075c-18.46,19.764 -31.432,34.046 -41.907,52.303c-43.532,75.872 -18.725,143.557 57.766,190.805c5.733,3.522 13.17,2.403 17.611,-2.652c6.004,-6.784 13.363,-15.159 13.363,-15.159c-0.576,29.103 3.102,56.422 19.257,78.509c-10.847,43.969 -11.722,88.409 -23.685,131.96c-40.361,146.921 -69.088,285.096 -87.629,427.697c-1.662,12.936 -0.24,26.082 4.149,38.363c18.878,53.877 24.705,122.654 22.789,200.335l5.801,100.129c123.046,19.563 234.575,64.174 374.613,51.877c0,-0 88.797,-2.383 166.077,-4.457c68.751,-1.845 130.519,-42.487 159.422,-104.894c16.833,-36.346 31.709,-68.466 31.709,-68.466l-136.796,-618.829Z" style="fill:#383b36;"/><path d="M3570.01,1340.44c0.289,2.308 18.218,4.534 36.532,7.623c7.589,1.28 15.723,-2.564 21.935,2.171c4.066,3.099 3.443,14.509 6.309,20.914c6.274,14.015 9.253,20.682 20.067,19.548c56.387,-5.908 175.604,50.907 225.955,12.183c13.261,-10.199 37.259,-14.813 35.712,-34.753c-2.877,-37.086 9.741,-89.994 10.624,-97.581c4.018,-34.545 15.782,-65.88 17.327,-96.329c5.213,-102.756 -25.754,-182.508 -114.076,-221.64l-226.6,10.893l-62.716,-51.578c4.463,-38.142 -5.09,-73.481 -25.315,-106.685c-18.909,-131.291 -53.213,-151.513 -106.686,-33.452c-26.562,-6.26 -51.851,-5.511 -75.945,1.808c-53.312,-123.997 -81.452,-93.146 -94.028,33.452c-20.608,57.246 -19.397,112.814 8.137,166.357c0,-0 -8.841,105.279 -12.263,146.029c-0.976,11.607 -0.685,23.286 0.868,34.831c4.313,31.772 11.002,61.821 20.463,89.89c1.712,4.995 3.824,9.843 6.316,14.498c4.988,9.45 14.613,27.43 21.937,41.111c6.393,11.943 11.08,24.723 13.925,37.968c10.444,48.47 21.423,95.081 32.837,140.167c25.976,4.067 48.283,14.735 71.1,27.018c8.529,-53.412 11.245,-109.432 10.27,-162.845c14.269,1.021 25.417,-0.633 35.26,-3.406l11.1,71.513l-1.701,68.563c31.741,-3.259 62.368,-2.421 84.629,10.911l28.027,-149.179Z" style="stroke:#000;stroke-width:3.33px;"/><path d="M3373.94,794.784c0.379,0.116 0.693,0.382 0.869,0.737c10.131,20.217 18.766,40 31.716,64.001c0.684,1.267 1.55,2.427 2.568,3.444c31.853,31.965 34.636,73.844 17.881,122.026c-1.1,3.145 -0.959,6.591 0.395,9.636c13.431,30.384 25.916,64.124 34.479,101.81c0.846,3.756 2.362,7.33 4.475,10.549c27.071,41.487 35.445,83.491 24.442,121.951c-5.787,20.23 -23.543,35.899 -33.285,57.297c-6.235,13.697 0.239,33.419 -7.674,47.371c-12.923,8.362 -25.845,10.671 -38.768,5.208c-78.838,-59.335 -110.838,-127.663 -75.165,-208.984c2.461,-5.591 2.908,-11.862 1.267,-17.745c-10.474,-38.171 -9.436,-76.754 0.963,-115.672c1.45,-5.361 1.173,-11.042 -0.792,-16.236c-18.977,-50.333 -18.435,-90.909 14.492,-115.294c2.396,-1.756 4.16,-4.24 5.03,-7.081c10.652,-34.83 12.378,-62.668 17.107,-63.018Z" style="fill:#fff;stroke:#000;stroke-width:3.81px;"/><path d="M3366.78,875.483c9.819,15.579 18.449,13.307 26.293,-0.741c-2.779,6.308 -6.823,10.845 -13.648,11.488l2.538,27.396c5.006,-0.909 7.827,1.304 9.999,4.444" style="fill:none;stroke:#000;stroke-width:3.33px;"/><path d="M3381.97,913.626c-4.674,-0.821 -8.269,1.053 -10.515,6.299" style="fill:none;stroke:#000;stroke-width:3.33px;"/><ellipse cx="3312.43" cy="845.874" rx="21.134" ry="19.95" style="fill:#e3d458;stroke:#000;stroke-width:3.33px;"/><ellipse cx="3312.76" cy="846.689" rx="12.984" ry="11.809" style="fill:#0d0d0d;stroke:#000;stroke-width:3.33px;"/><ellipse cx="3433.9" cy="838.097" rx="21.134" ry="19.95" style="fill:#e3d458;stroke:#000;stroke-width:3.33px;"/><ellipse cx="3434.23" cy="838.912" rx="12.984" ry="11.809" style="fill:#0d0d0d;stroke:#000;stroke-width:3.33px;"/><path d="M4177.26,887.497c-14.581,-9.563 -20.311,-28.137 -13.652,-44.253c6.185,-15.011 14.952,-21.38 26.663,-17.848c16.282,4.638 26.867,20.315 25.085,37.15c-3.345,32.766 -16.836,39.099 -38.096,24.951Z" style="fill:#e34e4e;stroke:#e34e4e;stroke-width:3.13px;"/><path d="M4344.84,409.916l52.642,113.974c19.34,-10.572 41.772,-17.575 52.465,-27.548c15.693,-14.634 14.346,-31.739 13.718,-44.042c-0.8,-15.651 -10.242,-26.084 -42.211,-34.397c-9.777,-2.542 -24.871,0.721 -36.895,-1.671c-24.311,-4.838 -43.742,-8.722 -39.719,-6.316Z" style="fill:#e34e4e;stroke:#e34e4e;stroke-width:3.13px;"/><path d="M4229.14,457.752l9.018,101.418c-21.201,6.028 -42.102,16.769 -56.719,17.16c-21.45,0.574 -32.486,-12.563 -40.667,-21.773c-10.407,-11.717 -10.994,-25.776 5.964,-54.123c5.186,-8.67 27.234,-18.127 34.127,-28.265c4.236,-6.231 11.544,-8.807 18.132,-11.499c15.086,-6.166 30.967,-6.076 30.145,-2.918Z" style="fill:#e34e4e;stroke:#e34e4e;stroke-width:3.12px;"/><path d="M4309.56,242.388c-5.977,3.879 -10.341,9.796 -12.282,16.652c-5.89,20.78 2.964,27.564 25.428,21.417c13.142,-3.027 22.413,-14.782 22.296,-28.267c0.987,-21.852 -9.708,-26.689 -35.442,-9.802Z" style="fill:#e34e4e;stroke:#e34e4e;stroke-width:3.13px;"/><path d="M4146.11,315.085c4.968,5.332 11.739,8.628 19.001,9.248c20.477,1.784 27.649,-5.509 22.862,-22.297c-2.92,-12.954 -14.35,-22.21 -27.628,-22.375c-26.961,-1.317 -37.323,10.996 -14.235,35.424Z" style="fill:#e34e4e;stroke:#e34e4e;stroke-width:3.13px;"/><path d="M4241.14,147.42c22.509,25.9 31.031,90.522 43.182,163.308c3.018,18.076 11.636,35.39 14.488,54.213c54.945,17.999 81.38,82.114 98.095,161.955c17.802,14.378 36.686,27.531 50.13,50.878c2.763,4.798 2.129,11.856 1.753,13.222c-0.379,1.376 0.463,4.315 0.766,5.376c0.7,2.456 1.977,2.541 3.311,4.918c12.343,19.196 51.977,36.09 57.921,51.73c18.759,49.354 -22.581,83.803 -46.729,118.783l-144.838,223.84c-16.975,-20.404 -27.859,-43.374 -43.681,-67.383c-8.089,-12.274 -26.615,-22.932 -34.365,-37.221c-19.832,-36.569 -13.455,-75.917 -13.465,-106.727c-60.086,-46.986 -72.813,-93.332 -28.967,-138.913c-6.631,-36.106 5.796,-63.875 44.109,-80.319c-40.281,-45.525 -47.198,-114.479 -7.709,-173.958l9.026,-11.039c-35.784,-94.597 -63.21,-176.491 -63.003,-216.381c14.803,-6.938 36.737,-12.125 59.976,-16.282Z" style="fill:#edf2ee;stroke:#000;stroke-width:3.13px;"/><path d="M4293.73,457.71c10.158,18.427 4.505,36.119 15.729,46.268c6.791,6.141 14.632,13.356 22.183,15.996c18.555,6.488 30.916,1.593 41.086,-10.635c6.478,-7.789 5.742,-24.399 -4.167,-40.505" style="fill:none;stroke:#000;stroke-width:3.13px;"/><path d="M4302.75,491.951c-4.436,38.58 -23.899,58.609 -47.741,52.609c-4.191,-1.055 -12.392,-5.441 -16.586,-12.32c-1.238,-2.031 -2.521,-4.674 -2.756,-7.021c-0.854,-8.502 -1.241,-16.443 -0.586,-20.318" style="fill:none;stroke:#000;stroke-width:3.13px;"/><path d="M4255.99,442.836c-0.608,-1.74 -0.796,-3.598 -0.549,-5.425c3.162,-23.96 13.901,-30.782 35.154,-32.089c12.676,-0.779 18.058,2.822 21.958,7.102c2.932,3.17 4.736,7.22 5.131,11.52c0.428,3.339 0.987,6.435 0.425,9.181c-3.832,18.707 -26.134,30.363 -50.021,21.808c-5.44,-1.948 -9.969,-5.926 -12.098,-12.097Z" style="fill:#091105;"/><clipPath id="_clip1"><path d="M4255.99,442.836c-0.608,-1.74 -0.796,-3.598 -0.549,-5.425c3.162,-23.96 13.901,-30.782 35.154,-32.089c12.676,-0.779 18.058,2.822 21.958,7.102c2.932,3.17 4.736,7.22 5.131,11.52c0.428,3.339 0.987,6.435 0.425,9.181c-3.832,18.707 -26.134,30.363 -50.021,21.808c-5.44,-1.948 -9.969,-5.926 -12.098,-12.097Z"/></clipPath><g clip-path="url(#_clip1)"><path d="M4293.73,457.71l-58.314,46.854" style="fill:none;stroke:#000;stroke-width:3.13px;"/></g><path d="M4255.99,442.836c-0.608,-1.74 -0.796,-3.598 -0.549,-5.425c3.162,-23.96 13.901,-30.782 35.154,-32.089c12.676,-0.779 18.058,2.822 21.958,7.102c2.932,3.17 4.736,7.22 5.131,11.52c0.428,3.339 0.987,6.435 0.425,9.181c-3.832,18.707 -26.134,30.363 -50.021,21.808c-5.44,-1.948 -9.969,-5.926 -12.098,-12.097Z" style="fill:none;stroke:#000;stroke-width:3.13px;"/><ellipse id="oko-berneńczyka" serif:id="oko berneńczyka" cx="4345.17" cy="314.767" rx="26.514" ry="25.068" style="fill:#eeefe7;"/><clipPath id="_clip2"><ellipse cx="4345.17" cy="314.767" rx="26.514" ry="25.068"/></clipPath><g clip-path="url(#_clip2)"><ellipse cx="4347.65" cy="317.25" rx="12.25" ry="11.31" style="fill:#091105;"/></g><ellipse id="oko-berneńczyka1" serif:id="oko berneńczyka" cx="4174.66" cy="367.435" rx="26.514" ry="25.068" style="fill:#eeefe7;"/><clipPath id="_clip3"><ellipse cx="4174.66" cy="367.435" rx="26.514" ry="25.068"/></clipPath><g clip-path="url(#_clip3)"><ellipse cx="4176.78" cy="370.037" rx="11.895" ry="11.429" style="fill:#091105;"/></g><path d="M4313.5,1473.68c-2.62,37.444 -17.601,73.22 -48.874,91.071c-18.541,10.583 -40.238,11.814 -59.802,12.502c-33.753,1.188 -61.157,-8.02 -55.047,-36.912c4.853,-22.948 40.763,-61.442 67.933,-87.399c-0,0 23.804,3.562 38.262,5.725c7.214,1.08 14.351,2.63 21.363,4.641c13.772,3.95 36.165,10.372 36.165,10.372Z" style="fill:#fff;stroke:#000;stroke-width:3.13px;"/><path d="M4499.32,1441.21l18.329,-202.878c-41.127,49.099 -92.862,90.683 -154.213,125.456c-1.303,41.194 0.503,79.668 5.941,114.964c47.135,-22.831 91.235,-37.466 129.943,-37.542Z" style="fill:#c85e43;stroke:#000;stroke-width:3.13px;"/><path d="M4313.55,1474.22l10.012,-95.348c-20.328,3.789 -37.419,4.342 -46.77,-2.845l-60.388,76.692c40.951,6.216 57.125,9.243 73.737,14.19c6.989,2.081 14.908,3.65 23.409,7.311Z" style="fill:#c85e43;stroke:#000;stroke-width:3.13px;"/><path d="M2405.04,294.217c5.328,26.904 10.207,48.212 17.52,59.655c5.398,8.447 14.056,10.619 19.873,11.897c6.749,1.483 15.304,-0.46 21.99,-8.99c8.365,-10.673 15.384,-32.958 22.655,-61.903c-29.57,-8.271 -58.568,-8.55 -82.038,-0.659Z" style="fill:#f9ffff;"/><path d="M4502.89,1442.29c36.087,11.037 77.458,126.198 -3.222,135.044c-11.878,1.303 -70.563,11.231 -96.469,-14.441c-13.475,-13.353 -25.157,-33.588 -28.851,-51.32c-3.954,-18.988 -4.554,-31.012 -5.778,-32l41.635,-19.212c-0,0 22.894,-7.47 37.46,-12.222c7.822,-2.552 15.93,-4.128 24.139,-4.691l27.614,-1.895l3.472,0.737Z" style="fill:#fff;stroke:#000;stroke-width:3.13px;"/><path d="M4600.93,1066.76c9.887,70.704 13.677,229.914 39.082,288.228c9.97,25.458 -9.096,85.967 -17.938,160.281c-43.879,69.778 -122.469,-9.438 -42.24,-23.145l4.051,-121.513c-37,-48.929 -48.809,-95.735 -53.382,-147.753c42.462,-57.658 61.306,-108.319 70.427,-156.098Z" style="fill:#b8b0b0;stroke:#000;stroke-width:3.13px;"/><path d="M4996.24,1213.8c5.77,4.443 10.64,9.945 14.35,16.211c15.667,26.321 6.431,33.344 -29.81,19.363c-49.075,-23.07 -84.343,-65.663 -106.897,-120.077c-27.226,-59.393 -34.955,-120.078 -30.839,-181.882l-8.829,-109.483c-32.109,-57.139 -68.073,-62.231 -107.716,-17.658c26.674,80.052 27.247,161.516 16.245,241.568c-16.01,85.467 -13.185,161.516 8.476,228.147c6.307,78.286 2.17,156.572 -14.126,234.857c-70.59,54.923 -141.175,-30.194 -38.849,-44.525l0.569,-129.393c-74.072,-30.381 -87.952,-157.688 -97.69,-294.031c-4.11,158.255 -247.83,360.139 -324.916,319.703c-3.023,12.809 -23.518,34.287 -37.026,51.105c-37.949,47.248 -100.814,99.649 -148.474,124.704c-20.895,10.995 -44.879,14.652 -68.102,10.384c-33.399,-6.103 -27.448,-25.354 54.061,-69.792c37.687,-32.104 67.53,-72.037 82.995,-116.486c-17.609,3.401 -33.861,3.181 -47.678,-3.531c-44.948,59.633 -101.272,118.993 -165.248,171.53c-7.968,6.505 -17.352,11.051 -27.396,13.27c-82.804,18.724 -54.231,-23.807 24.717,-83.913c38.806,-41.139 69.448,-88.81 96.197,-139.595c-15.438,-32.548 -13.735,-65.096 2.17,-97.644c-38.585,-41.743 -38.853,-94.838 -12.341,-155.869c7.054,-133.253 37.549,-141.899 90.411,-31.644c11.912,-5.702 25.953,-5.018 41.815,1.13c47.866,-86.772 86.649,-123.585 98.323,-11.301c30.361,9.22 72.092,-56.605 117.534,-146.919c58.632,-132.941 151.575,-180.107 282.536,-132.226c84.535,-56.926 160.781,-49.609 226.028,42.945c18.615,46.446 10.936,126.934 14.692,216.987c1.129,33.527 10.097,70.974 30.514,114.145c17.327,33.829 38.918,60.194 64.304,79.92Z" style="fill:#b8b0b0;stroke:#000;stroke-width:3.13px;"/><path d="M4142.99,1142.23c-7.457,14.675 -20.727,17.446 -26.663,-0.37" style="fill:none;stroke:#000;stroke-width:3.13px;"/><path d="M4127.74,1154.83c0.821,6.586 0.791,16.297 1.178,23.317c13.808,14.732 23.372,6.797 19.627,-7.407" style="fill:none;stroke:#000;stroke-width:3.13px;"/><path d="M4128.92,1178.15c-17.423,12.195 -23.437,8.419 -21.108,-7.037" style="fill:none;stroke:#000;stroke-width:3.13px;"/><path d="M4260.63,1038.95c0.584,24.471 1.301,45.612 3.125,39.077c29.471,51.688 22.07,94.746 -6.481,132.854" style="fill:none;stroke:#000;stroke-width:3.13px;"/><ellipse cx="4181.1" cy="1110.14" rx="21.988" ry="20.541" style="fill:#a2dc83;"/><clipPath id="_clip4"><ellipse cx="4181.1" cy="1110.14" rx="21.988" ry="20.541"/></clipPath><g clip-path="url(#_clip4)"><ellipse cx="4181.39" cy="1110.72" rx="8.39" ry="7.812" style="fill:#091105;"/></g><ellipse cx="4181.1" cy="1110.14" rx="21.988" ry="20.541" style="fill:none;stroke:#000;stroke-width:3.27px;"/><ellipse cx="4083.89" cy="1110.14" rx="21.988" ry="20.541" style="fill:#a2dc83;"/><clipPath id="_clip5"><ellipse cx="4083.89" cy="1110.14" rx="21.988" ry="20.541"/></clipPath><g clip-path="url(#_clip5)"><ellipse cx="4084.18" cy="1110.72" rx="8.39" ry="7.812" style="fill:#091105;"/></g><ellipse cx="4083.89" cy="1110.14" rx="21.988" ry="20.541" style="fill:none;stroke:#000;stroke-width:3.33px;"/><path d="M3814.54,1057.61c3.98,19.461 6.926,39.184 13.616,58.18c9.805,27.842 26.265,52.105 34.904,74.032c15.619,39.643 32.636,81.72 44.49,122.438c14.555,49.999 6.005,101.518 3.428,147.819c-1.598,23.323 178.244,37.961 298.315,42.432c55.009,4.773 101.847,0.504 128.335,9.738c70.134,24.451 25.705,41.622 -130.042,33.516c-49.776,1.395 -112.595,0.936 -168.955,1.323c-42.137,0.29 -79.548,2.168 -111.256,-0.405c-21.505,-1.746 -32.277,-9.393 -45.971,-12.026c-0,0 -0.001,0.001 -0.001,0.001c-13.427,9.025 -29.232,13.86 -45.41,13.892c-43.321,0.085 -128.178,0.252 -128.178,0.252l-109.652,5.986c-13.172,-24.019 -5.617,-42.481 9.949,-47.095c5.189,-1.538 8.506,-2.66 14.38,1.808c15.969,12.149 27.888,-11.785 42.89,-12.133c-28.888,-37.539 -26.981,-75.777 -6.429,-114.44c-8.865,-18.492 -12.801,-37.517 -18.775,-56.518c-10.294,-32.742 -18.339,-64.579 -8.228,-87.496c-11.144,7.932 -22.288,7.635 -33.432,-1.286c10.564,33.316 -6.061,46.623 -31.15,27.906c-5.372,-4.008 -14.247,-8.155 -16.317,-19.603c-5.268,-29.145 4.939,-48.445 24.131,-56.213c10.609,-4.294 24.9,-1.319 38.623,-3.398c4.283,-0.649 7.311,-6.058 11.736,-6.555l12.689,-92.988l1.022,-91.906c-0,0 5.577,-30.46 7.31,-39.927c0.334,-1.824 1.077,-3.55 2.172,-5.047c2.459,-3.362 7.05,-9.638 9.627,-13.161c1.228,-1.679 2.084,-3.6 2.511,-5.636c17.353,-83.13 52.709,-85.386 64.304,-60.548c5.701,12.212 1.896,25.983 5.784,48.543c9.028,-3.179 22.587,-3.615 36.004,0.93c33.982,-80.617 53.611,-80.106 55.291,21.859c24.026,45.046 20.224,83.321 -7.715,115.726Z" style="fill:#fafcfa;stroke:#000;stroke-width:3.13px;"/><path d="M3885.06,1250.6c10.37,28.408 21.938,57.173 26.132,85.663c6.185,42.01 0.981,83.624 -1.339,122.58c-0.071,1.202 -0.603,2.349 -0.562,3.19c0.046,0.955 0.526,1.771 1.013,2.448c0.457,0.635 1.602,1.961 2.104,2.384c0.542,0.456 3.722,2.599 4.302,2.909c7.184,3.839 18.586,6.997 26.659,9.159c2.425,0.649 5.032,1.209 7.715,1.643c81.079,13.116 157.146,18.809 220.93,22.295c54.411,2.974 99.858,4.535 132.132,5.629c0.526,0.018 6.507,0.587 11.976,1.252c4.576,0.557 8.779,1.296 9.205,1.37c7.779,1.343 12.27,3.116 18.407,5.255c44.579,15.54 27.546,27.804 -48.311,29.299c-9.046,0.179 -16.257,0.395 -27.123,0.174c-21.977,-0.447 -47.716,-1.717 -77.59,-1.456c-38.027,0.333 -54.499,0.374 -92.004,0.647c-14.334,0.105 -30.611,0.114 -52.047,0.2c-7.498,0.031 -15.329,0.243 -24.091,0.372c-4.478,0.066 -9.343,0.402 -14.235,0.098c-2.436,-0.152 -20.697,0.55 -38.598,0.517c-17.351,-0.032 -34.363,-0.801 -36.3,-0.852c-24.24,-0.65 -34.349,-8.104 -51.945,-12.401c-0.266,-0.064 -0.545,-0.05 -0.803,0.041c-1.698,1.298 -0.974,0.375 -3.542,1.767c-0.03,0.015 -0.058,0.035 -0.083,0.057c-0.018,0.002 -4.692,4.159 -5.76,5.11c-0.144,0.127 -0.322,0.209 -0.512,0.234c-38.267,5.154 -44.169,-18.975 -28.933,-58.504c1.904,-4.928 3.003,-10.13 3.254,-15.407c0.776,-21.316 -8.117,-40.61 -29.407,-57.425c-29.893,-3.474 -34.416,-23.861 -26.849,-52.308c-7.583,-11.506 -12.292,-23.7 -15.757,-33.284c-8.82,-24.396 -6.993,-41.878 0.323,-58.744l111.639,-13.912Z" style="fill:#f5db89;stroke:#f5db89;stroke-width:0.83px;"/><path d="M4101.37,1522.36c-0.374,-0.107 3.564,22.802 4.123,22.914l-13.223,0.045c-2.71,-13.917 -3.203,-31.268 -0.988,-48.254l13.264,1.272c-1.73,7.367 -2.532,14.92 -3.176,24.023Z" style="fill:#f9f4df;"/><path d="M4276.94,1529.35c-0.001,0.003 -0.004,0.005 -0.007,0.004c-0.311,0.121 3.778,16.625 4.332,16.736l-14.437,0.046c-5.992,-13.918 -7.148,-22.457 -1.192,-39.443l14.682,0.664c-1.729,7.365 -2.734,12.893 -3.378,21.993Z" style="fill:#f9f4df;"/><path d="M4180.7,1503.34c-4.516,13.72 -5.354,27.439 -2.2,41.159l30.694,-0.554c-7.845,-12.469 -7.576,-25.563 1.198,-39.31l-29.692,-1.295Z" style="fill:#cf896b;"/><path d="M4008.93,1488.86c-5.007,18.806 -5.331,37.758 -1.959,56.826l40.744,-0.531c-7.687,-17.403 -6.713,-34.649 0,-51.79l-38.785,-4.505Z" style="fill:#cf896b;"/><path d="M3883.45,1251.96c0.7,-0.529 1.025,-1.419 0.832,-2.275c-1.217,-5.353 -2.992,-9.387 -4.391,-13.238c-2.647,-7.286 -5.181,-13.301 -8.879,-21.926c-1.932,-4.503 -3.823,-9.672 -6.38,-16.177c-0.754,-1.92 -1.529,-4.111 -2.311,-6.237c-0.045,-0.124 -0.115,-0.238 -0.175,-0.356c-0.509,-1 -0.758,-2.366 -1.547,-3.755c-0.327,-0.575 -0.792,-1.805 -1.199,-2.759c-1.205,-2.819 -3.224,-7.325 -5.751,-12.066c-3.066,-5.752 -6.115,-11.976 -8.413,-16.125c-0.902,-1.628 -1.793,-3.046 -2.196,-3.91c-1.165,-2.494 -3.331,-7.251 -5.756,-11.453c-0.388,-0.666 -0.741,-1.351 -1.058,-2.054c-6.58,-14.604 -12.546,-30.164 -16.522,-48.241c-0.146,-0.602 -0.332,-1.59 -0.535,-2.419c-0.358,-1.46 -0.8,-3.112 -1.114,-4.866c-0.803,-4.483 -1.828,-9.628 -2.844,-14.742c-0.287,-1.443 -0.519,-2.96 -0.789,-4.386c-0.509,-2.692 -1.051,-5.213 -1.561,-7.373c-40.342,25.872 -59.165,49.577 -20.445,66.801c-29.531,27.543 -30.799,58.749 6.329,94.932c-0,0 -19.843,34.666 -25.227,44.071c-0.349,0.609 -0.427,1.336 -0.216,2.006c0.212,0.669 0.694,1.219 1.33,1.516c42.354,19.847 76.9,9.2 108.818,-14.968Z" style="fill:#b8b99f;"/><path d="M3712.58,999.534c-7.178,17.35 -59.116,7.458 -68.241,-18.998c1.293,-15.995 0.93,-15.029 4.119,-26.6c1.534,-5.83 6.608,-10.053 9.966,-14.543c1.05,-1.405 2.504,-2.629 2.814,-4.14c11.66,-56.832 27.84,-67.062 30.341,-70.239c2.226,-2.829 11.492,-8.776 19.853,-5.875c5.471,1.898 10.629,6.444 14.185,14.474c3.917,8.843 0.517,15.057 3.834,45.323c0.044,0.442 0.276,0.843 0.636,1.102c0.361,0.259 0.816,0.349 1.248,0.249c12.28,-2.808 23.749,-2.44 35.004,1.247c0.797,0.264 1.664,-0.127 1.992,-0.9c34.313,-80.864 51.666,-76.58 51.978,21.231c9.948,16.579 14.641,35.657 15.653,47.626c0.269,3.176 0.883,6.533 0.624,9.42c-0.394,4.392 -0.509,7.738 -4.519,8.865c-1.746,0.491 -3.559,1.025 -5.137,1.454c-2.852,0.777 -5.794,1.173 -8.749,1.178c-1.524,-0.02 -3.505,-0.046 -6.031,-0.091c-5.918,-0.061 -11.284,-3.489 -13.828,-8.832c-5.119,-8.95 -14.286,-22.694 -24.824,-32.384c-11.65,-10.713 -7.061,-31.756 -18.591,-29.982c-13.67,2.103 -4.33,26.392 -9.963,30.311c-10.256,7.135 -28.302,14.395 -32.364,30.104Z" style="fill:#b8b99f;stroke:#b8b99f;stroke-width:3.13px;"/><path d="M3646.51,962.477c13.617,3.745 21.4,9.262 21.643,12.927c0.244,3.665 -7.25,5.159 -23.789,1.496c0.01,-0.378 0.142,-0.612 0.158,-1.02c0.142,-3.665 0.972,-8.686 1.988,-13.403Z" style="fill:#855b19;stroke:#855b19;stroke-width:0.54px;"/><path d="M4104.36,1498.24c-4.592,15.518 -3.986,31.743 1.01,47.261l29.314,-0.445c-4.867,-14.981 -5.247,-29.965 -0.526,-44.946l-29.798,-1.87Z" style="fill:#73726c;"/><path d="M3760.94,1013.05c-10.292,8.24 -15.445,6.762 -15.862,-4.749" style="fill:none;stroke:#000;stroke-width:3.13px;"/><path d="M3820.36,1101.35c-19.357,5.901 -27.559,11.537 -26.809,15.555c0.751,4.018 10.051,5.424 32.657,2.819l-5.848,-18.374Z" style="fill:#855b19;stroke:#855b19;stroke-width:3.33px;"/><path d="M3857.19,1184.11l-9.032,-18.225c-59.289,23.682 -60.481,37.468 9.032,18.225Z" style="fill:#855b19;stroke:#855b19;stroke-width:3.33px;"/><path d="M3873.62,1224.76c-36.109,10.665 -54.34,19.562 -53.47,23.884c0.871,4.322 20.844,4.068 61.144,-3.569l-7.674,-20.315Z" style="fill:#b8bbaa;stroke:#b8bbaa;stroke-width:3.33px;"/><path d="M3873.62,1224.76c-36.109,10.665 -54.34,19.562 -53.47,23.884c0.871,4.322 20.844,4.068 61.144,-3.569l-7.674,-20.315Z" style="fill:#855b19;stroke:#855b19;stroke-width:3.33px;"/><path d="M4280.52,1507.29c7.734,0.346 14.919,0.546 21.972,0.847c3.214,0.137 6.821,0.481 10.429,0.889c1.785,0.202 5.343,0.697 7.344,0.9c3.419,0.347 6.678,1.027 9.695,1.724c16.093,3.716 29.05,9.881 35.057,14.595c3.351,2.629 3.12,4.564 3.483,5.954c-0.244,1.758 -2.207,3.929 -6.108,5.731c-4.898,2.262 -12.824,4.089 -23.916,5.429c-1.033,0.125 -2.644,0.295 -3.73,0.41c-13.555,1.44 -32.437,2.47 -53.527,2.408c-5.566,-12.046 -5.999,-26.201 -0.699,-38.887Z" style="fill:#73726c;"/><path d="M3896.26,1286.14c-54.523,17.969 -77.02,29.319 -73.23,35.236c3.79,5.917 33.868,6.4 84.496,2.636c-2.432,-12.789 -6.216,-25.41 -11.266,-37.872Z" style="fill:#cf896b;stroke:#cf896b;stroke-width:3.13px;"/><path d="M3912.08,1365.72c-40.184,3.196 -70.934,12.713 -74.189,25.888c3.791,5.916 23.561,13.111 74.189,9.347c0.805,-11.745 0.831,-23.49 0,-35.235Z" style="fill:#cf896b;stroke:#cf896b;stroke-width:3.13px;"/><path d="M3764.81,921.229c0.003,6.982 -1.809,9.928 -4.05,9.845c-2.241,-0.083 -4.594,-4.945 -5.513,-11.988c3.289,0.359 6.486,1.041 9.563,2.143Z" style="fill:#855b19;stroke:#855b19;stroke-width:0.54px;"/><path d="M3736.92,919.358c2.69,9.099 1.28,13.679 -1.075,13.483c-2.354,-0.195 -5.295,-4.291 -5.268,-12.225l6.343,-1.258Z" style="fill:#855b19;stroke:#855b19;stroke-width:0.54px;"/><path d="M3834.14,977.429c-13.253,1.597 -19.442,5.546 -19.196,9.002c0.245,3.456 7.283,6.261 21.198,5.253c-0.205,-4.803 -0.843,-9.558 -2.002,-14.255Z" style="fill:#855b19;stroke:#855b19;stroke-width:0.54px;"/><path d="M3752.11,984.97c3.95,9.382 9.876,9.876 17.776,1.482c-2.649,3.053 -5.524,5.749 -9.992,5.944c2.424,10.685 -1.147,19.51 2.261,22.72c4.231,3.986 12.567,3.899 12.915,-6.075" style="fill:none;stroke:#000;stroke-width:3.13px;"/><path d="M3767.94,1372.31c-42.885,43.09 -50.04,114.725 10.126,143.935l-14.466,-9.403c-41.8,-2.5 -72.661,-2.733 -61.48,40.504" style="fill:none;stroke:#000;stroke-width:3.13px;"/><path d="M3738.29,1176.3c-15.525,16.643 -49.648,4.897 -65.052,15.937c-43.702,31.32 -15.264,88.809 26.505,76.723c6.74,-1.951 -5.075,-30.573 3.829,-36.243c13.833,20.521 32.697,15.889 54.247,-2.17" style="fill:none;stroke:#000;stroke-width:3.13px;"/><ellipse cx="3716.53" cy="960.756" rx="8.679" ry="7.956" style="fill:#383b36;"/><ellipse cx="3791.78" cy="964.014" rx="8.679" ry="7.956" style="fill:#383b36;"/><path d="M3911.49,1440.26c-10.792,-4.075 -22.617,-2.206 -34.718,4.191c-36.807,30.808 -53.902,69.697 -5.976,93.328c1.135,-0.07 2.356,0.078 3.166,-0.205c2.146,-0.75 3.142,-2.4 5.069,-3.181c0.386,-0.157 0.852,-0.331 1.202,-0.6c0.355,-0.272 0.595,-0.637 1.172,-0.514c8.381,1.785 20.855,6.834 29.213,9.303c9.559,2.825 20.549,3.683 29.216,3.431c-3.769,-27.301 3.297,-49.868 14.911,-65.059c-19.676,-4.91 -32.166,-7.703 -38.68,-12.073c-3.358,-2.253 -5.696,-4.218 -6.364,-7.149c-0.035,-0.155 0.29,-1.123 0.282,-1.285c-0.005,-0.115 0.264,-1.278 0.277,-1.406c0.08,-0.732 0.093,-1.6 0.261,-2.423c0.491,-2.406 0.184,-6.151 0.553,-10.375c0.082,-0.939 0.155,-1.925 0.236,-2.892c0.034,-0.41 -0.05,-0.817 0.062,-1.215c0.167,-0.601 -0.064,-1.248 0.118,-1.876Z" style="fill:#cf896b;"/><path d="M3329.48,201.714c-0.505,29.172 10.844,41.2 35.551,25.923" style="fill:none;stroke:#000;stroke-width:3.33px;"/><ellipse cx="2788.5" cy="846.556" rx="9.027" ry="9.721" style="stroke:#000;stroke-width:3.33px;"/><ellipse cx="2666.76" cy="849.796" rx="9.027" ry="9.721" style="stroke:#000;stroke-width:3.33px;"/><path d="M3189.88,1365.23c-11.491,2.815 -26.065,2.836 -41.531,-1.305c-2.143,-0.582 -4.137,-1.611 -5.853,-3.02c-18.199,-15.034 -29.284,-33.805 -34.975,-55.4c-0.153,-0.584 0.186,-1.184 0.766,-1.354c4.756,-1.399 24.244,-7.128 24.244,-7.128c16.746,26.652 35.107,49.641 57.349,68.207Z" style="fill:#fff;stroke:#000;stroke-width:3.33px;"/><path d="M3455.66,1483.55c-16.36,7.658 -24.885,22.297 -23.923,34.847c0.961,12.549 11.673,23.253 29.258,27.955c-14.114,-17.539 -16.501,-38.521 -5.335,-62.802Z" style="fill:#fff;stroke:#000;stroke-width:3.33px;"/><path d="M2698.72,1552.75c-57.007,9.926 -104.97,10.173 -144.663,9.224c-28.447,-0.681 -52.646,-0.025 -72.883,-5.889c-38.616,-11.188 -61.706,-24.58 -71.239,-61.486c-10.591,-41.003 -15.551,-107.341 26.402,-183.909c8.096,-14.775 26.276,-26.528 41.013,-38.293c-34.371,-30.562 -35.199,-79.185 -17.328,-137.877c-2.865,-4.267 -16.49,61.656 -27.026,63.689c-4.477,0.864 -20.367,-11.176 -23.203,-25.967c-3.145,-16.406 1.604,-36.969 2.365,-38.781c8.344,-19.881 27.251,-49.149 62.219,-68.353c27.639,-15.179 61.901,-22.897 89.617,-26.272c88.076,-12.375 163.13,44.489 185.333,77.992c7.621,11.5 21.405,33.153 17.428,54.793c-2.211,12.028 -6.15,22.493 -18.701,28.162c-12.932,5.841 -46.581,-66.049 -40.91,-75.81c16.874,60.911 22.903,102.228 -16.575,144.657c8.6,8.69 19.669,13.305 27.892,20.607c11.444,10.162 19.637,22.815 28.073,34.799c23.035,32.725 32.005,65.622 35.873,98.481c3.826,32.507 2.792,65.009 -19.1,91.61c-2.314,2.812 -7.465,10.073 -10.811,13.075c-6.373,5.719 -13.718,13.303 -22.923,17.178c-6.091,2.564 -12.191,5.896 -18.491,6.992c-4.452,0.774 -8.695,0.74 -12.362,1.378Z" style="fill:#fdfdeb;stroke:#000;stroke-width:3.33px;"/><path d="M2726.28,1302.07c-8.101,10.21 -18.26,17.855 -23.015,27.572c-12.852,26.264 -10.928,51.211 -5.24,72.384c5.765,21.464 15.549,39.048 40.03,50.191c12.111,5.513 27.38,6.225 42.66,3.635c1.711,-57.215 -14.173,-107.46 -54.435,-153.782Z" style="fill:#fbf250;stroke:#fbf250;stroke-width:3.13px;"/><path d="M2777.79,1400.84c-43.94,4.922 -53.856,18.534 -17.093,23.456c6.015,0.806 11.73,1.41 20.662,0.241c-0.752,-7.899 -1.954,-15.798 -3.569,-23.697Z" style="fill:#cf896b;"/><path d="M2602.55,1039.59c-15.189,123.274 19.986,186.273 107.765,196.533c0.326,-1.266 1.194,-2.582 1.703,-3.777c1.155,-2.709 2.176,-5.218 3.033,-8.123c2.362,-8.001 3.241,-16.176 3.848,-24.777c0.316,-4.486 0.512,-9.239 0.08,-13.823c-2.212,-23.484 -8.532,-36.977 -14.475,-58.103c1.077,-0.743 1.407,-4.337 1.998,-4.744c1.559,-1.074 2.526,3.157 5.758,13.91c1.103,3.671 1.693,9.041 3.271,13.404c0.801,2.214 1.108,4.475 1.975,6.785c3.544,9.444 8.487,19.708 16.632,30.937c2.609,3.597 5.342,6.274 8.763,9.231c0.698,0.603 2.488,1.317 3.549,1.372c1.329,0.068 2.117,-1.206 2.647,-1.025c2.211,-1.54 4.547,-2.675 6.341,-4.473c14.816,-14.85 14.923,-38.713 -1.502,-64.868c-3.15,-5.016 -5.998,-10.365 -10.075,-15.777c-4.014,-5.329 -9.238,-10.719 -14.762,-15.915c-8.111,-7.627 -17.708,-15.358 -27.923,-22.157c-2.152,-0.876 -3.93,-2.576 -6.095,-3.913c-3.942,-2.436 -8.228,-4.791 -11.745,-6.724c-12.096,-6.649 -22.422,-11.467 -34.072,-15.171c-16.832,-5.35 -32.383,-7.553 -46.714,-8.802Z" style="fill:#fbf250;"/><path d="M2568.28,1040.08c15.189,123.273 -23.873,188.815 -111.651,199.075c-1.427,-5.541 -3.356,-10.74 -4.398,-16.44c-1.485,-8.131 -1.793,-16.864 -1.625,-25.491c0.058,-2.967 0.122,-6.164 0.406,-9.186c2.213,-23.484 3.544,-27.623 9.487,-48.749c0.265,-0.943 1.412,-3.965 1.338,-4.679c-0.076,-0.72 -0.82,-1.865 -1.966,-1.963c-1.194,-0.102 -2.824,0.966 -4.473,6.454c-1.104,3.671 -2.325,7.398 -3.903,11.761c-0.801,2.214 -1.109,4.727 -1.976,7.037c-3.543,9.445 -6.292,20.199 -12.269,32.716c-2.027,4.244 -0.524,1.637 -3.228,4.985c-0.865,1.071 -1.851,0.657 -3.171,0.582c-1.329,-0.075 -2.247,-1.659 -2.776,-1.478c-2.211,-1.539 -4.219,-3.269 -6.013,-5.067c-8.192,-8.211 -11.19,-16.122 -11.587,-26.962c-0.228,-6.223 -0.432,-13.655 1.854,-22.043c0.104,-0.384 0.537,-1.981 0.605,-2.336c0.418,-2.163 1.126,-4.182 1.894,-6.246c0.231,-0.62 0.888,-1.713 1.082,-2.455c1.498,-5.73 3.886,-9.002 7.963,-14.414c4.014,-5.329 8.136,-13.188 13.661,-18.384c4.356,-4.097 8.888,-8.975 13.968,-13.432c4.377,-3.842 9.226,-7.306 13.955,-10.453c2.151,-0.876 7.88,-4.551 10.045,-5.889c3.942,-2.435 7.981,-4.049 11.498,-5.982c12.095,-6.649 23.409,-8.258 35.059,-11.962c16.832,-5.35 31.89,-7.75 46.221,-8.999Z" style="fill:#fbf250;"/><path d="M2450.62,1194.82c2.857,-1.289 13.787,-3.07 19.395,-1.32c18.727,5.847 23.839,18.953 -18.58,22.293c-1.209,-6.991 -1.548,-13.982 -0.815,-20.973Z" style="fill:#cf896b;"/><path d="M2527.27,1047.33c1.115,7.372 4.784,13.417 4.996,18.689c1.009,25.073 -10.59,27.237 -22.742,11.454c-3.305,-4.292 -5.771,-15.046 -9.829,-21.563c8.978,-3.5 18.165,-6.375 27.575,-8.58Z" style="fill:#cf896b;"/><path d="M2638.79,1045.46c-6.238,23.102 -3.714,36.918 2.098,39.624c4.745,2.706 14.659,-6.911 28.664,-28.247c-9.114,-4.818 -19.491,-8.5 -30.762,-11.377Z" style="fill:#cf896b;"/><path d="M2718.98,1188.14c-32.764,1.933 -43.35,10.061 -21.19,19.904c4.63,2.057 11.591,3.813 19.956,4.043c1.018,-7.275 1.51,-15.163 1.234,-23.947Z" style="fill:#cf896b;"/><path d="M2663.42,1152.28c-1.606,3.391 -4.071,5.707 -6.92,7.544c-7.626,5.048 -17.475,5.265 -25.317,0.559c-5.433,-3.217 -10.201,-6.785 -12.338,-11.668" style="fill:none;stroke:#000;stroke-width:3.33px;"/><path d="M2582.92,1221.98c-10.619,18.175 -31.752,17.926 -24.068,-1.113" style="fill:none;stroke:#000;stroke-width:3.33px;"/><path d="M2581.84,1202.49c0.233,8.688 -0.232,15.087 1.296,20.608c2.19,7.91 6.98,11.951 11.125,12.32c2.673,0.238 6.358,0.252 9.238,-3.747c1.669,-2.317 1.762,-6.192 3.49,-10.069" style="fill:none;stroke:#000;stroke-width:3.33px;"/><path d="M2592.26,1191.63c-6.128,12.77 -13.545,14.362 -22.759,0.386" style="fill:none;stroke:#000;stroke-width:3.33px;"/><path d="M2495.41,1155.75c1.606,3.391 4.071,5.707 6.92,7.544c7.626,5.048 17.475,5.265 25.317,0.558c5.434,-3.216 10.201,-6.784 12.338,-11.667" style="fill:none;stroke:#000;stroke-width:3.33px;"/><path d="M2640.73,1560.45c32.317,-0.224 73.564,-12.634 65.699,-33.753" style="fill:none;stroke:#000;stroke-width:3.33px;"/><path d="M2766.9,1364.55c-22.482,6.41 -35.869,8.06 -38.129,4.052c-2.26,-4.008 6.088,-13.481 26.038,-28.931c2.48,4.33 4.74,8.716 6.875,12.929c2.057,4.059 4.013,7.948 5.216,11.95Z" style="fill:#cf896b;"/><path d="M2538.64,1561.05c-32.317,-0.224 -73.564,-12.634 -65.698,-33.753" style="fill:none;stroke:#000;stroke-width:3.33px;"/><path d="M2218.54,1042.68c-4.367,21.058 -18.507,19.837 -17.467,-1.637" style="fill:none;stroke:#b9c9e3;stroke-width:3.33px;"/><path d="M2208.23,1057.96c-0.599,10.753 1.508,29.396 1.508,29.396c-0.734,-0.104 4.165,15.691 11.953,20.768" style="fill:none;stroke:#b9c9e3;stroke-width:3.33px;"/><path d="M2209.74,1087.35c-2.394,7.848 -5.979,14.071 -11.748,17.316" style="fill:none;stroke:#b9c9e3;stroke-width:3.33px;"/><path d="M1785.69,1326.62c67.383,-28.781 150.71,-68.826 106.653,-18.872c28.051,-9.794 53.114,-23.797 75.217,-28.652c47.008,-10.324 77.363,-9.65 91.506,-5.734c14.885,4.122 18.026,35.329 12.744,59.017c-4.624,20.741 2.58,48.159 -21.451,80.694c-9.453,12.799 -24.272,35.916 -38.996,50.935c-16.633,16.966 -47.397,29.063 -69.425,42.561c56.679,-0.148 11.564,20.44 -58.373,46.084" style="fill:none;stroke:#b9c9e3;stroke-width:3.33px;"/><path d="M2163.33,1434.41c12.374,18.614 52.389,24.472 106.948,23.616c8.779,-0.139 17.301,2.969 23.93,8.726c26.037,22.604 38.34,47.76 34.394,76.011" style="fill:none;stroke:#b9c9e3;stroke-width:3.33px;"/><path d="M1995.26,1103.77c-19.129,24.435 -29.652,51.097 -30.054,76.701" style="fill:none;stroke:#b9c9e3;stroke-width:3.33px;"/><path d="M4455.87,1300.51c22.062,-19.713 42.609,-41.843 62.798,-64.366l-7.226,61.646c-19.252,6.771 -37.256,7.187 -55.572,2.72Z" style="fill:#383b36;stroke:#000;stroke-width:3.33px;"/><path d="M1805.52,1051.96c35.605,-4.186 71.65,-22.608 96.96,-50.992c21.43,-24.033 32.518,-57.142 56.523,-74.775c4.306,-3.163 22.526,-34.013 44.916,-46.303c16.197,-8.891 37.07,0.341 42.864,1.362c40.101,7.071 -15.206,64.865 -29.1,59.269l-35.281,43.507l-51.117,85.905c-35.887,47.088 -84.237,79.315 -145.052,96.681c4.145,15.596 -3.426,34.354 -9.003,50.722c-2.888,8.474 -7.346,14.903 -4.921,22.885c17.452,57.435 10.094,137.273 32.967,195.138c9.533,24.116 16.163,54.378 31.259,73.525c5.438,6.896 25.256,3.814 31.192,8.868c9.209,7.841 9.241,22.535 9.049,37.452c-0.038,6.341 -4.782,11.666 -11.076,12.432c-6.898,0.297 -14.045,-0.401 -19.991,-0.7c-14.734,-0.742 -28.72,-1.626 -38.143,-16.062c-17.198,-26.347 -43.047,-70.299 -60.144,-124.511c-5.2,-16.489 -1.413,-34.9 -4.645,-53.05c-3.622,-20.339 -14.714,-40.436 -30.48,-58.828c23.237,26.211 31.738,55.225 32.037,83.248c0.034,3.1 0.38,6.465 0.192,9.536c-2.062,33.627 -16.394,65.873 -47.657,93.495c-15.073,13.318 -35.344,23.78 -56.364,34.456c9.771,-2.277 19.542,-6.112 29.313,-7.979c22.375,-4.276 45.189,-3.053 67.125,-7.562c12.641,-7.026 37.334,-4.397 45.361,6.435c11.651,10.723 13.914,23.379 9.266,37.459l-185.354,4.864c-86.354,2.678 -175.315,0.298 -261.593,2.553c-181.196,4.735 -365.834,16.39 -544.677,11.156c-0.741,-0.02 -1.442,-0.34 -1.944,-0.886c-6.353,-6.566 10.755,-14.144 17.73,-18.895c3.052,-2.08 6.669,-2.711 10.595,-3.913c9.743,-2.986 21.392,-4.854 31.046,-7.203c95.184,-23.161 203.384,-22.265 312.607,-28.615c41.024,-2.385 80.624,-7.849 120.246,-12.062c23.325,-2.481 46.752,-3.588 70.229,-5.902c-13.643,-32.007 -32.633,-60.627 -40.177,-90.204c-32.325,-126.724 -3.794,-239.235 89.404,-317.579c31.292,-26.305 80.408,-34.979 126.425,-52.886c19.159,-7.455 37.501,-19.891 50.822,-32.759l31.646,-45.378l20.771,-53.691c-0.943,-18.129 2.432,-36.257 10.851,-54.385c13.563,-26.925 31.403,-45.829 52.457,-58.709c5.451,-33.861 19.896,-61.169 26.9,-80.917c17.227,-48.572 31.992,-44.317 67.394,72.345c23.954,8.1 43.538,21.116 52.505,46.076c17.245,8.85 50.291,7.121 51.736,24.918c0.173,2.133 -3.966,5.722 -3.679,7.578c4.328,28.016 0.764,53.596 -39.485,78.943c-17.307,15.304 -29.896,32.181 -38.575,50.362c-12.937,16.2 -15.382,34.498 -13.93,53.576Z" style="fill:#c9d0d0;stroke:#000;stroke-width:3.33px;"/><path d="M951.387,1537.52c-13.219,0.976 -25.742,2.438 -37.493,4.64c-7.148,1.339 -14.087,2.281 -20.68,3.493c-16.088,2.957 -30.358,6.129 -42.561,9.008c-6.376,1.505 -12.136,2.39 -17.348,3.882c-0.995,0.284 -2.324,0.537 -3.266,0.771c-3.852,0.955 -6.973,1.998 -10.135,3.135c-9.126,3.282 -13.958,7.366 -17.025,10.159c-0.993,0.904 -2.188,1.508 -2.598,2.296c-0.186,0.358 -0.585,0.609 -0.859,0.94c-0.305,0.37 -0.484,0.818 -0.672,1.198c-0.424,0.859 -0.471,1.667 -0.002,2.396c0.125,0.194 0.337,0.327 0.507,0.532c0.351,0.422 1.146,0.54 2.067,0.62c1.178,0.102 2.737,0.038 4.458,0.097c5.167,0.176 12.91,0.251 23.455,0.216c12.761,-0.043 29.174,1.276 51.003,0.809c20.989,-0.449 46.924,0.541 76.9,-0.476c-7.517,-15.683 -7.98,-27.696 -5.751,-43.716Z" style="fill:#829ac2;"/><path d="M1273.78,1514.22c-0.855,19.669 1.572,38.681 7.279,57.037l-40.599,1.301c-5.274,-16.632 -6.365,-34.658 -3.764,-53.915l37.084,-4.423Z" style="fill:#829ac2;"/><path d="M1175.1,1524.25c-0.854,19.669 -0.947,31.91 4.76,50.266l-37.923,1.458c-5.273,-16.632 -5.576,-30.563 -2.975,-49.82l36.138,-1.904Z" style="fill:#829ac2;"/><path d="M1081.77,1528.6c-0.854,19.669 -0.317,31.248 5.39,49.604l-39.088,0.923c-5.273,-16.632 -5.986,-29.367 -3.385,-48.623l37.083,-1.904Z" style="fill:#829ac2;"/><ellipse cx="1539.46" cy="1499.34" rx="13.217" ry="12.015" style="fill:#829ac2;"/><ellipse cx="1404.89" cy="1497.54" rx="16.821" ry="13.817" style="fill:#829ac2;"/><ellipse cx="1626.27" cy="1435.06" rx="20.125" ry="16.22" style="fill:#829ac2;"/><ellipse cx="1491.7" cy="1443.47" rx="12.916" ry="11.414" style="fill:#829ac2;"/><ellipse cx="1385.67" cy="1426.65" rx="16.821" ry="16.22" style="fill:#829ac2;"/><ellipse cx="1379.06" cy="1333.83" rx="26.433" ry="24.931" style="fill:#829ac2;"/><ellipse cx="1538.26" cy="1356.36" rx="24.03" ry="22.829" style="fill:#829ac2;"/><ellipse cx="1656.31" cy="1233.51" rx="21.327" ry="20.726" style="fill:#829ac2;"/><ellipse cx="1469.77" cy="1272.86" rx="20.426" ry="17.422" style="fill:#829ac2;"/><ellipse cx="1543.67" cy="1205.27" rx="30.038" ry="27.935" style="fill:#829ac2;"/><ellipse cx="1415.7" cy="1191.45" rx="26.433" ry="24.331" style="fill:#829ac2;"/><path d="M1519.47,1567.63c-1.469,-8.92 0.714,-19.588 -0.922,-25.763c-6.709,-25.318 -17.669,-25.585 -23.515,1.422c-1.168,5.398 -1.21,13.318 -2.372,21.016c8.505,2.266 17.538,3.115 26.809,3.325Z" style="fill:#829ac2;"/><path d="M1429.26,1566.93c-1.933,-8.831 -0.31,-19.599 -2.265,-25.679c-8.021,-24.934 -18.981,-24.629 -23.409,2.647c-0.885,5.451 -0.514,13.362 -1.272,21.11c8.612,1.82 17.677,2.196 26.946,1.922Z" style="fill:#829ac2;"/><path d="M1969.45,915.95c4.378,5.752 10.749,9.909 13.328,14.19c10.412,17.289 3.711,23.475 -14.097,13.352c-4.149,-2.359 -7.877,-7.761 -13.632,-11.628c4.898,-4.232 9.71,-9.412 14.401,-15.914Z" style="fill:#829ac2;"/><path d="M1926.92,969.213c6.042,6.724 14.712,11.041 18.507,16.178c15.562,21.067 8.917,29.787 -15.814,17.461c-4.943,-2.463 -9.894,-8.42 -16.627,-12.327l13.934,-21.312Z" style="fill:#829ac2;"/><path d="M1658.58,1302.16c1.984,8.82 0.423,19.597 2.414,25.666c8.165,24.886 19.123,24.518 23.393,-2.783c0.854,-5.456 0.436,-13.365 1.15,-21.117c-8.622,-1.77 -17.69,-2.093 -26.957,-1.766Z" style="fill:#829ac2;"/><path d="M1736.84,1359.07c-8.084,4.045 -18.92,5.12 -24.333,8.512c-22.195,13.907 -19.203,24.454 8.323,22.038c5.502,-0.483 13.079,-2.789 20.775,-3.959c-0.354,-8.795 -2.22,-17.674 -4.765,-26.591Z" style="fill:#829ac2;"/><path d="M1734.43,1445.42c-8.857,-1.81 -18.044,-7.656 -24.395,-8.331c-26.046,-2.767 -30.206,7.377 -7.063,22.474c4.626,3.018 12.009,5.882 18.786,9.714c5.152,-7.136 9.168,-15.272 12.672,-23.857Z" style="fill:#829ac2;"/><path d="M1680.59,1510.62c-5.753,-6.973 -9.227,-17.293 -13.745,-21.809c-18.523,-18.517 -28.133,-13.24 -19.615,13.047c1.703,5.253 7.123,14.521 9.987,21.759c8.492,-2.314 15.252,-8.519 23.373,-12.997Z" style="fill:#829ac2;"/><path d="M4934.24,1142.5c-10.349,10.787 -22.978,19.945 -37.437,27.797c-5.665,-8.61 -10.754,-17.941 -15.418,-27.804c14.364,-9.87 27.223,-20.699 38.357,-32.625l14.498,32.632Z" style="fill:#72767b;"/><path d="M4847.58,1035.51c17.339,-3.279 34.823,-8.292 52.363,-13.977c0.551,10.28 1.313,20.47 3.272,30.148c-16.405,6.571 -32.735,11.746 -49.139,16.113c-2.643,-10.576 -4.856,-21.307 -6.496,-32.284Z" style="fill:#72767b;"/><path d="M1603.25,1565.39c-1.933,-8.831 -0.31,-19.599 -2.267,-25.679c-8.022,-24.933 -18.981,-24.627 -23.408,2.649c-0.885,5.451 -0.513,13.362 -1.271,21.11c8.612,1.819 17.677,2.194 26.946,1.92Z" style="fill:#829ac2;"/><path d="M1877.53,1025.56c4.889,9.549 14.44,16.072 16.558,22.729c9.487,29.821 -1.633,39.292 -22.032,18.724c-5.838,-5.886 -9.051,-17.232 -17.722,-27.502c8.108,-4.223 15.86,-8.658 23.196,-13.951Z" style="fill:#829ac2;"/><path d="M1785.36,1166.71c-39.558,4.9 -73.02,-2.986 -99.539,-16.495" style="fill:none;stroke:#000;stroke-width:3.33px;"/><path d="M1713.41,1315.69c-21.132,-20.304 -62.722,-18.373 -98.774,-7.616" style="fill:none;stroke:#000;stroke-width:3.33px;"/><path d="M1805.85,1052.06c-11.707,2.417 -21.743,0.382 -29.454,-7.854" style="fill:none;stroke:#000;stroke-width:3.33px;"/><path d="M4843.84,935.508c18.135,0.494 36.373,-0.254 54.708,-2.165l0.029,35.584c-18.536,1.98 -36.802,2.078 -54.737,-0.15l0,-33.269Z" style="fill:#72767b;"/><path d="M4887.3,808.299c-16.509,12.686 -34.282,23.606 -51.418,30.967l2.686,32.401c19.776,-2.945 39.202,-8.546 57.099,-19.321c-1.158,-14.682 -4.077,-29.365 -8.367,-44.047Z" style="fill:#72767b;"/><ellipse cx="1817.22" cy="836.77" rx="18.105" ry="16.946" style="fill:#a2dc83;"/><clipPath id="_clip6"><ellipse cx="1817.22" cy="836.77" rx="18.105" ry="16.946"/></clipPath><g clip-path="url(#_clip6)"><ellipse cx="1824.8" cy="830.776" rx="8.49" ry="8.314" style="fill:#091105;"/></g><ellipse cx="1817.22" cy="836.77" rx="18.105" ry="16.946" style="fill:none;stroke:#000;stroke-width:3.33px;"/><path d="M2442.06,584.87c-0.164,0.364 0.14,3.933 0.014,4.524c-0.128,0.604 -0.243,1.18 -0.361,1.433c-6.432,13.813 -18.542,26.538 -28.022,30.518c-6.963,2.924 -15.016,-0.045 -15.135,-12.73c-0.028,-3.002 0.976,-6.785 1.494,-11.03" style="fill:none;stroke:#000;stroke-width:3.33px;"/><path d="M1842.33,288.915c14.393,-3.388 25.955,-3.153 34.394,1.079c10.205,5.118 15.844,16.081 16.399,33.552c-33.733,4.635 -50.306,-7.253 -50.793,-34.631Z" style="fill:#73ace5;stroke:#222966;stroke-width:3.33px;"/><ellipse cx="1868.07" cy="305.488" rx="9.604" ry="9.457" style="fill:#222966;stroke:#222966;stroke-width:3.33px;"/><path d="M1773.29,1227.33c-7.319,26.867 -21.01,43.148 -32.355,56.939c-9.433,11.467 -17.837,20.514 -31.341,27.376" style="fill:none;stroke:#000;stroke-width:3.33px;"/><path d="M2055.58,287.197c-14.392,-3.388 -25.954,-3.153 -34.393,1.079c-10.206,5.118 -15.844,16.081 -16.399,33.552c33.732,4.635 50.306,-7.252 50.792,-34.631Z" style="fill:#f9e1ae;stroke:#a44a2e;stroke-width:3.33px;"/><path d="M1962.19,461.225c8.355,2.004 15.387,-0.993 20.838,-9.964" style="fill:none;stroke:#000;stroke-width:3.33px;"/><path d="M1942.21,430.974c-0.28,14.095 -8.66,28.709 -17.253,28.774" style="fill:none;stroke:#000;stroke-width:3.33px;"/><ellipse cx="2030.31" cy="304.306" rx="9.604" ry="9.457" style="fill:#a44a2e;stroke:#000;stroke-width:3.33px;"/><path d="M1391.88,492.122c-3.013,-0.723 -6.183,0.212 -8.322,2.454c-2.139,2.243 -2.922,5.454 -2.056,8.43c3.37,12.744 11.847,20.059 25.806,19.311c2.465,-0.083 4.767,-1.253 6.286,-3.197c1.519,-1.943 2.099,-4.459 1.584,-6.871c-2.006,-10.055 -10.015,-17.216 -23.298,-20.127Z" style="stroke:#000;stroke-width:3.33px;"/><path d="M1561.75,487.856c3.013,-0.724 6.184,0.211 8.322,2.454c2.139,2.242 2.922,5.454 2.056,8.429c-3.37,12.745 -11.847,20.059 -25.806,19.311c-2.465,-0.082 -4.767,-1.253 -6.286,-3.196c-1.519,-1.944 -2.099,-4.46 -1.584,-6.872c2.006,-10.054 10.015,-17.216 23.298,-20.126Z" style="stroke:#000;stroke-width:3.33px;"/><path d="M1019.65,1348.95c-25.685,45.913 -78.952,81.31 -153.19,101.713c28.789,32.953 68.488,50.535 115.382,57.977c41.804,-38.532 72.698,-33.676 99.689,17.493c-66.55,2.647 -134.515,7.381 -198.596,19.08c-50.821,-38.772 -110.906,-49.139 -138.422,-114.929c3.243,-9.713 6.653,-21.863 16.767,-31.832c17.034,-16.79 32.466,-37.117 36.726,-60.84c30.591,-10.873 53.537,-25.143 69.316,-42.6c48.083,28.843 98.485,45.668 152.328,53.938Z" style="fill:#e1a55e;stroke:#000;stroke-width:3.33px;"/><path d="M1316.07,879.956c-35.754,-5.506 -50.296,9.112 -48.903,38.848c33.543,3.827 50.601,-8.386 48.903,-38.848Z" style="fill:#496ccf;stroke:#000;stroke-width:3.33px;"/><path d="M1117.54,925.409c-35.622,1.633 -56.602,-20.516 -57.273,-50.003c-0.556,-24.46 9.695,-49.036 23.298,-76.328c9.114,-18.284 25.745,-44.924 34.467,-56.171c13.533,-17.447 22.801,-28.842 30.499,-37.581c2.505,-2.844 4.287,-5.589 6.315,-8.259c1.333,-1.754 3.196,-3.793 4.023,-5.957c2.184,6.097 4.529,12.151 6.471,17.784c7.909,22.939 13.248,43.535 15.111,72.243c0.202,3.113 4.314,15.376 4.811,18.358c0.13,0.779 0.598,1.823 0.895,2.649c0.749,2.083 1.299,4.183 2.017,6.055c2.258,5.895 4.676,10.98 7.045,16.331c2.881,6.504 6.929,15.299 9.725,21.247c1.86,3.956 2.011,5.17 3.899,8.409c-0.285,-0.854 -1.339,-0.083 -2.586,0.157c-15.169,2.915 -87.901,57.567 -88.717,71.066c-0.068,0.228 -0.115,0.327 -0.138,0.291c-0.029,-0.042 0.019,-0.141 0.138,-0.291Z" style="fill:#788197;"/><path d="M503.541,1478.16c18.217,-1.205 34.787,-4.842 49.617,-11.046c8.151,25.832 22.202,50.674 50.185,67.369c23.769,-6.533 40.667,-3.95 49.703,6.699c4.5,5.303 10.605,15.44 9.546,24.482c-0.309,2.632 -2.19,5.072 -6.297,6.273c-0.072,0.021 -0.147,0.033 -0.222,0.035c-22.642,0.501 -45.221,0.749 -67.788,0.95c-3.614,0.033 -7.127,-1.189 -9.94,-3.457c-14.278,-11.644 -26.368,-24.547 -37.762,-37.829c-14.346,-16.724 -26.538,-34.262 -37.042,-53.476Z" style="fill:#788197;"/><path d="M1291.34,882.338c0.911,-0.003 1.677,7.463 1.708,16.662c0.032,9.199 -0.682,16.67 -1.594,16.674c-0.911,0.003 -1.676,-7.463 -1.707,-16.663c-0.032,-9.199 0.682,-16.67 1.593,-16.673Z" style="stroke:#000;stroke-width:3.33px;"/><path d="M4154.55,1393.94c45.486,18.405 65.109,28.696 61.557,32.037c-4.831,6.125 -32.647,3.417 -72.972,-9.307c4.269,-7.745 8.203,-15.369 11.415,-22.73Z" style="fill:#72767b;"/><path d="M1161.81,880.87c35.754,-5.506 50.295,9.113 48.902,38.849c-33.543,3.826 -50.601,-8.386 -48.902,-38.849Z" style="fill:#496ccf;stroke:#000;stroke-width:3.33px;"/><path d="M1239.83,924.993c-3.062,-0.358 -8.016,-0.272 -10.172,1.383c-33.77,25.914 -22.115,67.609 8.744,66.053c8.184,-0.922 14.341,-2.114 18.545,-6.366c20.792,-21.031 0.226,-58.605 -17.117,-61.07" style="fill:#788197;stroke:#000;stroke-width:3.33px;"/><path d="M1247.12,971.892c-1.12,-2.277 -2.747,-4.364 -4.678,-6.337c-1.945,-2.027 -5.084,-2.312 -7.363,-0.67c-2.905,2.062 -5.247,4.347 -6.53,7.085" style="fill:none;stroke:#000;stroke-width:3.33px;"/><path d="M1248.21,933.113c-6.606,11.837 -13.213,12.196 -19.819,0.312" style="fill:none;stroke:#000;stroke-width:3.33px;"/><path d="M1238.45,942.158l0.239,21.542" style="fill:none;stroke:#000;stroke-width:3.33px;"/><path d="M454.189,1477.84c-13.174,7.608 -23.258,10.245 -38.338,8.963c7.257,18.822 15.732,36.457 25.906,52.609c1.797,2.852 3.46,5.704 5.366,8.462c0.851,1.233 1.667,2.549 2.541,3.762c0.224,0.311 0.495,0.435 0.721,0.745c0.337,0.463 0.548,1.079 0.877,1.543c3.148,4.437 6.101,8.736 9.822,12.843c0.311,0.344 0.225,0.747 0.534,0.975c0.323,0.238 0.499,0.439 0.712,0.758c0.465,0.695 1.06,1.314 1.551,1.776c0.993,0.936 2.001,1.647 3.273,2.228c0.33,0.151 0.681,0.283 1.039,0.439c0.313,0.138 0.638,0.251 0.97,0.336c0.245,0.061 0.486,0.144 0.729,0.207c0.752,0.195 1.591,0.202 2.348,0.301c1.996,0.26 4.02,0.32 5.951,0.548c1.361,0.161 2.724,0.177 4.05,0.32c31.654,3.419 53.282,1.587 52.748,-16.728c-1.348,-10.965 -12.855,-17.309 -31.416,-20.869c-3.455,-0.663 -8.481,-0.386 -12.293,-0.94c-2.397,-0.348 -3.832,-0.731 -5.918,-2.205c-1.388,-0.982 -2.664,-2.192 -3.865,-3.852c-0.567,-0.784 -1.162,-1.731 -1.972,-2.504c-0.193,-0.184 -0.209,-0.386 -0.347,-0.613c-0.046,-0.075 -0.251,-0.215 -0.298,-0.291c-2.149,-3.528 -4.86,-7.431 -7.281,-11.353c-7.732,-12.524 -13.139,-26.184 -17.41,-37.46Z" style="fill:#788197;"/><path d="M1186.53,883.252c-0.911,-0.003 -1.676,7.463 -1.708,16.662c-0.031,9.2 0.683,16.671 1.594,16.674c0.911,0.003 1.676,-7.463 1.708,-16.662c0.031,-9.2 -0.683,-16.671 -1.594,-16.674Z" style="stroke:#000;stroke-width:3.33px;"/><path d="M473.054,1406.56c-0,-0 -0.431,-5.455 -0.903,-11.438c-0.698,-8.849 4.182,-17.199 12.235,-20.933c77.94,-35.935 99.382,-113.431 62.59,-233.747" style="fill:none;stroke:#000;stroke-width:3.33px;"/><path d="M1227.85,1305.87c-4.638,-7.259 -6.82,-14.986 -4.843,-23.505" style="fill:none;stroke:#000;stroke-width:3.33px;"/><path d="M1283.49,1008.85c-17.709,20.304 -41.463,43.003 -59.475,23.88" style="fill:none;stroke:#000;stroke-width:3.33px;"/><path d="M1896.26,873.525c-0.707,-4.172 -4.502,-7.099 -8.717,-6.723c-5.719,0.459 -13.785,1.178 -20.005,1.732c-6.9,0.614 -13.091,4.486 -16.664,10.42c-15.148,24.836 3.548,43.455 1.562,59.586c-0.27,2.317 -1.032,4.549 -2.237,6.546c-2.38,4.006 -13.366,22.215 -13.366,22.215c7.203,-9.508 13.791,-15.543 20.457,-21.187c2.546,-2.155 5.269,-3.821 8.042,-5.891c0.842,-0.629 2.311,-1.763 3.336,-2.27c21.727,-10.733 31.549,-39.256 27.592,-64.428Z" style="fill:#fff;"/><path d="M1440.39,394.757c-17.837,-66.03 -34.157,-119.118 -48.672,-158.277c-13.682,-36.912 -22.94,-59.651 -31.185,-72.977c-7.052,-11.399 0.289,-18.638 -6.494,-12.404c-7.986,7.339 -23.047,37.282 -37.175,65.99c-52.839,107.37 -91.369,278.191 9.899,273.517c25.598,-45.538 58.784,-84.173 113.627,-95.849Z" style="fill:#5f6b88;stroke:#000;stroke-width:3.33px;"/><path d="M1823.17,884.827c0.125,-1.548 -0.706,-3.016 -2.099,-3.704c-1.392,-0.688 -3.063,-0.457 -4.217,0.582c-15.313,14.215 -21.98,33.03 -21.732,55.532c0.013,0.95 0.592,1.8 1.471,2.16c0.879,0.359 1.888,0.159 2.563,-0.509c13.807,-13.985 22.149,-31.77 24.014,-54.061Z" style="fill:#829ac2;"/><path d="M1723.87,1161.97c9.991,-37.377 12.315,-56.548 7.258,-57.883c-5.057,-1.336 -17.858,15.224 -37.149,47.977c9.1,4.493 19.179,7.831 29.891,9.906Z" style="fill:#829ac2;"/><path d="M1653.93,978.115c-0.094,-0.806 0.343,-1.58 1.083,-1.914c0.739,-0.334 1.61,-0.151 2.152,0.453c25.63,28.063 60.934,36.769 105.127,27.7c0.627,-0.129 1.272,0.125 1.644,0.646c0.372,0.522 0.401,1.214 0.075,1.765c-1.835,2.552 -1.928,5.063 -6.124,6.912c-40.509,17.84 -82.817,11.278 -102.915,-29.447c-0.944,-1.913 -1.001,-3.977 -1.042,-6.115Z" style="fill:#829ac2;"/><path d="M1619.23,1036c-17.154,-37.561 -8.595,-44.584 2.09,-19.422c1,2.355 23.12,28.153 33.442,30.084c8.138,1.522 12.901,3.448 11.163,7.716c-3.417,9.373 -29.524,7.352 -46.483,-17.898l-0.212,-0.48Z" style="fill:#829ac2;"/><path d="M1787.7,860.842c0.537,-1.539 0.012,-3.249 -1.297,-4.221c-1.309,-0.972 -3.098,-0.98 -4.416,-0.021c-20.679,14.053 -48.656,32.344 -54.452,54.375c-0.168,0.857 0.155,1.737 0.839,2.282c0.683,0.545 1.613,0.664 2.412,0.308c17.215,-8.313 46.014,-28.783 56.914,-52.723Z" style="fill:#829ac2;"/><path d="M1504.74,389.562c17.837,-66.03 27.23,-120.849 41.745,-160.008c13.683,-36.912 32.753,-59.652 40.997,-72.977c7.053,-11.4 2.597,-15.175 9.38,-8.942c7.986,7.34 13.299,32.548 24.478,62.528c38.586,103.487 90.818,263.726 3.376,266.014c-25.599,-45.538 -65.134,-74.939 -119.976,-86.615Z" style="fill:#5f6b88;stroke:#000;stroke-width:3.33px;"/><path d="M1820.05,1051.42c-3.328,31.406 -7.84,47.636 -13.271,49.607c-5.43,1.971 -11.659,-14.332 -19.601,-47.521c8.513,1.879 15.97,1.325 22.642,-0.196c3.707,-0.844 7.533,-0.313 10.23,-1.89Z" style="fill:#829ac2;"/><path d="M1803.98,1030.18c-6.772,5.11 -14.342,9.874 -26.929,12.455c5.7,6.039 14.276,10.154 26.53,8.126c-0.632,-4.987 -0.23,-15.341 0.399,-20.581Z" style="fill:#fff;"/><path d="M1587.8,1099.77c-9.508,-23.215 -13.163,-36.04 -10.65,-39.342c2.242,-2.946 10.393,-6.147 13.556,1.011c1.522,3.445 5.888,20.752 17.146,36.852c11.616,16.611 30.302,32.012 43.078,34.492c7.349,1.427 5.472,8.665 5.753,9.494c-1.889,7.534 -39.382,9.856 -68.657,-41.957l-0.226,-0.55Z" style="fill:#829ac2;"/><path d="M1896.05,867.129c-3.882,-2.039 -2.528,-4.041 -3.338,-6.863c-0.809,-2.821 -1.986,-4.867 -0.189,-8.352c8.308,4.289 9.294,9.919 3.527,15.215Z" style="fill:#e984e4;"/><path d="M4786.95,728.268c15.547,4.111 30.749,9.332 46.558,21.274c-3.775,18.392 -12.033,35.97 -24.568,52.769c-6.152,-5.401 -13.192,-9.817 -22.283,-12.412c5.202,-20.544 4.647,-41.087 0.293,-61.631Z" style="fill:#72767b;"/><path d="M4706.05,736.892c17.907,19.82 32.391,40.472 40.643,62.641c-7.783,5.795 -14.533,11.848 -20.228,18.164c-17.155,-21.764 -38.503,-40.786 -62.443,-58.114c12.124,-8.335 26.25,-15.661 42.028,-22.691Z" style="fill:#72767b;"/><path d="M4748.96,945.602c-37.273,10.614 -61.785,19.243 -64.661,24.506c-2.877,5.264 15.881,7.162 65.147,4.314l-0.486,-28.82Z" style="fill:#72767b;"/><path d="M4645.99,964.812c-0.565,0.486 -1.356,0.612 -2.044,0.325c-0.688,-0.287 -1.156,-0.937 -1.208,-1.681c-4.081,-56.488 -24.096,-90.581 -56.324,-71.25c-1.67,1.001 -2.07,-3.41 -2.408,-5.343c-1.102,-6.293 -6.732,-12.002 -8.977,-17.621c-3.813,-9.539 -5.916,-14.441 -12.247,-22.086c-14.502,-17.511 -38.534,-33.589 -66.939,-41.256c-1.203,-0.32 -1.982,-1.484 -1.819,-2.719c2.022,-13.92 34.135,-7.083 46.524,-2.926c66.698,22.381 110.364,82.365 114.222,143.592c0.682,10.818 -3.127,16.09 -8.78,20.965Z" style="fill:#72767b;"/><path d="M4604,1069.41c55.628,-12.093 91.433,-11.996 95.639,-6.218c4.205,5.777 -23.191,17.235 -93.966,27.866c-0.756,-7.018 -1.368,-14.179 -1.673,-21.648Z" style="fill:#72767b;"/><path d="M4611.25,1148.55c14.964,0.087 28.498,-2.698 38.685,-2.197c41.886,2.056 42.776,14.709 -2.417,24.98c-9.032,2.053 -20.496,-0.715 -33.192,1.516l-3.076,-24.299Z" style="fill:#72767b;"/><path d="M4628.44,1246.54c34.991,-6.96 59.512,-10.675 65.219,-7.922c5.707,2.752 -9.328,12.384 -57.303,32.942c-3.032,-8.025 -5.653,-16.379 -7.916,-25.02Z" style="fill:#72767b;"/><path d="M4402.77,1023.05c1.853,-3.975 4.685,-7.413 8.23,-9.993c34.706,-24.882 73.837,-31.552 89.949,-49.548c28.017,-31.292 15.689,-56.466 -26.562,-63.754c-16.981,-2.929 -39.419,2.997 -65.693,6.081c-4.178,0.448 -8.292,-1.287 -10.888,-4.592c-2.595,-3.304 -3.306,-7.713 -1.88,-11.665c2.306,-6.448 10.077,-7.78 21.722,-5.48c5.015,0.905 10.181,0.448 14.959,-1.325c75.48,-27.962 113.277,-0.914 121.141,38.389c4.401,21.995 -4.858,46.342 -48.57,81.03c-5.414,4.313 -12.007,6.883 -18.912,7.372c-40.36,2.85 -73.515,13.987 -84.584,50.522c-9.008,39.833 -19.099,72.407 -31.378,90.329c-7.417,10.867 -21.386,15.126 -33.605,10.245c-29.136,-11.514 -41.049,-29.995 -48.7,-47.613c-14.063,-32.381 -3.289,-61.844 19.918,-38.954c6.728,6.636 4.525,21.211 6.95,29.437c0.198,0.673 0.413,1.325 0.643,1.956c2.167,6.016 7.374,10.424 13.666,11.568c6.292,1.145 12.717,-1.147 16.864,-6.015c25.144,-29.714 43.422,-59.803 56.73,-87.99Z" style="fill:#72767b;"/><path d="M4340.11,1015.93c-0.092,1.637 0.871,3.15 2.393,3.759c1.522,0.61 3.263,0.179 4.326,-1.07c25.983,-30.091 57.299,-52.844 93.403,-69.014c1.194,-0.524 1.893,-1.779 1.711,-3.07c-0.182,-1.291 -1.2,-2.304 -2.493,-2.478c-63.604,-8.657 -96.293,15.753 -99.34,71.873Z" style="fill:#72767b;"/><path d="M4963.97,1185.55c6.009,6.701 11.668,12.957 17.508,18.046c8.679,7.562 16.084,13.396 20.858,17.836c0.434,0.403 1.68,2.641 2.09,3.089c1.501,1.637 2.901,3.669 4.014,5.18c1.233,1.674 2.493,3.178 3.32,4.777c11.685,22.61 1.619,27.475 -33.186,11.704c-1.297,-0.587 -2.887,-1.267 -4.253,-1.911c-8.05,-3.792 -16.193,-9.125 -23.905,-15.175c-2.815,-2.209 -5.738,-4.268 -8.412,-6.677c-1.873,-1.686 -7.411,-6.733 -9.457,-8.262l31.423,-28.607Z" style="fill:#72767b;"/><ellipse cx="1522.04" cy="1103.14" rx="27.034" ry="26.133" style="fill:#829ac2;"/><path d="M4150.15,1273.23c-0.977,0.035 -1.815,0.711 -2.056,1.659c-0.241,0.948 0.172,1.942 1.014,2.44c37.069,21.63 75.877,16.328 116.653,-19.287c0.578,-0.503 0.731,-1.34 0.368,-2.015c-0.362,-0.675 -1.145,-1.009 -1.883,-0.804c-36.997,10.142 -74.966,16.397 -114.096,18.007Z" style="fill:#72767b;"/><path d="M4021.38,1109.11c12.904,6.668 19.678,19.045 18.642,20.568c-1.036,1.523 -9.92,9.407 -24.534,3.123c1.407,-7.897 3.404,-15.794 5.892,-23.691Z" style="fill:#72767b;"/><path d="M4038.06,1251.09c29.687,1.149 43.434,1.581 40.288,11.261c-4.159,6.593 -11.587,11.363 -45.185,6.608c1.037,-5.956 2.705,-11.913 4.897,-17.869Z" style="fill:#72767b;"/><path d="M4116.77,1454.62c27.492,15.502 39.941,26.569 37.734,30.109c-2.207,3.54 -19.476,-0.763 -50.611,-15.373c4.561,-4.777 8.797,-9.717 12.877,-14.736Z" style="fill:#72767b;"/><path d="M4025.2,1364.95c30.03,13.471 43.483,23.696 39.116,28.964c-3.607,5.464 -19.508,4.315 -48.268,-13.561l9.152,-15.403Z" style="fill:#72767b;"/><path d="M3990.82,1419.21c27.492,15.502 30.923,22.906 28.716,26.446c-2.207,3.54 -10.503,5.696 -41.638,-8.914l12.922,-17.532Z" style="fill:#72767b;"/><path d="M4032.89,1306.84c31.556,0.586 51.373,7.309 51.111,11.472c-0.261,4.164 -11.677,4.494 -46.015,6.422c-2.415,-5.793 -3.763,-11.74 -5.096,-17.894Z" style="fill:#72767b;"/><path d="M4015.35,1179.02c7.657,-2.687 30.547,-6.154 33.154,0.341c1.557,3.879 -4.203,18.271 -28.363,18.938c-2.49,-6.761 -4.226,-13.24 -4.791,-19.279Z" style="fill:#72767b;"/><path d="M4247.17,1325.6c0.367,-0.365 0.418,-0.94 0.121,-1.364c-0.296,-0.424 -0.854,-0.573 -1.323,-0.354c-29.139,13.485 -57.945,16.076 -86.382,6.499c-0.623,-0.219 -1.313,0.029 -1.654,0.594c-0.341,0.566 -0.239,1.292 0.245,1.741c28.902,27.284 58.62,22.683 88.993,-7.116Z" style="fill:#72767b;"/><path d="M4162.32,1052.24c-6.608,11.689 -10.845,20.304 -13.393,19.611c-2.547,-0.693 -2.855,-8.217 -0.503,-23.854c5.005,0.743 9.642,2.148 13.896,4.243Z" style="fill:#72767b;"/><path d="M4132.9,1047.34c-1.22,12.76 -2.213,23.051 -4.398,23.366c-2.186,0.314 -4.887,-6.023 -8.171,-19.868c4.19,-1.845 8.379,-3.308 12.569,-3.498Z" style="fill:#72767b;"/><path d="M4274.94,1105.6c-21.534,12.232 -32.407,20.909 -31.72,25.734c0.687,4.824 12.934,5.795 37.637,2.614l-5.917,-28.348Z" style="fill:#72767b;"/><path d="M4271.22,1184.72c-10.855,-10.804 -23.125,-12 -29.451,-8.977c-7.704,3.683 -2.779,10.997 20.507,24.665l8.944,-15.688Z" style="fill:#72767b;"/><path d="M4137.92,1045.66c-2.472,-19.581 0.674,-37.407 9.707,-53.393" style="fill:none;stroke:#000;stroke-width:3.13px;"/><path d="M4525.53,1091.13c3.943,0.545 7.507,2.638 9.904,5.816c2.397,3.178 3.43,7.179 2.871,11.12c-0.674,5.224 -2.423,9.635 -7.15,10.667c-25.544,5.576 -66.733,6.526 -77.57,34.784c-16.175,42.178 -43.25,69.224 -72.367,82.825c-33.53,9.308 -45.165,5.677 -52.829,2.743c-7.969,-3.051 -48.987,-39.78 -45.712,-44.338c3.892,-5.414 60.628,21.735 69.012,16.004c38.51,3.229 56.546,-11.456 58.815,-39.938c0.507,-6.016 2.202,-11.872 4.985,-17.23c13.203,-25.216 31.832,-45.595 57.595,-59.633c19.309,-5.334 36.541,-4.973 52.446,-2.82Z" style="fill:#72767b;"/></svg>