<?xml version="1.0" encoding="UTF-8" standalone="no"?><!DOCTYPE svg PUBLIC "-//W3C//DTD SVG 1.1//EN" "http://www.w3.org/Graphics/SVG/1.1/DTD/svg11.dtd"><svg width="100%" height="100%" viewBox="0 0 512 512" version="1.1" xmlns="http://www.w3.org/2000/svg" xmlns:xlink="http://www.w3.org/1999/xlink" xml:space="preserve" xmlns:serif="http://www.serif.com/" style="fill-rule:evenodd;clip-rule:evenodd;stroke-linejoin:round;stroke-miterlimit:2;"><path d="M370.947,34.84c-5.074,2.526 -9.692,8.045 -14.038,12.045c-11.105,10.22 -21.698,21.151 -32.091,32.435c-33.52,36.394 -63.939,81.813 -80.698,133.216c-9.08,27.855 -13.426,56.881 -18.235,86.123c-5.286,32.149 -6.252,71.228 3.299,102.271c5.343,17.367 17.745,32.168 33.845,24.893c8.536,-3.856 13.978,-12.93 15.407,-23.816c1.964,-14.966 1.088,-30.307 1.449,-45.444c0.098,-4.1 0.294,-8.649 0.6,-12.689c0.841,-11.091 1.03,-22.28 2.097,-33.373c4.975,-51.712 11.965,-105.152 32.021,-151.792c11.282,-26.24 25.191,-50.924 40.046,-74.282c7.377,-11.599 16.08,-22.441 22.95,-34.449c3.812,-6.664 1.784,-19.337 -6.652,-15.138Z" style="fill:#e6e6e6;fill-rule:nonzero;"/><rect x="14.196" y="361.599" width="53.289" height="59.611" style="fill:#e6e6e6;"/><path d="M310.063,381.715c-1.467,-3.117 0.153,-9.548 0.203,-12.79c0.205,-13.331 1.015,-28.163 3.253,-41.258l178.056,-0c4.654,-0 9.763,0.804 13.779,3.902c1.573,1.214 2.743,2.835 3.608,4.721c4.56,6.229 2.921,13.16 3.038,21.591c0.384,27.717 0,66.139 0,66.139l0,60.248c0,15.868 -13.385,28.22 -29.254,28.22l-452.864,0c-8.184,0 -16.032,-3.25 -21.818,-9.037c-5.787,-5.786 -8.064,-15.636 -8.064,-23.819l0,-118.033c0.752,-0 0.002,-1.033 0,-1.176c-0.097,-8.705 0.611,-19.907 7.78,-25.439c4.016,-3.098 8.392,-7.069 13.047,-7.069l35.828,0l136.508,0.474c-5.173,7.144 -4.474,19.547 -1.056,44.792c0.011,0.084 0.018,0.167 0.02,0.249l0.155,-0.04c4.985,26.238 11.092,55.377 32.571,71.856c24.117,18.504 57.137,11.15 73.727,-15.274c9.281,-14.783 10.958,-30.931 10.958,-48.33l0.525,0.073Z" style="fill:#e6e6e6;fill-rule:nonzero;"/><ellipse cx="139.33" cy="380.728" rx="8.048" ry="8.285" style="fill:#d8ece0;"/><ellipse cx="53.664" cy="406.401" rx="14.994" ry="15.435" style="fill:#d8ece0;"/><ellipse cx="144.668" cy="453.464" rx="20.442" ry="21.043" style="fill:#d8ece0;"/><ellipse cx="374.04" cy="466.222" rx="8.048" ry="8.285" style="fill:#d8ece0;"/><ellipse cx="459.707" cy="440.549" rx="14.994" ry="15.435" style="fill:#d8ece0;"/><ellipse cx="368.703" cy="393.486" rx="20.442" ry="21.043" style="fill:#d8ece0;"/></svg>