<?xml version="1.0" encoding="UTF-8" standalone="no"?><!DOCTYPE svg PUBLIC "-//W3C//DTD SVG 1.1//EN" "http://www.w3.org/Graphics/SVG/1.1/DTD/svg11.dtd"><svg width="100%" height="100%" viewBox="0 0 2255 305" version="1.1" xmlns="http://www.w3.org/2000/svg" xmlns:xlink="http://www.w3.org/1999/xlink" xml:space="preserve" xmlns:serif="http://www.serif.com/" style="fill-rule:evenodd;clip-rule:evenodd;stroke-linejoin:round;stroke-miterlimit:2;"><g><path d="M211.983,60.626c-18.371,-18.089 -38.722,-27.134 -61.05,-27.134c-21.198,0 -41.549,8.056 -61.051,24.166c-24.59,20.35 -41.548,46.636 -50.875,78.857c-3.392,11.588 -5.088,21.198 -5.088,28.83c0,7.631 0.283,13.566 0.848,17.806c0,27.982 9.469,49.462 28.406,64.442c17.806,13.85 40.559,20.774 68.258,20.774c37.873,-3.109 74.193,-17.665 108.958,-43.668c9.61,-7.348 19.785,-14.414 30.525,-21.198c3.957,0 7.985,0.565 12.083,1.696c4.098,1.131 6.148,4.381 6.148,9.751c-27.982,24.307 -51.583,41.831 -70.802,52.572c-35.613,19.219 -67.834,28.829 -96.664,28.829c-1.978,-0 -3.815,-0 -5.511,-0c-31.373,-0 -58.224,-9.751 -80.553,-29.253c-23.742,-20.633 -35.613,-46.354 -35.613,-77.162c0,-23.176 4.169,-45.364 12.507,-66.562c8.338,-21.198 19.785,-39.923 34.341,-56.175c14.556,-16.252 31.797,-29.182 51.723,-38.792c19.927,-9.61 41.337,-14.415 64.231,-14.415c19.502,0 32.221,2.685 38.156,8.055c7.349,6.501 11.023,19.361 11.023,38.581Z" style="fill:#45a86e;fill-rule:nonzero;"/><path d="M320.094,215.372c-0,-33.352 14.415,-60.203 43.244,-80.553c22.894,-16.11 50.451,-25.861 82.673,-29.253l11.871,-0c6.218,-0 14.556,1.837 25.013,5.511c23.177,7.914 39.005,21.905 47.484,41.973c3.392,7.914 5.088,14.626 5.088,20.138c-0,5.511 -0.142,9.398 -0.424,11.659c-0,35.33 -13.426,63.17 -40.277,83.52c-24.872,18.655 -55.963,27.982 -93.271,27.982c-26.851,-0 -47.131,-6.218 -60.839,-18.654c-13.708,-12.437 -20.562,-33.211 -20.562,-62.323Zm29.253,10.175c0,17.524 4.664,29.395 13.991,35.613c7.066,4.522 18.937,6.783 35.613,6.783c16.676,0 31.373,-1.271 44.092,-3.815c12.719,-2.544 24.024,-6.925 33.917,-13.143c21.198,-13.567 31.797,-34.624 31.797,-63.17c0,-16.959 -4.522,-30.808 -13.567,-41.549c-9.892,-11.588 -22.894,-17.382 -39.004,-17.382c-11.023,1.978 -22.117,4.098 -33.281,6.359c-11.165,2.261 -21.693,6.642 -31.586,13.143c-21.48,13.85 -35.471,39.57 -41.972,77.161Z" style="fill:#45a86e;fill-rule:nonzero;"/><path d="M719.042,203.077c0,-33.634 -1.837,-58.365 -5.511,-74.193c2.261,-4.24 -1.131,-6.36 -10.175,-6.36c-9.61,0 -22.046,2.403 -37.309,7.208c-15.263,4.805 -27.699,9.61 -37.309,14.414c-22.894,11.023 -35.612,21.764 -38.156,32.222l-0,115.317l-28.406,0c-3.674,-9.609 -5.511,-36.602 -5.511,-80.976c-0,-39.57 0.777,-68.682 2.332,-87.337c1.554,-18.654 2.755,-29.253 3.603,-31.797c7.349,-4.805 13.284,-7.207 17.807,-7.207c7.066,-0 10.599,8.338 10.599,25.014c-0,6.5 -0.354,12.789 -1.06,18.866c-0.707,6.077 -1.06,10.246 -1.06,12.507c45.788,-33.635 81.259,-50.452 106.415,-50.452c28.546,0 44.798,23.036 48.755,69.106c1.696,16.111 2.544,38.439 2.544,66.986l-0.424,33.493c0,12.436 0.283,24.449 0.848,36.037c-2.826,1.696 -5.088,2.544 -6.783,2.544c-0.848,-0.283 -2.686,-0.707 -5.512,-1.272c-2.826,-0.565 -6.501,-0.989 -11.023,-1.272c-2.826,-11.306 -4.381,-22.823 -4.664,-34.553c-0.282,-11.73 -0.424,-22.541 -0.424,-32.433l0.424,-25.862Z" style="fill:#45a86e;fill-rule:nonzero;"/><path d="M1165.9,140.755l11.871,-0c4.805,-0 9.398,0.424 13.779,1.272c4.38,0.848 6.571,3.957 6.571,9.327c1.978,11.305 -4.664,16.817 -19.926,16.534c-4.24,-0.282 -8.126,-0.565 -11.659,-0.848c-3.533,-0.282 -6.43,-0.353 -8.692,-0.212c-2.261,0.142 -3.25,0.919 -2.967,2.332c2.826,8.197 5.865,17.383 9.115,27.558c3.25,10.175 6.854,20.35 10.811,30.525c10.175,25.155 19.785,43.244 28.829,54.267c-4.804,5.936 -10.387,10.882 -16.746,14.839c-6.36,3.957 -9.751,5.935 -10.175,5.935c-0.424,0 -0.777,-0.141 -1.06,-0.424l-59.779,-125.916l-115.742,28.405l-4.239,17.807c-8.197,32.503 -17.383,55.115 -27.558,67.834c-1.696,2.826 -5.229,3.109 -10.599,0.847c-9.044,-3.391 -13.567,-6.218 -13.567,-8.479c0,-0.565 2.968,-8.762 8.904,-24.59c5.935,-15.828 11.941,-31.867 18.018,-48.119c6.077,-16.252 12.436,-33.281 19.078,-51.088c6.642,-17.806 12.931,-34.765 18.867,-50.875c5.935,-16.111 11.305,-30.596 16.11,-43.456c4.805,-12.861 8.197,-22.188 10.175,-27.982c1.979,-5.794 3.321,-10.882 4.028,-15.263c0.707,-4.381 1.767,-8.126 3.18,-11.235c2.826,-6.5 9.892,-9.751 21.198,-9.751c12.153,6.784 21.551,15.616 28.193,26.498c6.642,10.882 12.295,22.541 16.959,34.977c4.663,12.436 9.256,25.014 13.779,37.732c4.522,12.719 10.599,24.308 18.23,34.765c2.544,3.957 6.359,6.077 11.447,6.36c5.088,0.282 9.61,0.424 13.567,0.424Zm-105.991,-91.576c-2.261,17.241 -7.349,34.906 -15.262,52.995c-7.914,18.089 -14.274,32.151 -19.079,42.184c-4.805,10.034 -8.903,19.291 -12.295,27.77c19.22,-0 42.821,-5.653 70.802,-16.959c7.066,-3.109 13.849,-5.935 20.35,-8.479c-13.284,-56.811 -28.123,-89.315 -44.516,-97.511Z" style="fill:#45a86e;fill-rule:nonzero;"/><path d="M1257.9,289.142c-11.589,4.805 -19.291,7.207 -23.106,7.207c-3.816,-0 -6.43,-0.424 -7.844,-1.272c-1.413,-0.848 -2.967,-2.826 -4.663,-5.935c-0,-9.328 0.353,-21.057 1.06,-35.189c0.706,-14.132 1.342,-29.254 1.908,-45.364c0.565,-16.111 0.847,-32.363 0.847,-48.756c0,-16.393 -0.847,-31.373 -2.543,-44.94c-0,-9.044 6.076,-13.567 18.23,-13.567c2.826,0 5.017,5.088 6.571,15.263c1.555,10.175 2.686,18.089 3.392,23.742c0.707,5.653 1.343,9.751 1.908,12.295c7.349,-13.284 21.905,-23.742 43.668,-31.374c11.588,-3.674 22.47,-5.511 32.645,-5.511c10.175,-0 19.149,1.201 26.922,3.604c7.772,2.402 14.415,6.783 19.926,13.142c5.512,6.36 8.267,14.769 8.267,25.226c7.349,-13.849 23.884,-26.285 49.604,-37.308c23.459,-10.458 44.516,-15.687 63.17,-15.687c26.851,-0 39.994,10.175 39.429,30.525l8.903,157.714c0,1.413 -4.098,2.403 -12.295,2.968c-15.828,1.131 -23.742,-0.283 -23.742,-4.24c-0.282,-5.652 -0.424,-11.305 -0.424,-16.958l2.12,-68.258c0,-31.939 -3.109,-57.235 -9.327,-75.889c-18.654,1.413 -32.998,4.451 -43.032,9.115c-10.034,4.663 -18.867,10.458 -26.498,17.382c-7.631,6.925 -14.415,16.182 -20.35,27.77c-13.284,26.003 -19.926,60.485 -19.926,103.447c-1.696,5.935 -7.208,8.903 -16.535,8.903c-6.218,-0 -11.306,-1.06 -15.263,-3.18c-3.956,-2.12 -5.511,-4.027 -4.663,-5.723c5.37,-29.96 8.055,-53.278 8.055,-69.954c0,-13.284 -1.342,-25.932 -4.027,-37.945c-2.686,-12.012 -6.007,-25.791 -9.964,-41.336c-40.7,-0 -68.116,16.252 -82.248,48.756c-6.218,14.414 -9.681,27.91 -10.387,40.488c-0.707,12.578 -1.06,23.318 -1.06,32.221c-0,8.903 0.424,18.443 1.272,28.618Z" style="fill:#45a86e;fill-rule:nonzero;"/><path d="M1571.21,215.372c-0,-33.352 14.415,-60.203 43.244,-80.553c22.894,-16.11 50.452,-25.861 82.673,-29.253l11.871,-0c6.218,-0 14.556,1.837 25.013,5.511c23.177,7.914 39.005,21.905 47.484,41.973c3.392,7.914 5.088,14.626 5.088,20.138c-0,5.511 -0.142,9.398 -0.424,11.659c-0,35.33 -13.426,63.17 -40.277,83.52c-24.872,18.655 -55.963,27.982 -93.271,27.982c-26.851,-0 -47.131,-6.218 -60.839,-18.654c-13.708,-12.437 -20.562,-33.211 -20.562,-62.323Zm29.253,10.175c0,17.524 4.664,29.395 13.991,35.613c7.066,4.522 18.937,6.783 35.613,6.783c16.676,0 31.373,-1.271 44.092,-3.815c12.719,-2.544 24.024,-6.925 33.917,-13.143c21.198,-13.567 31.797,-34.624 31.797,-63.17c0,-16.959 -4.522,-30.808 -13.567,-41.549c-9.892,-11.588 -22.894,-17.382 -39.004,-17.382c-11.023,1.978 -22.117,4.098 -33.281,6.359c-11.165,2.261 -21.693,6.642 -31.585,13.143c-21.481,13.85 -35.472,39.57 -41.973,77.161Z" style="fill:#45a86e;fill-rule:nonzero;"/><path d="M2012.98,141.179c-11.871,-8.48 -27.134,-12.719 -45.788,-12.719c-17.524,-0 -33.776,3.25 -48.756,9.751c-28.264,11.871 -47.625,27.134 -58.083,45.788c-4.522,8.479 -6.783,17.524 -6.783,27.134l-0,14.202c-0,7.773 1.413,18.231 4.239,31.373c2.827,13.143 4.24,26.498 4.24,40.065c-5.935,0.283 -10.74,0.989 -14.415,2.12c-3.674,1.13 -6.783,1.696 -9.327,1.696c-2.544,-0 -4.734,-1.131 -6.571,-3.392c-1.837,-2.261 -3.887,-6.642 -6.148,-13.143c-0.282,-1.696 -0.848,-6.501 -1.696,-14.415c-0.847,-7.914 -1.907,-17.523 -3.179,-28.829c-1.272,-11.306 -2.685,-23.671 -4.24,-37.097c-1.554,-13.425 -3.038,-26.639 -4.452,-39.64c-3.109,-28.264 -5.511,-49.039 -7.207,-62.323c0,-6.783 4.946,-10.175 14.839,-10.175c5.935,0 10.599,2.473 13.991,7.419c3.391,4.947 6.076,10.6 8.055,16.959c1.978,6.359 3.321,12.648 4.027,18.866c0.707,6.218 1.343,10.599 1.908,13.143c37.309,-33.352 83.662,-50.027 139.06,-50.027c6.218,-0 12.719,0.141 19.502,0.424c1.696,-0.283 3.816,-0.424 6.36,-0.424c2.543,-0 5.087,1.695 7.631,5.087c3.109,3.957 4.664,8.762 4.664,14.415c-0,14.132 -3.957,22.046 -11.871,23.742Z" style="fill:#45a86e;fill-rule:nonzero;"/><path d="M2130.84,266.248c24.873,-0 62.323,-11.306 112.35,-33.917c3.109,-0 5.653,1.06 7.632,3.179c1.978,2.12 2.967,4.593 2.967,7.42c-11.305,19.219 -32.927,34.199 -64.866,44.94c-31.938,10.74 -61.757,12.577 -89.456,5.511c-31.373,-8.196 -50.452,-25.861 -57.235,-52.995c-0.565,-5.37 -0.848,-12.578 -0.848,-21.622c0,-9.045 2.332,-20.986 6.996,-35.825c4.663,-14.839 12.648,-28.9 23.953,-42.184c11.306,-13.284 24.59,-23.742 39.853,-31.373c15.263,-7.632 31.514,-11.447 48.756,-11.447c16.393,-0 34.764,5.652 55.115,16.958c9.609,5.37 17.241,11.447 22.894,18.23c5.652,6.784 8.479,13.709 8.479,20.775c-0,1.978 -0.141,3.957 -0.424,5.935c-0.565,17.241 -8.903,28.123 -25.014,32.645c-7.066,1.979 -15.263,2.968 -24.59,2.968l-61.05,-2.544c-20.35,0 -35.896,4.381 -46.636,13.143c-6.218,4.805 -10.599,12.012 -13.143,21.622c7.066,25.72 25.155,38.581 54.267,38.581Zm75.677,-131.005c-6.359,-4.522 -12.93,-7.772 -19.714,-9.751c-6.783,-1.978 -12.436,-2.968 -16.958,-2.968c-4.523,0 -11.871,1.484 -22.046,4.452c-10.175,2.968 -19.22,6.289 -27.134,9.963c-19.502,9.045 -29.253,18.513 -29.253,28.406c22.611,1.978 39.57,2.967 50.875,2.967c31.373,0 52.572,-2.685 63.595,-8.055c6.783,-2.826 10.175,-6.359 10.175,-10.599c-0,-5.088 -3.18,-9.892 -9.54,-14.415Z" style="fill:#45a86e;fill-rule:nonzero;"/></g></svg>